<svg id="Ass1" xmlns="http://www.w3.org/2000/svg" viewBox="0 0 1801 2046">

  <g>
    <path d="M734.92,1820.24c5.86,2.81,12.08,4.78,18,7.49,20.87,9.57,36.66,27.82,57.13,38.22,29.82,15.14,63.73,29.16,93.92,43.56-2.44-10.77-10.09-34.93-19.75-40.29a269.11,269.11,0,0,0-25.67-12.51c-7.26-3.07-14.75-5.87-21.16-10.47-4.41-3.15-8.22-7.09-12.64-10.23-10.4-7.38-23.59-9.93-34.15-17.08-5.78-3.92-10.59-9.1-16-13.57-7.82-6.52-16.8-11.51-25.94-16-20.06-9.91-41.27-17.74-63.28-21.79,3.43,9.92,7.22,22.46,15.59,29.35C711.32,1805.41,722.82,1814.43,734.92,1820.24Z" fill="#040706" opacity="0.22"/>
    <path d="M1078.15,1802.22c-5.23,3.84-11,6.91-16.3,10.65-18.75,13.24-36.69,24.67-54.9,38.64-26.54,20.37-57.14,33.42-84.18,53.12.43-11.05,9.11-19.84,17.62-26.88a268.46,268.46,0,0,1,23-17c6.57-4.35,13.42-8.48,18.88-14.17,3.75-3.91,6.77-8.48,10.54-12.37,8.87-9.17,21.37-14.1,30.44-23.07,5-4.91,8.75-10.88,13.21-16.26,6.5-7.85,14.41-14.39,22.56-20.5,17.91-13.43,37.32-25,58.21-33-1.55,10.38,36.73,3.88,29.77,12.18C1138.34,1763.78,1089,1794.28,1078.15,1802.22Z" fill="#040706" opacity="0.22"/>
    <g>
      <path d="M931,1906.51l-27,3s-89.19-62.59-121-80C754.52,1814,664.45,1777,664.45,1777c0-1,1.4-96.72-7-141.41l-.9-4.83,123.21,36.91,64.94,18,33.4,9.41,130.17-22.45,92.88-24,32.3-7.8.43,3.32c0,.39,5,38.92,11.85,58.39,4.81,13.74,6.37,30.36,7.5,42.49C1153.8,1750.56,1038.35,1797.09,931,1906.51Z" fill="#e0924b" stroke="#040706" stroke-miterlimit="10" stroke-width="6"/>
      <circle cx="1284.45" cy="1763.01" r="20.5" fill="#040706"/>
    </g>
    <path d="M666,1661.83l94.16,28.07,47.3,14.1c15.06,4.49,30.17,9,45.87,10.65,30.52,3.11,60.77-4.88,89.79-13.4,14.84-4.36,29.63-8.9,44.66-12.58s30.15-6.7,45.31-9.62c30.12-5.78,60.44-11.13,89.79-20.24q5.42-1.68,10.77-3.54c3.63-1.25,2.07-7-1.59-5.79-28.91,10-59,15.86-89,21.57-14.89,2.84-29.78,5.65-44.57,9-15,3.33-29.68,7.37-44.35,11.72-29,8.59-58.62,18-89.22,17.59-15.72-.23-30.86-3.76-45.88-8.13-15.41-4.49-30.78-9.16-46.16-13.74l-93.71-27.94L667.54,1656c-3.71-1.11-5.29,4.68-1.59,5.79Z" fill="#040706"/>
    <path d="M856.83,1710.39c-6.43,7.25-11.17,15.86-15.74,24.34-2.34,4.35-4.62,8.73-7,13s-5,8.41-7.53,12.59a115.19,115.19,0,0,0-8,15.17,65.21,65.21,0,0,0-4.55,16.67c-1.6,11.66-.73,23.49-2.33,35.13a26.91,26.91,0,0,1-.73,3.68c-.07.25-.15.51-.23.76s-.33.88-.2.57-.32.63-.43.82-.85,1.1-.24.43c-.18.2-.36.41-.55.61s-.71.65-1,1c-3,3-2,7.37-1.15,11.1a3,3,0,1,0,5.78-1.59c-.14-.61-.28-1.22-.39-1.84-.06-.29-.11-.58-.16-.88,0-.07-.09-.62,0-.13,0-.39-.08-.78-.09-1.17,0-.18.06-1.26,0-.73s.12-.27.12-.39c0-.42-.22.73,0,.09s-.45.42,0,0c.15-.15.29-.31.45-.46a14.67,14.67,0,0,0,4.31-7.83c1.2-5.55,1.39-11.39,1.6-17s.29-11.49.8-17.21a65.7,65.7,0,0,1,3.35-16.06,85.69,85.69,0,0,1,7.12-14.56c2.56-4.36,5.36-8.57,7.86-13,2.33-4.09,4.52-8.26,6.73-12.42,4.87-9.13,9.81-18.84,16.61-26.5a3.08,3.08,0,0,0,0-4.25,3,3,0,0,0-4.24,0Z" fill="#040706"/>
    <path d="M927.41,1710.13a150.91,150.91,0,0,1,45.61,48c11.34,19.12,17.93,40.84,17.91,63.07a60.51,60.51,0,0,1-.43,7.5c.09-.7,0,.17,0,.26l-.12.76c-.09.55-.2,1.09-.31,1.62-.21,1-.46,2.06-.73,3.07-1.42,5.45-3,10.83-4.23,16.34a3,3,0,1,0,5.78,1.59c2-9.17,5.52-18.11,6-27.55A115.81,115.81,0,0,0,993,1790.2c-5.78-22.32-17.65-42.83-33.08-59.86A160.32,160.32,0,0,0,930.44,1705a3,3,0,0,0-3,5.18Z" fill="#040706"/>
    <path d="M680.45,1643a37.05,37.05,0,0,0-3.36,14,3,3,0,0,0,3,3,3.07,3.07,0,0,0,3-3c0-.53,0-1,.09-1.58,0-.26.05-.52.08-.78s.07-1,0-.21a18,18,0,0,1,.56-3c.24-1,.52-2,.84-2.93.17-.5.35-1,.55-1.48a3.45,3.45,0,0,1,.25-.63q-.24.55,0,.09l.18-.41a3.26,3.26,0,0,0,.3-2.31,3,3,0,0,0-1.38-1.79c-1.31-.7-3.41-.45-4.1,1.07Z" fill="#040706"/>
    <path d="M692.08,1653.8a14.68,14.68,0,0,1,1,3.62c0-.26-.07-.53-.11-.79a14.27,14.27,0,0,1,0,3.75c0-.27.08-.54.11-.8l0,.13a2.33,2.33,0,0,0,0,1.2,2.21,2.21,0,0,0,.36,1.11,3,3,0,0,0,4.1,1.08,2.88,2.88,0,0,0,1.38-1.79,17.44,17.44,0,0,0,.14-4.62,17.15,17.15,0,0,0-1.08-4.48,3.31,3.31,0,0,0-1.38-1.8,3.1,3.1,0,0,0-2.31-.3,3,3,0,0,0-1.79,1.38,2.85,2.85,0,0,0-.31,2.31Z" fill="#040706"/>
    <path d="M707.44,1655a23.37,23.37,0,0,1-.18,3.13c0-.27.07-.54.11-.8a21.23,21.23,0,0,1-1.28,4.89,3,3,0,0,0,.3,2.31,3,3,0,0,0,4.11,1.08,3.48,3.48,0,0,0,1.37-1.8,23,23,0,0,0,1.57-8.81,3,3,0,1,0-6,0Z" fill="#040706"/>
    <path d="M853.68,1693.23a51.8,51.8,0,0,0-.46,13.16,5.82,5.82,0,0,0,1.47,3.69,5.5,5.5,0,0,0,3.77,1.4,14.53,14.53,0,0,0,6.28-1.09,3.37,3.37,0,0,0,1.79-1.38,3,3,0,0,0,.3-2.31c-.45-1.39-2.13-2.74-3.69-2.1a13.09,13.09,0,0,1-2.3.73,2.41,2.41,0,0,1-.63.12c.24,0,.39,0,0,0s-.76,0-1.15,0c-.21,0-.42,0-.64,0-.54,0,.39.13.07,0-.16,0-.41-.21-.13,0s.51.27.69.54l.15.32c-.06-.28-.07-.29,0,0,0,.44,0-.08,0-.17,0-.46-.07-.93-.1-1.39a49.35,49.35,0,0,1-.06-5.16c0-.84.1-1.68.17-2.51,0-.47.1-.93.15-1.39,0-.26,0-.34,0,0l.12-.83a3.08,3.08,0,0,0-2.1-3.69c-1.42-.33-3.43.43-3.69,2.09Z" fill="#040706"/>
    <path d="M910,1691.84l.52.49c.06.06.49.57.22.24s.13.19.17.27.24.4.35.61c.3.54-.13-.5.07.15,0,.18.12.37.18.56s.1.38.14.57.05.86,0,.15c0,.4,0,.8,0,1.21,0,.24,0,.48,0,.72,0-.4.06-.3,0,0a9.9,9.9,0,0,1-.33,1.3c0,.07-.26.71-.11.32s-.16.32-.2.4a11.6,11.6,0,0,1-.75,1.21c-.32.45.13-.11-.11.12s-.28.33-.43.49a14.26,14.26,0,0,1-1.06,1c-.17.14-.47.35-.12.11l-.66.45a16.67,16.67,0,0,1-2.6,1.4c.4-.17,0,0-.16,0l-.63.22c-.51.18-1,.33-1.54.46a3,3,0,0,0,1.59,5.79c4.74-1.25,9.72-4.08,11.86-8.7s1.76-10.42-2.18-13.87a3,3,0,1,0-4.24,4.24Z" fill="#040706"/>
    <path d="M862.45,1701.15l34,.48c3.86,0,3.86-6,0-6l-34-.48c-3.86-.05-3.86,5.95,0,6Z" fill="#040706"/>
    <path d="M876.46,1703.48a71,71,0,0,1,7.58.24l1.75.16,1,.12.44.06h.07l1.73.26c.07,0,.73.05.76.14-.41-.19-.46-.2-.18,0-.63-.81-.84-1-.64-.56-.13-.51-.27-1-.41-1.52l.3-1.1a3,3,0,0,0,1.07,4.11,3.08,3.08,0,0,0,4.11-1.08c1.56-2.22-.35-4.86-2.56-5.56a14.75,14.75,0,0,0-2.3-.4l-3-.39a74,74,0,0,0-9.76-.45,3,3,0,0,0,0,6Z" fill="#040706"/>
    <path d="M871.46,1708.17c2.21.07,4.43.23,6.63.48l.77.09c.15,0,1.09.12.37,0,.52,0,1,.15,1.54.23,1.12.18,2.23.38,3.34.6a3,3,0,1,0,1.59-5.78,86.33,86.33,0,0,0-14.24-1.67,3,3,0,0,0,0,6Z" fill="#040706"/>
    <path d="M945.1,1687.3a12,12,0,0,1,.45,2l-.11-.79a12.05,12.05,0,0,1,0,2.94c0-.27.07-.53.11-.8l0,.09a2.33,2.33,0,0,0,0,1.2,2.21,2.21,0,0,0,.36,1.11,3,3,0,0,0,4.1,1.08l.61-.47a2.94,2.94,0,0,0,.77-1.32,14.86,14.86,0,0,0,.17-3.33,15.17,15.17,0,0,0-.6-3.28,3.21,3.21,0,0,0-1.38-1.79,3,3,0,0,0-4.41,3.39Z" fill="#040706"/>
    <path d="M969.55,1682.81l.48,2a2.27,2.27,0,0,0,.53,1,2.23,2.23,0,0,0,.84.77,2.28,2.28,0,0,0,1.12.36,2.23,2.23,0,0,0,1.2-.06l.71-.3a3,3,0,0,0,1.08-1.07l.3-.72a3.1,3.1,0,0,0,0-1.6c-.16-.66-.32-1.33-.47-2a2.39,2.39,0,0,0-.54-1,2.15,2.15,0,0,0-.84-.77,3.37,3.37,0,0,0-2.31-.31l-.72.31a3,3,0,0,0-1.08,1.07l-.3.72a3.06,3.06,0,0,0,0,1.59Z" fill="#040706"/>
    <path d="M1001.45,1680.51c3.86,0,3.87-6,0-6s-3.87,6,0,6Z" fill="#040706"/>
    <path d="M1036.45,1675c3.86,0,3.87-6,0-6s-3.87,6,0,6Z" fill="#040706"/>
    <path d="M1065.45,1663.51c3.86,0,3.87-6,0-6s-3.87,6,0,6Z" fill="#040706"/>
    <path d="M1073.45,1666c3.86,0,3.87-6,0-6s-3.87,6,0,6Z" fill="#040706"/>
    <path d="M1085.45,1660h1a2.32,2.32,0,0,0,1.16-.25,2.7,2.7,0,0,0,1.58-1.59,2.2,2.2,0,0,0,.26-1.16l-.11-.79a3,3,0,0,0-.77-1.33l-.61-.47a3.05,3.05,0,0,0-1.51-.41h-1a2.32,2.32,0,0,0-1.16.26,2.25,2.25,0,0,0-1,.62,2.28,2.28,0,0,0-.62,1,2.19,2.19,0,0,0-.26,1.15c0,.27.07.54.11.8a3,3,0,0,0,.77,1.33l.61.46a2.86,2.86,0,0,0,1.51.41Z" fill="#040706"/>
    <path d="M1096,1662.08l1.5-1a2.15,2.15,0,0,0,.84-.77,2.2,2.2,0,0,0,.54-1,2.33,2.33,0,0,0,.05-1.2,2.23,2.23,0,0,0-.35-1.11l-.47-.61a3,3,0,0,0-1.33-.77l-.79-.11a3,3,0,0,0-1.52.41l-1.5,1a3.44,3.44,0,0,0-1.38,1.8,3.37,3.37,0,0,0,.31,2.31l.46.6a3,3,0,0,0,1.33.78l.8.1a3,3,0,0,0,1.51-.41Z" fill="#040706"/>
    <path d="M1107.45,1655c3.86,0,3.87-6,0-6s-3.87,6,0,6Z" fill="#040706"/>
    <path d="M839.81,1812.7c-.4,3.91-.92,7.89-.22,11.76,1,5.36,4.22,10,7.86,14.09,9.14,10.18,21.17,17.49,30,27.91,3.52,4.14,6.64,8.85,11.35,11.55,6.61,3.8,15.14,2.77,21.91-.73s12.15-9.13,17.37-14.68,10.54-11.23,17.24-14.87,14.88-5.15,21.07-9.87c3.22-2.46,5.78-5.7,9-8.19s7.47-4.2,11.31-2.88a25.88,25.88,0,0,1-7.42,23.18c-4.82,4.6-11.26,7.14-16.36,11.42-4.55,3.81-7.86,8.86-11.75,13.35-8.19,9.44-18.88,16.31-29.41,23a27.84,27.84,0,0,1-7.45,3.78c-4.87,1.34-10.13-.06-14.58-2.44s-8.31-5.72-12.45-8.61c-14.89-10.38-25.7-14.81-41.34-24-6.7-3.94-9.05-8-15-13-6.66-5.59-9.53-8.24-15-15,6.89-7.82-.75-20.14,1.7-30.28,2.73-11.31-.58-24.17,5.35-34.17,2.57-5.16,8.78-9.67,13.72-12.25C841.57,1778.23,841.57,1795.53,839.81,1812.7Z" fill="#d98647"/>
    <path d="M741.22,1678.26q1.08-2.71,2.17-5.43a3,3,0,0,0-.31-2.31,3,3,0,0,0-4.1-1.08l-.61.47a3,3,0,0,0-.77,1.32q-1.08,2.73-2.17,5.44a3,3,0,0,0,4.41,3.39l.61-.47a3,3,0,0,0,.77-1.33Z" fill="#040706"/>
    <path d="M766.9,1681.82a9.87,9.87,0,0,1,.55-1.75l-.3.72a9.84,9.84,0,0,1,1.3-2.24l-.47.61a9.64,9.64,0,0,1,1-1.11,3,3,0,0,0,0-4.24,3,3,0,0,0-2.12-.88,3.12,3.12,0,0,0-2.12.88,12.83,12.83,0,0,0-3.64,6.42,3.15,3.15,0,0,0,.31,2.31,3,3,0,0,0,5.48-.72Z" fill="#040706"/>
    <path d="M784.13,1672.24,782,1679.7a3,3,0,0,0,5.79,1.6q1.05-3.73,2.12-7.47a3,3,0,1,0-5.78-1.59Z" fill="#040706"/>
    <path d="M802,1681.52c0,.25,0,.5-.07.75,0-.27.07-.53.1-.8a11.32,11.32,0,0,1-.76,2.79l.3-.72a11.15,11.15,0,0,1-1.4,2.41l.47-.6c-.13.17-.27.33-.41.5a3.22,3.22,0,0,0-.88,2.12,3,3,0,0,0,3,3,3,3,0,0,0,2.13-.88,16.83,16.83,0,0,0,1.48-2,15.11,15.11,0,0,0,1.11-2.29,13.73,13.73,0,0,0,.93-4.29,3,3,0,0,0-.88-2.12,3.06,3.06,0,0,0-2.12-.88,3,3,0,0,0-2.12.88,3.32,3.32,0,0,0-.88,2.12Z" fill="#040706"/>
    <path d="M811,1699.58l11-11a3,3,0,1,0-4.25-4.24l-11,11a3,3,0,0,0,4.24,4.25Z" fill="#040706"/>
    <path d="M833.07,1698l1-2a3.45,3.45,0,0,0,.3-2.31,2.2,2.2,0,0,0-.54-1,2.25,2.25,0,0,0-.84-.78l-.71-.3a3.1,3.1,0,0,0-1.6,0l-.72.3a3,3,0,0,0-1.07,1.08l-1,2a2.28,2.28,0,0,0-.36,1.12,2.23,2.23,0,0,0,.06,1.2,2.27,2.27,0,0,0,.53,1,2.39,2.39,0,0,0,.84.77l.72.3a3.1,3.1,0,0,0,1.6,0l.71-.3a3.1,3.1,0,0,0,1.08-1.08Z" fill="#040706"/>
    <path d="M686.74,1711.19c-3.73,14-5.21,30,2.72,42.24,1.9,2.93,4.3,5.54,5.92,8.63,2.55,4.87,3,10.53,4.08,15.92s3.22,11,7.87,14c-4.76-3.58-11.18-3.63-17-4.75a43.86,43.86,0,0,1-23.08-12.46,4.13,4.13,0,0,1-1.31-2.07,5,5,0,0,1,.89-3c4.9-9.3,2.79-20.52,3.11-31,.35-11.75,3.88-23.14,7.48-34.33,1.84-5.71,3.7-12,1.6-17.58-2.23-6-8.23-9.49-13.8-12.54l4.71-7.92a7.32,7.32,0,0,0-9-1.83c5.37,11.26,25.5-2.84,32.19,7.89,2.77,4.45,1.33,10.74.25,15.44C691.7,1695.06,690.07,1704.52,686.74,1711.19Z" fill="#d98647"/>
    <path d="M663.75,1692.1a29.14,29.14,0,0,0,9.07,8.85,116,116,0,0,0,11.43,6.64,143,143,0,0,0,25.45,10.17c3.71,1.09,5.3-4.7,1.59-5.78a135.29,135.29,0,0,1-23.61-9.37c-3.7-1.89-7.33-3.93-10.82-6.17-3.06-2-6-4.22-7.93-7.37s-7.19-.29-5.18,3Z" fill="#040706"/>
    <path d="M665.3,1726.57a58,58,0,0,0,28.35,20.36,3,3,0,1,0,1.59-5.79,51,51,0,0,1-24.75-17.6,3.11,3.11,0,0,0-4.11-1.08c-1.27.75-2.06,2.81-1.08,4.11Z" fill="#040706"/>
    <path d="M665.93,1757.75c5,2,9.33,6,13.63,9.41,4.65,3.73,9.63,7.3,15.6,8.47a3.09,3.09,0,0,0,3.69-2.09,3,3,0,0,0-2.1-3.7c-5.4-1.06-9.85-4.4-14.08-7.83-4.75-3.86-9.41-7.74-15.14-10-1.5-.61-3.3.66-3.69,2.1a3.08,3.08,0,0,0,2.09,3.69Z" fill="#040706"/>
    <path d="M1101.33,1719.56c-2.06,2.82-4.5,5.53-5.36,8.91-.76,3-.2,6.16-.76,9.19-1.12,6-6.36,10.29-10.85,14.47a90.5,90.5,0,0,0-19,25.2,24.54,24.54,0,0,0,22.74,2.31c7.83-3.25,13.33-10.29,20-15.5,9.11-7.08,20.46-10.75,29.79-17.54,2.22-1.61,4.42-3.58,5.07-6.23,1.14-4.66-2.82-8.8-5.28-12.92-9.43-15.75,2.48-36.78-3.62-54.09-.9-2.54-2.3-5.07-4.65-6.37-4.43-2.44-14.19-2.24-18.37.81-4.47,3.26-3.33,7.9-2.45,12.66C1111.18,1694.2,1109.82,1708,1101.33,1719.56Z" fill="#d98647"/>
    <path d="M1138.75,1681.31c-5.48,4.62-11,9.28-17.49,12.49-6.3,3.12-13.56,4-19.5,7.89a3.07,3.07,0,0,0-1.07,4.11,3,3,0,0,0,4.1,1.08,36.22,36.22,0,0,1,9.43-4.07,68.67,68.67,0,0,0,10.46-4c6.74-3.43,12.57-8.38,18.31-13.23a3,3,0,0,0,0-4.24,3.06,3.06,0,0,0-4.24,0Z" fill="#040706"/>
    <path d="M1138.43,1697.92l-13.58,9.3-6.69,4.58c-2.21,1.51-4.51,2.87-6.12,5a3,3,0,0,0,1.07,4.11,3.08,3.08,0,0,0,4.11-1.08,8,8,0,0,1,1.94-1.51l3.24-2.22,6.29-4.3,12.77-8.74a3.08,3.08,0,0,0,1.08-4.11,3,3,0,0,0-4.11-1.08Z" fill="#040706"/>
    <path d="M1145.79,1722.27c-12.5,7.28-21.56,19.54-34.86,25.56-3.47,1.56-7.46,2.92-9.15,6.67a3.1,3.1,0,0,0,1.08,4.11,3,3,0,0,0,4.1-1.08,4.91,4.91,0,0,1,2.58-2.53c1.37-.74,2.82-1.28,4.24-1.91a51.81,51.81,0,0,0,9.09-5.34c5.78-4.15,11-9,16.45-13.56a71.9,71.9,0,0,1,9.5-6.74c3.33-1.94.32-7.13-3-5.18Z" fill="#040706"/>
    <path d="M937.38,1899.93a78.27,78.27,0,0,1,8.92-21c3.9-6.41,9-11.85,13.48-17.83a45.24,45.24,0,0,0,6.32-11.16,3,3,0,0,0-2.09-3.69,3.05,3.05,0,0,0-3.69,2.09c-2.55,6.69-7.61,12.06-12,17.53a84.47,84.47,0,0,0-16.7,32.51c-1,3.74,4.81,5.33,5.79,1.59Z" fill="#040706"/>
    <path d="M882.8,1883.9a48,48,0,0,0-8.14-10.82c-3.36-3.53-6.83-6.95-10.26-10.42l-21.24-21.48L831,1828.92c-2.72-2.75-7,1.5-4.24,4.25,14,14.14,28,28.23,42,42.43,3.38,3.45,6.64,7,8.86,11.33a3,3,0,0,0,5.19-3Z" fill="#040706"/>
    <path d="M874.1,1850.37A202.21,202.21,0,0,0,852,1828.43a3.08,3.08,0,0,0-4.24,0,3,3,0,0,0,0,4.24,202.12,202.12,0,0,1,22.05,21.94,3,3,0,0,0,4.25-4.24Z" fill="#040706"/>
    <path d="M950.57,1858.64q10.7-9,20.5-19a3,3,0,0,0-4.24-4.25q-9.8,10-20.5,19a3,3,0,0,0,0,4.25,3.08,3.08,0,0,0,4.24,0Z" fill="#040706"/>
    <path d="M1009.05,1729.92c8.6-2.41,16.23-7.35,23.63-12.35q18.32-12.36,36-25.7a140.52,140.52,0,0,0-17.9,16.5l15.55-4.84a405.58,405.58,0,0,1-48.68,41.62c-5.58,4-11.43,8-18.13,9.68-3.51.86-7.39,1-10.57-.71s-5.3-5.7-4-9.07c1.09-2.85,4.08-4.41,6.83-5.73l26.13-12.5" fill="#e5b085"/>
  </g>
</svg>
