<svg id="Ass2" xmlns="http://www.w3.org/2000/svg" viewBox="0 0 1801 2046">
  <title>ass1</title>
  <g>
    <path d="M951.18,2049.34l-5-32.43c-1.48-13.13-6.78-49.4-13.44-59.41-7-10.53-12.2-30.86-15.9-51.24l1.57,58.31-5.88,79.71L663,2048.94l2.66-4.61c.16-.27,16-28.11,14.1-57.8l-2.28-35.25,4.1,1.17c.12,0,12.78,3.5,21.45-2.57,12.71-8.89,13.41-23.73,2.1-44.09l-.53-1,.21-1.07c.06-.31,5.85-30.57,3-43.8-.48-2.22-.79-4.7-1.16-7.58-2-15.47-5.31-41.38-41.9-73.81l-1-.91,0-1.38c0-1,1.4-96.72-7-141.4l-.9-4.84L779.11,1667l64.94,18,33.4,9.41,130.17-22.45,92.88-24,32.3-7.79.43,3.31c0,.39,5,38.92,11.85,58.4,4.81,13.73,6.37,30.35,7.51,42.48a115.73,115.73,0,0,0,1.57,12.78c1.83,7.31,10.41,18.81,10.49,18.93l.71,1-.13,1.18c0,.26-2.88,27.23,3,71.27,4.52,33.94,18.45,80.72,27.67,111.68,3,10,5.56,18.64,7.25,24.94,7,26.17,5.18,58.59,5.1,60l-.17,2.81Zm1-33.16,4.18,27.15,246.05-.49c.28-8.46.6-34.34-5-55.22-1.68-6.22-4.24-14.83-7.21-24.79-9.27-31.14-23.28-78.19-27.87-112.6-5.36-40.16-3.63-65.82-3.12-71.54-2.23-3.09-9-12.9-10.82-20.13a114.28,114.28,0,0,1-1.73-13.67c-1.11-11.82-2.62-28-7.19-41.06-5.9-16.87-10.32-46.37-11.7-56.3l-25.76,6.22-93.2,24-131.62,22.7-34.7-9.77-65-18L663.54,1638.6c7,43.75,6.36,124.85,6.23,136.41,37.3,33.49,40.76,60.45,42.84,76.62.35,2.74.65,5.11,1.08,7.08,2.8,13.09-1.74,39.4-2.79,45.12,16.34,30.17,4.29,44.86-4.43,51-7.66,5.37-17.16,5-22.47,4.25l1.75,27.1c1.58,24.52-7.88,47.16-12.49,56.6l233.7-4.35,5.45-74-3.16-117.51,6-.31c.07.83,6.57,83.59,22.51,107.57C946.49,1967.33,951.84,2013.45,952.15,2016.18Z" fill="#040706" stroke="#040706" stroke-miterlimit="10" stroke-width="6"/>
    <g>
      <path d="M1126.23,1762c3.1,19,9.64,37.29,16.15,55.43q6.57,18.33,13.15,36.68c3.28,9.14,6.57,18.32,11.15,26.89a114.3,114.3,0,0,0,7,11.35,422.69,422.69,0,0,1-8.41-42.55c-6-45-3-72-3-72s-9-12-11-20-2-35-9-55-12-59-12-59l-23.88,5.76a359.93,359.93,0,0,1,16.16,76.66C1123.71,1738.19,1124.29,1750.2,1126.23,1762Z" fill="#474d5a"/>
      <path d="M721.25,1895.84c-7-35,13-85-9-106s-28-23-27-46c.78-17.87,4.68-75.24,6.38-99.95l-31.88-9.55c8.5,45.5,7,142,7,142,44,39,41,69,44,83s-3,45-3,45c15,27,7,41-3,48s-24,3-24,3l2,31c2,31-14.5,59.5-14.5,59.5l31.69-.59c5-17.32,12.31-44.29,12.31-55.41C712.25,1972.84,728.25,1930.84,721.25,1895.84Z" fill="#474d5a"/>
      <path d="M885.19,1985.21q1.92-32.7,3.85-65.41l2.25-38.28c2.38-40.41,4.7-81.57-5.12-120.84-2.57-10.28-6-20.43-7-31-1.12-11.18.41-22.16,2.89-33.1l-4.72.81-34-9.58-65-18-86.62-25.95c-1.7,24.71-5.6,82.08-6.38,99.95-1,23,5,25,27,46s2,71,9,106-9,77-9,94c0,11.12-7.28,38.09-12.31,55.41l171.9-3.21c.3-.47.6-.93.89-1.41C882.68,2024.28,884.06,2004.31,885.19,1985.21Z" fill="#505664"/>
      <path d="M978.43,1984.8c-4.6-17.35,2.21-35.59,1.85-53.53-.49-24.87-14.52-47.16-22.3-70.79-4.28-13-6.68-26.49-9.08-40-2.79-15.66-5.59-31.59-3.86-47.41,1.29-11.72,5.05-23.35,3.7-35.07-2.12-18.47-16.09-32.62-26.36-48.39l-40.36,7c-2.48,10.94-4,21.92-2.89,33.1,1.06,10.54,4.47,20.69,7,31,9.82,39.27,7.5,80.43,5.12,120.84L889,1919.8q-1.92,32.7-3.85,65.41c-1.13,19.1-2.51,39.07-12.46,55.42-.29.48-.59.94-.89,1.41l37.91-.7,5.66-76.84-3.16-117.66s6.44,84.08,23,109c8.52,12.81,13.92,60.74,13.92,60.74l4.58,29.76,42.42-.09a97.19,97.19,0,0,0-8.3-39.59C984.63,1999.4,980.47,1992.48,978.43,1984.8Z" fill="#474d5a"/>
      <path d="M1173.66,1892.39a114.3,114.3,0,0,1-7-11.35c-4.58-8.57-7.87-17.75-11.15-26.89q-6.58-18.35-13.15-36.68c-6.51-18.14-13.05-36.41-16.15-55.43-1.94-11.84-2.52-23.85-3.7-35.78a359.93,359.93,0,0,0-16.16-76.66l-5.12,1.24-93,24-85.87,14.81c10.27,15.77,24.24,29.92,26.36,48.39,1.35,11.72-2.41,23.35-3.7,35.07-1.73,15.82,1.07,31.75,3.86,47.41,2.4,13.47,4.8,27,9.08,40,7.78,23.63,21.81,45.92,22.3,70.79.36,17.94-6.45,36.18-1.85,53.53,2,7.68,6.2,14.6,9.44,21.86a97.19,97.19,0,0,1,8.3,39.59l209.08-.41s2-33-5-59C1195.26,1968.31,1182.66,1929.47,1173.66,1892.39Z" fill="#505664"/>
      <path d="M821.18,1682.93s-8.93,140.91-3.93,175.91,12,49,67,85,123,31.39,123,31.39-126-40.39-126-97.39-38-194-38-194Z" fill="#474d5a" opacity="0.53"/>
    </g>
    <g>
      <circle cx="1283.75" cy="1762.34" r="20.5" fill="#040706"/>
      <g>
        <g id="_Группа_" data-name="&lt;Группа&gt;">
          <g>
            <path d="M985.56,1801.79c4.45,3.72-1.94,10-6.36,6.36l-39.37-32.89q2.7-3.59,5.32-7.23Z" fill="#040706"/>
            <path d="M969.58,1711.67c2.71-5.13,10.48-.57,7.77,4.54a442.9,442.9,0,0,1-32.2,51.82l-6.93-5.79A438.91,438.91,0,0,0,969.58,1711.67Z" fill="#040706"/>
            <path d="M938.22,1762.24l6.93,5.79q-2.62,3.65-5.32,7.23l-6.91-5.78Q935.61,1765.88,938.22,1762.24Z" fill="#040706"/>
            <path d="M918,1877.82a2.26,2.26,0,0,1,0-.25c0-2.74.14-5.49.23-8.23a3.93,3.93,0,0,0-2.28-3.89c2-5.3,4-10.61,5.82-16,1.77-5.15,3.94-10.66,4.46-16.13.55-5.72,9.55-5.76,9,0-.64,6.73-2.93,13.23-5.14,19.57-2.93,8.41-6.16,16.72-9.29,25l-.47,1.25A8.27,8.27,0,0,0,918,1877.82Z" fill="#040706"/>
            <path d="M918,1880.14c.31-.4-.29,1,0-.17C918.05,1880,918.06,1880.1,918,1880.14Z" fill="#040706"/>
            <path d="M909.25,1869.34c.13-3.83,4.1-5.12,6.72-3.89l-2.51,6.63c-.67,1.78-1.36,3.56-2,5.34s-1.35,3.57-2,5.36C908,1878.73,909.14,1872.45,909.25,1869.34Z" fill="#040706"/>
            <path d="M914.6,1886.57a5.6,5.6,0,0,1-.27-.51c.27.28,1.79.16,1.79.16A2.58,2.58,0,0,1,914.6,1886.57Z" fill="#040706"/>
            <path d="M914.3,1886a.51.51,0,0,0,0,.09A.08.08,0,0,1,914.3,1886Z" fill="#040706"/>
            <path d="M914.3,1886a.08.08,0,0,0,0,.09A.51.51,0,0,1,914.3,1886Zm6.05-6.74c-1.29,3.45-2.59,6.91-3.82,10.39l-.08-.17c-.1-.2-1.28-1.9-1.85-2.86a2.58,2.58,0,0,0,1.52-.35s-1.52.12-1.79-.16a5.6,5.6,0,0,0,.27.51,6.77,6.77,0,0,1-2.88-.75,5.46,5.46,0,0,1-2.32-3c.67-1.79,1.34-3.57,2-5.36l2.11.16c.71-.3,4.09,1.69,4.48,2.39-.27,1.21.33-.23,0,.17,0,0,0-.1,0-.17l0-.12a9.2,9.2,0,0,0,0-2A8.27,8.27,0,0,1,920.35,1879.21Z" fill="#040706"/>
            <path d="M917.21,1877.55a6,6,0,0,1,.82.27,9.2,9.2,0,0,1,0,2l0,.12c-.39-.7-3.77-2.69-4.48-2.39.12,0,.28,0,.41-.08A6.58,6.58,0,0,1,917.21,1877.55Z" fill="#040706"/>
            <path d="M918,1877.82a6,6,0,0,0-.82-.27,6.58,6.58,0,0,0-3.27,0c-.13,0-.29,0-.41.08l-2.11-.16c.68-1.78,1.37-3.56,2-5.34l2.51-6.63a3.93,3.93,0,0,1,2.28,3.89c-.09,2.74-.21,5.49-.23,8.23A2.26,2.26,0,0,0,918,1877.82Z" fill="#040706"/>
            <path d="M900,1821.36c-4.09,4.12-10.45-2.25-6.36-6.37a437.1,437.1,0,0,0,39.33-45.51l6.91,5.78A445.72,445.72,0,0,1,900,1821.36Z" fill="#040706"/>
            <path d="M885,1729.42c-4.46-3.72,1.94-10.05,6.36-6.36l46.89,39.18q-2.61,3.65-5.3,7.24Z" fill="#040706"/>
          </g>
        </g>
        <path d="M1097.66,1654.9l7.46-1.78c-3.28,2-6.54,4-9.8,6a24.21,24.21,0,0,0,1.61-2.22A4.44,4.44,0,0,0,1097.66,1654.9Z" fill="#040706"/>
        <path d="M1094.18,1660.48a4.28,4.28,0,0,1,.65,2.42c-.34,31.07-2.36,62.7.7,93.66,1.53,15.54,6,30.11,9.91,45.14,3.61,13.86,5.81,28.16,1.8,42.18a4.21,4.21,0,0,1-4.62,3.15,83.36,83.36,0,0,0-2.46-14.07c1.14-11.82-1.89-23.63-5.1-35.12-2-7.14-3.84-14.24-5.36-21.41a4.19,4.19,0,0,0,1.37-5.82q-2-3.33-3.63-6.77c-.45-3-.82-6.07-1.09-9.15-2.64-29.24-1-59-.57-88.37A22.64,22.64,0,0,0,1094.18,1660.48Z" fill="#040706"/>
        <path d="M1100.16,1833a83.36,83.36,0,0,1,2.46,14.07c-2.55-.22-5-2.36-4.06-5.54A47.4,47.4,0,0,0,1100.16,1833Z" fill="#040706"/>
        <path d="M1105.12,1653.12l-7.46,1.78c.2-2.58-2.36-4.65-4.9-4.59l6.34-3.87c.91-.55,1.83-1.16,2.76-1.79" fill="#040706"/>
        <path d="M1087.44,1763.84a99.06,99.06,0,0,1-9.51-53c.55-5.76-8.45-5.73-9,0a107.18,107.18,0,0,0,14.37,64.29,4.31,4.31,0,0,0,6.4,1.28c1.52,7.17,3.37,14.27,5.36,21.41,3.21,11.49,6.24,23.3,5.1,35.12a66,66,0,0,0-5-13.1,90.72,90.72,0,0,0-4.89-8.3c-3.31-5.09-7-10-10.25-15.07a183.81,183.81,0,0,1-12.31-22.29,161,161,0,0,1-14.47-51.15,126.75,126.75,0,0,1,7-57.62,4.3,4.3,0,0,0,.3-1.66l16.83-4c-3.71,2.92-.67,8.7,4,7.84a21.89,21.89,0,0,0,4.4-1.27c-.42,29.35-2.07,59.13.57,88.37C1086.62,1757.77,1087,1760.82,1087.44,1763.84Z" fill="#4d5b79"/>
        <path d="M1093.91,1852.65a4.5,4.5,0,0,1,2.73,5.19,119.74,119.74,0,0,1-3.47,12.84q.58-4.9.74-9.89Q1094,1856.73,1093.91,1852.65Z" fill="#040706"/>
        <path d="M1095.32,1659.15c-.36.46-.74.9-1.14,1.33a2.53,2.53,0,0,0-.31-.42Z" fill="#040706"/>
        <path d="M1092.76,1650.31l-3.74,2.28a1.43,1.43,0,0,0,.14-.2A4.29,4.29,0,0,1,1092.76,1650.31Z" fill="#040706"/>
        <path d="M1088,1855.45c.67-3.15,3.64-3.81,6-2.8q.13,4.08,0,8.14-.15,5-.74,9.89v0a121.86,121.86,0,0,1-13.79,28.57c-3.17,4.83-11,.32-7.77-4.54A114.4,114.4,0,0,0,1088,1855.45Z" fill="#040706"/>
        <path d="M1093.87,1660.06c-2.69,1.68-5.37,3.36-8.07,5l0-2.18C1085.89,1658.3,1091.57,1657.36,1093.87,1660.06Z" fill="#040706"/>
        <path d="M1098.56,1841.49c-.91,3.18,1.51,5.32,4.06,5.54a120.84,120.84,0,0,1-.82,26.84,129.53,129.53,0,0,1-18.52,51.26c-2.49,4-8.09,1.75-8.45-1.87q4.5-3.91,8.7-8.17c2.43-2.46,1.15-5.71-1.15-7.07a119.78,119.78,0,0,0,10.79-37.32v0a119.74,119.74,0,0,0,3.47-12.84,4.5,4.5,0,0,0-2.73-5.19,76,76,0,0,0-3.22-20.2,45.54,45.54,0,0,0-1.71-4.57,63,63,0,0,0,1.24-13.07,4.27,4.27,0,0,0-.87-2.65l.92-.6a90.72,90.72,0,0,1,4.89,8.3,66,66,0,0,1,5,13.1A47.4,47.4,0,0,1,1098.56,1841.49Z" fill="#040706"/>
        <path d="M1090.69,1832.45a76,76,0,0,1,3.22,20.2c-2.31-1-5.28-.35-6,2.8a114.4,114.4,0,0,1-16.35,39.28c-3.19,4.86,4.6,9.37,7.77,4.54a121.86,121.86,0,0,0,13.79-28.57,119.78,119.78,0,0,1-10.79,37.32,4.1,4.1,0,0,0-5.22.71,154.14,154.14,0,0,1-40.69,29.57c11.58-14.92,20.77-31.6,28.73-48.77,5.31-11.48,10.13-23.17,14.92-34.87,3.58-8.75,7.07-17.58,8.86-26.78A45.54,45.54,0,0,1,1090.69,1832.45Z" fill="#cd3032"/>
        <path d="M1081.25,1814.24c.39-4.21,5.93-4.9,8.1-2.08a4.27,4.27,0,0,1,.87,2.65,63,63,0,0,1-1.24,13.07A83.16,83.16,0,0,0,1081.25,1814.24Z" fill="#040706"/>
        <path d="M1095.32,1659.15l-1.45.91c-2.3-2.7-8-1.76-8,2.84l0,2.18-3.35,2.06c-1.09-2.61-2.2-5.21-3.3-7.82l18.51-4.42a4.44,4.44,0,0,1-.73,2A24.21,24.21,0,0,1,1095.32,1659.15Z" fill="#040706"/>
        <path d="M1091.07,1770.61a4.19,4.19,0,0,1-1.37,5.82c-.88-4.16-1.65-8.35-2.26-12.59Q1089.12,1767.28,1091.07,1770.61Z" fill="#040706"/>
        <path d="M1085.8,1665.08c2.7-1.66,5.38-3.34,8.07-5a2.53,2.53,0,0,1,.31.42,22.64,22.64,0,0,1-8.4,5.84C1085.79,1665.9,1085.8,1665.49,1085.8,1665.08Z" fill="#040706"/>
        <path d="M1082.38,1908c2.3,1.36,3.58,4.61,1.15,7.07q-4.2,4.26-8.7,8.17a4.12,4.12,0,0,1,.68-2.67A124.5,124.5,0,0,0,1082.38,1908Z" fill="#040706"/>
        <path d="M1080,1796.49c3.29,5.1,6.94,10,10.25,15.07l-.92.6c-2.17-2.82-7.71-2.13-8.1,2.08-1.56-2.32-3.17-4.6-4.75-6.89a194.15,194.15,0,0,1-23.29-44.92c-11-30.79-13.46-65.07-2.77-96.25l10.09-2.41a4.3,4.3,0,0,1-.3,1.66,126.75,126.75,0,0,0-7,57.62,161,161,0,0,0,14.47,51.15A183.81,183.81,0,0,0,1080,1796.49Z" fill="#040706"/>
        <path d="M1097.66,1654.9l-18.51,4.42c-.06-.13-.11-.27-.17-.4a14.5,14.5,0,0,0,10-6.33l3.74-2.28C1095.3,1650.25,1097.86,1652.32,1097.66,1654.9Z" fill="#040706"/>
        <path d="M1081.38,1667.59c-4.69.86-7.73-4.92-4-7.84h0l1.78-.42c1.1,2.61,2.21,5.21,3.3,7.82l3.35-2.06c0,.41,0,.82,0,1.24A21.89,21.89,0,0,1,1081.38,1667.59Z" fill="#040706"/>
        <path d="M1079.15,1659.32l-1.78.42c.17-.13.35-.25.54-.37l11.11-6.78a14.5,14.5,0,0,1-10,6.33C1079,1659.05,1079.09,1659.19,1079.15,1659.32Z" fill="#040706"/>
        <path d="M1068.93,1710.86c.55-5.73,9.55-5.76,9,0a99.06,99.06,0,0,0,9.51,53c.61,4.24,1.38,8.43,2.26,12.59a4.31,4.31,0,0,1-6.4-1.28A107.18,107.18,0,0,1,1068.93,1710.86Z" fill="#040706"/>
        <path d="M1060.53,1663.77l-10.09,2.41c.35-1,.73-2.1,1.12-3.14C1053.35,1658.25,1060.44,1659.58,1060.53,1663.77Z" fill="#040706"/>
        <path d="M1019.05,1945.7a151.23,151.23,0,0,0,17.42-7.4,164.09,164.09,0,0,1-13,14.91Z" fill="#040706"/>
        <path d="M1077.16,1908.73a4.1,4.1,0,0,1,5.22-.71,124.5,124.5,0,0,1-6.87,12.57,4.12,4.12,0,0,0-.68,2.67,163.49,163.49,0,0,1-51.26,30.34l-.14-.38h0a164.09,164.09,0,0,0,13-14.91A154.14,154.14,0,0,0,1077.16,1908.73Z" fill="#040706"/>
        <path d="M1071.13,1853c5-12.27,10.27-24.74,10.09-38.23a3.63,3.63,0,0,1,0-.57,83.16,83.16,0,0,1,7.73,13.64c-1.79,9.2-5.28,18-8.86,26.78-4.79,11.7-9.61,23.39-14.92,34.87-8,17.17-17.15,33.85-28.73,48.77a151.23,151.23,0,0,1-17.42,7.4l-.44-.43c16.32-17,28.16-37.5,38.11-58.77C1061.86,1875.5,1066.52,1864.28,1071.13,1853Z" fill="#040706"/>
        <path d="M1021.44,1954.37c-4.38,1.55-7.38-4.48-4.38-7.52.52-.52,1-1,1.55-1.58l.44.43,4.38,7.51h0l.14.38Z" fill="#040706"/>
        <path d="M1012.06,1967.93c0,1.28,0,2.57,0,3.85a4.55,4.55,0,0,1-6.77,3.89l-3.13-1.67.9-2.22,6.77-3.88Z" fill="#040706"/>
        <path d="M1012.78,1739.42a4.18,4.18,0,0,1-4.58,1.06l6.81-3.91Z" fill="#040706"/>
        <path d="M1009.78,1967.9l-6.77,3.88.09-7.39Q1006.46,1966.1,1009.78,1967.9Z" fill="#040706"/>
        <path d="M1008.62,1730.24a12.28,12.28,0,0,1,4.16,2.82h-6.37Z" fill="#040706"/>
        <path d="M1006.41,1754.94q6.93,106.35,5.65,213l-2.28,0q-3.31-1.8-6.68-3.51,1.11-103.83-5.57-207.52,3.9-2.32,7.84-4.61A4.5,4.5,0,0,1,1006.41,1754.94Z" fill="#040706"/>
        <path d="M1005.37,1752.26q-3.93,2.28-7.84,4.61l-.12-1.93C997.1,1750.26,1002.93,1749.39,1005.37,1752.26Z" fill="#040706"/>
        <path d="M995.56,1670c.22,1.85.43,3.7.6,5.56l-5.7-4.34Z" fill="#040706"/>
        <path d="M994.71,1748.26c-.08.16-.15.32-.21.46a3.9,3.9,0,0,1-4.21,2.14C991.76,1750,993.23,1749.12,994.71,1748.26Z" fill="#040706"/>
        <path d="M993.8,1743.27l-7.07.91c.56-1.25,1.15-2.51,1.8-3.74A12.22,12.22,0,0,1,993.8,1743.27Z" fill="#040706"/>
        <path d="M995.56,1670l-5.1,1.22,5.7,4.34c-.17-1.86-.38-3.71-.6-5.56l106.3-25.38c-.93.63-1.85,1.24-2.76,1.79l-6.34,3.87a4.29,4.29,0,0,0-3.6,2.08,1.43,1.43,0,0,1-.14.2l-11.11,6.78c-.19.12-.37.24-.54.37h0l-16.83,4c-.09-4.19-7.18-5.52-9-.73-.39,1-.77,2.09-1.12,3.14q-18.11,4.3-36.2,8.64l-21.39,5.11c-3.05.72-5.42-1.39-5.69-4.34" fill="#040706"/>
        <path d="M959,1770.53q6.86-4.58,13.8-9l2.5-1.57a24.13,24.13,0,0,1-5.78,7.29A15.54,15.54,0,0,1,959,1770.53Z" fill="#040706"/>
        <path d="M1101.86,1644.65,995.56,1670" fill="#77654d"/>
        <path d="M949.93,1765l7.07.91c-1.1,1-2.16,2-3.17,3.09A10.71,10.71,0,0,1,949.93,1765Z" fill="#040706"/>
        <path d="M936.71,1778.43a58,58,0,0,1,13.93-18.93,4.55,4.55,0,0,1,7.06.92c4.22,7.42,14.14-12.75,16.07-14.84,3.86-4.19,9.58-6.43,14.76-5.14-.65,1.23-1.24,2.49-1.8,3.74l7.07-.91a12.22,12.22,0,0,0-5.27-2.83c2.17-4.11,4.94-7.88,9.32-9.86a13.53,13.53,0,0,1,10.77-.34l-2.21,2.82h6.37a12.28,12.28,0,0,0-4.16-2.82l3.54-4.51c3.57-4.56,9.89,1.85,6.36,6.36l-3.51,4.48-6.81,3.91a4.36,4.36,0,0,1-1.79-1.06c-5-5.12-9.92,4.95-11.7,8.84-1.48.86-3,1.72-4.42,2.6a5.16,5.16,0,0,1-2.86-1.23c-3.94-3.54-8.76,4.32-10.21,6.9-.63,1.13-1.26,2.29-1.91,3.43l-2.5,1.57q-6.94,4.42-13.8,9a11.73,11.73,0,0,1-5.18-1.57c1-1.07,2.07-2.09,3.17-3.09l-7.07-.91a10.71,10.71,0,0,0,3.9,4,49.48,49.48,0,0,0-7.47,10.18q-2,1.36-4,2.76A6.9,6.9,0,0,0,936.71,1778.43Z" fill="#040706"/>
        <path d="M942.41,1781.9q2-1.39,4-2.76a47.14,47.14,0,0,0-2.82,6.11l-.25-.09A7.64,7.64,0,0,0,942.41,1781.9Z" fill="#040706"/>
        <path d="M945.17,1939.11a2.19,2.19,0,0,0,0-.36c19.53,8.1,39.13,16,58,25.64l-.09,7.39-.9,2.22c-18.37-9.66-37.53-17.58-56.69-25.51C945.34,1945.36,945.25,1942.24,945.17,1939.11Z" fill="#040706"/>
        <path d="M945.14,1938.75a2.19,2.19,0,0,1,0,.36c.08,3.13.17,6.25.25,9.38q-4.54-1.87-9.1-3.78l-.15-5.6a4,4,0,0,1,1.56-3.45Z" fill="#040706"/>
        <path d="M942.41,1781.9a7.64,7.64,0,0,1,.88,3.26l-4.61-.63Q940.54,1783.21,942.41,1781.9Z" fill="#040706"/>
        <path d="M945.14,1938.75l-7.41-3.09C940.2,1933.81,944.78,1934.84,945.14,1938.75Z" fill="#040706"/>
        <path d="M934.45,1784c.67-1.89,1.43-3.74,2.26-5.53a6.9,6.9,0,0,1,5.7,3.47q-1.87,1.3-3.73,2.63Z" fill="#040706"/>
        <path d="M943.13,1786.35a4.54,4.54,0,0,1-8,1.26.28.28,0,0,0,.08-.09,3.42,3.42,0,0,1,.61-.22c.58-.14.67-.43.26-.88l2.64-1.89,4.61.63.25.09C943.4,1785.61,943.26,1786,943.13,1786.35Z" fill="#040706"/>
        <path d="M936.32,1944.71q4.54,1.9,9.1,3.78c0,.62,0,1.23.05,1.85a71.07,71.07,0,0,0-9.11-4C936.35,1945.82,936.33,1945.26,936.32,1944.71Z" fill="#040706"/>
        <path d="M936.17,1939.11l.15,5.6c-8.13-3.39-16.24-6.83-24.26-10.47.62-3,1.26-6,1.94-9l.83.38c7.57,3.48,15.22,6.77,22.9,10A4,4,0,0,0,936.17,1939.11Z" fill="#040706"/>
        <path d="M933.56,1789.06c.12-.14,1.24-1.12,1.53-1.45a4.54,4.54,0,0,0,8-1.26c.13-.37.27-.74.41-1.1a47.14,47.14,0,0,1,2.82-6.11q6.28-4.38,12.65-8.61a15.54,15.54,0,0,0,10.52-3.28,24.13,24.13,0,0,0,5.78-7.29q7.43-4.68,15-9.1a3.9,3.9,0,0,0,4.21-2.14c.06-.14.13-.3.21-.46,4.48-2.62,9-5.2,13.49-7.78a4.18,4.18,0,0,0,4.58-1.06l2.23-2.85,5.26-3c4.39-2.54,8.45-5.52,7.44-11.21-.75-4.22-2.85-8.29-4.43-12.24l-11.79-29.42c-1.11-2.76.64-4.71,2.89-5.24a4.85,4.85,0,0,1,5.79,2.85c4.66,11.64,9.43,23.25,14,34.93,3.56,9.08,4,18-4.12,24.59-7.09,5.76-16.16,9.54-24,14.1l-.62.36c-2.44-2.87-8.27-2-8,2.68l.12,1.93q-7.92,4.71-15.71,9.61-24.65,15.46-48.14,32.72-16.81,12.35-32.94,25.59l-1.56-1.91a4.86,4.86,0,0,0,1.49-2.17,54.08,54.08,0,0,1,5.8-12q2-1.61,4.07-3.19a15.35,15.35,0,0,0,12.41-2.41c3.11-2.12,5.26-5.31,7.18-8.48A40.29,40.29,0,0,1,933.56,1789.06Z" fill="#040706"/>
        <path d="M934.29,1785.16a7.85,7.85,0,0,1,1.75,1.26c-.39.27-.78.55-1.16.84A4.87,4.87,0,0,1,934.29,1785.16Z" fill="#040706"/>
        <path d="M936,1786.42c.41.45.32.74-.26.88a3.42,3.42,0,0,0-.61.22.28.28,0,0,1-.08.09,2.5,2.5,0,0,1-.21-.35C935.26,1787,935.65,1786.69,936,1786.42Z" fill="#040706"/>
        <path d="M935.09,1787.61c-.29.33-1.41,1.31-1.53,1.45a40.29,40.29,0,0,0-3.43,5.54c-1.92,3.17-4.07,6.36-7.18,8.48a15.35,15.35,0,0,1-12.41,2.41q12-9.35,24.34-18.23A2.5,2.5,0,0,0,935.09,1787.61Z" fill="#040706"/>
        <path d="M936.32,1944.71c0,.55,0,1.11,0,1.66-3-1.08-6-2-9.09-3-4.66-1.46-9.42-3-13.46-5.84a13.86,13.86,0,0,1-2-1.77l.3-1.51C920.08,1937.88,928.19,1941.32,936.32,1944.71Z" fill="#4f4f4f"/>
        <path d="M914,1925.29c-.68,3-1.32,6-1.94,9l-2.59-1.18a23.63,23.63,0,0,0-5.19-5.45c.44-2.08.91-4.16,1.39-6.24Q909.83,1923.38,914,1925.29Z" fill="#040706"/>
        <path d="M912.06,1934.24l-.3,1.51a32.81,32.81,0,0,1-2.29-2.69Z" fill="#040706"/>
        <path d="M911.51,1802.08c-.85,1-1.65,1.92-2.42,2.91a11,11,0,0,1-4-2.91Z" fill="#040706"/>
        <path d="M906.12,1919.44c1.33-5.64,10-3.24,8.68,2.39-.27,1.15-.54,2.31-.8,3.46q-4.17-1.92-8.33-3.92Z" fill="#040706"/>
        <path d="M934.45,1784l4.23.57-2.64,1.89a7.85,7.85,0,0,0-1.75-1.26,4.87,4.87,0,0,0,.59,2.1q-12.35,8.87-24.34,18.23a10.8,10.8,0,0,1-1.45-.5c.77-1,1.57-2,2.42-2.91h-6.37a11,11,0,0,0,4,2.91q-1.4,1.8-2.62,3.69-3.88,3.06-7.72,6.17-1.57-2.56-3.16-5.13a64.91,64.91,0,0,1,9.55-14,4.54,4.54,0,0,1,6.37,0c6,6.94,14-12.11,17.41-14.87a11.11,11.11,0,0,1,7.79-2.41C935.88,1780.22,935.12,1782.07,934.45,1784Z" fill="#040706"/>
        <path d="M903.69,1930.36c.19-.92.38-1.83.59-2.75a23.63,23.63,0,0,1,5.19,5.45Q906.58,1931.73,903.69,1930.36Z" fill="#040706"/>
        <path d="M902.75,1926.76c-4.75-2.09-8.76-.83-11.73-6a25.53,25.53,0,0,1-2.81-8.21c5.75,3.07,11.59,6,17.46,8.79-.48,2.08-.95,4.16-1.39,6.24A9.41,9.41,0,0,0,902.75,1926.76Z" fill="#040706"/>
        <path d="M900.22,1817.24l-1.47-2.39q3.84-3.12,7.72-6.17a54.08,54.08,0,0,0-5.8,12,4.86,4.86,0,0,1-1.49,2.17,4.47,4.47,0,0,1-6.73-1.1l-.73-1.18,3.24-2.67Z" fill="#040706"/>
        <path d="M898.75,1814.85l1.47,2.39-5.26.69Q896.85,1816.39,898.75,1814.85Z" fill="#040706"/>
        <path d="M895,1817.93l-1.93.25q1.25-2,2.47-4.07h-1.92q.93-2.25,2-4.39,1.59,2.57,3.16,5.13Q896.85,1816.38,895,1817.93Z" fill="#040706"/>
        <g>
          <path d="M987.16,1675.59c.27,3,2.64,5.06,5.69,4.34l21.39-5.11.14.61c-2.25.53-4,2.48-2.89,5.24l11.79,29.42c1.58,4,3.68,8,4.43,12.24,1,5.69-3,8.67-7.44,11.21l-5.26,3,3.51-4.48c3.53-4.51-2.79-10.92-6.36-6.36l-3.54,4.51a13.53,13.53,0,0,0-10.77.34c-4.38,2-7.15,5.75-9.32,9.86-5.18-1.29-10.9,1-14.76,5.14-1.93,2.09-11.85,22.26-16.07,14.84a4.55,4.55,0,0,0-7.06-.92,58,58,0,0,0-13.93,18.93,11.11,11.11,0,0,0-7.79,2.41c-3.41,2.76-11.4,21.81-17.41,14.87a4.54,4.54,0,0,0-6.37,0,64.91,64.91,0,0,0-9.55,14l-.09-.15a4.55,4.55,0,0,0-7.77,0l-2,3.32q-8.69,14.27-17.82,28.23c-1.58,1.43-3.16,2.85-4.73,4.29l-1.32-1.53c-1.79-2.07-5.87-1.6-7.07.92a85,85,0,0,0-4.84,12.94c-1,1-2,1.94-3.05,2.94a5,5,0,0,0-4.35-1.32c-6.23-24.91-5.31-51.41-6-76.88l-1.23-46.87q-.32-12-.62-23.93c-.1-3.66-.2-7.31-.29-11,0-2-.11-4-.16-6,0-.26,0-.53,0-.79a5.19,5.19,0,0,0,3.44-5.19l2.22.51q10,2.27,20.06,4.45c6,1.31,13.11,3.8,19.28,2.21,11.53-3,115.4-11.67,117-21.08" fill="#777471"/>
          <path d="M987.16,1675.59c.27,3,2.64,5.06,5.69,4.34l21.39-5.11.14.61c-2.25.53-4,2.48-2.89,5.24l11.79,29.42c1.58,4,3.68,8,4.43,12.24,1,5.69-3,8.67-7.44,11.21l-5.26,3,3.51-4.48c3.53-4.51-2.79-10.92-6.36-6.36l-3.54,4.51a13.53,13.53,0,0,0-10.77.34c-4.38,2-7.15,5.75-9.32,9.86-5.18-1.29-10.9,1-14.76,5.14-1.93,2.09-11.85,22.26-16.07,14.84a4.55,4.55,0,0,0-7.06-.92,58,58,0,0,0-13.93,18.93,11.11,11.11,0,0,0-7.79,2.41c-3.41,2.76-11.4,21.81-17.41,14.87a4.54,4.54,0,0,0-6.37,0,64.91,64.91,0,0,0-9.55,14l-.09-.15a4.55,4.55,0,0,0-7.77,0l-2,3.32q-8.69,14.27-17.82,28.23c-1.58,1.43-3.16,2.85-4.73,4.29l-1.32-1.53c-1.79-2.07-5.87-1.6-7.07.92a85,85,0,0,0-4.84,12.94c-1,1-2,1.94-3.05,2.94a5,5,0,0,0-4.35-1.32c-6.23-24.91-5.31-51.41-6-76.88l-1.23-46.87q-.32-12-.62-23.93c-.1-3.66-.2-7.31-.29-11,0-2-.11-4-.16-6,0-.26,0-.53,0-.79a5.19,5.19,0,0,0,3.44-5.19l2.22.51q10,2.27,20.06,4.45c6,1.31,13.11,3.8,19.28,2.21,11.53-3,115.4-11.67,117-21.08" fill="none" stroke="#040706" stroke-miterlimit="10" stroke-width="7"/>
        </g>
        <path d="M891.64,1820.46l1.39-2.28,1.93-.25-3.24,2.67Z" fill="#040706"/>
        <path d="M893.58,1814.11h1.92q-1.23,2-2.47,4.07l-1,.14C892.47,1816.89,893,1815.48,893.58,1814.11Z" fill="#040706"/>
        <path d="M893,1818.18l-1.39,2.28-3.91-6.35h5.85c-.58,1.37-1.11,2.78-1.59,4.21Z" fill="#040706"/>
        <path d="M887.73,1809.57a4.55,4.55,0,0,1,7.77,0l.09.15q-1.08,2.15-2,4.39h-5.85l-2-1.22Z" fill="#040706"/>
        <path d="M900.74,1824.79q-13.25,10.86-26,22.32,8.52-13,16.65-26.21c.12-.11.23-.21.35-.3l.73,1.18a4.47,4.47,0,0,0,6.73,1.1Z" fill="#040706"/>
        <path d="M884.61,1826.55q-8.46,7.17-16.71,14.57,9.14-14,17.82-28.23l2,1.22,3.91,6.35c-.1.15-.19.29-.27.44Q888,1823.69,884.61,1826.55Z" fill="#040706"/>
        <path d="M891.37,1820.9q-8.13,13.23-16.65,26.21c-1.88,1.68-3.76,3.37-5.62,5.08l-1.2-1.31c-1.22-1.4-2.43-2.81-3.65-4.22,1.23-1.84,2.44-3.69,3.65-5.54q8.25-7.39,16.71-14.57Q888,1823.7,891.37,1820.9Z" fill="#040706"/>
        <path d="M879,1911.59c-.21-1.47-.37-2.93-.49-4.34,1.86,1.07,3.72,2.11,5.6,3.14A10.38,10.38,0,0,1,879,1911.59Z" fill="#040706"/>
        <path d="M901.67,1929.39c-6.92-3.34-14.08-6.74-21.1-10.43a49.54,49.54,0,0,1-1.55-7.37,10.38,10.38,0,0,0,5.11-1.2q2,1.11,4.08,2.19a25.53,25.53,0,0,0,2.81,8.21c3,5.14,7,3.88,11.73,6a9.41,9.41,0,0,1,1.53.85c-.21.92-.4,1.83-.59,2.75Z" fill="#040706"/>
        <path d="M878.83,1903a.9.9,0,0,0,.9-.23c3.07-2.5,7.37-.9,7.68,3.18a65,65,0,0,0,.8,6.68q-2.06-1.08-4.08-2.19a12.11,12.11,0,0,0,2-1.3l-7.68-3.19Z" fill="#040706"/>
        <path d="M853.78,1887.26c-.39-4.21-.7-8.43-1-12.65a3.82,3.82,0,0,0,3-3.13c.67-3,1.32-6,2.09-8.85q2.39-2.28,4.78-4.5a4.83,4.83,0,0,0,6-1.8q3.09-4.59,6.11-9.22,12.76-11.44,26-22.32,16.13-13.23,32.94-25.59,23.46-17.23,48.14-32.72,7.8-4.9,15.71-9.61,6.68,103.62,5.57,207.52c-18.83-9.63-38.43-17.54-58-25.64-.36-3.91-4.94-4.94-7.41-3.09-7.68-3.22-15.33-6.51-22.9-10l-.83-.38c.26-1.15.53-2.31.8-3.46,1.33-5.63-7.35-8-8.68-2.39l-.45,1.93c-5.87-2.8-11.71-5.72-17.46-8.79a65,65,0,0,1-.8-6.68c-.31-4.08-4.61-5.68-7.68-3.18a.9.9,0,0,1-.9.23c-2.42-.76-3.54-13-3.79-14.07-1-4.35-3.32-8.24-7.4-10.26a4.62,4.62,0,0,0-5.45.71l-6.6,6.86c-.43.46-.87.92-1.31,1.37-.18.08-.35.16-.49.24C853.78,1887.62,853.78,1887.44,853.78,1887.26Z" fill="#777471"/>
        <path d="M849.88,1898.18c3.25,1.49,6.77-.37,10-3.17a74.69,74.69,0,0,0,7.68,5.67,14.84,14.84,0,0,0,2.8,6.4,11.45,11.45,0,0,0,8.67,4.51,49.54,49.54,0,0,0,1.55,7.37,158.54,158.54,0,0,1-26.1-16.6A51.67,51.67,0,0,1,849.88,1898.18Z" fill="#040706"/>
        <path d="M878.53,1907.25q-.07-.68-.12-1.35l7.68,3.19a12.11,12.11,0,0,1-2,1.3C882.25,1909.36,880.39,1908.32,878.53,1907.25Z" fill="#040706"/>
        <path d="M859.87,1895a52.12,52.12,0,0,1-5.94-5.85,10.27,10.27,0,0,1-.14-1.36c.14-.08.31-.16.49-.24.44-.45.88-.91,1.31-1.37l6.6-6.86a4.62,4.62,0,0,1,5.45-.71c4.08,2,6.39,5.91,7.4,10.26.25,1.1,1.37,13.31,3.79,14.07l-.42,3q0,.67.12,1.35-4.63-2.62-9.16-5.42l-1.82-1.15c-.26-1.2-.42-2.42-.56-3.64-.28-2.55-.17-5.71-1.33-8.06,1.11-1.29,2.09-2.45,2.89-3.29l-5.45.7a5.62,5.62,0,0,1,2.56,2.59A59.29,59.29,0,0,1,859.87,1895Z" fill="#040706"/>
        <path d="M870.35,1907.08a14.84,14.84,0,0,1-2.8-6.4l1.82,1.15q4.53,2.79,9.16,5.42c.12,1.41.28,2.87.49,4.34A11.45,11.45,0,0,1,870.35,1907.08Z" fill="#040706"/>
        <path d="M869.1,1852.19q-3.24,2.94-6.44,5.94a3.61,3.61,0,0,1-1.12-.89L860,1855.5c.45-1.28.93-2.54,1.46-3.8l6.41-.82Z" fill="#040706"/>
        <path d="M863.1,1886.39l5.45-.7c-.8.84-1.78,2-2.89,3.29A5.62,5.62,0,0,0,863.1,1886.39Z" fill="#040706"/>
        <path d="M863.17,1845.41c1.57-1.44,3.15-2.86,4.73-4.29-1.21,1.85-2.42,3.7-3.65,5.54Z" fill="#040706"/>
        <path d="M868.61,1856.33a4.83,4.83,0,0,1-6,1.8q3.21-3,6.44-5.94c1.86-1.71,3.74-3.4,5.62-5.08Q871.69,1851.73,868.61,1856.33Z" fill="#040706"/>
        <path d="M862.55,1849.34h-.1c.61-.89,1.21-1.79,1.8-2.69,1.22,1.41,2.43,2.82,3.65,4.22l-6.41.82C861.83,1850.91,862.18,1850.12,862.55,1849.34Z" fill="#040706"/>
        <path d="M858.31,1849.89q2.41-2.27,4.86-4.48l1.08,1.25c-.59.9-1.19,1.8-1.8,2.69Z" fill="#040706"/>
        <path d="M862.55,1849.34c-.37.78-.72,1.57-1.06,2.36l-.66.09c.55-.81,1.09-1.62,1.62-2.44Z" fill="#040706"/>
        <path d="M862.66,1858.13q-2.4,2.22-4.78,4.5c.62-2.41,1.32-4.78,2.15-7.13l1.51,1.74A3.61,3.61,0,0,0,862.66,1858.13Z" fill="#040706"/>
        <path d="M858.31,1849.89l4.14-.54c-.53.82-1.07,1.63-1.62,2.44l.66-.09c-.53,1.26-1,2.52-1.46,3.8l-3.46-4C857.15,1851,857.73,1850.41,858.31,1849.89Z" fill="#040706"/>
        <path d="M856.57,1851.5l-1.08-1.25,2.82-.36C857.73,1850.41,857.15,1851,856.57,1851.5Z" fill="#040706"/>
        <path d="M861.85,1843.88l1.32,1.53q-2.45,2.22-4.86,4.48l-2.82.36,1.08,1.25q-3.33,3.09-6.63,6.24a85,85,0,0,1,4.84-12.94C856,1842.28,860.06,1841.81,861.85,1843.88Z" fill="#040706"/>
        <path d="M853.17,1888.24a2.55,2.55,0,0,1,.62-.44,10.27,10.27,0,0,0,.14,1.36C853.67,1888.86,853.42,1888.55,853.17,1888.24Z" fill="#040706"/>
        <path d="M852.78,1874.61c-.15-1.93-.29-3.86-.44-5.78a4,4,0,0,0-.13-.78q2.82-2.74,5.67-5.42c-.77,2.89-1.42,5.84-2.09,8.85A3.82,3.82,0,0,1,852.78,1874.61Z" fill="#040706"/>
        <path d="M853.17,1888.24c.25.31.5.62.76.92l.09.43c.24.71.08.68-.48-.08C852.86,1889.09,852.74,1888.67,853.17,1888.24Z" fill="#040706"/>
        <path d="M852.21,1868.05a4.58,4.58,0,0,0-4.07-3.49c.56-2.31,1.14-4.58,1.8-6.82q3.3-3.15,6.63-6.24l3.46,4c-.83,2.35-1.53,4.72-2.15,7.13Q855,1865.3,852.21,1868.05Z" fill="#040706"/>
        <path d="M852.78,1874.61a5.06,5.06,0,0,1-5.12-2.13q2.26-2.24,4.55-4.43a4,4,0,0,1,.13.78C852.49,1870.75,852.63,1872.68,852.78,1874.61Z" fill="#040706"/>
        <path d="M849.88,1898.18a7.83,7.83,0,0,1-2.4-1.83,8.77,8.77,0,0,1-1.74-3A49.65,49.65,0,0,0,849.88,1898.18Z" fill="#040706"/>
        <path d="M849.94,1857.74c-.66,2.24-1.24,4.51-1.8,6.82l-.27,0a3.83,3.83,0,0,0-1-3.85C847.9,1859.68,848.92,1858.71,849.94,1857.74Z" fill="#040706"/>
        <path d="M847.66,1872.48a4.41,4.41,0,0,1-.55-3.39c.34-1.53.68-3,1-4.53a4.58,4.58,0,0,1,4.07,3.49Q849.93,1870.24,847.66,1872.48Z" fill="#040706"/>
        <path d="M846.75,1873.38c.3-.31.61-.61.91-.9a5.06,5.06,0,0,0,5.12,2.13c.3,4.22.61,8.44,1,12.65,0,.18,0,.36,0,.54a2.55,2.55,0,0,0-.62.44C849.63,1883.85,847.15,1878.87,846.75,1873.38Z" fill="#040706"/>
        <path d="M847.66,1872.48c-.3.29-.61.59-.91.9a18.49,18.49,0,0,1,0-2.47,22.5,22.5,0,0,1,1.09-6.1c0-.09.06-.19.08-.28l.27,0c-.35,1.49-.69,3-1,4.53A4.41,4.41,0,0,0,847.66,1872.48Z" fill="#040706"/>
        <path d="M846.75,1873.38c.4,5.49,2.88,10.47,6.42,14.86-.43.43-.31.85.37,1.27.56.76.72.79.48.08l-.09-.43a52.12,52.12,0,0,0,5.94,5.85c-3.22,2.8-6.74,4.66-10,3.17a49.65,49.65,0,0,1-4.14-4.8c-.89-2.5-.9-5.39-1.1-8q-.37-4.73-.74-9.45a4.8,4.8,0,0,0,.94-.72C845.48,1874.62,846.11,1874,846.75,1873.38Z" fill="#040706"/>
        <path d="M847.87,1864.53c0,.09,0,.19-.08.28a22.5,22.5,0,0,0-1.09,6.1l-.7,0c-.6-1.7-1.17-3.4-1.69-5.12A4.41,4.41,0,0,1,847.87,1864.53Z" fill="#040706"/>
        <path d="M843.45,1870.2l2.55.67.7,0a18.49,18.49,0,0,0,0,2.47c-.64.61-1.27,1.24-1.91,1.87a4.8,4.8,0,0,1-.94.72Z" fill="#040706"/>
        <path d="M844.31,1865.75c.52,1.72,1.09,3.42,1.69,5.12l-2.55-.67c0-.46-.07-.91-.11-1.37A3.92,3.92,0,0,1,844.31,1865.75Z" fill="#040706"/>
        <path d="M847.87,1864.53a4.41,4.41,0,0,0-3.56,1.22c-.21-.67-.4-1.34-.59-2q1.57-1.56,3.17-3.06A3.83,3.83,0,0,1,847.87,1864.53Z" fill="#040706"/>
        <path d="M837.84,1874.33a4.53,4.53,0,0,0,6.06,1.64q.36,4.72.74,9.45c.2,2.57.21,5.46,1.1,8A38,38,0,0,1,837.84,1874.33Z" fill="#040706"/>
        <path d="M843.45,1870.2l-5-1.32c1.74-1.72,3.49-3.44,5.25-5.14.19.67.38,1.34.59,2a3.92,3.92,0,0,0-1,3.08C843.38,1869.29,843.41,1869.74,843.45,1870.2Z" fill="#040706"/>
        <path d="M843.72,1863.74c-.42-1.45-.82-2.91-1.18-4.38a5,5,0,0,1,4.35,1.32Q845.3,1862.18,843.72,1863.74Z" fill="#040706"/>
        <path d="M839.11,1862.41a4.24,4.24,0,0,1,3.43-3.05c.36,1.47.76,2.93,1.18,4.38-1.76,1.7-3.51,3.42-5.25,5.14l-.65-.06A30.12,30.12,0,0,1,839.11,1862.41Z" fill="#040706"/>
        <path d="M837.84,1874.33a29.81,29.81,0,0,1,0-5.51l.65.06,5,1.32.45,5.77A4.53,4.53,0,0,1,837.84,1874.33Z" fill="#040706"/>
        <path d="M834.26,1694.73c0,2,.11,4,.16,6,.09,3.66.19,7.31.29,11q.3,12,.62,23.93l1.23,46.87c.67,25.47-.25,52,6,76.88a4.24,4.24,0,0,0-3.43,3.05,30.12,30.12,0,0,0-1.29,6.41,29.81,29.81,0,0,0,0,5.51,5.58,5.58,0,0,1-.52-1.07c-6.39-18-8.1-37-8.8-56-.75-20.24-1.11-40.51-1.64-60.76-.55-20.93-1.28-41.88-1.65-62.82a18.84,18.84,0,0,1,1.46-7.5l2.09.49c-1.77,2.51-.59,7.18,3.53,7.43a5.43,5.43,0,0,0,1.93-.21C834.24,1694.2,834.25,1694.47,834.26,1694.73Z" fill="#040706"/>
        <path d="M837.68,1688.75a5.19,5.19,0,0,1-3.44,5.19l-.06-2.2c.41-2.55-1.42-3.35-5.47-2.4l1-2.41Z" fill="#040706"/>
        <path d="M829.71,1686.51l.31-.36c0,.09-.08.19-.11.28Z" fill="#040706"/>
        <path d="M832.89,1685.19l-3,1.24c0-.09.07-.19.11-.28l-.31.36.2-.08-.21.5-.92-.21a3.8,3.8,0,0,1,3.53-1.57Z" fill="#040706"/>
        <path d="M834.55,1683.2a6.13,6.13,0,0,1,3.13,5.55l-8-1.82.21-.5,3-1.24-.58,0a3.8,3.8,0,0,0-3.53,1.57l-2.09-.49C828.07,1683.16,830.55,1681.1,834.55,1683.2Z" fill="#040706"/>
        <path d="M829.7,1686.93l-1,2.41c4-.95,5.88-.15,5.47,2.4l.06,2.2a5.43,5.43,0,0,1-1.93.21c-4.12-.25-5.3-4.92-3.53-7.43Z" fill="#040706"/>
        <path d="M808.49,1671.78a28.22,28.22,0,0,0,13.4.2c3.61-.89,5.89,2.38,5.57,5.19q-9.6-2.22-19.18-4.52Z" fill="#040706"/>
        <path d="M785.42,1672c7.39,3,14.59,6.62,22.12,8.43l-.29,1.2q-10.83-2.6-21.66-5.27A30.62,30.62,0,0,0,785.42,1672Z" fill="#040706"/>
        <path d="M785.59,1676.39l-8.88-2.22c0-.32-.08-.64-.13-1a4.63,4.63,0,0,1,1.18-3.92c2.59.77,5.14,1.72,7.66,2.74A30.62,30.62,0,0,1,785.59,1676.39Z" fill="#040706"/>
        <path d="M808.28,1672.65q9.59,2.31,19.18,4.52a3.94,3.94,0,0,1-3.18,3.49,34.77,34.77,0,0,1-16.74-.2c-7.53-1.81-14.73-5.44-22.12-8.43,0-.41-.1-.81-.16-1.22a3.5,3.5,0,0,0-2.69-3.15l.31-1.22Q795.56,1669.61,808.28,1672.65Z" fill="#040706"/>
        <path d="M785.42,1672c-2.52-1-5.07-2-7.66-2.74a5.18,5.18,0,0,1,4.81-1.63,3.5,3.5,0,0,1,2.69,3.15C785.32,1671.22,785.37,1671.62,785.42,1672Z" fill="#040706"/>
        <path d="M763.89,1715.12c2.68-13.69,14.35-26.57,12.82-40.95l8.88,2.22c-.36,15.34-11.27,27.43-13.28,42.72C771,1729,775,1738.7,774,1748.6a27.08,27.08,0,0,1-5.44,14.45,12.81,12.81,0,0,0-5.83-3.77l-2.63-.2c5.5-4.6,5.43-13,4.73-19.59C764,1731.25,762.27,1723.41,763.89,1715.12Z" fill="#040706"/>
        <path d="M752.82,1906.19q-1.43-6.11-2.65-12.26c7.92-18.33,11-38.39,12.19-58.33.76-12.18.9-24.38,1.09-36.58.11-6.55.24-13.11.31-19.67,0-3,.44-9.45-2.87-11.16l2.92-.68a22.28,22.28,0,0,0,4.75-4.46c5.33,6.13,4.19,17,4.07,24.73-.22,14.22-.29,28.45-1,42.65-1.28,26.31-5.12,52.92-17.7,76.36Z" fill="#040706"/>
        <path d="M762.73,1759.28a12.81,12.81,0,0,1,5.83,3.77,22.28,22.28,0,0,1-4.75,4.46Z" fill="#040706"/>
        <path d="M762.73,1759.28l1.08,8.23-2.92.68a3.76,3.76,0,0,0-.55-.23,4.57,4.57,0,0,1-1.08-8.23c.29-.21.57-.42.84-.65Z" fill="#040706"/>
        <path d="M752.82,1906.19l1.13.6c-.51,1-1,1.92-1.59,2.87-1.88,3.27-7.33,2.72-8.22-1.08-.25-1.07-.49-2.13-.73-3.2l1.18-.27Z" fill="#040706"/>
        <path d="M752.82,1906.19l-8.23-1.08a108.84,108.84,0,0,0,5.58-11.18Q751.39,1900.08,752.82,1906.19Z" fill="#040706"/>
        <path d="M732.48,1674.87c-.77,4.41-1.77,9.46,1.93,12.67a3.86,3.86,0,0,1,1.47,3,4.88,4.88,0,0,1-6.21,4.35c-.35-7-.9-14-1.78-21a10,10,0,0,0,1.18.6A5.73,5.73,0,0,0,732.48,1674.87Z" fill="#040706"/>
        <path d="M733.65,1666.71c.08-.92.14-1.84.15-2.75a3.57,3.57,0,0,1,2.15,3c1.16,7.77,1.89,15.58,2.37,23.42l-2.44.14a3.86,3.86,0,0,0-1.47-3c-3.7-3.21-2.7-8.26-1.93-12.67a4.08,4.08,0,0,0,2.75-2C736.33,1671,735.87,1667.68,733.65,1666.71Z" fill="#040706"/>
        <path d="M733.8,1663a23.34,23.34,0,0,0-.32-3.64,85.16,85.16,0,0,0,14,5c9.57,2.48,19.63,2,29.12,4.62l1.2.35a4.63,4.63,0,0,0-1.18,3.92c0,.32.09.64.13,1Q755.2,1668.77,733.8,1663Z" fill="#040706"/>
        <path d="M736,1666.94a3.57,3.57,0,0,0-2.15-3c0-.32,0-.64,0-1q21.41,5.76,42.91,11.16c1.53,14.38-10.14,27.26-12.82,40.95-1.62,8.29.06,16.13.94,24.37.7,6.57.77,15-4.73,19.59-.27.23-.55.44-.84.65a4.57,4.57,0,0,0,1.08,8.23,3.76,3.76,0,0,1,.55.23c3.31,1.71,2.91,8.11,2.87,11.16-.07,6.56-.2,13.12-.31,19.67-.19,12.2-.33,24.4-1.09,36.58-1.23,19.94-4.27,40-12.19,58.33-7.06-35.47-9-71.68-9.83-107.81-.42-19.81-.5-39.63-.87-59.45-.23-12.08-.39-24.22-1.15-36.31C737.84,1682.52,737.11,1674.71,736,1666.94Z" fill="#4d5b79"/>
        <path d="M732.65,1673.84c.38-2.35.79-4.74,1-7.13,2.22,1,2.68,4.26,1.58,6.14a4.08,4.08,0,0,1-2.75,2C732.54,1674.52,732.6,1674.18,732.65,1673.84Z" fill="#040706"/>
        <path d="M732.85,1662.75a4.7,4.7,0,0,0,.43-3.47,1.21,1.21,0,0,0,.2.09,23.34,23.34,0,0,1,.32,3.64C733.48,1662.93,733.16,1662.85,732.85,1662.75Z" fill="#040706"/>
        <path d="M732.87,1666.39c-.09-.06-.08-.07,0-.05l.07.08Z" fill="#040706"/>
        <path d="M732.31,1665.73v0l0,0Z" fill="#040706"/>
        <path d="M732.26,1663.68s.06,0,.06,0Z" fill="#040706"/>
        <path d="M732.24,1663.68h0l0,0Z" fill="#040706"/>
        <path d="M732.85,1662.75c.31.1.63.18.95.26,0,.31,0,.63,0,1a3.86,3.86,0,0,0-1.48-.28s0,0-.06,0h0A4.66,4.66,0,0,0,732.85,1662.75Z" fill="#040706"/>
        <path d="M732.26,1663.68h.06c0,.11-.22.47-.17.18a.51.51,0,0,1,0-.09l.05-.06Z" fill="#040706"/>
        <path d="M732,1664.58s0,0,0-.07a.25.25,0,0,0,0-.07c.1-.27.1.6,0,.22a.25.25,0,0,1,0-.07Z" fill="#040706"/>
        <path d="M733.8,1664c0,.91-.07,1.83-.15,2.75h0c-.07,0-.59-.29-.76-.36l-.39-.34c-.06-.07-.09-.09-.1-.09a1,1,0,0,0,0-.15v0a5.21,5.21,0,0,1-.2-.54s-.12-.48-.14-.6a.25.25,0,0,0,0,.07c.11.38.11-.49,0-.22,0-.2.09-.38.15-.58,0,.29.16-.07.17-.18A3.86,3.86,0,0,1,733.8,1664Z" fill="#040706"/>
        <path d="M733.48,1659.37a1.21,1.21,0,0,1-.2-.09,4.37,4.37,0,0,0-1.11-1.87,3.88,3.88,0,0,0-.89-.66,4.33,4.33,0,0,0,.58-2.39,16.4,16.4,0,0,1,1.33,3.6C733.3,1658.43,733.4,1658.9,733.48,1659.37Z" fill="#040706"/>
        <path d="M732.86,1666.34c.17.07.69.32.76.36h0c-.21,2.39-.62,4.78-1,7.13,0,.34-.11.68-.17,1a5.73,5.73,0,0,1-3.41-.4,10,10,0,0,1-1.18-.6c-.19-1.52-.4-3-.62-4.54a5,5,0,0,1,5-5.65l0,0-.05.06a.51.51,0,0,0,0,.09c-.06.2-.11.38-.15.58a.25.25,0,0,1,0,.07s0,0,0,.07h0c0,.12.13.55.14.6a5.21,5.21,0,0,0,.2.54l0,0,0,0a1,1,0,0,1,0,.15s0,0,.1.09l.39.34c-.07,0-.08,0,0,.05l.06,0Z" fill="#040706"/>
        <path d="M731.86,1654.36a4.12,4.12,0,0,0-.24-1.26q15.84,4.31,31.74,8.39,9.75,2.51,19.52,5l-.31,1.22a5.18,5.18,0,0,0-4.81,1.63l-1.2-.35c-9.49-2.61-19.55-2.14-29.12-4.62a85.16,85.16,0,0,1-14-5c-.08-.47-.18-.94-.29-1.41A16.4,16.4,0,0,0,731.86,1654.36Z" fill="#040706"/>
        <path d="M731.06,1653a5.12,5.12,0,0,0,.56.15,4.12,4.12,0,0,1,.24,1.26A13.87,13.87,0,0,0,731.06,1653Z" fill="#040706"/>
        <path d="M722.74,1653.62l2.3-2.31c2,.56,4,1.1,6,1.64a13.87,13.87,0,0,1,.8,1.41,4.33,4.33,0,0,1-.58,2.39,4.84,4.84,0,0,0-3.88-.41Q725,1655.05,722.74,1653.62Z" fill="#040706"/>
        <path d="M732.17,1657.41a4.37,4.37,0,0,1,1.11,1.87q-1.47-.66-2.91-1.38a5.36,5.36,0,0,0,.91-1.15A3.88,3.88,0,0,1,732.17,1657.41Z" fill="#040706"/>
        <path d="M731.06,1653a17.9,17.9,0,0,0-3.57-4.09l1.4-1.4,2.47,5a5.59,5.59,0,0,1,.26.63A5.12,5.12,0,0,1,731.06,1653Z" fill="#040706"/>
        <path d="M743.41,1905.38c-8.52-37.87-11.06-76.7-12-115.42-.47-19.82-.56-39.64-.89-59.46-.2-11.82-.26-23.76-.87-35.65a4.88,4.88,0,0,0,6.21-4.35l2.44-.14c.76,12.09.92,24.23,1.15,36.31.37,19.82.45,39.64.87,59.45.78,36.13,2.77,72.34,9.83,107.81a108.84,108.84,0,0,1-5.58,11.18Z" fill="#040706"/>
        <path d="M731.06,1653c-2-.54-4-1.08-6-1.64l2.45-2.45A17.9,17.9,0,0,1,731.06,1653Z" fill="#040706"/>
        <path d="M777.43,1659.87c10.24,2.47,20.47,9.4,31.06,11.91l-.21.87q-12.72-3-25.4-6.21-9.78-2.45-19.52-5-15.9-4.1-31.74-8.39a5.59,5.59,0,0,0-.26-.63l-2.47-5,.28-.47a80.35,80.35,0,0,0,22.34,9.07C760.05,1658.08,768.92,1657.81,777.43,1659.87Z" fill="#040706"/>
        <path d="M730.37,1657.9a4.32,4.32,0,0,1-5.46.72,11.77,11.77,0,0,1,.89-1.21,3.52,3.52,0,0,1,1.6-1.07Q728.87,1657.15,730.37,1657.9Z" fill="#040706"/>
        <path d="M728.05,1693.91c-7.38-6.41-5-15.45-3.78-24a9.46,9.46,0,0,0,3.62,4c.88,7,1.43,14,1.78,21A4.74,4.74,0,0,1,728.05,1693.91Z" fill="#040706"/>
        <path d="M730.37,1657.9q-1.5-.75-3-1.56a4.84,4.84,0,0,1,3.88.41A5.36,5.36,0,0,1,730.37,1657.9Z" fill="#040706"/>
        <path d="M727.49,1648.86a26.16,26.16,0,0,0-4.49-3.15,4,4,0,0,1,4.27.14c.63.39,1.26.77,1.9,1.14l-.28.47Z" fill="#040706"/>
        <path d="M733.28,1659.28a4.7,4.7,0,0,1-.43,3.47c-2.82-.75-5.65-1.51-8.46-2.29,0-.19-.11-.37-.17-.54a10.78,10.78,0,0,1,.69-1.3,4.32,4.32,0,0,0,5.46-.72Q731.81,1658.62,733.28,1659.28Z" fill="#040706"/>
        <path d="M724.27,1669.9a43.55,43.55,0,0,0,.54-6,12.47,12.47,0,0,0-.42-3.42c2.81.78,5.64,1.54,8.46,2.29a4.66,4.66,0,0,1-.61.93,5,5,0,0,0-5,5.65c.22,1.51.43,3,.62,4.54A9.46,9.46,0,0,1,724.27,1669.9Z" fill="#040706"/>
        <path d="M724.27,1669.9a11.92,11.92,0,0,1-.25-9.53c.12,0,.24.07.37.09a12.47,12.47,0,0,1,.42,3.42A43.55,43.55,0,0,1,724.27,1669.9Z" fill="#040706"/>
        <path d="M724.22,1659.92c.06.17.12.35.17.54-.13,0-.25-.06-.37-.09C724.08,1660.22,724.15,1660.07,724.22,1659.92Z" fill="#040706"/>
        <path d="M720.65,1650.11a4.94,4.94,0,0,1,2.35-4.4,26.16,26.16,0,0,1,4.49,3.15l-2.45,2.45C723.57,1650.92,722.11,1650.52,720.65,1650.11Z" fill="#040706"/>
        <path d="M720.65,1650.11c1.46.41,2.92.81,4.39,1.2l-2.3,2.31h0l-.65.32-1-1.94A4.62,4.62,0,0,1,720.65,1650.11Z" fill="#040706"/>
        <path d="M723.59,1657c-.51-1-1-2-1.51-3.07l.65-.32h0q2.29,1.43,4.66,2.72a3.52,3.52,0,0,0-1.6,1.07,11.77,11.77,0,0,0-.89,1.21A4.15,4.15,0,0,1,723.59,1657Z" fill="#040706"/>
        <path d="M668.29,1643.16c0,.3.09.59.14.86a4.43,4.43,0,0,1-.57-.74A3,3,0,0,1,668.29,1643.16Z" fill="#040706"/>
        <path d="M756.75,1867.84v-32a1.5,1.5,0,0,0-3,0v32a1.5,1.5,0,0,0,3,0Z" fill="#040706"/>
        <path d="M759.7,1858.48a133.65,133.65,0,0,0,2.74-46.61c-.22-1.89-3.22-1.91-3,0a131.25,131.25,0,0,1-2.63,45.81c-.45,1.88,2.45,2.68,2.89.8Z" fill="#040706"/>
        <path d="M763.74,1835.91a278.6,278.6,0,0,0-2.54-62.55c-.29-1.9-3.18-1.09-2.89.8a275.58,275.58,0,0,1,2.43,61.75c-.14,1.93,2.87,1.92,3,0Z" fill="#040706"/>
        <path d="M761.63,1799.94a262,262,0,0,0,1-50.09c-.14-1.91-3.14-1.93-3,0a262,262,0,0,1-1,50.09c-.22,1.91,2.78,1.9,3,0Z" fill="#040706"/>
        <path d="M1060.34,1688.26a54,54,0,0,0-1,45.29,50.31,50.31,0,0,0,6.83,11.34c1.2,1.51,3.31-.62,2.12-2.12-9-11.42-12.39-27-9.46-41.2a48.36,48.36,0,0,1,4.07-11.8c.87-1.72-1.72-3.24-2.59-1.51Z" fill="#040706"/>
        <path d="M970.75,1733.56a1.5,1.5,0,0,0,0-3,1.5,1.5,0,0,0,0,3Z" fill="#040706"/>
        <path d="M954.38,1731.78a1.5,1.5,0,0,0,0-3,1.5,1.5,0,0,0,0,3Z" fill="#040706"/>
        <path d="M937.52,1761.76a528.85,528.85,0,0,1-16.6-90q-1.24-12.94-1.84-26c-.09-1.92-3.09-1.93-3,0a533.24,533.24,0,0,0,12.25,91.5q2.83,12.69,6.3,25.24a1.5,1.5,0,0,0,2.89-.8Z" fill="#040706"/>
        <path d="M914.57,1765.46a262.91,262.91,0,0,1-3.75-59.62c.1-1.93-2.9-1.92-3,0a266,266,0,0,0,3.86,60.42c.34,1.9,3.23,1.09,2.89-.8Z" fill="#040706"/>
        <path d="M966.66,1785.84l-.69,78q-.09,11-.19,22a1.5,1.5,0,0,0,3,0l.69-78q.09-11,.19-22a1.5,1.5,0,0,0-3,0Z" fill="#040706"/>
        <path d="M939.92,1801.82a263.31,263.31,0,0,1-.72,67.08q-1.32,9.33-3.29,18.56c-.41,1.88,2.48,2.69,2.89.8a266.36,266.36,0,0,0,5.67-67.17q-.42-9.66-1.55-19.27c-.22-1.9-3.22-1.92-3,0Z" fill="#040706"/>
        <path d="M919.75,1805.84l-6.54,56.07q-.93,7.93-1.85,15.88c-.23,1.91,2.77,1.9,3,0l6.54-56.07q.92-8,1.85-15.88c.22-1.92-2.78-1.9-3,0Z" fill="#040706"/>
        <path d="M932.82,1844.66c9.61-1.51,19.79-2.61,28.78,1.13,11.95,5,20,17.82,32.74,20.25,3.73.72,8.1.22,10.5-2.73,2-2.41,2.11-5.79,2.15-8.91q.62-49.28-3.09-98.49c-11.06-3.35-23,2.19-31.81,9.63s-16,16.88-25.36,23.6c-4.78,3.41-10.06,6-15,9.16-9.73,6.1-18.22,14-26.65,21.77-15.7,14.55-34.1,28.93-47.51,45.16C880.75,1854.22,907.51,1848.66,932.82,1844.66Z" fill="#040706" opacity="0.22"/>
        <path d="M1084.49,1652.86c-18.57,5.46-52.54,4.09-68.09,12.26-14.67,7.71-14,30.53,3.85,37.9,16.47,6.79,35.26-.49,50.66-9.47" fill="#040706" opacity="0.22"/>
        <path d="M1101.34,1774.07c5.39,14.16,14,27.12,17.55,41.86,2.33,9.74,2.31,19.89,1.67,29.89-3.41,52.84-29,108.93-78.19,128.59,19-23.94,38.33-48.49,48.3-77.37,21.09-61.06-7.22-120.46-1.43-181.41C1099.09,1729.51,1094.79,1756.88,1101.34,1774.07Z" fill="#040706" opacity="0.22"/>
        <path d="M776.64,1740l-1.94,50.44c-.56,14.66-1.12,29.36-.06,44,1,14.12,3.58,28.12,3.89,42.28a135.41,135.41,0,0,1-19.46,72.73,231.44,231.44,0,0,1-2.89-65.73c2-20.23,6.24-33.42,8.77-53.58,3-23.66,3.42-47.55,3.81-71.38q.24-14.73.44-29.46C774.32,1731.41,776.85,1734.42,776.64,1740Z" fill="#040706" opacity="0.22"/>
      </g>
    </g>
    <path d="M1107.76,1993.1c11.45.6,22.44-4.51,32.19-10.56s18.93-13.21,29.59-17.46c5.7-2.27,11.78-3.7,17.06-6.82a8.66,8.66,0,0,0-11.12-4.22c-3.16,1.46-6.1,5-9.35,3.7-4.63-1.81,14.84-18.68,13.27-22.07-2.58-5.57-14.15-1-17.29,1.42-9.29,7.21-16.82,19.17-25,27.71Q1122.93,1979.47,1107.76,1993.1Z" fill="#474d5a"/>
    <path d="M743.75,1954.54a2.9,2.9,0,0,0-3.29,2,119.51,119.51,0,0,0,93.18,17.78c-9.46,12.89-26.77,17.15-42.73,18.06-13.51.76-28.13-.62-38.5-9.3-4.65,5.1-.65,14,5.61,16.86s13.53,1.83,20.41,1.35a112.41,112.41,0,0,1,30,1.88c-10.34,8-22,16.34-35,15.17-7.12-.64-13.69-4.16-19.39-8.46a72.71,72.71,0,0,1-25-34.79,271,271,0,0,0,28.07.32,97.08,97.08,0,0,0-24.3-22.14" fill="#474d5a"/>
    <path d="M916.41,1953.66c-5.78,5.31-11.89,11-19.69,13-8.73,2.27-17.93,0-26.8.85a3.09,3.09,0,0,0-3,3,3,3,0,0,0,3,3c9.6-.87,19.4,1.44,28.85-1.18,8.62-2.4,15.45-8.51,21.88-14.43a3,3,0,0,0-4.24-4.24Z" fill="#040706"/>
    <path d="M911.05,1980.54A143.15,143.15,0,0,1,862.42,1992q-7.24.4-14.5.08a3,3,0,0,0,0,6,149.54,149.54,0,0,0,51.88-7c4.85-1.55,9.6-3.38,14.28-5.4,1.49-.65,1.83-2.83,1.08-4.11a3.08,3.08,0,0,0-4.11-1.07Z" fill="#040706"/>
    <path d="M681.21,1971.52a413,413,0,0,0,54.94,26.25q8,3.15,16.2,5.94a3,3,0,1,0,1.59-5.79,402.24,402.24,0,0,1-54.76-23.43q-7.56-3.91-14.94-8.15c-3.36-1.92-6.38,3.26-3,5.18Z" fill="#040706"/>
    <path d="M669.6,1728.13a386.94,386.94,0,0,0,43.18,31.36c1.84,1.16,3.7,2.29,5.56,3.41,1.46.88,2.43,1.31,2.56,3.07.34,4.69.6,9.39.9,14.08l1.8,28.22c.62,9.63,1.24,19.5-1.83,28.81a3,3,0,1,0,5.79,1.59c2.86-8.67,2.78-17.93,2.26-27-.55-9.57-1.22-19.13-1.83-28.7q-.45-7.18-.92-14.36c-.15-2.4,0-5.1-1.34-7.22-1.15-1.88-3.13-3-5-4.08q-11.67-7-22.81-14.91-12.44-8.79-24.12-18.56a3.08,3.08,0,0,0-4.24,0,3,3,0,0,0,0,4.24Z" fill="#040706"/>
    <path d="M1163.18,1900.18a124.54,124.54,0,0,1-22,36.29,144.27,144.27,0,0,1-16.14,15.61c-3.09,2.61-6.21,5.19-9.17,8-2.79,2.62-5.35,5.45-8.06,8.15-5.22,5.2-12.46,10.74-20.27,8.22a3,3,0,0,0-1.6,5.78c7.94,2.56,16-1.08,22.13-6.1a110,110,0,0,0,8.53-8.34c2.89-3,6-5.73,9.11-8.41a187.93,187.93,0,0,0,17.48-16.13,130.57,130.57,0,0,0,25.73-41.44,3,3,0,0,0-2.1-3.69,3.06,3.06,0,0,0-3.69,2.1Z" fill="#040706"/>
    <path d="M1180.32,1989.13a182.66,182.66,0,0,1-44.22,21.78q-6.75,2.25-13.66,4c-3.75.94-2.16,6.73,1.59,5.79a188.69,188.69,0,0,0,47-18.76q6.29-3.56,12.28-7.59a3.08,3.08,0,0,0,1.08-4.11,3,3,0,0,0-4.11-1.07Z" fill="#040706"/>
    <path d="M1111.44,1657c3.11,6,3.5,12.93,3.85,19.56.38,7,.63,14.39,3.3,21,2.8,7,8.4,12.2,11.5,19a33.62,33.62,0,0,1-5.8,35.63c-2.63,2.83,1.61,7.08,4.24,4.24a39.79,39.79,0,0,0,8.58-38.12,37.81,37.81,0,0,0-4.5-9.53c-2.16-3.3-4.7-6.35-6.69-9.77-3.6-6.2-4.14-13.41-4.52-20.41-.46-8.42-.83-17-4.78-24.64a3,3,0,0,0-4.1-1.07,3.06,3.06,0,0,0-1.08,4.1Z" fill="#040706"/>
    <path d="M1108,1721.21c2.56,8.64,1.81,17.93,2.11,26.83q.48,14.31,2.08,28.54a3.09,3.09,0,0,0,3,3c1.48,0,3.18-1.37,3-3q-1.62-14.46-2.1-29c-.3-9.29.37-18.92-2.3-27.93-1.1-3.69-6.89-2.12-5.79,1.59Z" fill="#040706"/>
    <path d="M799.8,1931.55c17.78,2.89,35.34-2.21,51.16-10.15,4.39-2.21,8.68-4.64,12.9-7.16,3.31-2,.3-7.17-3-5.18-14,8.34-29.12,15.88-45.59,17.17a58.38,58.38,0,0,1-13.85-.46,3.1,3.1,0,0,0-3.69,2.09c-.39,1.44.49,3.43,2.1,3.69Z" fill="#040706"/>
    <path d="M885.1,1925.68a27.62,27.62,0,0,1-9.2,6.29c-3.89,1.79-7.93,3.29-11.9,4.9l-26.84,10.84a3.09,3.09,0,0,0-2.09,3.69c.39,1.42,2.18,2.71,3.69,2.1l27.76-11.22c7.88-3.19,17-5.85,22.82-12.35a3.07,3.07,0,0,0,0-4.25,3,3,0,0,0-4.24,0Z" fill="#040706"/>
    <path d="M959,1957.86A317.66,317.66,0,0,0,995.1,1981c3.39,1.86,6.42-3.32,3-5.18a316.37,316.37,0,0,1-36.1-23.19,3,3,0,0,0-4.1,1.08,3.07,3.07,0,0,0,1.07,4.11Z" fill="#040706"/>
  </g>
</svg>
