<svg id="Ass3" xmlns="http://www.w3.org/2000/svg" viewBox="0 0 1801 2046">
  <title>ass2</title>
  <g>
    <g>
      <path d="M950.56,2048.93l-5-32.43c-1.48-13.13-6.78-49.41-13.44-59.42-7-10.53-12.2-30.85-15.9-51.24l1.56,58.32-5.87,79.71-249.54,4.65,2.65-4.6c.16-.28,16-28.12,14.11-57.8l-2.28-35.25L681,1952c.13,0,12.78,3.5,21.46-2.57,12.7-8.9,13.41-23.73,2.1-44.09l-.53-1,.2-1.07c.06-.3,5.85-30.56,3-43.8-.48-2.21-.8-4.69-1.17-7.57-2-15.48-5.31-41.39-41.89-73.81l-1-.92,0-1.37c0-1,1.4-96.72-7-141.41l-.9-4.83,123.21,36.91,64.94,18,33.4,9.4L1007,1671.49l92.88-24,32.3-7.8.43,3.32c.05.39,5,38.92,11.85,58.39,4.81,13.74,6.37,30.35,7.5,42.49a113.39,113.39,0,0,0,1.58,12.78c1.83,7.31,10.4,18.81,10.49,18.92l.71,1-.13,1.18c0,.27-2.88,27.23,3,71.28,4.53,33.94,18.46,80.72,27.68,111.67,3,10,5.55,18.65,7.25,24.94,7,26.17,5.18,58.6,5.09,60l-.17,2.82Zm1-33.16,4.17,27.15,246.06-.49c.28-8.46.6-34.34-5-55.23-1.67-6.21-4.23-14.82-7.2-24.78-9.27-31.14-23.29-78.19-27.87-112.6-5.36-40.16-3.63-65.82-3.13-71.55-2.22-3.08-9-12.9-10.81-20.12-.72-2.86-1.16-7.63-1.73-13.67-1.11-11.83-2.63-28-7.19-41.07-5.91-16.86-10.32-46.36-11.7-56.29l-25.77,6.22-93.19,24-131.63,22.7-34.69-9.77-65-18-113.92-34.12c7,43.75,6.37,124.85,6.24,136.4,37.3,33.5,40.76,60.46,42.84,76.63.35,2.74.65,5.11,1.07,7.07,2.81,13.1-1.73,39.41-2.78,45.13,16.34,30.17,4.28,44.86-4.43,51-7.66,5.36-17.16,5-22.47,4.25l1.74,27.1c1.59,24.51-7.87,47.16-12.49,56.6L906.34,2038l5.45-74-3.16-117.52,6-.31c.07.84,6.57,83.59,22.51,107.57C945.87,1966.91,951.22,2013,951.53,2015.77Z" fill="#040706" stroke="#040706" stroke-miterlimit="10" stroke-width="6"/>
      <g>
        <path d="M1125.6,1761.63c3.11,19,9.65,37.28,16.15,55.42q6.59,18.35,13.16,36.68c3.28,9.15,6.57,18.33,11.14,26.9a114.88,114.88,0,0,0,7,11.34,422.5,422.5,0,0,1-8.4-42.55c-6-45-3-72-3-72s-9-12-11-20-2-35-9-55-12-59-12-59l-23.88,5.77a360.32,360.32,0,0,1,16.16,76.65C1123.09,1737.78,1123.67,1749.79,1125.6,1761.63Z" fill="#1e1e20"/>
        <path d="M720.63,1895.42c-7-35,13-85-9-106s-28-23-27-46c.78-17.87,4.68-75.23,6.38-100l-31.88-9.55c8.5,45.5,7,142,7,142,44,39,41,69,44,83s-3,45-3,45c15,27,7,41-3,48s-24,3-24,3l2,31c2,31-14.5,59.5-14.5,59.5l31.69-.59c5-17.31,12.31-44.28,12.31-55.41C711.63,1972.42,727.63,1930.42,720.63,1895.42Z" fill="#1e1e20"/>
        <path d="M884.56,1984.8q1.94-32.71,3.86-65.42l2.25-38.28c2.38-40.41,4.7-81.56-5.13-120.83-2.57-10.28-6-20.43-7-31-1.12-11.17.41-22.16,2.88-33.1l-4.72.82-34-9.59-65-18-86.62-26c-1.7,24.72-5.6,82.08-6.38,100-1,23,5,25,27,46s2,71,9,106-9,77-9,94c0,11.13-7.28,38.1-12.31,55.41l171.89-3.2q.46-.7.9-1.41C882.05,2023.87,883.44,2003.9,884.56,1984.8Z" fill="#2d2c30"/>
        <path d="M977.81,1984.38c-4.6-17.35,2.21-35.58,1.85-53.53-.5-24.87-14.52-47.15-22.3-70.78-4.28-13-6.69-26.5-9.08-40-2.79-15.67-5.59-31.59-3.86-47.41,1.28-11.72,5-23.36,3.7-35.08C946,1719.16,932,1705,921.75,1689.23l-40.36,7c-2.47,10.94-4,21.93-2.88,33.1,1.06,10.55,4.46,20.7,7,31,9.83,39.27,7.51,80.42,5.13,120.83l-2.25,38.28q-1.93,32.71-3.86,65.42c-1.12,19.1-2.51,39.07-12.45,55.42q-.43.71-.9,1.41l37.92-.71,5.66-76.83-3.16-117.67s6.44,84.09,23,109c8.52,12.82,13.92,60.74,13.92,60.74l4.58,29.76,42.41-.08a97,97,0,0,0-8.29-39.59C984,1999,979.85,1992.07,977.81,1984.38Z" fill="#1e1e20"/>
        <path d="M1173,1898.56a116.21,116.21,0,0,1-7-11.35c-4.57-8.57-7.86-17.75-11.14-26.89q-6.59-18.35-13.16-36.68c-6.5-18.14-13-36.41-16.15-55.43-1.93-11.83-2.51-23.85-3.69-35.78a360.54,360.54,0,0,0-16.16-76.66l-5.12,1.24-93,24-85.88,14.81c10.28,15.77,24.25,29.92,26.37,48.39,1.34,11.72-2.42,23.35-3.7,35.07-1.73,15.82,1.07,31.75,3.86,47.42,2.39,13.46,4.8,27,9.08,40,7.78,23.62,21.8,45.91,22.3,70.78.36,18-6.45,36.18-1.85,53.53,2,7.68,6.2,14.6,9.44,21.86a97.05,97.05,0,0,1,8.29,39.59l209.09-.41s2-33-5-59C1194.64,1974.48,1182,1935.64,1173,1898.56Z" fill="#2d2c30"/>
      </g>
      <g>
        <circle cx="1283.13" cy="1761.92" r="20.5" fill="#040706"/>
        <g>
          <g id="_Группа_" data-name="&lt;Группа&gt;">
            <g>
              <path d="M920.2,1877.55l-.47,1.25a8.27,8.27,0,0,0-2.32-1.39,2.26,2.26,0,0,1,0-.25c0-2.74.14-5.49.23-8.23a3.93,3.93,0,0,0-2.28-3.89c2-5.3,4-10.61,5.82-16,1.77-5.15,3.94-10.66,4.46-16.13.55-5.72,9.55-5.76,9,0-.64,6.73-2.93,13.23-5.14,19.57C926.56,1860.91,923.33,1869.22,920.2,1877.55Z" fill="#040706"/>
              <path d="M917.39,1879.56c0,.07.05.13,0,.17C917.72,1879.33,917.12,1880.77,917.39,1879.56Z" fill="#040706"/>
              <path d="M908.63,1868.93c.13-3.83,4.1-5.12,6.72-3.89l-2.51,6.63c-.67,1.78-1.36,3.56-2,5.34s-1.35,3.57-2,5.36C907.34,1878.32,908.52,1872,908.63,1868.93Z" fill="#040706"/>
              <path d="M914,1886.16a5.6,5.6,0,0,1-.27-.51c.27.28,1.79.16,1.79.16A2.58,2.58,0,0,1,914,1886.16Z" fill="#040706"/>
              <path d="M913.68,1885.54a.51.51,0,0,0,0,.09A.08.08,0,0,1,913.68,1885.54Z" fill="#040706"/>
              <path d="M913.7,1885.63a.51.51,0,0,1,0-.09A.08.08,0,0,0,913.7,1885.63Zm0,0a5.6,5.6,0,0,0,.27.51,6.77,6.77,0,0,1-2.88-.75,5.46,5.46,0,0,1-2.32-3c.67-1.79,1.34-3.57,2-5.36l2.11.16c.71-.3,4.09,1.69,4.48,2.39-.27,1.21.33-.23,0,.17,0,0,0-.1,0-.17l0-.12a9.2,9.2,0,0,0,0-2,8.27,8.27,0,0,1,2.32,1.39c-1.29,3.45-2.59,6.91-3.82,10.39l-.08-.17c-.1-.2-1.28-1.9-1.85-2.86a2.58,2.58,0,0,0,1.52-.35S914,1885.93,913.71,1885.65Z" fill="#040706"/>
              <path d="M913.32,1877.09a6.58,6.58,0,0,1,3.27.05,6,6,0,0,1,.82.27,9.2,9.2,0,0,1,0,2l0,.12c-.39-.7-3.77-2.69-4.48-2.39C913,1877.12,913.19,1877.14,913.32,1877.09Z" fill="#040706"/>
              <path d="M916.59,1877.14a6.58,6.58,0,0,0-3.27-.05c-.13.05-.29,0-.41.08l-2.11-.16c.68-1.78,1.37-3.56,2-5.34l2.51-6.63a3.93,3.93,0,0,1,2.28,3.89c-.09,2.74-.21,5.49-.23,8.23a2.26,2.26,0,0,0,0,.25A6,6,0,0,0,916.59,1877.14Z" fill="#040706"/>
            </g>
          </g>
          <path d="M1097,1654.48l7.46-1.78c-3.28,2-6.54,4-9.8,6a24.21,24.21,0,0,0,1.61-2.22A4.44,4.44,0,0,0,1097,1654.48Z" fill="#040706"/>
          <path d="M1104.5,1652.7l-7.46,1.78c.2-2.58-2.36-4.65-4.9-4.59l6.34-3.87c.91-.55,1.83-1.16,2.76-1.79" fill="#040706"/>
          <path d="M1094.7,1658.73c-.36.46-.74.9-1.14,1.33a2.53,2.53,0,0,0-.31-.42Z" fill="#040706"/>
          <path d="M1092.14,1649.89l-3.74,2.28a1.43,1.43,0,0,0,.14-.2A4.29,4.29,0,0,1,1092.14,1649.89Z" fill="#040706"/>
          <path d="M1093.25,1659.64c-2.69,1.68-5.37,3.36-8.07,5l0-2.18C1085.27,1657.88,1091,1656.94,1093.25,1659.64Z" fill="#040706"/>
          <path d="M1094.7,1658.73l-1.45.91c-2.3-2.7-8-1.76-8,2.84l0,2.18-3.35,2.06c-1.09-2.61-2.2-5.21-3.3-7.82l18.51-4.42a4.44,4.44,0,0,1-.73,2A24.21,24.21,0,0,1,1094.7,1658.73Z" fill="#040706"/>
          <path d="M1085.18,1664.66c2.7-1.66,5.38-3.34,8.07-5a2.53,2.53,0,0,1,.31.42,22.64,22.64,0,0,1-8.4,5.84C1085.17,1665.48,1085.18,1665.07,1085.18,1664.66Z" fill="#040706"/>
          <path d="M1097,1654.48l-18.51,4.42c-.06-.13-.11-.27-.17-.4a14.5,14.5,0,0,0,10-6.33l3.74-2.28C1094.68,1649.83,1097.24,1651.9,1097,1654.48Z" fill="#040706"/>
          <path d="M1080.76,1667.17c-4.69.86-7.73-4.92-4-7.84h0l1.78-.42c1.1,2.61,2.21,5.21,3.3,7.82l3.35-2.06c0,.41,0,.82,0,1.24A21.89,21.89,0,0,1,1080.76,1667.17Z" fill="#040706"/>
          <path d="M1078.53,1658.9l-1.78.42c.17-.13.35-.25.54-.37l11.11-6.78a14.5,14.5,0,0,1-10,6.33C1078.42,1658.63,1078.47,1658.77,1078.53,1658.9Z" fill="#040706"/>
          <path d="M1059.91,1663.35l-10.09,2.41c.35-1,.73-2.1,1.12-3.14C1052.73,1657.83,1059.82,1659.16,1059.91,1663.35Z" fill="#040706"/>
          <path d="M994.94,1669.61c.22,1.85.43,3.7.6,5.56l-5.7-4.34Z" fill="#040706"/>
          <path d="M994.94,1669.61l-5.1,1.22,5.7,4.34c-.17-1.86-.38-3.71-.6-5.56l106.3-25.38c-.93.63-1.85,1.24-2.76,1.79l-6.34,3.87a4.29,4.29,0,0,0-3.6,2.08,1.43,1.43,0,0,1-.14.2l-11.11,6.78c-.19.12-.37.24-.54.37h0l-16.83,4c-.09-4.19-7.18-5.52-9-.73-.39,1-.77,2.09-1.12,3.14q-18.1,4.31-36.2,8.64l-21.39,5.11c-3.05.72-5.42-1.39-5.69-4.34" fill="#040706"/>
          <path d="M1101.24,1644.23l-106.3,25.38" fill="#77654d"/>
          <path d="M941.79,1781.48q2-1.39,4-2.76a47.14,47.14,0,0,0-2.82,6.11l-.25-.09A7.64,7.64,0,0,0,941.79,1781.48Z" fill="#040706"/>
          <path d="M941.79,1781.48a7.64,7.64,0,0,1,.88,3.26l-4.61-.63Q939.92,1782.79,941.79,1781.48Z" fill="#040706"/>
          <path d="M911.44,1933.82l-.3,1.51a32.81,32.81,0,0,1-2.29-2.69Z" fill="#040706"/>
          <path d="M892.41,1817.76,891,1820l-3.91-6.35H893c-.58,1.37-1.11,2.78-1.59,4.21Z" fill="#040706"/>
          <path d="M837.06,1688.33a5.19,5.19,0,0,1-3.44,5.19l-.06-2.2c.41-2.55-1.42-3.35-5.47-2.4l1-2.41Z" fill="#040706"/>
          <path d="M829.09,1686.09l.31-.36c0,.09-.08.19-.11.28Z" fill="#040706"/>
          <path d="M832.27,1684.77l-3,1.24c0-.09.07-.19.11-.28l-.31.36.2-.08-.21.5-.92-.21a3.8,3.8,0,0,1,3.53-1.57Z" fill="#040706"/>
          <path d="M833.93,1682.78a6.13,6.13,0,0,1,3.13,5.55l-8-1.82.21-.5,3-1.24-.58,0a3.8,3.8,0,0,0-3.53,1.57l-2.09-.49C827.45,1682.74,829.93,1680.68,833.93,1682.78Z" fill="#040706"/>
          <path d="M829.08,1686.51l-1,2.41c4-1,5.88-.15,5.47,2.4l.06,2.2a5.43,5.43,0,0,1-1.93.21c-4.12-.25-5.3-4.92-3.53-7.43Z" fill="#040706"/>
          <path d="M807.87,1671.36a28.22,28.22,0,0,0,13.4.2c3.61-.89,5.89,2.38,5.57,5.19q-9.6-2.22-19.18-4.52Z" fill="#040706"/>
          <path d="M784.8,1671.61c7.39,3,14.59,6.62,22.12,8.43l-.29,1.2q-10.83-2.6-21.66-5.27A30.62,30.62,0,0,0,784.8,1671.61Z" fill="#040706"/>
          <path d="M785,1676l-8.88-2.22c0-.32-.08-.64-.13-1a4.63,4.63,0,0,1,1.18-3.92c2.59.77,5.14,1.72,7.66,2.74A30.62,30.62,0,0,1,785,1676Z" fill="#040706"/>
          <path d="M807.66,1672.23q9.58,2.31,19.18,4.52a3.94,3.94,0,0,1-3.18,3.49,34.77,34.77,0,0,1-16.74-.2c-7.53-1.81-14.73-5.44-22.12-8.43,0-.41-.1-.81-.16-1.22a3.5,3.5,0,0,0-2.69-3.15l.31-1.22Q794.94,1669.19,807.66,1672.23Z" fill="#040706"/>
          <path d="M784.8,1671.61c-2.52-1-5.07-2-7.66-2.74a5.18,5.18,0,0,1,4.81-1.63,3.5,3.5,0,0,1,2.69,3.15C784.7,1670.8,784.75,1671.2,784.8,1671.61Z" fill="#040706"/>
          <path d="M731.86,1674.45c-.77,4.41-1.77,9.46,1.93,12.67a3.86,3.86,0,0,1,1.47,3,4.88,4.88,0,0,1-6.21,4.35c-.35-7-.9-14-1.78-21a10,10,0,0,0,1.18.6A5.73,5.73,0,0,0,731.86,1674.45Z" fill="#040706"/>
          <path d="M733,1666.29c.08-.92.14-1.84.15-2.75a3.57,3.57,0,0,1,2.15,3c1.16,7.77,1.89,15.58,2.37,23.42l-2.44.14a3.86,3.86,0,0,0-1.47-3c-3.7-3.21-2.7-8.26-1.93-12.67a4.08,4.08,0,0,0,2.75-2C735.71,1670.55,735.25,1667.26,733,1666.29Z" fill="#040706"/>
          <path d="M733.18,1662.59a23.34,23.34,0,0,0-.32-3.64,85.16,85.16,0,0,0,14,5c9.57,2.48,19.63,2,29.12,4.62l1.2.35a4.63,4.63,0,0,0-1.18,3.92c0,.32.09.64.13,1Q754.58,1668.35,733.18,1662.59Z" fill="#040706"/>
          <path d="M732,1673.42c.38-2.35.79-4.74,1-7.13,2.22,1,2.68,4.26,1.58,6.14a4.08,4.08,0,0,1-2.75,2C731.92,1674.1,732,1673.76,732,1673.42Z" fill="#040706"/>
          <path d="M732.23,1662.33a4.7,4.7,0,0,0,.43-3.47,1.21,1.21,0,0,0,.2.09,23.34,23.34,0,0,1,.32,3.64C732.86,1662.51,732.54,1662.43,732.23,1662.33Z" fill="#040706"/>
          <path d="M732.25,1666c-.09-.06-.08-.07,0,0l.07.08Z" fill="#040706"/>
          <path d="M731.69,1665.31v0l0,0Z" fill="#040706"/>
          <path d="M731.64,1663.26c.05,0,.06,0,.06,0Z" fill="#040706"/>
          <path d="M731.62,1663.26h0l0,0Z" fill="#040706"/>
          <path d="M732.23,1662.33c.31.1.63.18.95.26,0,.31,0,.63,0,1a3.86,3.86,0,0,0-1.48-.28s0,0-.06,0h0A4.66,4.66,0,0,0,732.23,1662.33Z" fill="#040706"/>
          <path d="M731.64,1663.26h.06c0,.11-.22.47-.17.18a.51.51,0,0,1,0-.09l.05-.06Z" fill="#040706"/>
          <path d="M731.35,1664.16s0-.05,0-.07a.25.25,0,0,0,0-.07c.1-.27.1.6,0,.22a.25.25,0,0,1,0-.07Z" fill="#040706"/>
          <path d="M733.18,1663.54c0,.91-.07,1.83-.15,2.75h0c-.07,0-.59-.29-.76-.36l-.39-.34c-.06-.07-.09-.09-.1-.09a1,1,0,0,0,0-.15v0a5.21,5.21,0,0,1-.2-.54s-.12-.48-.14-.6a.25.25,0,0,0,0,.07c.11.38.11-.49,0-.22,0-.2.09-.38.15-.58,0,.29.16-.07.17-.18A3.86,3.86,0,0,1,733.18,1663.54Z" fill="#040706"/>
          <path d="M732.86,1659a1.21,1.21,0,0,1-.2-.09,4.37,4.37,0,0,0-1.11-1.87,3.88,3.88,0,0,0-.89-.66,4.33,4.33,0,0,0,.58-2.39,16.4,16.4,0,0,1,1.33,3.6C732.68,1658,732.78,1658.48,732.86,1659Z" fill="#040706"/>
          <path d="M732.24,1665.92c.17.07.69.32.76.36h0c-.21,2.39-.62,4.78-1,7.13,0,.34-.11.68-.17,1a5.73,5.73,0,0,1-3.41-.4,10,10,0,0,1-1.18-.6c-.19-1.52-.4-3-.62-4.54a5,5,0,0,1,5-5.65l0,0-.05.06a.51.51,0,0,0,0,.09c-.06.2-.11.38-.15.58a.25.25,0,0,1,0,.07s0,.05,0,.07h0c0,.12.13.55.14.6a5.21,5.21,0,0,0,.2.54l0,0,0,0a1,1,0,0,1,0,.15s0,0,.1.09l.39.34c-.07,0-.08,0,0,0l.06,0Z" fill="#040706"/>
          <path d="M731.24,1653.94a4.12,4.12,0,0,0-.24-1.26q15.84,4.3,31.74,8.39,9.75,2.51,19.52,5l-.31,1.22a5.18,5.18,0,0,0-4.81,1.63l-1.2-.35c-9.49-2.61-19.55-2.14-29.12-4.62a85.16,85.16,0,0,1-14-5c-.08-.47-.18-.94-.29-1.41A16.4,16.4,0,0,0,731.24,1653.94Z" fill="#040706"/>
          <path d="M730.44,1652.53a5.12,5.12,0,0,0,.56.15,4.12,4.12,0,0,1,.24,1.26A13.87,13.87,0,0,0,730.44,1652.53Z" fill="#040706"/>
          <path d="M722.12,1653.2l2.3-2.31c2,.56,4,1.1,6,1.64a13.87,13.87,0,0,1,.8,1.41,4.33,4.33,0,0,1-.58,2.39,4.84,4.84,0,0,0-3.88-.41Q724.41,1654.63,722.12,1653.2Z" fill="#040706"/>
          <path d="M731.55,1657a4.37,4.37,0,0,1,1.11,1.87q-1.47-.66-2.91-1.38a5.36,5.36,0,0,0,.91-1.15A3.88,3.88,0,0,1,731.55,1657Z" fill="#040706"/>
          <path d="M730.44,1652.53a17.9,17.9,0,0,0-3.57-4.09l1.4-1.4,2.47,5a5.59,5.59,0,0,1,.26.63A5.12,5.12,0,0,1,730.44,1652.53Z" fill="#040706"/>
          <path d="M730.44,1652.53c-2-.54-4-1.08-6-1.64l2.45-2.45A17.9,17.9,0,0,1,730.44,1652.53Z" fill="#040706"/>
          <path d="M776.81,1659.45c10.24,2.47,20.47,9.4,31.06,11.91l-.21.87q-12.72-3-25.4-6.21-9.78-2.44-19.52-5-15.9-4.1-31.74-8.39a5.59,5.59,0,0,0-.26-.63l-2.47-5,.28-.47a80.35,80.35,0,0,0,22.34,9.07C759.43,1657.66,768.3,1657.39,776.81,1659.45Z" fill="#040706"/>
          <path d="M729.75,1657.48a4.32,4.32,0,0,1-5.46.72,11.77,11.77,0,0,1,.89-1.21,3.52,3.52,0,0,1,1.6-1.07Q728.25,1656.73,729.75,1657.48Z" fill="#040706"/>
          <path d="M727.43,1693.49c-7.38-6.41-5-15.45-3.78-24a9.46,9.46,0,0,0,3.62,4c.88,7,1.43,14,1.78,21A4.74,4.74,0,0,1,727.43,1693.49Z" fill="#040706"/>
          <path d="M729.75,1657.48q-1.5-.75-3-1.56a4.84,4.84,0,0,1,3.88.41A5.36,5.36,0,0,1,729.75,1657.48Z" fill="#040706"/>
          <path d="M726.87,1648.44a26.16,26.16,0,0,0-4.49-3.15,4,4,0,0,1,4.27.14c.63.39,1.26.77,1.9,1.14l-.28.47Z" fill="#040706"/>
          <path d="M732.66,1658.86a4.7,4.7,0,0,1-.43,3.47c-2.82-.75-5.65-1.51-8.46-2.29,0-.19-.11-.37-.17-.54a10.78,10.78,0,0,1,.69-1.3,4.32,4.32,0,0,0,5.46-.72Q731.19,1658.2,732.66,1658.86Z" fill="#040706"/>
          <path d="M723.65,1669.48a43.55,43.55,0,0,0,.54-6,12.47,12.47,0,0,0-.42-3.42c2.81.78,5.64,1.54,8.46,2.29a4.66,4.66,0,0,1-.61.93,5,5,0,0,0-5,5.65c.22,1.51.43,3,.62,4.54A9.46,9.46,0,0,1,723.65,1669.48Z" fill="#040706"/>
          <path d="M723.65,1669.48a11.92,11.92,0,0,1-.25-9.53c.12,0,.24.07.37.09a12.47,12.47,0,0,1,.42,3.42A43.55,43.55,0,0,1,723.65,1669.48Z" fill="#040706"/>
          <path d="M723.6,1659.5c.06.17.12.35.17.54-.13,0-.25-.06-.37-.09C723.46,1659.8,723.53,1659.65,723.6,1659.5Z" fill="#040706"/>
          <path d="M720,1649.69a4.94,4.94,0,0,1,2.35-4.4,26.16,26.16,0,0,1,4.49,3.15l-2.45,2.45C723,1650.5,721.49,1650.1,720,1649.69Z" fill="#040706"/>
          <path d="M720,1649.69c1.46.41,2.92.81,4.39,1.2l-2.3,2.31h0l-.65.32-1-1.94A4.62,4.62,0,0,1,720,1649.69Z" fill="#040706"/>
          <path d="M723,1656.59c-.51-1-1-2-1.51-3.07l.65-.32h0q2.29,1.42,4.66,2.72a3.52,3.52,0,0,0-1.6,1.07,11.77,11.77,0,0,0-.89,1.21A4.15,4.15,0,0,1,723,1656.59Z" fill="#040706"/>
          <path d="M667.67,1642.74c0,.3.09.59.14.86a4.43,4.43,0,0,1-.57-.74A3,3,0,0,1,667.67,1642.74Z" fill="#040706"/>
          <path d="M914,1765.05a262.37,262.37,0,0,1-3.75-59.62c.09-1.93-2.91-1.93-3,0a265.86,265.86,0,0,0,3.86,60.41c.34,1.9,3.23,1.1,2.89-.79Z" fill="#040706"/>
          <path d="M939.3,1801.4a263.39,263.39,0,0,1-.72,67.09q-1.32,9.33-3.3,18.56c-.4,1.88,2.49,2.68,2.9.79a266.75,266.75,0,0,0,5.67-67.17q-.42-9.66-1.55-19.27c-.22-1.89-3.23-1.91-3,0Z" fill="#040706"/>
          <path d="M919.13,1805.42l-6.54,56.08-1.86,15.88c-.22,1.91,2.78,1.89,3,0l6.54-56.08,1.86-15.88c.22-1.91-2.78-1.9-3,0Z" fill="#040706"/>
        </g>
      </g>
      <path d="M1107.14,1992.68c11.45.61,22.43-4.5,32.18-10.55s18.94-13.21,29.59-17.46c5.7-2.28,11.79-3.7,17.07-6.82a8.65,8.65,0,0,0-11.13-4.22c-3.16,1.46-6.1,5-9.34,3.7-4.63-1.82,14.84-18.68,13.26-22.08-2.58-5.56-14.14-1-17.28,1.43-9.29,7.21-16.82,19.16-25,27.71Q1122.31,1979.06,1107.14,1992.68Z" fill="#474d5a"/>
      <path d="M743.12,1954.13a2.87,2.87,0,0,0-3.28,2A119.6,119.6,0,0,0,833,1973.91c-9.46,12.89-26.77,17.15-42.74,18-13.5.76-28.12-.61-38.49-9.29-4.65,5.1-.65,14,5.61,16.86s13.53,1.83,20.41,1.34a113.3,113.3,0,0,1,30,1.88c-10.34,8-22,16.35-35,15.18-7.12-.64-13.69-4.16-19.39-8.47a72.64,72.64,0,0,1-25-34.78,273.79,273.79,0,0,0,28.07.32,97.26,97.26,0,0,0-24.3-22.14" fill="#474d5a"/>
      <path d="M915.79,1953.25c-5.78,5.3-11.9,11-19.69,13-8.73,2.26-17.93,0-26.8.85a3.08,3.08,0,0,0-3,3,3,3,0,0,0,3,3c9.6-.87,19.4,1.44,28.84-1.19,8.62-2.39,15.45-8.51,21.89-14.42a3,3,0,1,0-4.24-4.24Z" fill="#040706"/>
      <path d="M910.43,1980.12a143,143,0,0,1-48.63,11.46c-4.83.27-9.67.29-14.5.09a3,3,0,0,0,0,6,149.49,149.49,0,0,0,51.87-7,151.91,151.91,0,0,0,14.29-5.41c1.49-.64,1.82-2.82,1.07-4.1a3.07,3.07,0,0,0-4.1-1.08Z" fill="#040706"/>
      <path d="M680.59,1971.11a413.43,413.43,0,0,0,54.93,26.25q8,3.14,16.21,5.93a3,3,0,0,0,3.69-2.09,3.06,3.06,0,0,0-2.1-3.69,403.5,403.5,0,0,1-54.76-23.43q-7.56-3.91-14.94-8.16c-3.36-1.92-6.39,3.27-3,5.19Z" fill="#040706"/>
      <path d="M669,1727.72a388.33,388.33,0,0,0,43.19,31.36q2.76,1.73,5.56,3.41c1.46.88,2.43,1.31,2.56,3.07.34,4.69.6,9.38.9,14.08l1.8,28.22c.62,9.63,1.24,19.5-1.83,28.8a3,3,0,0,0,5.78,1.6c2.87-8.68,2.78-17.94,2.26-27-.55-9.57-1.21-19.14-1.82-28.7q-.47-7.18-.92-14.36c-.15-2.4,0-5.1-1.34-7.23-1.16-1.88-3.13-3-5-4.07q-11.67-7-22.81-14.91-12.44-8.79-24.12-18.56a3.09,3.09,0,0,0-4.25,0,3,3,0,0,0,0,4.24Z" fill="#040706"/>
      <path d="M1162.56,1899.76a124.59,124.59,0,0,1-22,36.3,145.13,145.13,0,0,1-16.14,15.61c-3.09,2.61-6.22,5.19-9.17,8-2.79,2.61-5.35,5.45-8.06,8.14-5.22,5.2-12.46,10.74-20.27,8.22a3,3,0,0,0-1.6,5.79c7.93,2.56,16.05-1.08,22.13-6.1a108.39,108.39,0,0,0,8.53-8.35c2.89-3,6-5.73,9.11-8.41a187.72,187.72,0,0,0,17.48-16.12,131.35,131.35,0,0,0,25.73-41.44,3,3,0,0,0-2.1-3.69,3.07,3.07,0,0,0-3.69,2.09Z" fill="#040706"/>
      <path d="M1179.7,1988.71a182.58,182.58,0,0,1-44.23,21.79c-4.5,1.5-9,2.81-13.65,4-3.75.94-2.16,6.72,1.59,5.79a188.46,188.46,0,0,0,47-18.76q6.3-3.56,12.29-7.6a3.07,3.07,0,0,0,1.08-4.1,3,3,0,0,0-4.11-1.08Z" fill="#040706"/>
      <path d="M1110.82,1656.56c3.11,6,3.49,12.93,3.85,19.56.38,7.05.63,14.38,3.3,21,2.8,7,8.4,12.21,11.5,19a33.26,33.26,0,0,1,2.44,17.61,32.81,32.81,0,0,1-8.25,18c-2.62,2.82,1.61,7.08,4.25,4.24a39.79,39.79,0,0,0,8.58-38.12,37.71,37.71,0,0,0-4.5-9.54c-2.17-3.3-4.71-6.34-6.69-9.76-3.61-6.2-4.14-13.41-4.52-20.42-.46-8.41-.83-17-4.78-24.63a3,3,0,0,0-4.1-1.08,3.06,3.06,0,0,0-1.08,4.11Z" fill="#040706"/>
      <path d="M1107.34,1720.8c2.56,8.64,1.8,17.92,2.1,26.83q.48,14.3,2.09,28.54a3.09,3.09,0,0,0,3,3c1.48,0,3.18-1.38,3-3q-1.62-14.48-2.1-29c-.3-9.28.37-18.91-2.31-27.92-1.09-3.7-6.88-2.13-5.78,1.59Z" fill="#040706"/>
      <path d="M799.18,1931.14c17.78,2.89,35.33-2.21,51.15-10.15,4.4-2.21,8.68-4.64,12.91-7.16,3.31-2,.29-7.17-3-5.19-14,8.35-29.12,15.89-45.59,17.18a58.36,58.36,0,0,1-13.85-.46,3.09,3.09,0,0,0-3.69,2.09c-.39,1.43.49,3.43,2.1,3.69Z" fill="#040706"/>
      <path d="M884.48,1925.27a27.53,27.53,0,0,1-9.21,6.28c-3.89,1.8-7.92,3.3-11.89,4.9l-26.84,10.85a3.08,3.08,0,0,0-2.09,3.69c.39,1.42,2.17,2.7,3.69,2.09l27.76-11.22c7.88-3.18,17-5.84,22.82-12.35a3,3,0,1,0-4.24-4.24Z" fill="#040706"/>
    </g>
    <path d="M881.07,1695.11c2.61,14,4.46,26.84,5.86,40.76s2.2,27.86,2.43,41.83-.14,27.94-1.08,41.88c-.8,11.72-1.34,25.17,8.62,33.47,9.43,7.86,22.48,8.39,34.2,8.09v-9l-21.33,1.58-10.42.77-2.73.21c-.41,0-.82.08-1.24.09h-.44c-.34,0-.2,0,.43.07,0,.07-.7-.2-.77-.22-.55-.09.82.36.09,0s.51.6,0,0a3.48,3.48,0,0,1,0,4.59,4.5,4.5,0,0,0-6.36-6.37,5.71,5.71,0,0,0-.9,7,8.51,8.51,0,0,0,5.15,3.54,18.9,18.9,0,0,0,6.19.06l6.44-.48,25.8-1.91c2.34-.18,4.61-2,4.5-4.5a4.57,4.57,0,0,0-4.5-4.5c-2.48.06-5,.08-7.43,0-1.2,0-2.4-.09-3.59-.18l-1.79-.16-1.07-.11c-.18,0-1.39-.21-.21,0a48.43,48.43,0,0,1-7.14-1.59c-.53-.18-1.07-.36-1.59-.57-.21-.07-1.24-.54-.17,0l-.61-.27a23.91,23.91,0,0,1-3.17-1.76c-.26-.17-1.59-1.21-.68-.44-.42-.36-.85-.7-1.25-1.08s-.79-.77-1.16-1.17c-.23-.25-.44-.51-.66-.76-.72-.86.51.77-.11-.17a25.82,25.82,0,0,1-1.94-3.39c.42.9-.11-.28-.15-.4s-.18-.5-.26-.75c-.25-.76-.46-1.53-.64-2.31s-.26-1.32-.38-2c-.22-1.31.07.92-.05-.41,0-.27,0-.54-.08-.81-.13-1.51-.18-3-.17-4.53,0-2.9.21-5.8.41-8.69a501.71,501.71,0,0,0-1-81.77q-2.19-23.16-6.46-46.07c-.43-2.31-3.36-3.84-5.54-3.14a4.62,4.62,0,0,0-3.14,5.54Z" fill="#040706"/>
    <path d="M1033.46,1668.39a4.21,4.21,0,0,1,1.08.71s-.61-.59-.3-.21a6.2,6.2,0,0,0,.46.42c.26.25.49.52.73.79.59.64-.11-.18-.13-.18.15,0,.36.52.43.64a15.93,15.93,0,0,1,1.11,2.08c.34.72-.28-.81.1.27.16.46.33.93.48,1.4,1.06,3.31,1.64,6.75,2.68,10.07a29.65,29.65,0,0,0,14.83,17.5,43,43,0,0,0,24.49,4.3c9.87-1,19.15-4.37,28.46-7.62a141.34,141.34,0,0,1,15.44-4.66c1.38-.31,2.76-.59,4.16-.82l.69-.11.43-.06c.7-.09,1.4-.16,2.1-.22a47.66,47.66,0,0,1,8.19,0,4.52,4.52,0,0,0,4.5-4.5,4.62,4.62,0,0,0-4.5-4.5c-19.76-1.68-37.15,9.5-56,13-.54.1-1.08.2-1.62.28l-.93.14c-.53.08-.07,0,0,0-1.25.14-2.49.26-3.74.33a41.92,41.92,0,0,1-6.24-.1c-.24,0-1.75-.23-.58,0-.41-.06-.83-.12-1.24-.2-.88-.16-1.76-.34-2.63-.57s-1.74-.47-2.59-.75l-1.18-.42-.67-.26c-.81-.3.42.2-.08,0a36.25,36.25,0,0,1-4.66-2.54c-.34-.22-.67-.46-1-.69-.67-.47,0,0,.08.07l-.55-.44c-.67-.55-1.31-1.14-1.92-1.75s-1.16-1.28-1.72-1.94c.57.67,0,0-.22-.34s-.57-.86-.84-1.31c-.41-.71-.77-1.44-1.12-2.17.37.79,0,0-.12-.35s-.34-1-.49-1.42c-2.47-7.78-3-16.92-10.83-21.53a4.5,4.5,0,0,0-4.54,7.77Z" fill="#040706"/>
    <path d="M1028.08,1679.14c.54,0,1.06,0,1.6,0,.93,0-.31,0-.28-.06s.8.15.9.17c.43.1.86.33,1.29.39.59.09-1-.5-.11-.05l.8.41c.26.15,1.21.57,1.27.82,0,0-.84-.7-.18-.14l.47.41a14.5,14.5,0,0,1,1.12,1.1c.19.19.36.39.54.59s.77,1,.36.43.2.29.23.33l.38.55c.31.47.6.94.88,1.43.57,1,1.06,2,1.54,3-.49-1.07.23.62.32.85.2.54.38,1.08.56,1.63.34,1.08.64,2.17.89,3.27,2,9.11,2.65,19.39,9.73,26.34a20.57,20.57,0,0,0,15.84,5.68c6.11-.41,11.77-2.67,17.3-5.14,2.63-1.17,5.23-2.41,7.87-3.55l.41-.17.86-.36,2.13-.86c1.43-.56,2.87-1.1,4.31-1.62a162.37,162.37,0,0,1,17.44-5.18c3.28-.77,6.6-1.44,9.93-2,.83-.14,1.66-.28,2.5-.4l.91-.14.91-.13.32,0,.77-.1,1.37-.17q1.26-.15,2.52-.27c3.33-.34,6.63-.39,9.51-2.35,3.67-2.5,4.94-6.84,1.84-10.4a4.52,4.52,0,0,0-6.36,0,4.6,4.6,0,0,0,0,6.36,2.93,2.93,0,0,1-.72-2.44c0-.22.63-1.43.21-.78l.18-.25c.25-.31.25-.32,0,0-.55,0,.09.35.2-.13-.07.31-1.92.8-.7.44l-.64.21-.48.11c-.35.07-.21,0,.42-.05a6.78,6.78,0,0,1-2.07.18l-2.06.21c-1.53.16-3,.35-4.57.55A170.27,170.27,0,0,0,1113,1701a185.44,185.44,0,0,0-32.86,11.85c-.66.3-1.32.6-2,.88-.24.11-1.62.69-.93.41-1.34.55-2.69,1.07-4.06,1.54s-2.45.77-3.69,1.07c-.61.14-1.22.27-1.84.38-.23,0-1.14.16-.23,0-.4,0-.8.08-1.21.11a20.38,20.38,0,0,1-3.58-.07c.9.1.22,0,0,0s-.65-.13-1-.22-.64-.17-1-.27-1.28-.49-.42-.12a15.47,15.47,0,0,1-2.87-1.67c.79.56-.06-.07-.36-.35s-.83-.85-1.25-1.28c-.17-.19-.72-.77,0,0a6.28,6.28,0,0,1-.38-.52c-.28-.4-.55-.82-.8-1.24a24.86,24.86,0,0,1-1.43-2.82c.48,1.11-.21-.6-.29-.83-.16-.43-.3-.87-.44-1.31-.36-1.12-.66-2.25-.93-3.39-1-4.23-1.48-8.59-2.61-12.8-2.56-9.63-9.49-21-20.89-20.31-2.34.14-4.61,2-4.5,4.5.11,2.32,2,4.65,4.5,4.5Z" fill="#040706"/>
    <path d="M829.82,1686.1q1.14,7.14,2.29,14.26c.18,1.15.36,2.29.55,3.44,0,.22.19,1.35.1.59a14.38,14.38,0,0,1,.1,1.74c0,.91,0,.27,0,.07,0,0-.19.78,0,.23s0,.14-.14.21c-.36.21.3-.11.26-.29.06.3-1.09.72-.43.47s-1,.62-.35.19,0,0-.2.06l-.47.15c-.36.1-.78.12-1.13.25s.28-.08.37,0a3.39,3.39,0,0,0-.67.07c-.44,0-.89,0-1.34,0-.92,0-1.85,0-2.77-.13-.53,0-1.05-.08-1.57-.14l-.67-.07-.74-.09c.46.06-.27,0-.29,0l-.89-.14-1.32-.22c-1.11-.2-2.21-.43-3.31-.67-2.13-.46-4.25-1-6.36-1.55-8.62-2.29-17.13-4.93-26.05-5.82-4.67-.47-9.38-.33-14.07-.43-2.3,0-4.61-.15-6.9-.41-.29,0-1.23-.18-.45-.06l-1.44-.22c-1-.18-2-.39-3-.62a56,56,0,0,1-6.36-1.89l-1.55-.59-.77-.31c.43.17.25.1-.07,0-1.07-.48-2.14-1-3.18-1.53a54.44,54.44,0,0,1-5.69-3.4c-.46-.31-.91-.63-1.36-1l-.5-.37c-1.06-.78.35.3-.24-.18-.91-.74-1.82-1.48-2.69-2.27a4.59,4.59,0,0,0-6.37,0c-1.57,1.71-1.87,4.69,0,6.36a59.38,59.38,0,0,0,37,15.35c5,.3,10.08.07,15.11.36,1.1.07,2.19.16,3.29.28l.89.1c-.74-.09,0,0,.14,0l1.78.29c2.3.39,4.58.89,6.84,1.44,4.54,1.1,9,2.44,13.55,3.63a108.76,108.76,0,0,0,14.19,2.88c4,.51,8.44.93,12.28-.64a10.17,10.17,0,0,0,5.71-5c1.44-3.18.95-6.25.42-9.58l-2.76-17.2c-.37-2.33-3.4-3.83-5.53-3.14a4.64,4.64,0,0,0-3.15,5.53Z" fill="#040706"/>
    <path d="M736.77,1695.35l.21,61c0,4.9,0,9.81.06,14.71a43.89,43.89,0,0,0,1.68,12.9,22.29,22.29,0,0,0,7.21,10.58,47.21,47.21,0,0,0,11.65,6.55c16.64,7,35,8,52.84,7.3,4.59-.19,9.17-.49,13.75-.84q3.3-.24,6.6-.53c2.25-.19,4.74-.25,6.4-2,1.81-1.89,1.64-4.59,1.73-7s.2-5.16.31-7.74q.28-7.6.59-15.22c.37-9.42,1-18.88.88-28.31-.09-8.66-1-17.52-4.36-25.58a44.37,44.37,0,0,0-3-5.88c-2-3.3-7.19-.28-5.18,3,4.13,6.79,5.79,14.63,6.3,22.49.56,8.65,0,17.36-.35,26L833,1796l-.13,3.5a6.44,6.44,0,0,1-.08,1.52c0-.06,0-.17.12-.22.3-.2-.65.11-.52.09l-1.16.1-3.29.27c-4.35.35-8.7.68-13.06.92-16.89.93-34.23.68-50.4-4.85a62.18,62.18,0,0,1-10.92-4.82,19.82,19.82,0,0,1-7.82-7.32c-1.84-3.33-2.38-7.24-2.58-11-.24-4.44-.14-8.91-.15-13.36q-.09-29.14-.19-58.29l0-7.22c0-3.86-6-3.87-6,0Z" fill="#040706"/>
    <path d="M764,1689.34a176.14,176.14,0,0,1,48.67,4.07c4.52,1,9,2.25,13.44,3.63,3.7,1.14,5.28-4.65,1.6-5.79a182,182,0,0,0-49.55-8.13c-4.72-.12-9.45,0-14.16.22a3.07,3.07,0,0,0-3,3,3,3,0,0,0,3,3Z" fill="#040706"/>
    <path d="M732.53,1681.31a61.4,61.4,0,0,0,29.9,9.9,3,3,0,0,0,0-6,55.18,55.18,0,0,1-26.87-9.08,3,3,0,1,0-3,5.18Z" fill="#040706"/>
    <path d="M825.88,1720.84a405.27,405.27,0,0,0,5.42,54.85,3,3,0,0,0,3.69,2.1,3.07,3.07,0,0,0,2.1-3.69,394.6,394.6,0,0,1-5.21-53.26c-.12-3.85-6.12-3.87-6,0Z" fill="#040706"/>
    <path d="M751.29,1708.65c3.13,4.92,2.33,11.06,1.26,16.51-1.34,6.85-3,13.65-4.72,20.41q-2.7,10.37-6,20.56c-1.1,3.44-2.26,6.86-3.44,10.27-1.08,3.11-1.87,6.55-.36,9.66,1.65,3.42,5.91,5,9,6.76l10.65,5.92c3.37,1.88,6.4-3.3,3-5.18l-9.36-5.21-4.68-2.61c-1-.55-2.41-1.07-3.11-2-1.38-1.88.54-5.55,1.23-7.55,1.12-3.26,2.21-6.53,3.24-9.82a345,345,0,0,0,10.4-40.4c1.26-6.78,1.86-14.23-2-20.33a3,3,0,0,0-5.18,3Z" fill="#040706"/>
    <path d="M933.49,1698.22c2.74,31.56-5.48,62.57-7.43,93.91a170.79,170.79,0,0,0,.24,26.28,3.08,3.08,0,0,0,3,3,3,3,0,0,0,3-3c-2.92-31.54,5.26-62.57,7.3-93.89a172.31,172.31,0,0,0-.11-26.3,3.08,3.08,0,0,0-3-3,3,3,0,0,0-3,3Z" fill="#040706"/>
    <path d="M893.77,1723.86l22.62-5.49a3,3,0,1,0-1.59-5.78l-22.63,5.48a3,3,0,0,0,1.6,5.79Z" fill="#040706"/>
    <path d="M896.65,1756.75a42.82,42.82,0,0,0,18.79,3.1,3,3,0,0,0,0-6,37.1,37.1,0,0,1-17.2-2.89,3,3,0,0,0-3.69,2.1,3.1,3.1,0,0,0,2.1,3.69Z" fill="#040706"/>
    <path d="M901.25,1772.56l9,7.48a3.19,3.19,0,0,0,2.12.88,3,3,0,0,0,2.13-.88c1-1.1,1.28-3.17,0-4.24l-9-7.48a3.2,3.2,0,0,0-2.12-.88,3,3,0,0,0-2.12.88c-1,1.1-1.29,3.17,0,4.24Z" fill="#040706"/>
    <path d="M897.34,1810.6l10.56,5.9a3,3,0,0,0,3-5.18l-10.56-5.9a3,3,0,0,0-3,5.18Z" fill="#040706"/>
    <path d="M897.44,1827.35h3a2.3,2.3,0,0,0,1.16-.26,2.34,2.34,0,0,0,1-.62,2.22,2.22,0,0,0,.62-1,2.26,2.26,0,0,0,.25-1.15l-.1-.8a3,3,0,0,0-.77-1.32,3.13,3.13,0,0,0-2.13-.88h-3a3.38,3.38,0,0,0-2.12.88,2.25,2.25,0,0,0-.62,1,2.44,2.44,0,0,0-.26,1.16l.11.8a3,3,0,0,0,.77,1.32,3.12,3.12,0,0,0,2.12.88Z" fill="#040706"/>
    <path d="M927.06,1868.91a794.23,794.23,0,0,0,78.29,51.12c3.75,2.14,7.47,4.42,11.33,6.35,3.08,1.54,7.92,2.33,9.74-1.49a3.07,3.07,0,0,0-1.07-4.1,3,3,0,0,0-4.11,1.07c-.27.57.12,0,.25-.09l.25-.1q-.51.12,0,0c-.06,0-1-.07-.39,0a7.13,7.13,0,0,1-.91-.23,3.16,3.16,0,0,1-1-.43c-1-.51-1.92-1.06-2.88-1.59q-4.94-2.74-9.82-5.55-9.59-5.51-19-11.28-19.05-11.67-37.41-24.39-10.23-7.11-20.25-14.52a3,3,0,0,0-4.1,1.08,3.06,3.06,0,0,0,1.07,4.1Z" fill="#040706"/>
    <path d="M945.87,1860.9a361.13,361.13,0,0,0,55.94,18.13c3.75.89,5.36-4.9,1.59-5.79a359.94,359.94,0,0,1-55.93-18.13c-1.5-.62-3.3.67-3.69,2.09a3.08,3.08,0,0,0,2.09,3.7Z" fill="#040706"/>
    <path d="M940.85,1830.07a101.86,101.86,0,0,0,47.43,13.68,108.1,108.1,0,0,0,48.58-9.36,97.77,97.77,0,0,0,23.58-15,3,3,0,0,0,0-4.24,3.07,3.07,0,0,0-4.25,0,95.23,95.23,0,0,1-41.56,20.3,101.79,101.79,0,0,1-46.32-.6,91.52,91.52,0,0,1-24.43-10c-3.33-2-6.36,3.22-3,5.18Z" fill="#040706"/>
    <path d="M886.09,1822a262.66,262.66,0,0,1-61.45,54q-9.89,6.24-20.3,11.58a3,3,0,0,0,3,5.19,268,268,0,0,0,67.24-49.2q8.24-8.28,15.73-17.28a3.09,3.09,0,0,0,0-4.24,3,3,0,0,0-4.25,0Z" fill="#040706"/>
    <path d="M878,1851.91a565.24,565.24,0,0,0-46.74,34.56q-6.36,5.22-12.56,10.64a3,3,0,0,0,0,4.24,3.06,3.06,0,0,0,4.24,0,550.09,550.09,0,0,1,44.69-35.11q6.63-4.66,13.4-9.15a3,3,0,1,0-3-5.18Z" fill="#040706"/>
    <path d="M898.13,1855a432.83,432.83,0,0,0-38.65,36.38c-2.64,2.82,1.6,7.07,4.25,4.25a431.27,431.27,0,0,1,38.64-36.38,3,3,0,0,0,0-4.25,3.07,3.07,0,0,0-4.24,0Z" fill="#040706"/>
    <path d="M909.83,1861.82a179.9,179.9,0,0,1-33.19,40.62q-5.52,5-11.45,9.61c-1.28,1-1,3.2,0,4.24a3.07,3.07,0,0,0,4.24,0,184.65,184.65,0,0,0,37.27-38.76q4.42-6.16,8.31-12.69c2-3.32-3.2-6.34-5.18-3Z" fill="#040706"/>
    <path d="M856.21,1707.08l12,4.36a3,3,0,0,0,3.69-2.1,3.08,3.08,0,0,0-2.1-3.69l-12.05-4.35a3,3,0,0,0-3.69,2.09,3.09,3.09,0,0,0,2.1,3.69Z" fill="#040706"/>
    <path d="M959.78,1701.42l35.92-7.83a3,3,0,1,0-1.59-5.78l-35.93,7.82a3,3,0,0,0,1.6,5.79Z" fill="#040706"/>
    <path d="M710.4,1882.83c6.25,9.93,13.55,20,24.14,25.65,5.71,3,12,4.57,18.39,5.55q4.79.73,9.62,1.27a26.48,26.48,0,0,0,9.76-.36c6.6-1.76,11.58-8.66,8.57-15.35a3,3,0,0,0-4.1-1.07,3.07,3.07,0,0,0-1.08,4.1,3.25,3.25,0,0,1,.16.73,4.85,4.85,0,0,1,0,.66c-.07,1,.07-.22-.06.34a6.15,6.15,0,0,1-1,2.17,7.93,7.93,0,0,1-5.61,3,32.58,32.58,0,0,1-8.19-.35c-2.68-.33-5.36-.67-8-1.12-5.43-.91-10.9-2.24-15.77-4.9a44.16,44.16,0,0,1-11.51-9.4,99.84,99.84,0,0,1-10.11-13.9c-2.06-3.26-7.25-.25-5.19,3Z" fill="#040706"/>
    <path d="M1156.18,1847.59a313.69,313.69,0,0,1-40.68,32.05q-6.24,4.14-12.67,8c-3.31,2-.3,7.17,3,5.18a322.82,322.82,0,0,0,43.38-31q5.7-4.83,11.18-9.94c2.84-2.64-1.41-6.87-4.24-4.24Z" fill="#040706"/>
  </g>
</svg>
