<svg id="Body3" xmlns="http://www.w3.org/2000/svg" viewBox="0 0 1801 2046">
  <title>body1</title>
  <g>
    <g>
      <g>
        <g>
          <g id="_Группа_" data-name="&lt;Группа&gt;">
            <g>
              <path d="M1263.65,1861.08c-3.53-7.36-4.61-15.63-4.36-23.73a4.5,4.5,0,0,0,1.14.42,34.19,34.19,0,0,1,21.27,15c3,4.77,10.54,22.53.19,22.91C1273.62,1876,1266.87,1867.8,1263.65,1861.08Z" fill="#9a6d66"/>
              <path d="M1257,1867.74a4.21,4.21,0,0,0-1.89,2.56c-.83,2.93-6.88,5.4-9.6,5.6-4.92.35-6.48-6.76-7.62-10.67-.86-11.17-2.8-22.33-8.18-32.22a47.59,47.59,0,0,0-4.57-6.92,19.41,19.41,0,0,1,22.21,7.68,4.35,4.35,0,0,0,3,2C1249.81,1846.63,1251.52,1858.21,1257,1867.74Z" fill="#9a6d66"/>
              <path d="M1199.34,1819.75c11.06,1.87,19.74,10.94,24.18,21,3,6.92,4.42,14.6,5.13,22.07.1,1,.18,2.05.26,3.07a3.45,3.45,0,0,0,0,.84c.18,2.47.31,5,.41,7.43.08,2.08,1.2,7.5-.09,9.38-2.86,4.16-13-.93-15.92-2.9a35.14,35.14,0,0,1-12.07-14.61c-6.42-14.06-4-30.77-2-45.54A5.27,5.27,0,0,0,1199.34,1819.75Z" fill="#9a6d66"/>
              <path d="M911.74,1549.71a12.27,12.27,0,0,1-3-2.57,9.47,9.47,0,0,0,.13-6.14,4.29,4.29,0,0,0-3.86-3.11,32.44,32.44,0,0,1,.26-7,6.64,6.64,0,0,1,1.46-3.47c3-3.3,9.29,2,9.93,6.93.56,4.29-.6,8.61-1.73,12.72C914.34,1549.08,914.58,1551.09,911.74,1549.71Z" fill="#9a6d66"/>
              <path d="M902.23,828.38a2.28,2.28,0,0,0,0,.26c-16.69-2.11-34.12-1.58-48.78-1.7-3.34,0-6.69-.05-10-.25A81.14,81.14,0,0,1,846,802.38a4.13,4.13,0,0,0-1.15-4.24c11,.26,22,.13,32.93,0,6.24-.07,12.49-.22,18.71-.59,0,0,0,0,0,0A114.14,114.14,0,0,1,902.23,828.38Z" fill="#9a6d66"/>
              <path d="M713,698.52A32.21,32.21,0,0,1,697.62,692c-3.32-2.57-9.67-8.32-8.85-13.2.84-5,11.78,2.7,14.19,4.39,4.57,3.21,9.14,7.42,9.51,13.33A4.77,4.77,0,0,0,713,698.52Z" fill="#9a6d66"/>
            </g>
          </g>
          <g>
            <path d="M909.42,1055a56.69,56.69,0,0,1,21.83,6.9,293.06,293.06,0,0,0-13.72,27.33c-2.38,5.23,5.37,9.81,7.78,4.54a293.78,293.78,0,0,1,13.56-27.09,80,80,0,0,1,22.66,25.09c2.85,5,10.63.51,7.78-4.54a87.14,87.14,0,0,0-25.74-28.13c5.78-8.86,13.16-17.89,23-21.26,5.45-1.86,3.11-10.56-2.4-8.68-12.29,4.19-21.18,14.62-28.25,25.2a68.29,68.29,0,0,0-26.55-8.36C903.65,1045.49,903.69,1054.49,909.42,1055Z" fill="none"/>
            <path d="M768.61,1088a127.7,127.7,0,0,1-18.37-12c.26-.43.53-.86.8-1.29,5.42-8.68,10.78-17.58,14.72-27,2.22-5.35-6.49-7.68-8.68-2.4-3.62,8.71-8.83,16.94-13.81,24.91l-.12.19-3.34-2.76c-8.92-7.42-17.91-15.25-25.21-24.32-3.63-4.52-10,1.89-6.36,6.36,7.59,9.44,17,17.55,26.3,25.23l3.79,3.11a118.21,118.21,0,0,1-11.51,15.42c-3.88,4.28,2.46,10.66,6.37,6.37a127.77,127.77,0,0,0,12.21-16.21,130.24,130.24,0,0,0,18.66,12.19C769.19,1098.46,773.75,1090.69,768.61,1088Z" fill="none"/>
            <path d="M896.17,1548.7c-.36,3.12,3.14,4.85,5.69,4.34l.1,0,1.08,1c4.49,4.06,10.92,8.76,16.49,3.51,4.32-4.08,5.43-12.34,6-17.86.7-6.51-.59-13.18-5.45-17.86-4.1-3.95-10.22-5.9-15.62-3.6a13.55,13.55,0,0,0-3.44,2.07,4.49,4.49,0,0,0-3.3,1.12c-8.23,7-6.4,16.77-1.41,24.68C896.32,1547,896.26,1547.86,896.17,1548.7Z" fill="none"/>
            <path d="M990.23,1803l-40.41-33.76a442.9,442.9,0,0,0,32.2-51.82c2.71-5.11-5.06-9.67-7.77-4.54a438.91,438.91,0,0,1-31.36,50.57L896,1724.22c-4.42-3.69-10.82,2.64-6.36,6.36l48,40.06a437.1,437.1,0,0,1-39.33,45.51c-4.09,4.12,2.27,10.49,6.36,6.37a445.72,445.72,0,0,0,39.88-46.1l39.37,32.89C988.29,1813,994.68,1806.67,990.23,1803Z" fill="none"/>
            <g>
              <path d="M909.42,1055a56.69,56.69,0,0,1,21.83,6.9,293.06,293.06,0,0,0-13.72,27.33c-2.38,5.23,5.37,9.81,7.78,4.54a293.78,293.78,0,0,1,13.56-27.09,80,80,0,0,1,22.66,25.09c2.85,5,10.63.51,7.78-4.54a87.14,87.14,0,0,0-25.74-28.13c5.78-8.86,13.16-17.89,23-21.26,5.45-1.86,3.11-10.56-2.4-8.68-12.29,4.19-21.18,14.62-28.25,25.2a68.29,68.29,0,0,0-26.55-8.36C903.65,1045.49,903.69,1054.49,909.42,1055Z" fill="none"/>
              <path d="M768.61,1088a127.7,127.7,0,0,1-18.37-12c.26-.43.53-.86.8-1.29,5.42-8.68,10.78-17.58,14.72-27,2.22-5.35-6.49-7.68-8.68-2.4-3.62,8.71-8.83,16.94-13.81,24.91l-.12.19-3.34-2.76c-8.92-7.42-17.91-15.25-25.21-24.32-3.63-4.52-10,1.89-6.36,6.36,7.59,9.44,17,17.55,26.3,25.23l3.79,3.11a118.21,118.21,0,0,1-11.51,15.42c-3.88,4.28,2.46,10.66,6.37,6.37a127.77,127.77,0,0,0,12.21-16.21,130.24,130.24,0,0,0,18.66,12.19C769.19,1098.46,773.75,1090.69,768.61,1088Z" fill="none"/>
              <path d="M896.17,1548.7c-.36,3.12,3.14,4.85,5.69,4.34l.1,0,1.08,1c4.49,4.06,10.92,8.76,16.49,3.51,4.32-4.08,5.43-12.34,6-17.86.7-6.51-.59-13.18-5.45-17.86-4.1-3.95-10.22-5.9-15.62-3.6a13.55,13.55,0,0,0-3.44,2.07,4.49,4.49,0,0,0-3.3,1.12c-8.23,7-6.4,16.77-1.41,24.68C896.32,1547,896.26,1547.86,896.17,1548.7Z" fill="none"/>
              <path d="M990.23,1803l-40.41-33.76a442.9,442.9,0,0,0,32.2-51.82c2.71-5.11-5.06-9.67-7.77-4.54a438.91,438.91,0,0,1-31.36,50.57L896,1724.22c-4.42-3.69-10.82,2.64-6.36,6.36l48,40.06a437.1,437.1,0,0,1-39.33,45.51c-4.09,4.12,2.27,10.49,6.36,6.37a445.72,445.72,0,0,0,39.88-46.1l39.37,32.89C988.29,1813,994.68,1806.67,990.23,1803Z" fill="none"/>
              <path d="M481.42,1649.5c-16-81-35.78-189.28-22-249,12-52,15-139,15-139C487.61,1066.28,559.09,940.23,606.23,877c-1.87,1.36-3.72,2.73-5.55,4.14-62.47,48-95.8,122.13-115.7,196.38-22.84,85.21-34.24,174.22-38.64,262.2a1415.37,1415.37,0,0,0,12.85,274.37q4.94,33.93,11.53,67.6c4.22,21.57,8.3,43.47,15.41,64.31,6.57,19.25,17.46,35.84,28.25,52.91,3.78,6,7.46,12.08,10.73,18.38a4.23,4.23,0,0,1,.42.82c5,9.88,9,20.24,10.69,31.34C540.14,1807.75,497.1,1728.87,481.42,1649.5Z" fill="#8d6460"/>
            </g>
          </g>
          <g>
            <path d="M896.17,1548.7c-.36,3.12,3.14,4.85,5.69,4.34l.1,0,1.08,1c4.49,4.06,10.92,8.76,16.49,3.51,4.32-4.08,5.43-12.34,6-17.86.7-6.51-.59-13.18-5.45-17.86-4.1-3.95-10.22-5.9-15.62-3.6a13.55,13.55,0,0,0-3.44,2.07,4.49,4.49,0,0,0-3.3,1.12c-8.23,7-6.4,16.77-1.41,24.68C896.32,1547,896.26,1547.86,896.17,1548.7Z" fill="none"/>
            <path d="M909.42,1055a56.69,56.69,0,0,1,21.83,6.9,293.06,293.06,0,0,0-13.72,27.33c-2.38,5.23,5.37,9.81,7.78,4.54a293.78,293.78,0,0,1,13.56-27.09,80,80,0,0,1,22.66,25.09c2.85,5,10.63.51,7.78-4.54a87.14,87.14,0,0,0-25.74-28.13c5.78-8.86,13.16-17.89,23-21.26,5.45-1.86,3.11-10.56-2.4-8.68-12.29,4.19-21.18,14.62-28.25,25.2a68.29,68.29,0,0,0-26.55-8.36C903.65,1045.49,903.69,1054.49,909.42,1055Z" fill="none"/>
            <path d="M768.61,1088a127.7,127.7,0,0,1-18.37-12c.26-.43.53-.86.8-1.29,5.42-8.68,10.78-17.58,14.72-27,2.22-5.35-6.49-7.68-8.68-2.4-3.62,8.71-8.83,16.94-13.81,24.91l-.12.19-3.34-2.76c-8.92-7.42-17.91-15.25-25.21-24.32-3.63-4.52-10,1.89-6.36,6.36,7.59,9.44,17,17.55,26.3,25.23l3.79,3.11a118.21,118.21,0,0,1-11.51,15.42c-3.88,4.28,2.46,10.66,6.37,6.37a127.77,127.77,0,0,0,12.21-16.21,130.24,130.24,0,0,0,18.66,12.19C769.19,1098.46,773.75,1090.69,768.61,1088Z" fill="none"/>
            <path d="M990.23,1803l-40.41-33.76a442.9,442.9,0,0,0,32.2-51.82c2.71-5.11-5.06-9.67-7.77-4.54a438.91,438.91,0,0,1-31.36,50.57L896,1724.22c-4.42-3.69-10.82,2.64-6.36,6.36l48,40.06a437.1,437.1,0,0,1-39.33,45.51c-4.09,4.12,2.27,10.49,6.36,6.37a445.72,445.72,0,0,0,39.88-46.1l39.37,32.89C988.29,1813,994.68,1806.67,990.23,1803Z" fill="none"/>
            <path d="M534.92,1882c-6.72-6.72-5.63-20.15-4.65-26.5a3.49,3.49,0,0,1-2.65-3.14,88.83,88.83,0,0,0-6-21.36c-7.17,23.92,2.6,48.26,13.84,70.14,5,9.74,10.77,19.43,14.1,29.91a62.15,62.15,0,0,1,2.35,14.08c.34,4.48.7,9.41-.56,13.82q.3.45.63.87C565,1936.46,543.51,1890.59,534.92,1882Z" fill="#8d6460"/>
          </g>
          <g>
            <path d="M1152.92,1657c0-38-9-159-21-221s-37-153-47-209c-7.39-41.39-27.34-106.26-37.25-137.3,1.67,19.3,3.06,38.63,4.84,57.84,2.75,29.78,6.57,59.57,14.46,88.47,7.55,27.62,19.17,53.92,27.63,81.25,14.3,46.24,24.44,93.85,32.06,141.61,7.53,47.16,12.94,95.09,12.27,142.91a5.82,5.82,0,0,1,0,.72,4.51,4.51,0,0,1-.05.65c-1.88,22.54-2,45.36,2,67.69,2.61,14.67,7.18,28.78,11.07,43.13a156.13,156.13,0,0,1,3.7,16.74c1.2,7.76,1.1,15.65,2.36,23.39.09.54.18,1.07.29,1.59,7,14.37,15.09,28.11,22.93,42C1188.52,1770.39,1152.92,1695,1152.92,1657Z" fill="#8d6460"/>
            <path d="M1355.28,1796.15c-2.17-16.61-7.24-32.51-19-44.86-10.6-11.18-23.72-20.13-30.6-34.36a4.68,4.68,0,0,1-.49-2.08q-3.78-10.93-7.55-21.89c-22.54-65.52-44.3-131.52-58.42-199.45-7-33.82-12.45-68-19.35-101.81q-9.93-48.63-22.47-96.68a1842.51,1842.51,0,0,0-61-190.78q-18-47.13-38.51-93.23c-13.2-29.58-26.48-59.53-42.77-87.57-7.95-13.69-16.88-26.87-27.56-38.61-8.24-9.05-18.17-15.74-29.11-21.15a172.94,172.94,0,0,0-50-15.92,49.37,49.37,0,0,1,6.36,7.68c36.84,29.86,60.67,73.57,74,118.79,11.07,37.63,15.56,76.5,18.93,115.47,9.91,31,29.86,95.91,37.25,137.3,10,56,35,147,47,209s21,183,21,221,35.6,113.39,28.31,140.7c3.46,6.13,6.87,12.3,10.09,18.56a2.37,2.37,0,0,1,.29-.34c-.57-2.57.83-5.6,4.22-5.51a36.93,36.93,0,0,1,22.57,8.8,28.57,28.57,0,0,1,36.69,10,4.75,4.75,0,0,1,.68,1.67,4.39,4.39,0,0,1,2,.69,1.27,1.27,0,0,1,.12-.23,52.4,52.4,0,0,1-14.38-36.86c.14-5.79,9.14-5.8,9,0a43.83,43.83,0,0,0,19.43,37.09c.72.48,1.45.91,2.18,1.3,5.11,2.74,10.42,3.56,15.81,5.87,6.27,2.69,8,9.22,9.8,15.22q3.73,12.76,7.48,25.52c1.47,5,3.08,15.2,9.88,15.4,7.43.22,10.83-8.39,10.79-14.42-.06-8-3.16-16-5.34-23.58-.36-1.27-.73-2.53-1.09-3.8l-12-41.83c-.36-1.24-.71-2.49-1.07-3.73-.88-3.07,2.26-6.78,5.53-5.54,1.15.44,2.37.91,3.61,1.28a10.47,10.47,0,0,0,6.33.22c3.29-1.12,5.73-4.61,7.7-7.27,3.42-4.61,11.23-.11,7.78,4.54-3.25,4.38-6.76,9-12,11a16.79,16.79,0,0,1-8.11.94l7.44,26c.76,2.67,1.56,5.33,2.37,8,2.53-.9,6.35-3.42,8.49-4.75a122.08,122.08,0,0,0,13.18-9.44c4.36-3.63,6-5.33,6.35-11.36C1357.44,1813,1356.33,1804.24,1355.28,1796.15Z" fill="#9a6d66"/>
          </g>
          <g>
            <path d="M768.61,1088a127.7,127.7,0,0,1-18.37-12c.26-.43.53-.86.8-1.29,5.42-8.68,10.78-17.58,14.72-27,2.22-5.35-6.49-7.68-8.68-2.4-3.62,8.71-8.83,16.94-13.81,24.91l-.12.19-3.34-2.76c-8.92-7.42-17.91-15.25-25.21-24.32-3.63-4.52-10,1.89-6.36,6.36,7.59,9.44,17,17.55,26.3,25.23l3.79,3.11a118.21,118.21,0,0,1-11.51,15.42c-3.88,4.28,2.46,10.66,6.37,6.37a127.77,127.77,0,0,0,12.21-16.21,130.24,130.24,0,0,0,18.66,12.19C769.19,1098.46,773.75,1090.69,768.61,1088Z" fill="none"/>
            <path d="M896.17,1548.7c-.36,3.12,3.14,4.85,5.69,4.34l.1,0,1.08,1c4.49,4.06,10.92,8.76,16.49,3.51,4.32-4.08,5.43-12.34,6-17.86.7-6.51-.59-13.18-5.45-17.86-4.1-3.95-10.22-5.9-15.62-3.6a13.55,13.55,0,0,0-3.44,2.07,4.49,4.49,0,0,0-3.3,1.12c-8.23,7-6.4,16.77-1.41,24.68C896.32,1547,896.26,1547.86,896.17,1548.7Z" fill="none"/>
            <path d="M909.42,1055a56.69,56.69,0,0,1,21.83,6.9,293.06,293.06,0,0,0-13.72,27.33c-2.38,5.23,5.37,9.81,7.78,4.54a293.78,293.78,0,0,1,13.56-27.09,80,80,0,0,1,22.66,25.09c2.85,5,10.63.51,7.78-4.54a87.14,87.14,0,0,0-25.74-28.13c5.78-8.86,13.16-17.89,23-21.26,5.45-1.86,3.11-10.56-2.4-8.68-12.29,4.19-21.18,14.62-28.25,25.2a68.29,68.29,0,0,0-26.55-8.36C903.65,1045.49,903.69,1054.49,909.42,1055Z" fill="none"/>
            <path d="M990.23,1803l-40.41-33.76a442.9,442.9,0,0,0,32.2-51.82c2.71-5.11-5.06-9.67-7.77-4.54a438.91,438.91,0,0,1-31.36,50.57L896,1724.22c-4.42-3.69-10.82,2.64-6.36,6.36l48,40.06a437.1,437.1,0,0,1-39.33,45.51c-4.09,4.12,2.27,10.49,6.36,6.37a445.72,445.72,0,0,0,39.88-46.1l39.37,32.89C988.29,1813,994.68,1806.67,990.23,1803Z" fill="none"/>
            <g>
              <path d="M768.61,1088a127.7,127.7,0,0,1-18.37-12c.26-.43.53-.86.8-1.29,5.42-8.68,10.78-17.58,14.72-27,2.22-5.35-6.49-7.68-8.68-2.4-3.62,8.71-8.83,16.94-13.81,24.91l-.12.19-3.34-2.76c-8.92-7.42-17.91-15.25-25.21-24.32-3.63-4.52-10,1.89-6.36,6.36,7.59,9.44,17,17.55,26.3,25.23l3.79,3.11a118.21,118.21,0,0,1-11.51,15.42c-3.88,4.28,2.46,10.66,6.37,6.37a127.77,127.77,0,0,0,12.21-16.21,130.24,130.24,0,0,0,18.66,12.19C769.19,1098.46,773.75,1090.69,768.61,1088Z" fill="none"/>
              <path d="M896.17,1548.7c-.36,3.12,3.14,4.85,5.69,4.34l.1,0,1.08,1c4.49,4.06,10.92,8.76,16.49,3.51,4.32-4.08,5.43-12.34,6-17.86.7-6.51-.59-13.18-5.45-17.86-4.1-3.95-10.22-5.9-15.62-3.6a13.55,13.55,0,0,0-3.44,2.07,4.49,4.49,0,0,0-3.3,1.12c-8.23,7-6.4,16.77-1.41,24.68C896.32,1547,896.26,1547.86,896.17,1548.7Z" fill="none"/>
              <path d="M990.23,1803l-40.41-33.76a442.9,442.9,0,0,0,32.2-51.82c2.71-5.11-5.06-9.67-7.77-4.54a438.91,438.91,0,0,1-31.36,50.57L896,1724.22c-4.42-3.69-10.82,2.64-6.36,6.36l48,40.06a437.1,437.1,0,0,1-39.33,45.51c-4.09,4.12,2.27,10.49,6.36,6.37a445.72,445.72,0,0,0,39.88-46.1l39.37,32.89C988.29,1813,994.68,1806.67,990.23,1803Z" fill="none"/>
              <path d="M909.42,1055a56.69,56.69,0,0,1,21.83,6.9,293.06,293.06,0,0,0-13.72,27.33c-2.38,5.23,5.37,9.81,7.78,4.54a293.78,293.78,0,0,1,13.56-27.09,80,80,0,0,1,22.66,25.09c2.85,5,10.63.51,7.78-4.54a87.14,87.14,0,0,0-25.74-28.13c5.78-8.86,13.16-17.89,23-21.26,5.45-1.86,3.11-10.56-2.4-8.68-12.29,4.19-21.18,14.62-28.25,25.2a68.29,68.29,0,0,0-26.55-8.36C903.65,1045.49,903.69,1054.49,909.42,1055Z" fill="none"/>
              <path d="M969.92,1303l-68,27s130.77-13.59,162.88-71.29c-3.78-11.17-7.23-22.45-9.92-34C1050.22,1236,1028.84,1279.61,969.92,1303Z" fill="#8d6460"/>
              <g>
                <path d="M896.17,1548.7c-.36,3.12,3.14,4.85,5.69,4.34l.1,0,1.08,1c4.49,4.06,10.92,8.76,16.49,3.51,4.32-4.08,5.43-12.34,6-17.86.7-6.51-.59-13.18-5.45-17.86-4.1-3.95-10.22-5.9-15.62-3.6a13.55,13.55,0,0,0-3.44,2.07,4.49,4.49,0,0,0-3.3,1.12c-8.23,7-6.4,16.77-1.41,24.68C896.32,1547,896.26,1547.86,896.17,1548.7Z" fill="none"/>
                <path d="M768.61,1088a127.7,127.7,0,0,1-18.37-12c.26-.43.53-.86.8-1.29,5.42-8.68,10.78-17.58,14.72-27,2.22-5.35-6.49-7.68-8.68-2.4-3.62,8.71-8.83,16.94-13.81,24.91l-.12.19-3.34-2.76c-8.92-7.42-17.91-15.25-25.21-24.32-3.63-4.52-10,1.89-6.36,6.36,7.59,9.44,17,17.55,26.3,25.23l3.79,3.11a118.21,118.21,0,0,1-11.51,15.42c-3.88,4.28,2.46,10.66,6.37,6.37a127.77,127.77,0,0,0,12.21-16.21,130.24,130.24,0,0,0,18.66,12.19C769.19,1098.46,773.75,1090.69,768.61,1088Z" fill="none"/>
                <path d="M909.42,1055a56.69,56.69,0,0,1,21.83,6.9,293.06,293.06,0,0,0-13.72,27.33c-2.38,5.23,5.37,9.81,7.78,4.54a293.78,293.78,0,0,1,13.56-27.09,80,80,0,0,1,22.66,25.09c2.85,5,10.63.51,7.78-4.54a87.14,87.14,0,0,0-25.74-28.13c5.78-8.86,13.16-17.89,23-21.26,5.45-1.86,3.11-10.56-2.4-8.68-12.29,4.19-21.18,14.62-28.25,25.2a68.29,68.29,0,0,0-26.55-8.36C903.65,1045.49,903.69,1054.49,909.42,1055Z" fill="none"/>
                <path d="M990.23,1803l-40.41-33.76a442.9,442.9,0,0,0,32.2-51.82c2.71-5.11-5.06-9.67-7.77-4.54a438.91,438.91,0,0,1-31.36,50.57L896,1724.22c-4.42-3.69-10.82,2.64-6.36,6.36l48,40.06a437.1,437.1,0,0,1-39.33,45.51c-4.09,4.12,2.27,10.49,6.36,6.37a445.72,445.72,0,0,0,39.88-46.1l39.37,32.89C988.29,1813,994.68,1806.67,990.23,1803Z" fill="none"/>
              </g>
            </g>
          </g>
          <g>
            <path d="M768.61,1088a127.7,127.7,0,0,1-18.37-12c.26-.43.53-.86.8-1.29,5.42-8.68,10.78-17.58,14.72-27,2.22-5.35-6.49-7.68-8.68-2.4-3.62,8.71-8.83,16.94-13.81,24.91l-.12.19-3.34-2.76c-8.92-7.42-17.91-15.25-25.21-24.32-3.63-4.52-10,1.89-6.36,6.36,7.59,9.44,17,17.55,26.3,25.23l3.79,3.11a118.21,118.21,0,0,1-11.51,15.42c-3.88,4.28,2.46,10.66,6.37,6.37a127.77,127.77,0,0,0,12.21-16.21,130.24,130.24,0,0,0,18.66,12.19C769.19,1098.46,773.75,1090.69,768.61,1088Z" fill="none"/>
            <path d="M896.17,1548.7c-.36,3.12,3.14,4.85,5.69,4.34l.1,0,1.08,1c4.49,4.06,10.92,8.76,16.49,3.51,4.32-4.08,5.43-12.34,6-17.86.7-6.51-.59-13.18-5.45-17.86-4.1-3.95-10.22-5.9-15.62-3.6a13.55,13.55,0,0,0-3.44,2.07,4.49,4.49,0,0,0-3.3,1.12c-8.23,7-6.4,16.77-1.41,24.68C896.32,1547,896.26,1547.86,896.17,1548.7Z" fill="none"/>
            <path d="M909.42,1055a56.69,56.69,0,0,1,21.83,6.9,293.06,293.06,0,0,0-13.72,27.33c-2.38,5.23,5.37,9.81,7.78,4.54a293.78,293.78,0,0,1,13.56-27.09,80,80,0,0,1,22.66,25.09c2.85,5,10.63.51,7.78-4.54a87.14,87.14,0,0,0-25.74-28.13c5.78-8.86,13.16-17.89,23-21.26,5.45-1.86,3.11-10.56-2.4-8.68-12.29,4.19-21.18,14.62-28.25,25.2a68.29,68.29,0,0,0-26.55-8.36C903.65,1045.49,903.69,1054.49,909.42,1055Z" fill="none"/>
            <path d="M990.23,1803l-40.41-33.76a442.9,442.9,0,0,0,32.2-51.82c2.71-5.11-5.06-9.67-7.77-4.54a438.91,438.91,0,0,1-31.36,50.57L896,1724.22c-4.42-3.69-10.82,2.64-6.36,6.36l48,40.06a437.1,437.1,0,0,1-39.33,45.51c-4.09,4.12,2.27,10.49,6.36,6.37a445.72,445.72,0,0,0,39.88-46.1l39.37,32.89C988.29,1813,994.68,1806.67,990.23,1803Z" fill="none"/>
            <path d="M759.7,1343a1,1,0,0,0,.22,0Z" fill="#9a6d66"/>
            <g>
              <path d="M896.17,1548.7c-.36,3.12,3.14,4.85,5.69,4.34l.1,0,1.08,1c4.49,4.06,10.92,8.76,16.49,3.51,4.32-4.08,5.43-12.34,6-17.86.7-6.51-.59-13.18-5.45-17.86-4.1-3.95-10.22-5.9-15.62-3.6a13.55,13.55,0,0,0-3.44,2.07,4.49,4.49,0,0,0-3.3,1.12c-8.23,7-6.4,16.77-1.41,24.68C896.32,1547,896.26,1547.86,896.17,1548.7Z" fill="none"/>
              <path d="M768.61,1088a127.7,127.7,0,0,1-18.37-12c.26-.43.53-.86.8-1.29,5.42-8.68,10.78-17.58,14.72-27,2.22-5.35-6.49-7.68-8.68-2.4-3.62,8.71-8.83,16.94-13.81,24.91l-.12.19-3.34-2.76c-8.92-7.42-17.91-15.25-25.21-24.32-3.63-4.52-10,1.89-6.36,6.36,7.59,9.44,17,17.55,26.3,25.23l3.79,3.11a118.21,118.21,0,0,1-11.51,15.42c-3.88,4.28,2.46,10.66,6.37,6.37a127.77,127.77,0,0,0,12.21-16.21,130.24,130.24,0,0,0,18.66,12.19C769.19,1098.46,773.75,1090.69,768.61,1088Z" fill="none"/>
              <path d="M909.42,1055a56.69,56.69,0,0,1,21.83,6.9,293.06,293.06,0,0,0-13.72,27.33c-2.38,5.23,5.37,9.81,7.78,4.54a293.78,293.78,0,0,1,13.56-27.09,80,80,0,0,1,22.66,25.09c2.85,5,10.63.51,7.78-4.54a87.14,87.14,0,0,0-25.74-28.13c5.78-8.86,13.16-17.89,23-21.26,5.45-1.86,3.11-10.56-2.4-8.68-12.29,4.19-21.18,14.62-28.25,25.2a68.29,68.29,0,0,0-26.55-8.36C903.65,1045.49,903.69,1054.49,909.42,1055Z" fill="none"/>
              <path d="M990.23,1803l-40.41-33.76a442.9,442.9,0,0,0,32.2-51.82c2.71-5.11-5.06-9.67-7.77-4.54a438.91,438.91,0,0,1-31.36,50.57L896,1724.22c-4.42-3.69-10.82,2.64-6.36,6.36l48,40.06a437.1,437.1,0,0,1-39.33,45.51c-4.09,4.12,2.27,10.49,6.36,6.37a445.72,445.72,0,0,0,39.88-46.1l39.37,32.89C988.29,1813,994.68,1806.67,990.23,1803Z" fill="none"/>
              <path d="M759.7,1343a1,1,0,0,0,.22,0Z" fill="none"/>
              <path d="M672.92,1538c-7-51-21-171-1-178,19.34-6.77,83.53-16.34,87.78-17-1.44.12-10.76-.37-54.78-21-49-23-53-140-44-185s-19.58-91.3-19.58-91.3c10.75,56.49,12.21,114.25,10.4,171.59-1.7,54-6.27,107.78-9.28,161.67-2.7,48.17-5.67,97.4.52,145.41,5,38.46,15.27,76,22.32,114.05,8.33,45,11.43,90.38,7.78,136a116.91,116.91,0,0,1,29,33c-6.34-15.83-13.21-23.81-13.21-40.39C688.92,1745,679.92,1589,672.92,1538Z" fill="#8d6460"/>
            </g>
          </g>
          <g>
            <path d="M909.42,1055a56.69,56.69,0,0,1,21.83,6.9,293.06,293.06,0,0,0-13.72,27.33c-2.38,5.23,5.37,9.81,7.78,4.54a293.78,293.78,0,0,1,13.56-27.09,80,80,0,0,1,22.66,25.09c2.85,5,10.63.51,7.78-4.54a87.14,87.14,0,0,0-25.74-28.13c5.78-8.86,13.16-17.89,23-21.26,5.45-1.86,3.11-10.56-2.4-8.68-12.29,4.19-21.18,14.62-28.25,25.2a68.29,68.29,0,0,0-26.55-8.36C903.65,1045.49,903.69,1054.49,909.42,1055Z" fill="none"/>
            <path d="M759.7,1343a1,1,0,0,0,.22,0Z" fill="none"/>
            <path d="M768.61,1088a127.7,127.7,0,0,1-18.37-12c.26-.43.53-.86.8-1.29,5.42-8.68,10.78-17.58,14.72-27,2.22-5.35-6.49-7.68-8.68-2.4-3.62,8.71-8.83,16.94-13.81,24.91l-.12.19-3.34-2.76c-8.92-7.42-17.91-15.25-25.21-24.32-3.63-4.52-10,1.89-6.36,6.36,7.59,9.44,17,17.55,26.3,25.23l3.79,3.11a118.21,118.21,0,0,1-11.51,15.42c-3.88,4.28,2.46,10.66,6.37,6.37a127.77,127.77,0,0,0,12.21-16.21,130.24,130.24,0,0,0,18.66,12.19C769.19,1098.46,773.75,1090.69,768.61,1088Z" fill="none"/>
            <path d="M990.23,1803l-40.41-33.76a442.9,442.9,0,0,0,32.2-51.82c2.71-5.11-5.06-9.67-7.77-4.54a438.91,438.91,0,0,1-31.36,50.57L896,1724.22c-4.42-3.69-10.82,2.64-6.36,6.36l48,40.06a437.1,437.1,0,0,1-39.33,45.51c-4.09,4.12,2.27,10.49,6.36,6.37a445.72,445.72,0,0,0,39.88-46.1l39.37,32.89C988.29,1813,994.68,1806.67,990.23,1803Z" fill="none"/>
            <path d="M896.17,1548.7c-.36,3.12,3.14,4.85,5.69,4.34l.1,0,1.08,1c4.49,4.06,10.92,8.76,16.49,3.51,4.32-4.08,5.43-12.34,6-17.86.7-6.51-.59-13.18-5.45-17.86-4.1-3.95-10.22-5.9-15.62-3.6a13.55,13.55,0,0,0-3.44,2.07,4.49,4.49,0,0,0-3.3,1.12c-8.23,7-6.4,16.77-1.41,24.68C896.32,1547,896.26,1547.86,896.17,1548.7Z" fill="none"/>
            <path d="M734.42,2002.5c12-12-10-38-5-56s5-33,5-65c0-23.36-14.38-42.44-22.15-51q1.22,3.9,2.13,7.94c4.91,21.61,4,44-.14,65.71,4.79,9.13,8.23,18.66,8.18,28.86a25.59,25.59,0,0,1-16.19,24.09c-7.12,3-19.33,2-19.33,2a24.33,24.33,0,0,0,.26,4.42c3.12,19,3.82,38.63-1.91,57-2.35,7.55-3.4,11.1-5.42,16.55h47.56C727.24,2023.27,728.57,2008.36,734.42,2002.5Z" fill="#8d6460"/>
            <path d="M937.29,1846.59c-.78,2.52-1.65,5-2.51,7.48-2.93,8.41-6.16,16.72-9.29,25l-.47,1.25c4.62,3.77,7.07,12.33,7.88,17,1.74,10-3.22,20.43,1.41,29.86a108.54,108.54,0,0,1,5.77,14.7c4.65,14.45,8.36,29.19,12.78,43.71a123,123,0,0,0,5.69,16.17c1.62,3.48,1.37,6.26,1.37,10.09V2037h21.89c-.5-39.74-14.87-68.06-23.89-91C949.25,1923.92,940.57,1868.87,937.29,1846.59Z" fill="#8d6460"/>
          </g>
          <g>
            <path d="M759.7,1343a1,1,0,0,0,.22,0Z" fill="none"/>
            <path d="M768.61,1088a127.7,127.7,0,0,1-18.37-12c.26-.43.53-.86.8-1.29,5.42-8.68,10.78-17.58,14.72-27,2.22-5.35-6.49-7.68-8.68-2.4-3.62,8.71-8.83,16.94-13.81,24.91l-.12.19-3.34-2.76c-8.92-7.42-17.91-15.25-25.21-24.32-3.63-4.52-10,1.89-6.36,6.36,7.59,9.44,17,17.55,26.3,25.23l3.79,3.11a118.21,118.21,0,0,1-11.51,15.42c-3.88,4.28,2.46,10.66,6.37,6.37a127.77,127.77,0,0,0,12.21-16.21,130.24,130.24,0,0,0,18.66,12.19C769.19,1098.46,773.75,1090.69,768.61,1088Z" fill="none"/>
            <path d="M909.42,1055a56.69,56.69,0,0,1,21.83,6.9,293.06,293.06,0,0,0-13.72,27.33c-2.38,5.23,5.37,9.81,7.78,4.54a293.78,293.78,0,0,1,13.56-27.09,80,80,0,0,1,22.66,25.09c2.85,5,10.63.51,7.78-4.54a87.14,87.14,0,0,0-25.74-28.13c5.78-8.86,13.16-17.89,23-21.26,5.45-1.86,3.11-10.56-2.4-8.68-12.29,4.19-21.18,14.62-28.25,25.2a68.29,68.29,0,0,0-26.55-8.36C903.65,1045.49,903.69,1054.49,909.42,1055Z" fill="none"/>
            <path d="M896.17,1548.7c-.36,3.12,3.14,4.85,5.69,4.34l.1,0,1.08,1c4.49,4.06,10.92,8.76,16.49,3.51,4.32-4.08,5.43-12.34,6-17.86.7-6.51-.59-13.18-5.45-17.86-4.1-3.95-10.22-5.9-15.62-3.6a13.55,13.55,0,0,0-3.44,2.07,4.49,4.49,0,0,0-3.3,1.12c-8.23,7-6.4,16.77-1.41,24.68C896.32,1547,896.26,1547.86,896.17,1548.7Z" fill="none"/>
            <path d="M990.23,1803l-40.41-33.76a442.9,442.9,0,0,0,32.2-51.82c2.71-5.11-5.06-9.67-7.77-4.54a438.91,438.91,0,0,1-31.36,50.57L896,1724.22c-4.42-3.69-10.82,2.64-6.36,6.36l48,40.06a437.1,437.1,0,0,1-39.33,45.51c-4.09,4.12,2.27,10.49,6.36,6.37a445.72,445.72,0,0,0,39.88-46.1l39.37,32.89C988.29,1813,994.68,1806.67,990.23,1803Z" fill="none"/>
            <path d="M1129.6,1653.5a297.5,297.5,0,0,1,.32-51q.13-9.07,0-18.14c-15.09,12.35-69.56,54.64-108,54.64C978.12,1639,1025,1696.38,1129.6,1653.5Z" fill="#8d6460"/>
            <path d="M1188.92,1994.61c-.28-1.36-2.15-5.64-2.87-8-1.27-4.13-2.44-8.3-3.53-12.48-9.26-35.38-14.68-71.89-18.84-108.18-2-17.38-3.6-34.83-4.38-52.31-.31-7-.38-14-.37-21,0-6.16.55-14.17-2.49-19.69-1.74-3.14-4-5.59-5.26-9a38.83,38.83,0,0,1-1.54-5.41c-1.28-6-1.42-12.26-1.87-18.27-.87-11.63-4.14-22.86-7.38-34-4-13.56-7.53-27.15-9.49-41.15q-.8-5.77-1.3-11.58c-104.6,42.88-151.48-14.5-107.68-14.5,38.43,0,92.9-42.29,108-54.64-.72-47.25-6.78-94.54-14.92-141-8.17-46.62-18.5-93.35-33.75-138.22-5.3-15.59-11.18-30.92-16.44-46.45-32.11,57.7-162.88,71.29-162.88,71.29l68-27c58.92-23.39,80.3-67,85-78.29-.22-1-.45-1.89-.66-2.84-6.23-28.17-9.27-56.95-11.72-85.66-4.87-57-5.69-115.89-25.7-170C994.92,907,981.62,890.9,950.92,862c-11.6-10.92-29.49-17.74-29.79-19.69-16.4-5.39-34.15-6.09-51.26-6.29-7.79-.09-15.58.06-23.36-.2-5.18-.18-10.54-.37-15.36-2.43a4.67,4.67,0,0,1-.83-.45h0c-8-2-16-3.68-24.11-4.94-69.47-10.76-143.16,7.77-200,49-47.14,63.21-118.62,189.26-131.81,384.48,0,0-3,87-15,139-13.78,59.72,6,168,22,249,15.68,79.37,58.72,158.25,54.8,200,0,.17.06.33.08.5.56,3.85-3.26,6.2-6,5.53-1,6.35-2.07,19.78,4.65,26.5,8.59,8.59,30.09,54.46,17.1,77.82,3.64,4.71,10.31,6.19,16.08,4.22,8.37-2.86,13.16-11.56,15.67-19.48,1.75-5.51,10.43-3.14,8.68,2.39a52,52,0,0,1-6.15,13.1,4,4,0,0,1,.71.45,41.52,41.52,0,0,0,45.18,3.77c-4-7.66-4.85-16.64-8.11-24.57-2.2-5.37,6.51-7.68,8.68-2.4,3,7.36,3.78,15.57,7.39,22.7,2.23,4.41,3.92,4.58,8.87,4.15,5.89-.51,11.64-2.32,17.25-4.19a55.79,55.79,0,0,0-.08-7.59c-.15-2.56-.36-5.09-.41-7-.15-5.15-1.43-12.08.3-17.07,1.89-5.44,10.58-3.09,8.68,2.4-.32.93-.2,5.24-.17,7.5.06,3.31.17,6.62.26,9.93,9.28,2.37,19.44,4.54,28.46.44,10-4.56,11.44-14.6,8.9-24.38a79.13,79.13,0,0,0-6.56-16.56,2.77,2.77,0,0,1-.26-.48c-6.1-11.63-14.26-22.37-20.39-33.85-2.73-5.12,5-9.66,7.77-4.55,4.08,7.63,9.39,15.32,14.39,23.23,2.28-16.59,2.38-33.57-1.17-50a103.53,103.53,0,0,0-39.7-61.52,3.67,3.67,0,0,1-2.37-4c4.33-51.45-.26-102.13-10.6-152.58-7.69-37.54-17.21-74.76-20.84-113-2.2-23.13-2-46.46-1.54-69.67.54-26.65,1.92-53.27,3.55-79.86,6.48-105.76,18.22-213.88-2.9-318.76-1.14-5.67,7.54-8.07,8.68-2.4q.56,2.73,1.07,5.46s28.58,46.3,19.58,91.3-5,162,44,185c44,20.66,53.34,21.15,54.78,21l.22,0a1,1,0,0,1-.22,0c-4.25.63-68.44,10.2-87.78,17-20,7-6,127,1,178s16,207,16,229c0,16.58,6.87,24.56,13.21,40.39a109.19,109.19,0,0,1,10.14,23.06c7.77,8.61,22.15,27.69,22.15,51,0,32,0,47-5,65s17,44,5,56c-5.85,5.86-7.18,20.77-7,34.5H901.88q-.2-20.73-.09-41.46c.05-15.28.15-30.56.65-45.83.17-5,.31-10.06.8-15.06.68-7.12,2.61-14,3.24-21.15.89-10.26,4-20,7.59-29.56-1.44-4-.26-10.33-.15-13.44.13-3.83,4.1-5.12,6.72-3.89,2-5.3,4-10.61,5.82-16,1.77-5.15,3.94-10.66,4.46-16.13.55-5.72,9.55-5.76,9,0a59.86,59.86,0,0,1-2.63,12.09c3.28,22.28,12,77.33,20.63,99.41,9,22.94,23.39,51.26,23.89,91h207.11v-29.12C1188.92,2003.76,1189.75,1998.66,1188.92,1994.61ZM909.42,1046a68.29,68.29,0,0,1,26.55,8.36c7.07-10.58,16-21,28.25-25.2,5.51-1.88,7.85,6.82,2.4,8.68-9.89,3.37-17.27,12.4-23,21.26a87.14,87.14,0,0,1,25.74,28.13c2.85,5-4.93,9.58-7.78,4.54a80,80,0,0,0-22.66-25.09,293.78,293.78,0,0,0-13.56,27.09c-2.41,5.27-10.16.69-7.78-4.54a293.06,293.06,0,0,1,13.72-27.33,56.69,56.69,0,0,0-21.83-6.9C903.69,1054.49,903.65,1045.49,909.42,1046Zm-145.36,49.79a130.24,130.24,0,0,1-18.66-12.19,127.77,127.77,0,0,1-12.21,16.21c-3.91,4.29-10.25-2.09-6.37-6.37A118.21,118.21,0,0,0,738.33,1078l-3.79-3.11c-9.31-7.68-18.71-15.79-26.3-25.23-3.6-4.47,2.73-10.88,6.36-6.36,7.3,9.07,16.29,16.9,25.21,24.32l3.34,2.76.12-.19c5-8,10.19-16.2,13.81-24.91,2.19-5.28,10.9-3,8.68,2.4-3.94,9.47-9.3,18.37-14.72,27-.27.43-.54.86-.8,1.29a127.7,127.7,0,0,0,18.37,12C773.75,1090.69,769.19,1098.46,764.06,1095.79Zm133.69,425.63a4.49,4.49,0,0,1,3.3-1.12,13.55,13.55,0,0,1,3.44-2.07c5.4-2.3,11.52-.35,15.62,3.6,4.86,4.68,6.15,11.35,5.45,17.86-.6,5.52-1.71,13.78-6,17.86-5.57,5.25-12,.55-16.49-3.51l-1.08-1-.1,0c-2.55.51-6.05-1.22-5.69-4.34.09-.84.15-1.7.17-2.6C891.35,1538.19,889.52,1528.39,897.75,1521.42Zm86.12,287.89-39.37-32.89a445.72,445.72,0,0,1-39.88,46.1c-4.09,4.12-10.45-2.25-6.36-6.37a437.1,437.1,0,0,0,39.33-45.51l-48-40.06c-4.46-3.72,1.94-10,6.36-6.36l46.89,39.18a438.91,438.91,0,0,0,31.36-50.57c2.71-5.13,10.48-.57,7.77,4.54a442.9,442.9,0,0,1-32.2,51.82L990.23,1803C994.68,1806.67,988.29,1813,983.87,1809.31Z" fill="#9a6d66"/>
          </g>
          <g>
            <path d="M706.91,675.06c-6.71-4.53-19.16-12.11-25.32-2.64-4.84,7.44.52,16.75,5.7,22.33A42,42,0,0,0,714,707.65c4.07.42,5.24-4,3.55-6.77a3.91,3.91,0,0,0,3.88-4.32C720.87,686.93,714.58,680.24,706.91,675.06Z" fill="none"/>
            <g>
              <path d="M706.91,675.06c-6.71-4.53-19.16-12.11-25.32-2.64-4.84,7.44.52,16.75,5.7,22.33A42,42,0,0,0,714,707.65c4.07.42,5.24-4,3.55-6.77a3.91,3.91,0,0,0,3.88-4.32C720.87,686.93,714.58,680.24,706.91,675.06Z" fill="none"/>
              <path d="M723.25,724.07l-.09.12a25.19,25.19,0,0,1-6.68,5.73,144.41,144.41,0,0,0,45.72,41.56,110.3,110.3,0,0,0,11.6,5.71C751.89,758.64,726.38,730.87,723.25,724.07Z" fill="#8d6460"/>
            </g>
          </g>
          <g>
            <path d="M706.91,675.06c-6.71-4.53-19.16-12.11-25.32-2.64-4.84,7.44.52,16.75,5.7,22.33A42,42,0,0,0,714,707.65c4.07.42,5.24-4,3.55-6.77a3.91,3.91,0,0,0,3.88-4.32C720.87,686.93,714.58,680.24,706.91,675.06Z" fill="none"/>
            <path d="M714.21,519.5c-24.45,29.34-38.82,71.14-26.7,107.41a4.3,4.3,0,0,1,.16,2.35,47.56,47.56,0,0,1,20.4,1C691.56,594.35,707.46,539.39,714.21,519.5Z" fill="#8d6460"/>
          </g>
          <g>
            <path d="M706.91,675.06c-6.71-4.53-19.16-12.11-25.32-2.64-4.84,7.44.52,16.75,5.7,22.33A42,42,0,0,0,714,707.65c4.07.42,5.24-4,3.55-6.77a3.91,3.91,0,0,0,3.88-4.32C720.87,686.93,714.58,680.24,706.91,675.06Z" fill="none"/>
            <path d="M667.39,651.84a32.35,32.35,0,0,0-6.14,14.4c-1.35,9,2,18.16,5.23,26.44,2.91,7.48,6.56,15,11.89,21.1,7.37,8.41,20.33,14,30.65,9.85C669.11,704.35,666.73,666.36,667.39,651.84Z" fill="#8d6460"/>
            <path d="M1011.44,586.64a146.18,146.18,0,0,0-27.29-61c-27.53-36.17-71.26-59.42-116.24-64.31-49.33-5.36-100.46,10.23-138.23,42.48a131.62,131.62,0,0,0-15.47,15.73c-6.75,19.89-22.65,74.85-6.14,110.78A54.41,54.41,0,0,1,740,653.9c3.07,4.94-4.72,9.45-7.77,4.54-8.46-13.61-24.5-23-40.82-21a36.29,36.29,0,0,0-24,14.35c-.66,14.52,1.72,52.51,41.63,71.79a19.15,19.15,0,0,0,7.77-5.8c3.65-4.45,9.9,1.81,6.46,6.24,3.13,6.8,28.64,34.57,50.55,53.12,33.79,14.35,73.89,12.57,109.66,11.88,20.12-.4,40-2.33,58.67-10.37,11.18-4.82,23.7-11.25,32.4-20.53-24.77.3-49.16-9.71-69.32-23.74-3.52-1.69-3.1-7.89,1.25-8.5h0a3.2,3.2,0,0,1,1.45,0,105.13,105.13,0,0,0,60.75-19c4.58-3.21,8.52-7.09,12.88-10.55,5.29-4.21,10.93-8,16.13-12.34,6-5,8.61-15.87,10.45-23.89C1013.67,636,1016.11,611,1011.44,586.64ZM717.59,700.88c1.69,2.81.52,7.19-3.55,6.77a42,42,0,0,1-26.75-12.9c-5.18-5.58-10.54-14.89-5.7-22.33,6.16-9.47,18.61-1.89,25.32,2.64,7.67,5.18,14,11.87,14.56,21.5A3.91,3.91,0,0,1,717.59,700.88Z" fill="#9a6d66"/>
          </g>
          <path d="M570.94,1921.31a59.38,59.38,0,0,0,29.53-4.79c2.17-.93,2.82-4.28,1.62-6.15-1.46-2.26-3.84-2.61-6.16-1.62.68-.29-.86.35-1,.4-.56.22-1.12.42-1.69.62-1,.34-2,.66-3,.94a59,59,0,0,1-6.59,1.43c-.54.08-.59.09-.14,0l-.89.11-1.34.13c-1.2.1-2.39.17-3.59.19a54.2,54.2,0,0,1-6.74-.29c-2.35-.24-4.6,2.24-4.5,4.5a4.62,4.62,0,0,0,4.5,4.5Z" fill="#c39a9a"/>
          <path d="M635.09,1916.24l16-3.94a4.5,4.5,0,0,0-2.39-8.68l-16,3.94a4.5,4.5,0,0,0,2.39,8.68Z" fill="#c39a9a"/>
          <path d="M675.17,1897.5l6-2.07a4.74,4.74,0,0,0,2.69-2.06,5.1,5.1,0,0,0,.45-3.47,4.5,4.5,0,0,0-5.53-3.15l-6,2.07a4.79,4.79,0,0,0-2.69,2.07,3.23,3.23,0,0,0-.53,1.67,3.3,3.3,0,0,0,.08,1.79,4.55,4.55,0,0,0,2.07,2.69,4.47,4.47,0,0,0,3.46.46Z" fill="#c39a9a"/>
          <path d="M1314.62,1749a64.25,64.25,0,0,1,7,3.88c1.06.69,2.1,1.4,3.12,2.15l.81.6c.66.49-.2-.18.19.15s1,.83,1.55,1.26a62.16,62.16,0,0,1,5.64,5.37c.91,1,1.78,2,2.62,3l.51.62c.8,1-.29-.4.15.19s.88,1.17,1.3,1.77c1.36,1.91,4,3,6.16,1.61,1.9-1.22,3.07-4.1,1.61-6.15a68.68,68.68,0,0,0-26.1-22.23c-2.11-1-5-.66-6.15,1.61-1.06,2-.65,5.07,1.61,6.16Z" fill="#c39a9a"/>
          <path d="M712.17,844.58l37.9-7.51a4.52,4.52,0,0,0,3.14-5.53,4.61,4.61,0,0,0-5.54-3.14l-37.9,7.5a4.53,4.53,0,0,0-3.14,5.54,4.62,4.62,0,0,0,5.54,3.14Z" fill="#c39a9a"/>
          <path d="M948.1,504.82a78,78,0,0,0-44-19.27,70.77,70.77,0,0,0-13.18-.12c-2.34.19-4.62,1.93-4.5,4.5.1,2.27,2,4.7,4.5,4.5a70.47,70.47,0,0,1,11.16-.06c.88.06,1.76.15,2.63.24l1,.12.2,0,.81.13q2.81.44,5.58,1.1A73.53,73.53,0,0,1,923,499.41l.57.23-.14-.06,1.3.58c.86.4,1.72.81,2.56,1.23q2.55,1.29,5,2.76,2.6,1.59,5.06,3.39l.66.48c.28.21.42.32.06,0l1.27,1c.84.69,1.66,1.39,2.47,2.12a4.58,4.58,0,0,0,6.36,0c1.57-1.72,1.88-4.69,0-6.37Z" fill="#c39a9a"/>
          <path d="M724.81,528.84a246.75,246.75,0,0,0-3.5,43.16,4.5,4.5,0,0,0,9,0c-.06-6.94.17-13.89.72-20.81q.4-5.13,1-10.24l.15-1.22s.19-1.43.09-.74c.11-.81.23-1.62.35-2.43q.39-2.67.84-5.32c.39-2.32-.61-5-3.14-5.54-2.18-.5-5.12.66-5.54,3.14Z" fill="#c39a9a"/>
          <path d="M996.52,623.79a146.23,146.23,0,0,1-8.72,32.1c-.87,2.19,1,5,3.14,5.54,2.6.59,4.6-.8,5.54-3.15a146.86,146.86,0,0,0,8.72-32.09c.35-2.32-.59-5-3.15-5.54-2.14-.49-5.15.66-5.53,3.14Z" fill="#c39a9a"/>
          <path d="M996.86,883c.48.19.47.19,0,0l.7.31,1.05.49c.8.38,1.6.79,2.39,1.21,1.46.79,2.89,1.64,4.27,2.56.75.49,1.48,1,2.2,1.53.11.08,1.18.9.77.58l.75.6c1.33,1.09,2.62,2.25,3.85,3.45s2.4,2.48,3.52,3.8c.25.29.49.58.73.88.12.14,1.1,1.42.49.6.49.66,1,1.33,1.46,2a56.28,56.28,0,0,1,5.13,9.19c.95,2.16,4.27,2.83,6.15,1.62,2.24-1.45,2.64-3.85,1.62-6.16a61.08,61.08,0,0,0-32.67-31.34c-2.18-.9-5,1-5.53,3.14-.6,2.62.8,4.57,3.14,5.54Z" fill="#c39a9a"/>
          <path d="M712.59,835.9a84.16,84.16,0,0,0-32.76,13.48c-1.93,1.33-3,4-1.61,6.16,1.24,1.92,4.08,3,6.16,1.61a81.54,81.54,0,0,1,7.25-4.47c1.21-.66,2.45-1.29,3.69-1.89l2-.92,1-.44c.73-.32-1,.39.33-.13A82.22,82.22,0,0,1,715,844.58c2.32-.41,3.84-3.37,3.14-5.53a4.63,4.63,0,0,0-5.54-3.15Z" fill="#c39a9a"/>
          <path d="M490.28,1264q-6.78,28.33-15.87,56-2.58,7.85-5.34,15.62a4.53,4.53,0,0,0,3.14,5.54,4.61,4.61,0,0,0,5.53-3.15q9.75-27.45,17.2-55.64,2.1-8,4-16a4.5,4.5,0,0,0-8.68-2.39Z" fill="#c39a9a"/>
          <path d="M1365.29,1806.06a180.4,180.4,0,0,0-2.91-21.72c-2.87-14-8.52-27.08-18.17-37.76s-22.44-19.08-29.57-32c-23-66.51-46-133.21-62-201.85-8-34.54-13.61-69.54-20.32-104.34q-9.67-50.1-22.12-99.62A1840.73,1840.73,0,0,0,1150,1114.87q-17.7-47.49-38-94c-13.31-30.55-27-61.18-42.75-90.56-13.33-24.86-29.48-51.69-53.69-67.33-21.62-14-47.76-21.89-73.17-25-3-.36-5.94-.63-8.92-.8A87.43,87.43,0,0,0,911,830a4.71,4.71,0,0,0,.2-1.64,123.07,123.07,0,0,0-5.56-31.57c12.31-1.24,24.44-3.63,36.09-8.28,16.51-6.6,35.13-16.24,45.21-31.61a3.47,3.47,0,0,0,1.89-3.51c.85-3.83-4.07-6.85-7.12-4.57-20.86,2.5-42.06-4.39-60.32-14.81a114.46,114.46,0,0,0,59.77-25.5c5.65-4.71,11.27-9.32,17.15-13.82s10.24-8.64,13.26-15.59c4.12-9.48,6.1-19.78,7.8-29.93,2.15-12.82,3.86-25.63,3.55-38.68a154.68,154.68,0,0,0-21.62-75.5c-24.32-40.72-66.64-68.95-112.6-79.29-51.85-11.67-108,.11-151.32,30.74-39.11,27.65-68.7,76.65-62.38,126a87.74,87.74,0,0,0,3.81,16.86,4.53,4.53,0,0,0,1.27,2,43.16,43.16,0,0,0-17.38,12.11C651.65,656,650,671.54,655,687.17c4.88,15.32,12.21,31.61,26,40.85a36,36,0,0,0,26.89,5.23,158.32,158.32,0,0,0,42.49,41.47c17.82,11.93,38.63,18,59.72,20.88,9.41,1.28,18.87,2,28.35,2.34a4.38,4.38,0,0,0-1.14,2,90,90,0,0,0-2.93,24.7C763,806.11,685,818.4,621.77,856.06a273.78,273.78,0,0,0-82.51,76.51c-22.87,32-39.33,68.21-51.8,105.4-13.29,39.58-22.16,80.53-29.53,121.58q-12.23,68.1-17.78,137.17a1422,1422,0,0,0,5.09,279.73,1394.28,1394.28,0,0,0,23.1,138c4.61,20.83,10.32,41.47,20.61,60.29,8.42,15.43,19.06,29.58,27.35,45.08-11.39,25.54-4.92,52,6.76,76.45,5.1,10.71,11.29,21,15.91,31.88a47,47,0,0,1,3.53,12.38c.59,4.7,2.21,12.28,0,16.67a4.41,4.41,0,0,0,0,4.08,4,4,0,0,0,.24.62c4.52,9.8,16.49,13.74,26.54,11.14a26.63,26.63,0,0,0,11.7-6.64,4.65,4.65,0,0,0,1.48,1.84c15.66,12,37.71,13.17,54.78,3.49a5,5,0,0,0,.88-.63c7.39,4.49,18.06,1.35,26.3-1.15,5-1.51,10-2.08,10.5-7.9a45,45,0,0,0,.16-4.65c.95.22,1.89.43,2.84.63,3,18.34,3,45.74-2.28,63.61-1.43,4.83-3.23,9.57-5,14.3-.54,1.44-1.07,2.89-1.59,4.33-1,2.8,1.59,5.7,4.34,5.7h233a4.56,4.56,0,0,0,4.5-4.5c-.32-29-.38-57.93.38-86.87.15-5.67.31-11.36.7-17,.37-5.35,1.64-9.13,2.51-15.32,1-7.49,1.3-14.61,3.49-21.87,1-3.24,2.06-6.46,3.2-9.66a29.24,29.24,0,0,1,3.14,14.83c-.28,5-1.43,10-1.09,15,.46,6.71,4.14,12.15,6.35,18.33,5,13.92,8.5,28.35,12.64,42.54,1.89,6.48,3.78,13,6.19,19.31.57,1.5,1.24,4.6,2.42,5.87,0,.59.07,1.27.07,1.79v33a4.57,4.57,0,0,0,4.5,4.5h238a4.57,4.57,0,0,0,4.5-4.5v-44.7c0-4.41-1.89-8.36-3.19-12.55-10.42-33.74-15.85-69.3-20.34-104.25-2.34-18.17-4.25-36.41-5.44-54.69-.49-7.41-.86-14.83-1-22.26-.07-3.5,0-7,0-10.52,6.8,11.94,13.64,23.85,19.59,36.24a4.11,4.11,0,0,0,1.52,1.78c-1.25,11.77-1.5,23.76,2.4,35,4,11.66,12.78,22.25,24.61,26.48,4.94,1.77,11.84,2.94,16.72.43,3.82-2,5.16-5.48,5.58-9.28a11.23,11.23,0,0,0,7.2,1.74c6-.49,13.81-4,17.07-9.58,6.48,6.81,15.95,11.86,25.1,8.3,5-1.94,7.31-5.87,8-10.49a141.37,141.37,0,0,0,6,18.92c2.63,6.15,7.5,11.53,14.61,11.79,6.76.26,13.06-3.85,16.7-9.36,4.48-6.78,4.18-15.37,2.64-23-1.08-5.38-2.54-10.73-4.11-16,6.07-1.73,12.44-7,16.85-10.08,6.51-4.61,14.89-9.7,16.77-18C1366.84,1820.44,1365.85,1813,1365.29,1806.06ZM762.2,771.48a144.41,144.41,0,0,1-45.72-41.56,25.19,25.19,0,0,0,6.68-5.73c3.64-4.44-2.69-10.85-6.37-6.36-10.5,12.82-29,6.68-38.42-4.05-5.33-6.08-9-13.62-11.89-21.1-3.23-8.28-6.58-17.42-5.23-26.44,2.21-14.72,15.5-26.89,30.11-28.75,16.32-2.08,32.36,7.34,40.82,21,3.05,4.91,10.84.4,7.77-4.54-11.24-18.07-32.73-28.06-52.28-24.64a4.3,4.3,0,0,0-.16-2.35c-14.51-43.4,8.92-94.75,42.17-123.14,37.77-32.25,88.9-47.84,138.23-42.48,45,4.89,88.71,28.14,116.24,64.31a146.18,146.18,0,0,1,27.29,61c4.67,24.39,2.23,49.39-3.29,73.43-1.84,8-4.43,18.87-10.45,23.89-5.2,4.33-10.84,8.13-16.13,12.34-4.36,3.46-8.3,7.34-12.88,10.55a105.13,105.13,0,0,1-60.75,19,3.2,3.2,0,0,0-1.45,0h0c-4.35.61-4.77,6.81-1.25,8.5,20.16,14,44.55,24,69.32,23.74-8.7,9.28-21.22,15.71-32.4,20.53-18.65,8-38.55,10-58.67,10.37C843.5,789.84,798.14,792,762.2,771.48Zm82.62,26.66c11,.26,22,.13,32.93,0,6.24-.07,12.49-.22,18.71-.59,0,0,0,0,0,0a114.14,114.14,0,0,1,5.76,30.79,2.28,2.28,0,0,0,0,.26c-16.69-2.11-34.12-1.58-48.78-1.7-3.34,0-6.69-.05-10-.25A81.14,81.14,0,0,1,846,802.38,4.13,4.13,0,0,0,844.82,798.14Zm337.7,1176c1.09,4.18,2.26,8.35,3.53,12.48.72,2.33,2.59,6.61,2.87,8,.83,4.05,0,9.15,0,13.27V2037h-229v-25.1c0-3.83.25-6.61-1.37-10.09a123,123,0,0,1-5.69-16.17c-4.42-14.52-8.13-29.26-12.78-43.71a108.54,108.54,0,0,0-5.77-14.7c-4.63-9.43.33-19.88-1.41-29.86-.81-4.67-3.26-13.23-7.88-17l.47-1.25c3.13-8.33,6.36-16.64,9.29-25,2.21-6.34,4.5-12.84,5.14-19.57.55-5.76-8.45-5.72-9,0-.52,5.47-2.69,11-4.46,16.13-1.84,5.37-3.82,10.68-5.82,16-2.62-1.23-6.59.06-6.72,3.89-.11,3.11-1.29,9.39.15,13.44-3.56,9.59-6.7,19.3-7.59,29.56-.63,7.16-2.56,14-3.24,21.15-.49,5-.63,10-.8,15.06-.5,15.27-.6,30.55-.65,45.83q-.07,20.73.09,41.46h-222c2-5.45,3.78-11,5.42-16.55,6.65-22.45,4.76-42,1.73-60.94,6.5.62,13,.17,19.25-2.46A25.59,25.59,0,0,0,722.44,1933c0-10.2-3.39-19.73-8.18-28.86,4.09-21.67,5-44.1.14-65.71-5.89-25.86-20.61-47.75-41.32-64,3.65-45.64.55-91-7.78-136-7-38.08-17.35-75.59-22.32-114.05-6.19-48-3.22-97.24-.52-145.41,3-53.89,7.58-107.71,9.28-161.67,1.87-59.19.25-118.83-11.47-177-1.14-5.67-9.82-3.27-8.68,2.4,21.12,104.88,9.38,213,2.9,318.76-1.63,26.59-3,53.21-3.55,79.86-.46,23.21-.66,46.54,1.54,69.67,3.63,38.23,13.15,75.45,20.84,113,10.34,50.45,14.93,101.13,10.6,152.58a3.67,3.67,0,0,0,2.37,4A103.53,103.53,0,0,1,706,1842c3.55,16.39,3.45,33.37,1.17,50-5-7.91-10.31-15.6-14.39-23.23-2.73-5.11-10.5-.57-7.77,4.55,6.13,11.48,14.29,22.22,20.39,33.85a2.77,2.77,0,0,0,.26.48,79.13,79.13,0,0,1,6.56,16.56c2.54,9.78,1.1,19.82-8.9,24.38-9,4.1-19.18,1.93-28.46-.44-.09-3.31-.2-6.62-.26-9.93,0-2.26-.15-6.57.17-7.5,1.9-5.49-6.79-7.84-8.68-2.4-1.73,5-.45,11.92-.3,17.07.05,1.91.26,4.44.41,7a55.79,55.79,0,0,1,.08,7.59c-5.61,1.87-11.36,3.68-17.25,4.19-4.95.43-6.64.26-8.87-4.15-3.61-7.13-4.38-15.34-7.39-22.7-2.17-5.28-10.88-3-8.68,2.4,3.26,7.93,4.11,16.91,8.11,24.57A41.52,41.52,0,0,1,587,1960.5a4,4,0,0,0-.71-.45,52,52,0,0,0,6.15-13.1c1.75-5.53-6.93-7.9-8.68-2.39-2.51,7.92-7.3,16.62-15.67,19.48-6.12,2.09-13.24.3-16.71-5.09,1.26-4.41.9-9.34.56-13.82a62.15,62.15,0,0,0-2.35-14.08c-3.33-10.48-9.1-20.17-14.1-29.91-11.24-21.88-21-46.22-13.84-70.14a88.83,88.83,0,0,1,6,21.36c.82,5.71,9.5,3.28,8.68-2.39-1.63-11.29-5.66-21.81-10.77-31.84-.15-.27-.29-.55-.42-.82-3.27-6.3-7-12.4-10.73-18.38-10.79-17.07-21.68-33.66-28.25-52.91-7.11-20.84-11.19-42.74-15.41-64.31q-6.59-33.64-11.53-67.6a1415.37,1415.37,0,0,1-12.85-274.37c4.4-88,15.8-177,38.64-262.2,19.9-74.25,53.23-148.42,115.7-196.38C658.19,837,734.44,816.88,806.2,828c8.11,1.26,16.15,2.93,24.12,5a4.67,4.67,0,0,0,.83.45c4.82,2.06,10.18,2.25,15.36,2.43,7.78.26,15.57.11,23.36.2,13.31.15,26.81.81,39.9,3.27,1.45.27,2.89.59,4.32,1a34.24,34.24,0,0,1,7.23,2.83,26.69,26.69,0,0,1,3.44,2.39c1.28.93,2.76,1.67,4.1,2.52q4.07,2.57,8,5.3,7.9,5.48,15.32,11.62a173.71,173.71,0,0,1,24.37,25,214.79,214.79,0,0,1,19.36,28.74,258.47,258.47,0,0,1,15,31.38q3.18,8,5.88,16.1c18.23,54.76,20.83,113,25.7,170,2.45,28.71,5.49,57.49,11.72,85.66,6.35,28.68,17.59,55.58,27,83.29,15.25,44.87,25.58,91.6,33.75,138.22,9.18,52.39,15.73,105.85,14.93,159.12-1.77,20.86-1.91,41.81,1,62.58,2,14,5.54,27.59,9.49,41.15,3.24,11.14,6.51,22.37,7.38,34,.45,6,.59,12.3,1.87,18.27a38.83,38.83,0,0,0,1.54,5.41c1.28,3.45,3.52,5.9,5.26,9,3,5.52,2.51,13.53,2.49,19.69,0,7,.06,14,.37,21,.78,17.48,2.39,34.93,4.38,52.31C1167.84,1902.27,1173.26,1938.78,1182.52,1974.16Zm46.76-90.58c-2.86,4.16-13-.93-15.92-2.9a35.14,35.14,0,0,1-12.07-14.61c-6.42-14.06-4-30.77-2-45.54a5.27,5.27,0,0,0,0-.78c11.06,1.87,19.74,10.94,24.18,21,3,6.92,4.42,14.6,5.13,22.07.1,1,.18,2.05.26,3.07a3.45,3.45,0,0,0,0,.84c.18,2.47.31,5,.41,7.43C1229.45,1876.28,1230.57,1881.7,1229.28,1883.58Zm25.8-13.28c-.83,2.93-6.88,5.4-9.6,5.6-4.92.35-6.48-6.76-7.62-10.67-.86-11.17-2.8-22.33-8.18-32.22a47.59,47.59,0,0,0-4.57-6.92,19.41,19.41,0,0,1,22.21,7.68,4.35,4.35,0,0,0,3,2c-.55,10.83,1.16,22.41,6.61,31.94A4.21,4.21,0,0,0,1255.08,1870.3Zm26.81,5.42c-8.27.3-15-7.92-18.24-14.64-3.53-7.36-4.61-15.63-4.36-23.73a4.5,4.5,0,0,0,1.14.42,34.19,34.19,0,0,1,21.27,15C1284.71,1857.58,1292.24,1875.34,1281.89,1875.72Zm75.14-54.6c-.31,6-2,7.73-6.35,11.36a122.08,122.08,0,0,1-13.18,9.44c-2.14,1.33-6,3.85-8.49,4.75-.81-2.67-1.61-5.33-2.37-8l-7.44-26a16.79,16.79,0,0,0,8.11-.94c5.24-2,8.75-6.62,12-11,3.45-4.65-4.36-9.15-7.78-4.54-2,2.66-4.41,6.15-7.7,7.27a10.47,10.47,0,0,1-6.33-.22c-1.24-.37-2.46-.84-3.61-1.28-3.27-1.24-6.41,2.47-5.53,5.54.36,1.24.71,2.49,1.07,3.73l12,41.83c.36,1.27.73,2.53,1.09,3.8,2.18,7.61,5.28,15.58,5.34,23.58,0,6-3.36,14.64-10.79,14.42-6.8-.2-8.41-10.38-9.88-15.4q-3.75-12.76-7.48-25.52c-1.77-6-3.53-12.53-9.8-15.22-5.39-2.31-10.7-3.13-15.81-5.87-.73-.39-1.46-.82-2.18-1.3a43.83,43.83,0,0,1-19.43-37.09c.14-5.8-8.86-5.79-9,0a52.4,52.4,0,0,0,14.38,36.86,1.27,1.27,0,0,0-.12.23,4.39,4.39,0,0,0-2-.69,4.75,4.75,0,0,0-.68-1.67,28.57,28.57,0,0,0-36.69-10,36.93,36.93,0,0,0-22.57-8.8c-3.39-.09-4.79,2.94-4.22,5.51a2.37,2.37,0,0,0-.29.34c-10.53-20.44-23-39.86-33-60.57-.11-.52-.2-1-.29-1.59-1.26-7.74-1.16-15.63-2.36-23.39A156.13,156.13,0,0,0,1152,1714c-3.89-14.35-8.46-28.46-11.07-43.13-4-22.33-3.89-45.15-2-67.69,0-.22,0-.43.05-.65a5.82,5.82,0,0,0,0-.72c.67-47.82-4.74-95.75-12.27-142.91-7.62-47.76-17.76-95.37-32.06-141.61-8.46-27.33-20.08-53.63-27.63-81.25-7.89-28.9-11.71-58.69-14.46-88.47-5.37-58-7.23-117-23.77-173.31-13.29-45.22-37.12-88.93-74-118.79a49.37,49.37,0,0,0-6.36-7.68,172.94,172.94,0,0,1,50,15.92c10.94,5.41,20.87,12.1,29.11,21.15,10.68,11.74,19.61,24.92,27.56,38.61,16.29,28,29.57,58,42.77,87.57q20.55,46.07,38.51,93.23a1842.51,1842.51,0,0,1,61,190.78q12.54,48,22.47,96.68c6.9,33.85,12.32,68,19.35,101.81,14.12,67.93,35.88,133.93,58.42,199.45q3.76,10.95,7.55,21.89a4.68,4.68,0,0,0,.49,2.08c6.88,14.23,20,23.18,30.6,34.36,11.73,12.35,16.8,28.25,19,44.86C1356.33,1804.24,1357.44,1813,1357,1821.12Z" fill="#040706"/>
          <path d="M909.42,1055a56.69,56.69,0,0,1,21.83,6.9,293.06,293.06,0,0,0-13.72,27.33c-2.38,5.23,5.37,9.81,7.78,4.54a293.78,293.78,0,0,1,13.56-27.09,80,80,0,0,1,22.66,25.09c2.85,5,10.63.51,7.78-4.54a87.14,87.14,0,0,0-25.74-28.13c5.78-8.86,13.16-17.89,23-21.26,5.45-1.86,3.11-10.56-2.4-8.68-12.29,4.19-21.18,14.62-28.25,25.2a68.29,68.29,0,0,0-26.55-8.36C903.65,1045.49,903.69,1054.49,909.42,1055Z" fill="#040706"/>
          <path d="M896.17,1548.7c-.36,3.12,3.14,4.85,5.69,4.34l.1,0,1.08,1c4.49,4.06,10.92,8.76,16.49,3.51,4.32-4.08,5.43-12.34,6-17.86.7-6.51-.59-13.18-5.45-17.86-4.1-3.95-10.22-5.9-15.62-3.6a13.55,13.55,0,0,0-3.44,2.07,4.49,4.49,0,0,0-3.3,1.12c-8.23,7-6.4,16.77-1.41,24.68C896.32,1547,896.26,1547.86,896.17,1548.7Zm9.07-17.85a6.64,6.64,0,0,1,1.46-3.47c3-3.3,9.29,2,9.93,6.93.56,4.29-.6,8.61-1.73,12.72-.56,2-.32,4.06-3.16,2.68a12.27,12.27,0,0,1-3-2.57,9.47,9.47,0,0,0,.13-6.14,4.29,4.29,0,0,0-3.86-3.11A32.44,32.44,0,0,1,905.24,1530.85Z" fill="#040706"/>
          <path d="M990.23,1803l-40.41-33.76a442.9,442.9,0,0,0,32.2-51.82c2.71-5.11-5.06-9.67-7.77-4.54a438.91,438.91,0,0,1-31.36,50.57L896,1724.22c-4.42-3.69-10.82,2.64-6.36,6.36l48,40.06a437.1,437.1,0,0,1-39.33,45.51c-4.09,4.12,2.27,10.49,6.36,6.37a445.72,445.72,0,0,0,39.88-46.1l39.37,32.89C988.29,1813,994.68,1806.67,990.23,1803Z" fill="#040706"/>
          <path d="M768.61,1088a127.7,127.7,0,0,1-18.37-12c.26-.43.53-.86.8-1.29,5.42-8.68,10.78-17.58,14.72-27,2.22-5.35-6.49-7.68-8.68-2.4-3.62,8.71-8.83,16.94-13.81,24.91l-.12.19-3.34-2.76c-8.92-7.42-17.91-15.25-25.21-24.32-3.63-4.52-10,1.89-6.36,6.36,7.59,9.44,17,17.55,26.3,25.23l3.79,3.11a118.21,118.21,0,0,1-11.51,15.42c-3.88,4.28,2.46,10.66,6.37,6.37a127.77,127.77,0,0,0,12.21-16.21,130.24,130.24,0,0,0,18.66,12.19C769.19,1098.46,773.75,1090.69,768.61,1088Z" fill="#040706"/>
          <path d="M706.91,675.06c-6.71-4.53-19.16-12.11-25.32-2.64-4.84,7.44.52,16.75,5.7,22.33A42,42,0,0,0,714,707.65c4.07.42,5.24-4,3.55-6.77a3.91,3.91,0,0,0,3.88-4.32C720.87,686.93,714.58,680.24,706.91,675.06Zm-9.29,17c-3.32-2.57-9.67-8.32-8.85-13.2.84-5,11.78,2.7,14.19,4.39,4.57,3.21,9.14,7.42,9.51,13.33a4.77,4.77,0,0,0,.54,2A32.21,32.21,0,0,1,697.62,692Z" fill="#040706"/>
        </g>
        <g>
          <path d="M808.9,590.8c4.74.25,8.32,4,11.07,7.5,3.1,4,5.87,8,10.23,10.76,2.17,1.36,4.52,2.42,6.74,3.68a40,40,0,0,1,6.27,4.53,85.45,85.45,0,0,1,11.19,11c3.47,4.37,6,10.06,4.67,15.71-.43,1.88,2.46,2.68,2.89.8,2.64-11.58-6.57-20.51-14.32-27.56a48.24,48.24,0,0,0-13.71-9.46,24.37,24.37,0,0,1-6.46-4.8c-1.82-2-3.36-4.16-5-6.27-3.4-4.4-7.72-8.57-13.58-8.88-1.93-.1-1.92,2.9,0,3Z" fill="#4f4f4f"/>
          <path d="M858.2,580.87a165.73,165.73,0,0,0-16.8,26.07A240.88,240.88,0,0,0,829,636c-2,5.68-3.95,11.41-5.84,17.14-.61,1.84,2.28,2.63,2.89.8,6.48-19.63,13.36-39.24,24.36-56.87A158.55,158.55,0,0,1,860.33,583c1.17-1.5-.93-3.64-2.13-2.12Z" fill="#4f4f4f"/>
        </g>
      </g>
      <g>
        <g>
          <path d="M808.9,590.8c4.74.25,8.32,4,11.07,7.5,3.1,4,5.87,8,10.23,10.76,2.17,1.36,4.52,2.42,6.74,3.68a40,40,0,0,1,6.27,4.53,85.45,85.45,0,0,1,11.19,11c3.47,4.37,6,10.06,4.67,15.71-.43,1.88,2.46,2.68,2.89.8,2.64-11.58-6.57-20.51-14.32-27.56a48.24,48.24,0,0,0-13.71-9.46,24.37,24.37,0,0,1-6.46-4.8c-1.82-2-3.36-4.16-5-6.27-3.4-4.4-7.72-8.57-13.58-8.88-1.93-.1-1.92,2.9,0,3Z" fill="#4f4f4f"/>
          <path d="M858.2,580.87a165.73,165.73,0,0,0-16.8,26.07A240.88,240.88,0,0,0,829,636c-2,5.68-3.95,11.41-5.84,17.14-.61,1.84,2.28,2.63,2.89.8,6.48-19.63,13.36-39.24,24.36-56.87A158.55,158.55,0,0,1,860.33,583c1.17-1.5-.93-3.64-2.13-2.12Z" fill="#4f4f4f"/>
        </g>
        <circle cx="1286.42" cy="1762.5" r="20.5" fill="#040706"/>
      </g>
    </g>
    <path d="M913.08,568.7c1.49,5.59,4.87,10.44,8.61,14.77a107.26,107.26,0,0,0,11.55,11.21c3.92,3.36,8.79,5.34,13.63,7s10,3.15,15.07,3.35c7.73.31,15.06-2.79,22-5.73,2.18-.93,2.82-4.3,1.62-6.16-1.46-2.27-3.83-2.6-6.16-1.62l-.44.19-1.09.45-2,.79c-1.4.54-2.81,1.06-4.24,1.51a42.47,42.47,0,0,1-4.3,1.13l-1.14.22c-.11,0-.88.13-.18,0a23.54,23.54,0,0,1-2.52.19c-.69,0-1.37,0-2.06,0l-.92-.08c.75.08-.23,0-.41-.07-1-.17-2-.39-3-.62-2.13-.5-4.25-1.07-6.35-1.73-1.11-.35-2.22-.72-3.32-1.12l-1.37-.52-.85-.34c-.3-.12-.22-.09.25.11l-.49-.22c-1-.44-2-.91-2.91-1.43-.22-.12-2.58-1.66-2.59-1.65s.85.73.25.18l-.47-.41-1.37-1.2c-1-.85-1.9-1.7-2.84-2.57-1.88-1.73-3.71-3.51-5.44-5.38-1-1-1.91-2.12-2.8-3.22-.22-.26-.43-.52-.63-.79.47.62-.11-.16-.26-.36q-.57-.79-1.11-1.62a30.44,30.44,0,0,1-2.07-3.64c-.11-.22-.21-.45-.32-.67.44.94,0-.06-.09-.28-.25-.67-.46-1.35-.65-2.05a4.55,4.55,0,0,0-5.53-3.14,4.6,4.6,0,0,0-3.15,5.54Z" fill="#040706"/>
    <path d="M809.07,601.06c9.32,20.89,32.95,38.4,56.6,32.49a33.94,33.94,0,0,0,16.63-9.65,4.5,4.5,0,0,0-6.36-6.36,29,29,0,0,1-2.53,2.43s-1,.77-.46.37-.5.36-.48.35c-.53.37-1.07.72-1.63,1.06-1,.61-2,1.12-3.1,1.64s.53-.18-.18.09l-.91.35c-.61.23-1.23.44-1.86.62a33,33,0,0,1-3.43.84l-.77.14s-1.27.16-.57.09-.58.05-.57.05c-.39,0-.79.07-1.18.09a35.21,35.21,0,0,1-3.56,0c-.63,0-1.26-.08-1.89-.14-.35,0-.7-.07-1-.12.81.11-.23,0-.47-.09a41.8,41.8,0,0,1-7.51-2.07c-.22-.08-1.82-.75-1.07-.42-.65-.29-1.29-.58-1.92-.89-1.21-.6-2.38-1.24-3.54-1.93s-2.15-1.35-3.19-2.08c-.51-.36-1-.74-1.52-1.12.61.47.05,0-.06-.05l-1-.77a56.94,56.94,0,0,1-5.61-5.37c-.5-.56-1-1.12-1.48-1.7-.22-.26-.44-.52-.65-.79s-.84-1.08-.31-.38c-.83-1.08-1.61-2.2-2.36-3.34a56.46,56.46,0,0,1-4.29-7.91c-1-2.15-4.27-2.83-6.16-1.61-2.23,1.44-2.64,3.85-1.61,6.16Z" fill="#040706"/>
    <path d="M886.73,604.1a20.56,20.56,0,0,0-1.7-4.79c-.85-2-1.72-4-2.67-5.91a49.47,49.47,0,0,0-7.15-11,30.5,30.5,0,0,0-22.86-10.19,29,29,0,0,0-3.37.2,3.92,3.92,0,0,0-2.86.47,32,32,0,0,0-6.69,2.22,31.37,31.37,0,0,0-8.25,5.95c-3,2.81-5.79,5.84-8.66,8.8-1.36,1.41-2.74,2.81-4.18,4.14-.66.61-1.33,1.21-2,1.78l-.23.19c-.31.22-.62.44-.94.65-2,1.3-3,4-1.61,6.16,1.26,2,4.05,3,6.15,1.62,5.46-3.6,9.76-8.83,14.3-13.47,1.16-1.19,2.34-2.37,3.55-3.5.54-.51,1.1-1,1.66-1.49.26-.23.53-.46.81-.68l.23-.19c.49-.36,1-.67,1.5-1a19.23,19.23,0,0,0,10.42,13.83c6.59,3.38,16.16,4.91,23.15,1.53.39.85.77,1.7,1.15,2.56l.56,1.29.24.56.2.49s.23.55.28.71.14.51.2.77a.59.59,0,0,0,0,.13c0,.28,0,.56.06.85a32.88,32.88,0,0,1-.2,4.86.82.82,0,0,0,0,.14,1.07,1.07,0,0,0,0,.21c-.07.4-.14.81-.22,1.21-.16.76-.34,1.52-.56,2.27-.12.38-.25.76-.38,1.14h0l0,0c-.12.24-.26.47-.39.71a4.49,4.49,0,0,0,6.41,6.3c2.25-2.32,3.22-5.72,3.77-8.82A33,33,0,0,0,886.73,604.1ZM840.31,585l.15-.12A1.08,1.08,0,0,1,840.31,585Z" fill="#040706"/>
    <path d="M992.73,577.1a20.56,20.56,0,0,0-1.7-4.79c-.85-2-1.72-4-2.67-5.91a49.47,49.47,0,0,0-7.15-11,30.5,30.5,0,0,0-22.86-10.19,29,29,0,0,0-3.37.2,3.92,3.92,0,0,0-2.86.47,32,32,0,0,0-6.69,2.22,31.37,31.37,0,0,0-8.25,5.95c-3,2.81-5.79,5.84-8.66,8.8-1.36,1.41-2.74,2.81-4.18,4.14-.66.61-1.33,1.21-2,1.78l-.23.19c-.31.22-.62.44-.94.65-2,1.3-3,4-1.61,6.16,1.26,2,4.05,3,6.15,1.62,5.46-3.6,9.76-8.83,14.3-13.47,1.16-1.19,2.34-2.37,3.55-3.5.54-.51,1.1-1,1.66-1.49.26-.23.53-.46.81-.68l.23-.19c.49-.36,1-.67,1.5-1a19.23,19.23,0,0,0,10.42,13.83c6.59,3.38,16.16,4.91,23.15,1.53.39.85.77,1.7,1.15,2.56l.56,1.29.24.56.2.49s.23.55.28.71.14.51.2.77a.59.59,0,0,0,0,.13c0,.28,0,.56.06.85a32.88,32.88,0,0,1-.2,4.86.82.82,0,0,0,0,.14,1.07,1.07,0,0,0,0,.21c-.07.4-.14.81-.22,1.21-.16.76-.34,1.52-.56,2.27-.12.38-.25.76-.38,1.14h0l0,0c-.12.24-.26.47-.39.71a4.49,4.49,0,0,0,6.41,6.3c2.25-2.32,3.22-5.72,3.77-8.82A33,33,0,0,0,992.73,577.1ZM946.31,558l.15-.12A1.08,1.08,0,0,1,946.31,558Z" fill="#040706"/>
    <path d="M915.78,604.42a12.39,12.39,0,0,1,1.73.91c.18.11,1,.49.4.25s-.17-.14,0,0l.55.49a15.35,15.35,0,0,1,1.25,1.3l.29.34c.53.62-.08-.15-.14-.19a3.52,3.52,0,0,1,.63.88,76.39,76.39,0,0,1,4.17,7.38,39.66,39.66,0,0,0,5,7.63,30.63,30.63,0,0,0,8.46,6.5,34.72,34.72,0,0,0,10.57,3.73,35.93,35.93,0,0,0,6.12.58c.86,0,1.72,0,2.57-.11a15.11,15.11,0,0,0,3.37-.45c-1.12.38-.67.07-.16.06a4.73,4.73,0,0,0,.65,0c.36-.07-.64-.09-.67-.11a2.57,2.57,0,0,0,.4.08,5.82,5.82,0,0,0,.68.2c.2,0-1-.55-.36-.14.19.12.4.25.59.35.59.3-.74-.7-.28-.22.18.2.39.37.58.57a5.85,5.85,0,0,0,.4.47c-.33-.27-.58-.84-.21-.22.27.44.53.88.76,1.34.34.65,0,.21-.07-.23a3.79,3.79,0,0,0,.29.77c.19.54.35,1.08.49,1.63s.24,1,.33,1.46c.06.29.11.59.15.88l.06.37c.1.57-.11-1-.06-.44.09,1.14.2,2.25.21,3.39s0,2.05-.14,3.07c0,.2-.14,1.17,0,.27s0-.07,0,.13c-.08.44-.17.88-.28,1.32s-.21.7-.32,1.05c-.2.63,0-.22.12-.27-.12,0-.36.76-.43.89a16.45,16.45,0,0,1-.93,1.56c-.07.1-.51.59-.48.69,0-.18.6-.74.19-.25-.13.14-.24.29-.36.43a22.44,22.44,0,0,1-2.66,2.59c-.08.06-.4.37-.46.36s.76-.53.33-.26c-.24.17-.47.35-.72.52-.57.4-1.16.77-1.76,1.13-1.19.7-2.43,1.3-3.69,1.89-.77.36.73-.29-.07,0l-.88.35c-.69.27-1.39.51-2.09.75a57.93,57.93,0,0,1-8.21,2c-.67.12-1.34.22-2,.33-.87.13.84-.1,0,0l-1.22.14c-1.28.14-2.57.24-3.86.31s-2.49.09-3.73.08c-.52,0-1,0-1.55,0l-1-.06c-.75-.06.91.2-.11,0-.65-.15-1.28-.29-1.91-.49-.3-.09-.59-.19-.88-.3a3,3,0,0,1-.58-.22c.21.14.73.34.21.07s-1.12-.56-1.66-.89c-.32-.19-.62-.4-.92-.6a1.78,1.78,0,0,1-.38-.28c.13.19.62.52.18.12s-1-.9-1.42-1.39c0,0-.3-.28-.3-.34s.51.76.25.31-.44-.65-.64-1c-.07-.13-.13-.26-.21-.39-.19-.33-.24-.16,0,0s.12.36,0,0c-.06-.19-.13-.37-.18-.56s-.2-.87-.2-.87,0,1,.06.45c0-.2,0-.41,0-.61s-.09-1,0-1.09-.19.92,0,.39c.05-.16.07-.33.11-.49.08-.32.18-.63.28-.94.26-.88-.09.22-.1.2s.24-.47.28-.54c.15-.27.32-.52.48-.78.41-.64-.61.62.15-.15.21-.22.42-.44.64-.65l.34-.31c.44-.41-.07,0-.19.13a5.44,5.44,0,0,1,1.73-1.1c.33-.19.67-.36,1-.52.14-.07.3-.13.44-.21.53-.29-.74.26-.16.07,1.45-.48,2.86-1,4.35-1.35s2.83-.6,4.26-.83c2.33-.37,3.83-3.39,3.14-5.53a4.64,4.64,0,0,0-5.53-3.15c-6.74,1.09-14.21,3.23-18.12,9.31a13.7,13.7,0,0,0-1.53,11.24,17,17,0,0,0,6.76,8.64c5.23,3.68,11.49,4.06,17.66,3.65a64.88,64.88,0,0,0,18.5-3.73c6.15-2.31,11.83-5.67,15.76-11,3-4.16,3.91-9.19,3.71-14.24-.2-5.21-1.35-11.3-5.24-15.09a10.59,10.59,0,0,0-8-3.06c-.55,0-1.11.13-1.66.21l-.63.1c.07,0,.74-.08.21,0a29.42,29.42,0,0,1-3,.2q-1.38,0-2.76-.09l-.79-.08c-.07,0-.73-.09-.19,0l-.18,0c-.33-.06-.65-.11-1-.18a36,36,0,0,1-5.49-1.62c.72.26-.12-.06-.38-.18-.42-.19-.84-.39-1.25-.6-.88-.46-1.74-.95-2.57-1.49-.39-.25-.77-.51-1.15-.78-.21-.14-1.16-.89-.51-.36-.73-.6-1.45-1.21-2.12-1.87-.31-.31-1.24-1-1.3-1.45.05.35.47.64.15.18l-.27-.37c-.24-.34-.47-.68-.7-1-3.38-5.25-5.39-11.63-10.22-15.84a16.4,16.4,0,0,0-4.19-2.77c-2.15-.94-4.93-.71-6.16,1.61-1,2-.69,5.15,1.62,6.16Z" fill="#040706"/>
  </g>
</svg>
