<svg id="Decor3" xmlns="http://www.w3.org/2000/svg" viewBox="0 0 1801 2046">
  <g>
    <g>
      <g>
        <path d="M1294.69,1670c.09-.11.55-.1,1.14,0a3.6,3.6,0,0,1-.7,1.07C1294.9,1670.64,1294.61,1670.12,1294.69,1670Z" fill="#040706"/>
        <path d="M669.55,1778.79c.46-1.23.86-2.47,1.2-3.71l.18,0c.16.88.35,1.74.57,2.59Z" fill="#040706"/>
        <path d="M663.14,1734.42a33,33,0,0,1,4.13,1.72l.45,7.12A45.21,45.21,0,0,0,664,1737,3.83,3.83,0,0,1,663.14,1734.42Z" fill="#040706"/>
        <circle cx="1285.53" cy="1764.59" r="20.5" fill="#040706"/>
      </g>
      <circle cx="1284.53" cy="1764.59" r="20.5" fill="#040706"/>
      <g>
        <g>
          <path d="M477.46,1513.15a7.29,7.29,0,0,0-4.14-6.49,9.45,9.45,0,0,0-8.48-.05c-5.78,2.64-9.54,9.3-11.81,14.93a39.79,39.79,0,0,0-2.6,19.46c.69,5.66,2.73,13.3,9.45,14.16,5.07.65,10.08-3.17,11.65-7.86,1.82-5.44-1.67-11-6.25-13.81-11-6.68-24.38,2.38-29,12.77-4.33,9.63-3.71,23.84,7.45,28.39,1.78.73,2.56-2.17.79-2.89-7.72-3.15-8.83-12.91-7-20,2.27-8.88,10.72-18.23,20.59-17.54,4.37.31,9.05,3.21,10.49,7.5a8.12,8.12,0,0,1-4.88,10,6,6,0,0,1-5.49-.21c-2.28-1.38-3.36-4.09-4-6.56a35.59,35.59,0,0,1-.17-16.39c1.31-5.93,4-12,8.29-16.36,1.9-2,4.58-3.89,7.47-3.54,2.32.28,4.74,2,4.69,4.53,0,1.93,3,1.93,3,0Z" fill="#040706"/>
          <path d="M433.57,1598.74c-6.44,13.47-5.18,30,2.71,42.58a41,41,0,0,0,8.13,9.49c1.46,1.25,3.59-.86,2.12-2.12-10.52-9-15.65-23.53-13.73-37.2a38.79,38.79,0,0,1,3.36-11.24c.83-1.73-1.75-3.25-2.59-1.51Z" fill="#040706"/>
          <path d="M488.1,1555.05c-.83-4.06-5.48-5.52-9.11-4.64-4.77,1.15-7,6.2-8.12,10.49a69.14,69.14,0,0,0-2.62,15.29,27,27,0,0,0,.75,7.7,20.58,20.58,0,0,0,1.15,3.22,9.18,9.18,0,0,0,2.12,3.41c1.47,1.14,4.08-.09,5.27-1.12a8,8,0,0,0,2.5-5c.56-4.28-2.56-7.67-6.71-8.29-4.73-.7-9.05,1.7-11.74,5.49-2.95,4.14-4,9.51-4.66,14.45-1.48,11.27.6,23.3,8.12,32.14,1.25,1.47,3.36-.66,2.12-2.12-6.64-7.82-8.45-18.52-7.43-28.47.5-4.86,1.49-10.24,4.33-14.33,2.35-3.38,7.55-6,11.35-3.21a4.26,4.26,0,0,1,1.47,4.88c-.51,1.74-1.81,3.12-3.71,2.9l1.29.75c-4-5.55-3.62-12.59-2.46-19a72,72,0,0,1,2.3-9.73c.84-2.54,2.3-5.6,5.06-6.46,2.19-.68,5.31-.13,5.84,2.44.39,1.89,3.28,1.09,2.89-.8Z" fill="#040706"/>
          <path d="M514.91,1502.08c-4.29,4.35-2.33,12.28,3.34,14.34a1.53,1.53,0,0,0,1.46-.39c3.7-3.27,3.95-8.83,1.86-13.07-2.34-4.73-7.57-6.79-12.64-6.06-12.54,1.8-16.59,16.62-12.66,27.15,1.87,5,5.4,9.7,10.36,11.94,4.55,2.06,9.54,1.71,13.4-1.57,3.24-2.74,5.36-7.24,4.7-11.52a9.09,9.09,0,0,0-9.49-7.43,14.2,14.2,0,0,0-12.29,9.19c-2.55,7.12.3,14.9,3.63,21.23.9,1.71,3.49.2,2.59-1.51-2.52-4.8-4.75-10.31-4.06-15.84a11.42,11.42,0,0,1,6.87-9.29c3.22-1.37,7.46-1,9.23,2.39,1.49,2.83.29,6.41-1.52,8.8a9.07,9.07,0,0,1-9.32,3.66c-4.32-.93-7.69-4.19-9.82-7.93-4.42-7.76-4-20.29,4.7-25,4-2.14,9.7-2.22,12.72,1.62,2.5,3.18,2.79,8.26-.39,11.07l1.46-.39c-3.58-1.29-4.62-6.66-2-9.32,1.36-1.37-.76-3.5-2.12-2.12Z" fill="#040706"/>
          <path d="M582.62,1514.4c-2.17-2.42-6.77-.45-6.55,2.8a10.67,10.67,0,0,0,.82,2.74c.33.93.68,1.86,1.05,2.78a33.77,33.77,0,0,0,2.52,5.12c1.85,3,4.5,5.82,7.92,6.94a12.08,12.08,0,0,0,9-.8c3-1.49,5.23-4.47,4.86-7.93l-2.56,1.06a255.72,255.72,0,0,1,29.06,27.46c1.3,1.43,3.41-.7,2.12-2.13A255.68,255.68,0,0,0,601.8,1525c-.88-.71-2.72-.38-2.56,1.06.29,2.69-1.53,4.64-3.93,5.59a8.63,8.63,0,0,1-7.83-.6c-3-1.87-4.82-5-6.22-8.12-.75-1.68-1.36-3.43-2-5.17-.18-.54-.38-.76,0-1.16a.81.81,0,0,1,1.18-.06c1.29,1.44,3.41-.69,2.12-2.13Z" fill="#040706"/>
          <path d="M574.42,1499.8a18.72,18.72,0,0,0-19.31-10.54c-7.93,1.14-14.3,8.12-15.28,16a14.45,14.45,0,0,0,3,10.79c2.08,2.61,5.77,4.58,9.15,3.45a8.56,8.56,0,0,0,5.46-6.7,5.7,5.7,0,0,0-4.67-6.82c-4.5-.71-8.13,3.52-9.51,7.33-1.71,4.68-.45,10.11-3.41,14.38-1.1,1.59,1.5,3.09,2.6,1.51,2.07-3,2.4-6.63,2.78-10.16.36-3.37,1-6.72,3.77-9,1.68-1.38,5.08-1.82,5.52,1a5.6,5.6,0,0,1-2.67,5.23c-2.32,1.34-5-.16-6.59-2a11.43,11.43,0,0,1-2.47-8.35,15.72,15.72,0,0,1,11.78-13.52c7-1.62,14.42,2.49,17.3,8.9.79,1.76,3.37.24,2.59-1.51Z" fill="#040706"/>
          <path d="M562.79,1558.61c4,4.61,8.58,9.53,15.08,9.86,5.77.3,11-3.75,10.73-9.83a17.1,17.1,0,0,0-3-8.31,20.88,20.88,0,0,0-6.17-6.45c-2.22-1.4-5.15-2.4-7.69-1.26-2.86,1.3-3.54,4.52-3,7.35.71,3.46,2.77,6.86,4.73,9.75a44,44,0,0,0,7.46,8.43c1.45,1.27,3.58-.85,2.12-2.12a41,41,0,0,1-9.87-12.78c-.93-1.87-2.47-4.82-1.31-6.89,1.06-1.9,3.48-1.24,5-.44a17.72,17.72,0,0,1,8.44,11.24,6.83,6.83,0,0,1-1.28,6.09,7.36,7.36,0,0,1-5.49,2.24c-5.93.08-10.16-4.9-13.7-9-1.27-1.47-3.38.66-2.13,2.12Z" fill="#040706"/>
          <path d="M630.06,1597a2.83,2.83,0,0,0,2.77,2.67,2.51,2.51,0,0,0,2.49-2.87c-.39-2.93-4.22-3-6.27-1.86-2.33,1.32-3.59,4.12-4.21,6.61-.86,3.5-.56,7.28-.32,10.84a89.6,89.6,0,0,0,1.71,12.42,37.24,37.24,0,0,0,3.38,10.31c2.94,5.4,9.91,9.78,15.94,6.3,5-2.87,5.11-11.88-1-13.52a1.53,1.53,0,0,0-1.69.69,53.38,53.38,0,0,0-3.77,32.82c.38,1.89,3.28,1.09,2.89-.8a50,50,0,0,1,3.47-30.5l-1.7.69c3,.8,3.17,5.25,1.31,7.25-3,3.27-8.5,1-11-1.72-3.35-3.73-4.39-9.22-5.29-14a74.61,74.61,0,0,1-1.44-17.45,12.2,12.2,0,0,1,1.76-5.91,4.23,4.23,0,0,1,1.67-1.58,2.4,2.4,0,0,1,1.19-.16,2.65,2.65,0,0,0,.55.1c.34.07.28,0-.17-.2.28-.59.52-.65.71-.15-.18-1.91-3.18-1.93-3,0Z" fill="#040706"/>
          <path d="M490.38,1722.05l3.51,6.44a1.51,1.51,0,0,0,2.8-.75c.57-7.58,1.11-16.35-3.41-23-3.39-4.94-10.1-8.38-16.11-6.66-3.34,1-5.67,3.52-7.18,6.56a57.11,57.11,0,0,0-4.24,11.89c-1.9,7.79-2,16.36,1.86,23.58,3.64,6.76,10.53,12,18.43,12a1.5,1.5,0,0,0,0-3c-6,.06-11.35-3.58-14.62-8.46-3.93-5.86-4.62-13.11-3.47-19.94a55.81,55.81,0,0,1,3.12-11c1.14-3,2.43-6.41,5.33-8.06,4.56-2.59,10.55.14,13.64,3.79,5,5.92,4.19,15.09,3.65,22.27l2.79-.76-3.51-6.44c-.93-1.7-3.52-.19-2.59,1.51Z" fill="#040706"/>
          <path d="M636.58,1689.49a63.75,63.75,0,0,0,10.11,26.39c1.07,1.59,3.67.09,2.59-1.52a61.52,61.52,0,0,1-9.8-25.67c-.27-1.9-3.16-1.09-2.9.8Z" fill="#040706"/>
          <path d="M480.26,1486.41c-19.8-4.37-41,5.77-51.72,22.64a44.29,44.29,0,0,0-6.17,15.6c-.34,1.89,2.55,2.7,2.89.8,3.46-18.8,20.06-33.4,38.61-36.52a40.89,40.89,0,0,1,15.59.37c1.88.42,2.69-2.48.8-2.89Z" fill="#040706"/>
          <path d="M499.24,1477.41a84.09,84.09,0,0,0-12.18,49.64c.13,1.92,3.13,1.93,3,0a81.27,81.27,0,0,1,11.77-48.13c1-1.65-1.58-3.16-2.59-1.51Z" fill="#040706"/>
          <path d="M581.35,1480.23a212.35,212.35,0,0,1,35.91,22.17c1.54,1.17,3-1.43,1.52-2.59a213.85,213.85,0,0,0-35.91-22.18c-1.73-.84-3.25,1.75-1.52,2.6Z" fill="#040706"/>
          <path d="M617.1,1530.05q11,13,21.94,26c1.24,1.47,3.36-.66,2.12-2.13q-11-13-21.94-26c-1.25-1.47-3.36.66-2.12,2.13Z" fill="#040706"/>
          <path d="M464.59,1636.69a158.25,158.25,0,0,0-6.06,34.4c-.12,1.93,2.88,1.92,3,0a155.17,155.17,0,0,1,6-33.6,1.5,1.5,0,0,0-2.89-.8Z" fill="#040706"/>
          <path d="M489.34,1672.4a87.32,87.32,0,0,0-24,48.94,84.64,84.64,0,0,0-.74,15.75c.09,1.92,3.09,1.93,3,0a84.66,84.66,0,0,1,14.26-50.81,81.54,81.54,0,0,1,9.61-11.76c1.35-1.38-.77-3.5-2.13-2.12Z" fill="#040706"/>
          <path d="M528,1740.53a57.93,57.93,0,0,0-32.69,33.7c-.66,1.81,2.23,2.6,2.89.8a54.66,54.66,0,0,1,30.59-31.61c1.77-.71,1-3.61-.79-2.89Z" fill="#040706"/>
        </g>
        <g>
          <path d="M1178.05,1408.71a54.44,54.44,0,0,1,41.53,12.22,51.83,51.83,0,0,1,8.67,9.27c1.12,1.55,3.72,0,2.59-1.51a57.49,57.49,0,0,0-39.53-23,53.49,53.49,0,0,0-13.26.06,1.56,1.56,0,0,0-1.5,1.5,1.5,1.5,0,0,0,1.5,1.5Z" fill="#040706"/>
          <path d="M1221.1,1466.76a86.6,86.6,0,0,1,33.43,28.24,88.83,88.83,0,0,1,6.42,10.74c.87,1.73,3.46.21,2.59-1.51a89.51,89.51,0,0,0-29.73-33.65,86.18,86.18,0,0,0-11.2-6.41c-1.73-.83-3.26,1.76-1.51,2.59Z" fill="#040706"/>
          <path d="M1206,1384.47a61.55,61.55,0,0,1,46.85,23.75c1.19,1.52,3.29-.61,2.12-2.12a64.79,64.79,0,0,0-36.58-23.09,63.72,63.72,0,0,0-12.39-1.54c-1.93,0-1.93,3,0,3Z" fill="#040706"/>
          <path d="M1207.64,1452.51a119.07,119.07,0,0,1,41.25,19.34,116.12,116.12,0,0,1,10.09,8.3c1.42,1.3,3.54-.81,2.12-2.12a122.25,122.25,0,0,0-39.82-24.43,119.87,119.87,0,0,0-12.84-4c-1.88-.47-2.67,2.42-.8,2.89Z" fill="#040706"/>
          <path d="M1215.59,1526.73a76.8,76.8,0,0,1,41.27,25.52,73.79,73.79,0,0,1,7.91,11.58c.94,1.69,3.53.18,2.59-1.51a79.5,79.5,0,0,0-37.3-33.91,78.41,78.41,0,0,0-13.67-4.58c-1.88-.43-2.68,2.46-.8,2.9Z" fill="#040706"/>
          <path d="M1251.31,1582.34a111.46,111.46,0,0,1,33.35,31.56c1.09,1.58,3.69.08,2.59-1.51a114.92,114.92,0,0,0-34.43-32.64c-1.65-1-3.16,1.58-1.51,2.59Z" fill="#040706"/>
          <path d="M1252.7,1634.36l22,28c1.19,1.51,3.3-.62,2.12-2.13l-22-28c-1.19-1.52-3.3.62-2.13,2.12Z" fill="#040706"/>
          <path d="M1183.66,1622.44c-3.27,12.32,5.94,25.69,18.47,27.37.81.11,1.49-.77,1.5-1.5a1.53,1.53,0,0,0-1.5-1.5c-10.61-1.42-18.3-13.33-15.58-23.58a1.5,1.5,0,0,0-2.89-.79Z" fill="#040706"/>
          <path d="M1191.53,1606.47a21.89,21.89,0,0,0,8.26,21.3c6.47,4.94,15.22,5.1,22.29,1.33a20.81,20.81,0,0,0,9-9.35c.82-1.73-1.76-3.26-2.59-1.51a18.83,18.83,0,0,1-16.08,10.52c-7.12.31-13.33-3.94-16.43-10.24a17.8,17.8,0,0,1-1.6-11.25c.37-1.89-2.52-2.69-2.89-.8Z" fill="#040706"/>
          <path d="M1216.19,1563.1c-4.39-6.16-13.74-4.59-18.28.6-3,3.4-3.84,8.24-3.38,12.63a30,30,0,0,0,1.67,7.18c.72,2,1.48,4.41,3,6A7.44,7.44,0,0,0,1204,1592a2.87,2.87,0,0,0,3.11-3.06c-.07-1.93-3.07-1.94-3,0,0,0,0,.31,0,.23-.15-.75.49.17.07-.16-.2-.16-.92-.18-1.23-.32a4.8,4.8,0,0,1-2.43-2.39,29.8,29.8,0,0,1-3.14-11c-.18-3.21.36-6.83,2.49-9.37a11.24,11.24,0,0,1,6.63-3.73c2.58-.44,5.45.18,7,2.41,1.12,1.56,3.72.06,2.59-1.51Z" fill="#040706"/>
          <path d="M1186.05,1544.58a16,16,0,0,0-18.28,24.94,1.53,1.53,0,0,0,2.13,0,1.56,1.56,0,0,0,0-2.13,13.38,13.38,0,0,1,.14-16.07,13.53,13.53,0,0,1,15.21-3.85c1.8.71,2.58-2.19.8-2.89Z" fill="#040706"/>
          <path d="M1186.73,1493.38c-3.88-8.5-16.4-9.2-22.77-3.28-8,7.43-6.25,22.06,1.6,28.94a11.55,11.55,0,0,0,14.19.89,16.16,16.16,0,0,0,7.2-14.32c-.15-6.37-3-12.46-6.27-17.79a61.23,61.23,0,0,0-12.22-14.29,27,27,0,0,0-9-5.6c-2.84-.92-6.3-1-8.79.87-3.63,2.72-5.2,9.28-.61,11.9a1.5,1.5,0,0,0,1.52-2.59c-2.85-1.63-.87-6,1.4-7.24,2.1-1.12,4.84-.5,6.9.43a27.35,27.35,0,0,1,6.59,4.49,58.61,58.61,0,0,1,10.45,11.78c3,4.42,5.56,9.3,6.61,14.56,1,4.77.3,9.93-3.24,13.5-2.85,2.88-7.3,4.54-11.06,2.4-3.94-2.23-6.26-7-7.12-11.28a16.59,16.59,0,0,1,2.12-12.4c4.4-6.61,16.31-7.28,19.88.54.8,1.76,3.39.23,2.59-1.51Z" fill="#040706"/>
          <path d="M1155.6,1411.43c-3.74,8.67,3.25,17.51,11,20.84a20.48,20.48,0,0,0,14.08,1.07,16.55,16.55,0,0,0,9.67-8,14,14,0,0,0,.7-11.38,19.44,19.44,0,0,0-7-8.52,44.13,44.13,0,0,0-10.84-5.46c-3.19-1.17-8.6-3.71-11.33-.46-3.56,4.25,2.9,10,5.75,12.56a46.45,46.45,0,0,0,14,8.58c1.8.71,2.58-2.19.8-2.89a42.7,42.7,0,0,1-10.61-6.08,43.62,43.62,0,0,1-4.45-4c-1.27-1.33-2.82-2.82-3.32-4.66-1-3.87,5.88-1,7.41-.47a46.78,46.78,0,0,1,9.15,4.21c5.11,3.15,9.76,8.4,8.07,14.84-2,7.7-10.53,10.85-17.71,9a19,19,0,0,1-10.55-6.75c-2.3-3-3.77-7.21-2.18-10.9.76-1.75-1.83-3.28-2.59-1.51Z" fill="#040706"/>
          <path d="M1194.3,1428a60.53,60.53,0,0,1,48.78,10.68c1.55,1.16,3-1.44,1.52-2.59a63.41,63.41,0,0,0-39.25-12.43,62.32,62.32,0,0,0-11.85,1.45c-1.88.41-1.08,3.3.8,2.89Z" fill="#040706"/>
          <path d="M1221.52,1543a101.91,101.91,0,0,1,51.45,29.13c1.33,1.39,3.45-.73,2.12-2.13a105.94,105.94,0,0,0-39.79-26,103.28,103.28,0,0,0-13-3.84c-1.88-.43-2.68,2.47-.8,2.89Z" fill="#040706"/>
          <path d="M1239.1,1582l34,34a1.5,1.5,0,0,0,2.13-2.12l-34-34a1.5,1.5,0,0,0-2.12,2.12Z" fill="#040706"/>
          <path d="M1248.8,1632.34l26,24c1.41,1.31,3.54-.8,2.12-2.12l-26-24c-1.41-1.31-3.54.8-2.12,2.12Z" fill="#040706"/>
          <path d="M1172.73,1645.79a48.51,48.51,0,0,0-13.89,37.28c.14,1.91,3.14,1.93,3,0a45.55,45.55,0,0,1,13-35.16,1.5,1.5,0,0,0-2.12-2.12Z" fill="#040706"/>
          <path d="M1197.54,1404.77a243.2,243.2,0,0,1,50.68,28.81c4.44,3.28,8.76,6.73,13,10.31,1.46,1.25,3.6-.86,2.12-2.12a247,247,0,0,0-49.6-32.87c-5-2.52-10.17-4.85-15.37-7a1.51,1.51,0,0,0-1.85,1.05,1.54,1.54,0,0,0,1,1.85Z" fill="#040706"/>
        </g>
      </g>
    </g>
    <path d="M528,1573.27a581.52,581.52,0,0,0-5.09,61.26,572.74,572.74,0,0,0,1.47,60.89c.89,11.57,2.16,23.11,3.74,34.61.22,1.61,2.28,2.48,3.69,2.1a3.09,3.09,0,0,0,2.1-3.69,566.64,566.64,0,0,1-5-59.9,575,575,0,0,1,1.34-60.16q1.28-16.8,3.52-33.51a3.11,3.11,0,0,0-2.1-3.69c-1.39-.39-3.47.48-3.69,2.09Z" fill="#040706"/>
    <path d="M507,1599.32A132,132,0,0,1,540,1603.9c3.73,1,5.32-4.78,1.59-5.79a139,139,0,0,0-34.54-4.79c-3.86,0-3.86,6,0,6Z" fill="#040706"/>
    <path d="M508,1616.09c3.86,0,3.87-6,0-6s-3.86,6,0,6Z" fill="#040706"/>
    <path d="M516,1615.85a36.74,36.74,0,0,1,25.26,9.07,3.08,3.08,0,0,0,4.24,0,3,3,0,0,0,0-4.25,43,43,0,0,0-29.5-10.82c-3.85.1-3.86,6.1,0,6Z" fill="#040706"/>
    <path d="M537.8,1633.39a47.66,47.66,0,0,0-21.65,1.53,3.06,3.06,0,0,0-2.1,3.69,3,3,0,0,0,3.69,2.1,41.27,41.27,0,0,1,18.46-1.54,3.09,3.09,0,0,0,3.7-2.09c.32-1.43-.44-3.44-2.1-3.69Z" fill="#040706"/>
    <path d="M545,1637.09c3.86,0,3.87-6,0-6s-3.86,6,0,6Z" fill="#040706"/>
    <path d="M513,1663.69c8.13-3.26,18.36-7.49,27-3.61a3.1,3.1,0,0,0,4.11-1.08c.75-1.28.41-3.44-1.08-4.1-10.46-4.69-21.6-1-31.64,3a3.1,3.1,0,0,0-2.09,3.7c.39,1.42,2.18,2.7,3.69,2.09Z" fill="#040706"/>
    <path d="M517.92,1682.29l16.79-4.74a3,3,0,0,0-1.6-5.79l-16.79,4.75a3,3,0,1,0,1.6,5.78Z" fill="#040706"/>
    <path d="M515.84,1703a99.26,99.26,0,0,1,27.19-1.89,3,3,0,0,0,3-3,3.06,3.06,0,0,0-3-3,105.08,105.08,0,0,0-28.79,2.11,3,3,0,0,0,1.6,5.78Z" fill="#040706"/>
    <path d="M523.24,1580l13,2.91a3,3,0,0,0,1.6-5.78l-13-2.92a3,3,0,0,0-1.6,5.79Z" fill="#040706"/>
    <g>
      <path d="M585.16,1950.28a47.48,47.48,0,0,0,32.12,10.42,56.79,56.79,0,0,0,9.88-1.48c1.94-.46,4.16-1,5.78.21a5.93,5.93,0,0,1,1.62,2,31.84,31.84,0,0,1,3.81,19.08,4.22,4.22,0,0,1-.58,1.94,4.43,4.43,0,0,1-2.31,1.42,141,141,0,0,1-27.32,6.68c-5,.7-10.2,1.11-14.89-.7s-8.3-5.63-11.72-9.32l-5.83-6.3c-1.32-1.43-2.71-3.54-1.59-5.13.53-.75,1.46-1.07,2.16-1.66,1.53-1.29,1.69-3.53,2.1-5.49a16.79,16.79,0,0,1,8.82-11.41" fill="#f3eb3c"/>
      <path d="M583,1952.4a51.11,51.11,0,0,0,30.51,11.34,52.63,52.63,0,0,0,9-.6c1.49-.22,3-.49,4.45-.82a13.49,13.49,0,0,1,3.51-.61c.64,0,.78.17,1.25,1a24.7,24.7,0,0,1,1.75,3.58,29.46,29.46,0,0,1,1.9,7.73,32.22,32.22,0,0,1,.12,4.17c0,.65,0,1.32-.14,2,.07-.54-.09.81-.12.65-.1.32,0,.28.16-.13q.21-.09-.06.06c-.9.21-2.29.88-3.42,1.25-1.51.5-3,1-4.56,1.42a139.52,139.52,0,0,1-17.69,4c-5.2.83-11.1,1.72-16.07-.52-4.72-2.12-8.17-6.41-11.61-10.12l-3.56-3.85a14.17,14.17,0,0,1-1.25-1.44,4.81,4.81,0,0,1-.49-.82l0,0c-.1-.38-.12-.46,0-.22,0,0-.33,1.44-.25.59-.2.08-.13,0,.19-.16l.29-.18a9.11,9.11,0,0,0,1.83-1.43,8.72,8.72,0,0,0,2-4c.65-2.64,1-4.94,2.45-7.24a13.91,13.91,0,0,1,5.49-4.85,3,3,0,1,0-3-5.18,19.73,19.73,0,0,0-10.16,13,20,20,0,0,1-.84,3.68c.07-.15.14-.18-.13.22s.08.06-.4.44c-.21.18-1.3.81-1.7,1.18-2.84,2.61-1.7,6.36.39,9s4.38,4.81,6.57,7.17a59.34,59.34,0,0,0,6.16,6,24,24,0,0,0,8.13,4.5,27.28,27.28,0,0,0,9.56.9,111.86,111.86,0,0,0,19.74-3.34c3.32-.82,6.62-1.76,9.87-2.82,3.08-1,6.89-1.77,8.07-5.2,1-2.91.74-6.65.38-9.65a34.89,34.89,0,0,0-2.35-9.27c-1.22-3-2.65-6.45-5.89-7.67-3-1.11-6.13.08-9.07.66a44.93,44.93,0,0,1-36.75-8.67,3.11,3.11,0,0,0-4.25,0c-1,1-1.27,3.23,0,4.24Z" fill="#040706"/>
    </g>
    <path d="M661.5,1773.6a23.18,23.18,0,0,0-3.72-2.67,16,16,0,0,1-1.34,1.91c-1.43,1.77-3.7,3.91-6,4.42a5.16,5.16,0,0,1-1.54.09,21.89,21.89,0,0,1-3.84,5.19,13.37,13.37,0,0,0,12.53-2.53,21.75,21.75,0,0,0,4.9-5.45C662.2,1774.24,661.85,1773.92,661.5,1773.6Z" fill="#f3eb3c" stroke="#040706" stroke-miterlimit="10" stroke-width="3"/>
    <g>
      <path d="M611.57,1767.88c-.23.3-.44.6-.65.9l.86,0a9.39,9.39,0,0,1,5.7,1.39,11.16,11.16,0,0,1,1.31-1c3.5-2.39,10.11-2.54,15.25-1.44a16.89,16.89,0,0,1,2.39-5.62C627.77,1759.68,616.94,1760.8,611.57,1767.88Z" fill="#f3eb3c" stroke="#040706" stroke-miterlimit="10" stroke-width="3"/>
      <path d="M650.37,1772.57a12.29,12.29,0,0,1-1.43,4.78,21.89,21.89,0,0,1-3.84,5.19c-.66.68-1.35,1.32-2,1.9-7.18,6.11-17.31,12.27-26.8,9a16.59,16.59,0,0,1-5.38-3c-4.78-4-5.23-9.8-3.28-15.35,2.21-.45,4.5-.79,6.22-.31l.14,0c-1.86,3.67-2.34,8,.49,10.73l.11.11a9.86,9.86,0,0,0,5.11,2.6c4.57.77,9.5-1.72,13.51-4.18a42.85,42.85,0,0,0,6.3-4.45c.16-.14.32-.28.47-.43a34.13,34.13,0,0,0,3.17-4.28c1.18-2,1.82-3.84-.06-3.86a2.76,2.76,0,0,1-2.63-1.7,1.88,1.88,0,0,1-.33.05,8.74,8.74,0,0,1,2-5.15,2.46,2.46,0,0,1,.68.81h.3C647.31,1765.11,650.69,1768.15,650.37,1772.57Z" fill="#f3eb3c" stroke="#040706" stroke-miterlimit="10" stroke-width="3"/>
    </g>
    <g>
      <path d="M680.67,1756.21c-1.62,7-.74,20.84-10.72,21.87-3.34.35-5.28-1.49-7.42-3.52-.33-.32-.68-.64-1-1a23.18,23.18,0,0,0-3.72-2.67c-2.51-1.51-5.15-2.83-7.28-5a2.83,2.83,0,0,1,0-4.08,2.74,2.74,0,0,1,.24-2.46c.14-.24.28-.48.43-.71h0a14.08,14.08,0,0,1,7.18.75,12.19,12.19,0,0,0-2.44,3l-.14.21a29.85,29.85,0,0,0,4.08,2.86,52.53,52.53,0,0,1,5.22,3.41c.53.42,1,.86,1.53,1.33,6.18,6,6.34-6.77,7-10.52.38-2.1,3.27-9.12,1.36-10.54-2.08-1.54-5.61,2.94-6.9,4a24.49,24.49,0,0,1-3.73,2.46,21.22,21.22,0,0,0-7.43-2.78,34.36,34.36,0,0,1,3.71-2.13c3.87-1.93,6.47-5.82,10.51-7.38C679.9,1740,682.16,1749.73,680.67,1756.21Z" fill="#f3eb3c" stroke="#040706" stroke-miterlimit="10" stroke-width="3"/>
      <path d="M666.05,1761.5a24,24,0,0,1-1,7.43,52.53,52.53,0,0,0-5.22-3.41,16.79,16.79,0,0,0,.21-5.34,14,14,0,0,0-1.7-.72h0a14.08,14.08,0,0,0-7.18-.75h0a13.85,13.85,0,0,0-3.58,1.12,15.26,15.26,0,0,0-5.49,4.43,8.74,8.74,0,0,0-2,5.15,6.42,6.42,0,0,0,1.35,3.91,8,8,0,0,0,1.67,1.6,34.13,34.13,0,0,1-3.17,4.28c-.15.15-.31.29-.47.43a21.37,21.37,0,0,1-3.26-3.07,10,10,0,0,1-2.19-8.93,16.89,16.89,0,0,1,2.39-5.62,21.7,21.7,0,0,1,5.36-5.7,19.63,19.63,0,0,1,15.11-3.42h0a21.22,21.22,0,0,1,7.43,2.78c.47.28.92.58,1.37.9A3.23,3.23,0,0,1,666.05,1761.5Z" fill="#f3eb3c" stroke="#040706" stroke-miterlimit="10" stroke-width="3"/>
    </g>
    <g>
      <path d="M613.82,1792.4a15.76,15.76,0,0,1-2.93-2,20.44,20.44,0,0,1-7.42,5.32,20.76,20.76,0,0,1-8.88.76,9.73,9.73,0,0,1-5.49-2.21c-.67,1.64-2.33,3.08-3.35,4.44-.17.22-.33.45-.49.68a14.1,14.1,0,0,0,5.57,2.68,27.29,27.29,0,0,0,15.69-1.12,25.69,25.69,0,0,0,9.75-7.53A15.71,15.71,0,0,1,613.82,1792.4Z" fill="#f3eb3c" stroke="#040706" stroke-miterlimit="10" stroke-width="3"/>
      <path d="M622,1780.92a21.08,21.08,0,0,1-2.27,7.34,9.86,9.86,0,0,1-5.11-2.6l-.11-.11a11,11,0,0,0,1.59-7,3,3,0,0,1,.41-2.19,7.28,7.28,0,0,0-2.49-1.58l-.14,0c-1.72-.48-4-.14-6.22.31-1.59.32-3.14.71-4.4.89-3.12.45-5.35.6-7.54,3.07-1.2,1.35-2.49,2.78-3.69,4.27a35,35,0,0,0-2.75,3.84,11.2,11.2,0,0,0-.87,1.73c-1,2.42-.52,4.19.74,5.42-.67,1.64-2.33,3.08-3.35,4.44-.17.22-.33.45-.49.68a9.75,9.75,0,0,1-3.15-4.59,10.47,10.47,0,0,1-.17-5.86,18.8,18.8,0,0,1,3.17-6.36h0c.22-.31.45-.62.68-.92,2.72-3.49,5.67-8.49,9.88-10.29s10.46-2.35,15.24-2.62l.86,0a9.39,9.39,0,0,1,5.7,1.39c2.08,1.28,3.75,3.23,6.07,5C626.09,1777.1,624.38,1781.1,622,1780.92Z" fill="#f3eb3c" stroke="#040706" stroke-miterlimit="10" stroke-width="3"/>
    </g>
    <g>
      <path d="M595.48,1784.23a29.46,29.46,0,0,0-3.5-.92,35,35,0,0,0-2.75,3.84,11.2,11.2,0,0,0-.87,1.73c.43,0,.86.08,1.28.15-.19,1.57.06,3.1-.33,4.66a3.39,3.39,0,0,1-.21.61c-.67,1.64-2.33,3.08-3.35,4.44-.17.22-.33.45-.49.68-1.43,2-2.62,4.23-5.3,4.93a13.3,13.3,0,0,1-3.36.29,27.07,27.07,0,0,1-1.54,6,17.66,17.66,0,0,0,9.32-1.61c2.75-1.5,4.62-4.3,6.45-6.91.47-.67.93-1.32,1.41-1.94a17.46,17.46,0,0,0,2.35-3.65,5.09,5.09,0,0,0,.25-.6c.7-1.94.27-3.87.67-5.81A3.12,3.12,0,0,0,595.48,1784.23Z" fill="#f3eb3c" stroke="#040706" stroke-miterlimit="10" stroke-width="3"/>
      <path d="M585.11,1782.61a18.8,18.8,0,0,0-3.17,6.36,28.67,28.67,0,0,0-3.69.68,11.45,11.45,0,0,0-5,3.6,13,13,0,0,0-3,5.33,4.69,4.69,0,0,0,.64,4,18.23,18.23,0,0,1-1.63,6.71,9.59,9.59,0,0,1-3.91-2.82c-1.93-2.46-2-5.65-1.15-8.82a22.68,22.68,0,0,1,2.64-5.84,24.25,24.25,0,0,1,4.64-5.57C574.73,1783.5,580,1782.53,585.11,1782.61Z" fill="#f3eb3c" stroke="#040706" stroke-miterlimit="10" stroke-width="3"/>
    </g>
    <g>
      <path d="M551,1796a22.75,22.75,0,0,0-3.43,3.13,18.81,18.81,0,0,1,6.69,1.92,17.49,17.49,0,0,1,2.48-1.6,16.18,16.18,0,0,1,7.47-1.8,22.68,22.68,0,0,1,2.64-5.84A22.77,22.77,0,0,0,551,1796Z" fill="#f3eb3c" stroke="#040706" stroke-miterlimit="10" stroke-width="3"/>
      <path d="M577.13,1798.43a55.57,55.57,0,0,1-.53,6.21,27.07,27.07,0,0,1-1.54,6,13.78,13.78,0,0,1-7,7.73c-3.92,1.85-9.2,1.23-13.85-.57a26.81,26.81,0,0,1-5.46-2.85,19,19,0,0,1-2.16-1.68,7.68,7.68,0,0,1-2.49-8,16.6,16.6,0,0,1,6.2.6,3,3,0,0,0,.91,3.34,5.54,5.54,0,0,0,.77.59,26.61,26.61,0,0,0,4.6,2.35c3.22,1.28,6.89,1.92,9.62.44a7.45,7.45,0,0,0,3.08-3.28,18.23,18.23,0,0,0,1.63-6.71c.11-1.31.16-2.59.2-3.74l-.84-.26a13,13,0,0,1,3-5.33c.2.06.4.14.59.21a3.06,3.06,0,0,1,2,2.48A2.61,2.61,0,0,1,577.13,1798.43Z" fill="#f3eb3c" stroke="#040706" stroke-miterlimit="10" stroke-width="3"/>
    </g>
    <g>
      <path d="M558,1807.13l0,.18a42.91,42.91,0,0,1-1.34,4.82,26.61,26.61,0,0,1-4.6-2.35,5.54,5.54,0,0,1-.77-.59c.27-.84.51-1.7.71-2.57a7.77,7.77,0,0,0-1.62-.77,16.6,16.6,0,0,0-6.2-.6c-1.11,0-2.19.14-3.18.21a9.3,9.3,0,0,0-4.34,1.37,6.61,6.61,0,0,0-3.23,6.18,48.45,48.45,0,0,1-4.25,6.72,8.52,8.52,0,0,1-1.13-2.52,17.78,17.78,0,0,1-.09-7.79,14.49,14.49,0,0,1,2.37-5.46,10.21,10.21,0,0,1,5.58-3.9,32.68,32.68,0,0,1,11.75-.93,18.81,18.81,0,0,1,6.69,1.92,11.16,11.16,0,0,1,3.31,2.54A3,3,0,0,1,558,1807.13Z" fill="#f3eb3c" stroke="#040706" stroke-miterlimit="10" stroke-width="3"/>
      <path d="M554.22,1817.78c-2.11,4.09-5.06,7.7-8.94,9.12-3.26,1.2-7.93-.2-11.62-2.71a16.41,16.41,0,0,1-4.55-4.46,48.45,48.45,0,0,0,4.25-6.72,8.54,8.54,0,0,0,.68,2.73,8,8,0,0,0,3,3.17,14.89,14.89,0,0,0,2.5,1.33c4.46,1.81,5.73,0,8-3.31.45-.65.87-1.32,1.25-2A26.81,26.81,0,0,0,554.22,1817.78Z" fill="#f3eb3c" stroke="#040706" stroke-miterlimit="10" stroke-width="3"/>
    </g>
    <g>
      <path d="M530.26,1804a14.49,14.49,0,0,0-2.37,5.46,17.85,17.85,0,0,0-9.19-1.09c-4.69.8-7.7,4-8,8a9.13,9.13,0,0,0,.13,2.37l-1.51-1.17a1.08,1.08,0,0,1-.52.47c-1.1.55-3.22-.13-4-.46l-.18-.08c-.25-6,3.19-11.41,9.23-14C519.31,1801.16,525,1802,530.26,1804Z" fill="#f3eb3c" stroke="#040706" stroke-miterlimit="10" stroke-width="3"/>
      <path d="M539.57,1812.12a3.06,3.06,0,0,1-.18,2.2c-.65,1.4-1.44,3-2.36,4.59a53,53,0,0,1-3.37,5.28c-3.06,4.22-6.86,8-11.08,9-7.14,1.86-13.25-3-16.19-9.15a11.83,11.83,0,0,0,1.88,0,8.47,8.47,0,0,0,4.19-1.33,13.7,13.7,0,0,0,.78,1.2,8.67,8.67,0,0,0,4.32,3.3c3.62,1.13,6-1.13,8.24-3.57,1.16-1.27,2.27-2.61,3.31-4a48.45,48.45,0,0,0,4.25-6.72c.15-.29.3-.58.44-.88l-.43-.22a6.69,6.69,0,0,1,3.22-5.08l2.08,1.11A2.77,2.77,0,0,1,539.57,1812.12Z" fill="#f3eb3c" stroke="#040706" stroke-miterlimit="10" stroke-width="3"/>
    </g>
    <g>
      <path d="M514.52,1820.54a6.89,6.89,0,0,1-.55.82,6.44,6.44,0,0,1-1.51,1.44,8.47,8.47,0,0,1-4.19,1.33,11.83,11.83,0,0,1-1.88,0,13.1,13.1,0,0,1-7.54-3.29c-5.66-5.47-2-14.91,1.9-20.25,2.25-3.1,7.45-.1,5.18,3-2,2.7-3.78,5.93-3.94,9.37a4.23,4.23,0,0,0,2.64,4.49l.18.08c.79.33,2.91,1,4,.46a1.08,1.08,0,0,0,.52-.47l1.51,1.17a9.13,9.13,0,0,1-.13-2.37A3,3,0,0,1,514.52,1820.54Z" fill="#f3eb3c" stroke="#040706" stroke-miterlimit="10" stroke-width="3"/>
      <path d="M510.85,1818.68l-1.51-1.17a1.08,1.08,0,0,1-.52.47,7.63,7.63,0,0,1,1-1.08,3.29,3.29,0,0,1,.91-.59A9.13,9.13,0,0,0,510.85,1818.68Z" fill="#f3eb3c" stroke="#040706" stroke-miterlimit="10" stroke-width="3"/>
      <path d="M513.59,1822.37a2.69,2.69,0,0,1-.35,1.63c-1,1.63-3.69,1.67-5,.13a8.47,8.47,0,0,0,4.19-1.33,6.44,6.44,0,0,0,1.51-1.44C513.85,1821.69,513.71,1822,513.59,1822.37Z" fill="#f3eb3c" stroke="#040706" stroke-miterlimit="10" stroke-width="3"/>
    </g>
    <path d="M670.28,1735c-.3-.13.07,0,.16.1l.4.25c-.1-.06-.16-.13,0,0l.22.2.33.34.15.17c.14.16-.13-.2,0,0l.27.4c.08.13.16.27.23.41l.11.22c0,.07.12.33,0,0,.12.34.24.69.33,1l.12.56c0,.1,0,.19,0,.29,0-.16,0-.09,0,0a19.9,19.9,0,0,1,.08,2.44,1.5,1.5,0,0,0,1.5,1.5,1.52,1.52,0,0,0,1.5-1.5,13.39,13.39,0,0,0-.93-5.74,6.89,6.89,0,0,0-3.69-3.59,1.5,1.5,0,0,0-1.84,1,1.55,1.55,0,0,0,1,1.85Z" fill="#040706"/>
    <g>
      <path d="M671.52,1725.12a20.86,20.86,0,0,1,5.16,4.34c3.2,3.74,5,8.49,6.32,13.23a24.89,24.89,0,0,1,.83,3.81c.36,3.32-.51,6.64-1.38,9.87a4.13,4.13,0,0,1-.67,1.55,4,4,0,0,1-1.66,1,11,11,0,0,1-4.92,1.11,2.74,2.74,0,0,1-2.21-1.19c-.79-1.45.68-3.29.13-4.85-.13-.37-.37-.75-.26-1.13a1.33,1.33,0,0,1,.66-.64,12.66,12.66,0,0,0,3.83-3,4.45,4.45,0,0,0,.62-4.61c-.77-1.45-2.51-2.13-3.45-3.47" fill="#f3eb3c"/>
      <path d="M670.76,1726.41a21.61,21.61,0,0,1,8.3,9.66,46,46,0,0,1,2.26,6.2,19.84,19.84,0,0,1,1.07,6.6,32.09,32.09,0,0,1-1.43,7.26c-.32,1.09-1.1,1.31-2.11,1.68a7.58,7.58,0,0,1-3.65.72c-.79-.12-1-.42-.9-1.18a13.9,13.9,0,0,0,.44-2.72c0-.31,0-1-.24-1.22s-.35,0,0,0,.5-.31.7-.43a15.09,15.09,0,0,0,2.44-1.83,6.62,6.62,0,0,0,2.13-6.11c-.52-2.32-2.6-3-3.92-4.7a1.56,1.56,0,0,0-2-.54,1.52,1.52,0,0,0-.54,2.06,14.64,14.64,0,0,0,2.3,2.22,2.69,2.69,0,0,1,1.32,2.63,4.88,4.88,0,0,1-2,2.86c-.9.71-2.12,1.12-2.91,2s-.47,1.87-.24,3-.4,2.1-.45,3.1c-.11,2.33,1.77,3.74,3.94,3.92a9.45,9.45,0,0,0,3.79-.59,10,10,0,0,0,3.58-1.69,5,5,0,0,0,1.32-2.48c.42-1.46.79-2.94,1.07-4.43a20,20,0,0,0,0-8.16,50.92,50.92,0,0,0-2.3-7.32c-2.13-5.36-5.37-10-10.36-13-1.66-1-3.17,1.59-1.52,2.59Z" fill="#040706"/>
    </g>
  </g>
</svg>
