<svg id="Decor2" xmlns="http://www.w3.org/2000/svg" viewBox="0 0 1801 2046">
  <title>decor1</title>
  <g>
    <circle cx="1285.84" cy="1764.71" r="20.5" fill="#040706"/>
    <g id="_Группа_" data-name="&lt;Группа&gt;">
      <g>
        <path d="M681.36,1749.31c1.75,9-3.57,18.33-10.16,24.12-15.33,13.47-36.9,13.5-56.13,13.32-11.17-.1-22.29-.17-33.34,1.69-11.41,1.92-22.53,5.2-33.53,8.71-10.75,3.43-21.49,7.07-32.38,10-5.46,1.46-11,2.74-16.52,3.71a16.67,16.67,0,0,1-1.45-5.06c0-.24-.07-.48-.11-.72,18.09-3.08,35.5-9.55,53-15,19.1-5.94,37.88-9.46,57.92-9.36,18.19.09,38.71,1.79,54.62-8.76a29.25,29.25,0,0,0,10.63-11.81c1-2.07,1.92-4.75,1.73-7.07a3.08,3.08,0,0,0-1.32-2.56,10,10,0,0,0,4.61-5A5.9,5.9,0,0,1,681.36,1749.31Z" fill="#040706"/>
        <path d="M677.07,1727.88c2.83,4.82,4.18,12.25,1.88,17.57a10.35,10.35,0,0,0-5.72-1.59c2.5-3.84-.16-13-3.3-14.92a7.38,7.38,0,0,0-1.62-.73l1.93-.33c2.6-.45,2.66-3.31,1.21-4.85A11.2,11.2,0,0,1,677.07,1727.88Z" fill="#040706"/>
        <path d="M675.66,1753.06c.19,2.32-.77,5-1.73,7.07a29.25,29.25,0,0,1-10.63,11.81c-15.91,10.55-36.43,8.85-54.62,8.76-20-.1-38.82,3.42-57.92,9.36-17.52,5.45-34.93,11.92-53,15-.41-2.89-.91-5.76-1.55-8.6a55,55,0,0,1,15.87-11.11c12.47-6,26.29-9.84,39.55-13.71a556.42,556.42,0,0,1,83-17.46c3.77-.5,3.82-6.51,0-6a564.15,564.15,0,0,0-90.06,19.31c-16.28,4.93-36.79,10.29-50.16,22.23a26.46,26.46,0,0,0-4.85-9.36c4.93-6.42,12.1-11.59,19.12-15.19,16-8.18,33.67-13.19,51.09-17.21,35.78-8.26,72.39-13.47,108.57-19.75a7.38,7.38,0,0,1,1.62.73c3.14,1.9,5.8,11.08,3.3,14.92a33.42,33.42,0,0,0-14.51,3.49c-5.19,2.78-9.48,6.92-14.07,10.53a50.78,50.78,0,0,1-17.49,8.95c-12.54,3.61-25.85,3.23-38.76,2.84-3.87-.11-3.86,5.89,0,6,18.82.56,39.48.83,55.8-10.05,8.13-5.42,15.09-14.56,25.44-15.56l.3,0a2.45,2.45,0,0,0,3.15,1,9.51,9.51,0,0,0,1.25-.57A3.08,3.08,0,0,1,675.66,1753.06Z" fill="#cc2628"/>
        <path d="M679,1745.45a10,10,0,0,1-4.61,5c-1.07-.67-2.68-.62-4.4-.47a3.24,3.24,0,0,1,1.55-4.74,3.51,3.51,0,0,0,1.74-1.43A10.35,10.35,0,0,1,679,1745.45Z" fill="#040706"/>
        <path d="M674.34,1750.5a9.51,9.51,0,0,1-1.25.57,2.45,2.45,0,0,1-3.15-1C671.66,1749.88,673.27,1749.83,674.34,1750.5Z" fill="#040706"/>
        <path d="M658.72,1747.35a33.42,33.42,0,0,1,14.51-3.49,3.51,3.51,0,0,1-1.74,1.43,3.24,3.24,0,0,0-1.55,4.74l-.3,0c-10.35,1-17.31,10.14-25.44,15.56-16.32,10.88-37,10.61-55.8,10.05-3.86-.11-3.87-6.11,0-6,12.91.39,26.22.77,38.76-2.84a50.78,50.78,0,0,0,17.49-8.95C649.24,1754.27,653.53,1750.13,658.72,1747.35Z" fill="#040706"/>
        <path d="M671.45,1723c1.45,1.54,1.39,4.4-1.21,4.85l-1.93.33c-3.74-1.23-8.46.07-12,1-2.85.78-4.44-2.4-3.39-4.4l15.41-2.69A14,14,0,0,1,671.45,1723Z" fill="#040706"/>
        <path d="M668.64,1722.1a3,3,0,0,1,2.81.93,14,14,0,0,0-3.1-.88Z" fill="#040706"/>
        <path d="M668.35,1722.15l-15.41,2.69a2.74,2.74,0,0,1,1.79-1.39C658.87,1722.33,663.91,1721.39,668.35,1722.15Z" fill="#040706"/>
        <path d="M634.6,1748.18c3.82-.51,3.77,5.5,0,6a556.42,556.42,0,0,0-83,17.46c-13.26,3.87-27.08,7.68-39.55,13.71a55,55,0,0,0-15.87,11.11c-.51-2.25-1.1-4.48-1.8-6.69a.09.09,0,0,1,0,0c13.37-11.94,33.88-17.3,50.16-22.23A564.15,564.15,0,0,1,634.6,1748.18Z" fill="#040706"/>
        <path d="M509.43,1816.25a3,3,0,0,1,1.78,3.41h0Z" fill="#040706"/>
        <path d="M511.21,1819.66s0,0,0,0a2.76,2.76,0,0,1-2.84,2.39,19.53,19.53,0,0,1-2.77-.19,2.12,2.12,0,0,0-.11-.21,34.58,34.58,0,0,0,5.71-2Z" fill="#040706"/>
        <path d="M509.43,1816.25l1.77,3.41a34.58,34.58,0,0,1-5.71,2l-1.57-3a2.9,2.9,0,0,1,.29-3.24,11.94,11.94,0,0,0,4.16.67A2.91,2.91,0,0,1,509.43,1816.25Z" fill="#040706"/>
        <path d="M507.72,1814.28a43.46,43.46,0,0,0,8.11-3.9,3,3,0,0,1,.78-.36c2.94-.88,5.25,3.67,2.24,5.54a59.39,59.39,0,0,1-7.64,4.1,3,3,0,0,0-1.78-3.41l-.33-.64A2.68,2.68,0,0,0,507.72,1814.28Z" fill="#040706"/>
        <path d="M508.37,1816.07a11.94,11.94,0,0,1-4.16-.67l0-.05a32.34,32.34,0,0,0,3.47-1.07,2.68,2.68,0,0,1,1.38,1.33l.33.64A2.91,2.91,0,0,0,508.37,1816.07Z" fill="#040706"/>
        <path d="M505.6,1821.88a19.53,19.53,0,0,0,2.77.19,2.76,2.76,0,0,0,2.84-2.39l1.92,3.69a3,3,0,0,1,0,3A26.83,26.83,0,0,1,494.34,1837a38.67,38.67,0,0,1-1.54-4.67,2.91,2.91,0,0,0-.68-1.28,19.65,19.65,0,0,0,14.86-6.54c.33.62.65,1.24,1,1.86v-3a12,12,0,0,1-1,1.17Z" fill="#040706"/>
        <path d="M508,1823.37v3c-.32-.62-.64-1.24-1-1.86A12,12,0,0,0,508,1823.37Z" fill="#040706"/>
        <path d="M504.25,1815.35a3.14,3.14,0,0,1,3.47-1.07A32.34,32.34,0,0,1,504.25,1815.35Z" fill="#040706"/>
        <path d="M506.45,1863.05c2.29,9.48,1.14,19.64-2.21,28.73-3.6,9.74-9.6,18.31-16.3,26.16A119.18,119.18,0,0,1,476.69,1930a10.59,10.59,0,0,1-4.4,2.55l-.78-1.71c1.55-2.73,3.09-5.51,4.57-8.34,2.37-2.57,4.68-5.47,5.31-6.19a122.34,122.34,0,0,0,8.32-10.27c5-7,9-14.7,10.88-23.18,1.92-8.78,1.33-18-2.87-26.05-3.58-6.85-7.5-12.81-9.88-20.07a23.67,23.67,0,0,0,6.5.26C497.89,1846,504.17,1853.6,506.45,1863.05Z" fill="#040706"/>
        <path d="M505.49,1821.67a2.12,2.12,0,0,1,.11.21l-.59-.1Z" fill="#040706"/>
        <path d="M503.92,1818.64l1.57,3-.48.11a15.7,15.7,0,0,1-9.8-5.71,22.78,22.78,0,0,0,8.94-.69l.06,0A2.9,2.9,0,0,0,503.92,1818.64Z" fill="#040706"/>
        <path d="M504.25,1815.35l0,.05-.06,0A.17.17,0,0,0,504.25,1815.35Z" fill="#040706"/>
        <path d="M499.3,1810.84a8.71,8.71,0,0,0,4.85,4.54,22.78,22.78,0,0,1-8.94.69,14.09,14.09,0,0,1-2.27-4.25C495.07,1811.54,497.19,1811.22,499.3,1810.84Z" fill="#040706"/>
        <path d="M497.85,1805.78a16.67,16.67,0,0,0,1.45,5.06c-2.11.38-4.23.7-6.36,1-.14-.44-.27-.89-.38-1.36-.24-1-.47-2.62-.74-4.52,2-.24,4-.54,5.92-.88C497.78,1805.3,497.82,1805.54,497.85,1805.78Z" fill="#040706"/>
        <path d="M496.19,1796.46c.64,2.84,1.14,5.71,1.55,8.6-2,.34-3.94.64-5.92.88l-.45-3.27A35.75,35.75,0,0,1,496.19,1796.46Z" fill="#cc2628"/>
        <path d="M494.39,1789.77c.7,2.21,1.29,4.44,1.8,6.69a35.75,35.75,0,0,0-4.82,6.21c-.39-2.62-.87-5.52-1.52-8.3a45.16,45.16,0,0,1,4.53-4.65A.09.09,0,0,0,494.39,1789.77Z" fill="#040706"/>
        <path d="M492.94,1811.82a14.09,14.09,0,0,0,2.27,4.25,10.59,10.59,0,0,1-6.89-3.72C489.87,1812.2,491.41,1812,492.94,1811.82Z" fill="#cc2628"/>
        <path d="M492.8,1832.36a38.67,38.67,0,0,0,1.54,4.67,23.67,23.67,0,0,1-6.5-.26c-.31-.91-.58-1.85-.83-2.81a2.81,2.81,0,0,1,1.36-3.26,19.79,19.79,0,0,0,3.75.38A2.91,2.91,0,0,1,492.8,1832.36Z" fill="#040706"/>
        <path d="M492.56,1810.46c.11.47.24.92.38,1.36-1.53.2-3.07.38-4.62.53h0a9.26,9.26,0,0,1-.68-.93,30.61,30.61,0,0,1,1.85-5.21c.78-.07,1.56-.17,2.34-.27C492.09,1807.84,492.32,1809.42,492.56,1810.46Z" fill="#040706"/>
        <path d="M491.37,1802.67l.45,3.27c-.78.1-1.56.2-2.34.27A30,30,0,0,1,491.37,1802.67Z" fill="#cc2628"/>
        <path d="M488.37,1830.7a3,3,0,0,1,3.75.38A19.79,19.79,0,0,1,488.37,1830.7Z" fill="#040706"/>
        <path d="M489.53,1780.36a26.46,26.46,0,0,1,4.85,9.36,45.16,45.16,0,0,0-4.53,4.65,28.1,28.1,0,0,0-3.51-9A34.46,34.46,0,0,1,489.53,1780.36Z" fill="#040706"/>
        <path d="M489.85,1794.37c.65,2.78,1.13,5.68,1.52,8.3a30,30,0,0,0-1.89,3.54c-1.27.15-2.54.26-3.82.35a2.5,2.5,0,0,0-1.12-1.26,2.42,2.42,0,0,0-.1-.45c-.14-.45-.26-.9-.37-1.35A39.05,39.05,0,0,1,489.85,1794.37Z" fill="#040706"/>
        <path d="M668.31,1728.21c-36.18,6.28-72.79,11.49-108.57,19.75-17.42,4-35.11,9-51.09,17.21-7,3.6-14.19,8.77-19.12,15.19a12.1,12.1,0,0,0-4.89-3.47,50.2,50.2,0,0,1,11-10.89c14.88-10.78,34.08-16.51,51.63-21.15,19.35-5.11,39.12-8.4,58.82-11.84l46.82-8.17c-1.05,2,.54,5.18,3.39,4.4C659.85,1728.28,664.57,1727,668.31,1728.21Z" fill="#040706"/>
        <path d="M488.31,1812.35l-1.14.1a2.87,2.87,0,0,0,.45-1v0A9.26,9.26,0,0,0,488.31,1812.35Z" fill="#040706"/>
        <path d="M489.48,1806.21a30.61,30.61,0,0,0-1.85,5.21,13.94,13.94,0,0,1-1.78-4.31,3,3,0,0,0-.19-.55C486.94,1806.47,488.21,1806.36,489.48,1806.21Z" fill="#040706"/>
        <path d="M487.63,1811.42v0a2.87,2.87,0,0,1-.45,1c-1.49.13-3,.23-4.49.3a2.78,2.78,0,0,1-.84-2.9c.12-.47.25-.93.39-1.39a3,3,0,0,0,2.21-1.81c.41,0,.82-.05,1.22-.09a3,3,0,0,1,.19.55A13.94,13.94,0,0,0,487.63,1811.42Z" fill="#040706"/>
        <path d="M487,1834c.25,1,.52,1.9.83,2.81a23.72,23.72,0,0,1-5.2-1.53,24.7,24.7,0,0,1-4.14-2.26,34,34,0,0,1,1.23-6.36,28.18,28.18,0,0,0,2.88,1.91,19,19,0,0,0,5.76,2.17A2.81,2.81,0,0,0,487,1834Z" fill="#cc2628"/>
        <path d="M487.31,1880.43c1.05,14.88-4.42,29-11.23,42.1-2.32,2.5-4.7,4.69-5.65,4.24l1.08,4.1.78,1.71a7.09,7.09,0,0,1-4.88-.63,3,3,0,0,1-1.08-4.1c9.36-16.48,17.84-34.43,14.1-53.84-2.91-15.1-10.36-30.09-7.38-45.46a42.55,42.55,0,0,0,5.45,4.43C477,1848.85,486.21,1864.57,487.31,1880.43Z" fill="#040706"/>
        <path d="M485.32,1777.75c3.17,1.14,2.35,5.75-.36,6a5.43,5.43,0,0,0-3.61-1.58,40.05,40.05,0,0,1,2.93-4.74Z" fill="#040706"/>
        <path d="M486.34,1785.34a28.1,28.1,0,0,1,3.51,9,39.05,39.05,0,0,0-5.78,9.13A25,25,0,0,1,486.34,1785.34Z" fill="#cc2628"/>
        <path d="M485.66,1806.56c-.4,0-.81.07-1.22.09a2.62,2.62,0,0,0,.1-1.35A2.5,2.5,0,0,1,485.66,1806.56Z" fill="#040706"/>
        <path d="M487.17,1812.45a3.07,3.07,0,0,1-4.49.3C484.18,1812.68,485.68,1812.58,487.17,1812.45Z" fill="#040706"/>
        <path d="M489.53,1780.36a34.46,34.46,0,0,0-3.19,5,8.85,8.85,0,0,0-1.38-1.62c2.71-.22,3.53-4.83.36-6l-1-.35q.17-.26.36-.51A12.1,12.1,0,0,1,489.53,1780.36Z" fill="#040706"/>
        <path d="M485,1783.72a8.85,8.85,0,0,1,1.38,1.62,25,25,0,0,0-2.27,18.16c-.22.48-.43,1-.63,1.48a3.15,3.15,0,0,0-3.44,2.56,2,2,0,0,0-.36.4,2.89,2.89,0,0,1-1-1.49,31.34,31.34,0,0,1,2.39-23.71,24.26,24.26,0,0,1,2.69.8A2.92,2.92,0,0,0,485,1783.72Z" fill="#cc2628"/>
        <path d="M484.64,1776.89q-.19.25-.36.51a28.59,28.59,0,0,0-4.77-1.09A11.39,11.39,0,0,1,484.64,1776.89Z" fill="#040706"/>
        <path d="M484.54,1805.3a2.62,2.62,0,0,1-.1,1.35c-.55,0-1.1.07-1.66.09.21-.6.43-1.19.66-1.76A2.5,2.5,0,0,1,484.54,1805.3Z" fill="#040706"/>
        <path d="M484.44,1804.85a2.42,2.42,0,0,1,.1.45,2.5,2.5,0,0,0-1.1-.32c.2-.5.41-1,.63-1.48C484.18,1804,484.3,1804.4,484.44,1804.85Z" fill="#040706"/>
        <path d="M482.78,1806.74c.56,0,1.11,0,1.66-.09a3,3,0,0,1-2.21,1.81C482.4,1807.88,482.58,1807.3,482.78,1806.74Z" fill="#040706"/>
        <path d="M480,1807.54a3.15,3.15,0,0,1,3.44-2.56c-.23.57-.45,1.16-.66,1.76l-.89,0A2.88,2.88,0,0,0,480,1807.54Z" fill="#040706"/>
        <path d="M481.89,1806.79l.89,0c-.2.56-.38,1.14-.55,1.72a3.14,3.14,0,0,1-2.25-.3,2.11,2.11,0,0,1,0-.62A2.88,2.88,0,0,1,481.89,1806.79Z" fill="#040706"/>
        <path d="M481.89,1812.79l.79,0a3.07,3.07,0,0,0,4.49-.3l1.14-.1h0a10.59,10.59,0,0,0,6.89,3.72,15.7,15.7,0,0,0,9.8,5.71,23.56,23.56,0,0,1-10.44.28,19.1,19.1,0,0,1-12.94-9.28Z" fill="#040706"/>
        <path d="M483.73,1783.54a24.26,24.26,0,0,0-2.69-.8c.1-.2.2-.4.31-.6a5.43,5.43,0,0,1,3.61,1.58A2.92,2.92,0,0,1,483.73,1783.54Z" fill="#040706"/>
        <path d="M484.28,1777.4a40.05,40.05,0,0,0-2.93,4.74,5.52,5.52,0,0,0-1.2.07c-3.78.63-5.4-5.15-1.6-5.78.33,0,.64-.1,1-.12A28.59,28.59,0,0,1,484.28,1777.4Z" fill="#040706"/>
        <path d="M481.39,1916.34c-.63.72-2.94,3.62-5.31,6.19,6.81-13.06,12.28-27.22,11.23-42.1-1.1-15.86-10.31-31.58-8.81-47.45a24.7,24.7,0,0,0,4.14,2.26,23.72,23.72,0,0,0,5.2,1.53c2.38,7.26,6.3,13.22,9.88,20.07,4.2,8.05,4.79,17.27,2.87,26.05-1.86,8.48-5.88,16.16-10.88,23.18A122.34,122.34,0,0,1,481.39,1916.34Z" fill="#cc2628"/>
        <path d="M467,1783.53a23.8,23.8,0,0,1,14-.79,31.34,31.34,0,0,0-2.39,23.71,2.89,2.89,0,0,0,1,1.49c-1.28,1.72-.63,4.77,2,4.84a19.1,19.1,0,0,0,12.94,9.28,23.56,23.56,0,0,0,10.44-.28l.59.1,1.38,2.66a19.65,19.65,0,0,1-14.86,6.54,3,3,0,0,0-3.75-.38,19,19,0,0,1-5.76-2.17,28.18,28.18,0,0,1-2.88-1.91c.24-.83.52-1.67.84-2.5,1.36-3.54-4.22-5.11-5.71-1.76-1.09-1.06-2.16-2.15-3.24-3.23a3.35,3.35,0,0,0-2.41-2.39,44.24,44.24,0,0,0-5.19-4.4c-2.23-1.57-6.38-2.55-8.8-4.17a3.25,3.25,0,0,0-2.31-3.82c-.54-3.84,1.67-8.94,3.34-11.75a21.25,21.25,0,0,1,5.26-6,58.91,58.91,0,0,0,8.72,23.43c2.08,3.25,7.27.24,5.18-3a52.8,52.8,0,0,1-8.22-22.82A3.5,3.5,0,0,0,467,1783.53Z" fill="#cc2628"/>
        <path d="M474.86,1822.36c1.49-3.35,7.07-1.78,5.71,1.76-.32.83-.6,1.67-.84,2.5A50.34,50.34,0,0,1,474.86,1822.36Z" fill="#cc2628"/>
        <path d="M480,1808.16a3.14,3.14,0,0,0,2.25.3c-.14.46-.27.92-.39,1.39a2.78,2.78,0,0,0,.84,2.9l-.79,0h-.26a16.44,16.44,0,0,1-1.57-4.08A3.71,3.71,0,0,1,480,1808.16Z" fill="#040706"/>
        <path d="M481.63,1812.78c-2.62-.07-3.27-3.12-2-4.84a2,2,0,0,0,.34.22,3.71,3.71,0,0,0,.08.54A16.44,16.44,0,0,0,481.63,1812.78Z" fill="#040706"/>
        <path d="M480,1807.54a2.11,2.11,0,0,0,0,.62,2,2,0,0,1-.34-.22A2,2,0,0,1,480,1807.54Z" fill="#040706"/>
        <path d="M481,1782.74a23.8,23.8,0,0,0-14,.79,3.38,3.38,0,0,0-4.42-1.93l-2.37-1.38a29,29,0,0,1,19.26-3.91c-.32,0-.63.07-1,.12-3.8.63-2.18,6.41,1.6,5.78a5.52,5.52,0,0,1,1.2-.07C481.24,1782.34,481.14,1782.54,481,1782.74Z" fill="#040706"/>
        <path d="M475.41,1807c2.09,3.26-3.1,6.27-5.18,3a58.91,58.91,0,0,1-8.72-23.43,21.84,21.84,0,0,1,5.53-3.1,3.5,3.5,0,0,1,.15.69A52.8,52.8,0,0,0,475.41,1807Z" fill="#040706"/>
        <path d="M474.78,1822.53a1.3,1.3,0,0,1,.08-.17,50.34,50.34,0,0,0,4.87,4.26,34,34,0,0,0-1.23,6.36,42.55,42.55,0,0,1-5.45-4.43A35.21,35.21,0,0,1,474.78,1822.53Z" fill="#040706"/>
        <path d="M474.86,1822.36a1.3,1.3,0,0,0-.08.17,35.21,35.21,0,0,0-1.73,6c-1.51-1.41-3-2.9-4.43-4.36.7-.83,1.44-1.63,2.21-2.4a2.72,2.72,0,0,0,.79-2.66C472.7,1820.21,473.77,1821.3,474.86,1822.36Z" fill="#040706"/>
        <path d="M476.08,1922.53c-1.48,2.83-3,5.61-4.57,8.34l-1.08-4.1C471.38,1927.22,473.76,1925,476.08,1922.53Z" fill="#040706"/>
        <path d="M471.62,1819.13a2.72,2.72,0,0,1-.79,2.66c-.77.77-1.51,1.57-2.21,2.4-1.42-1.43-2.86-2.83-4.36-4.13.73-.86,1.5-1.7,2.32-2.52a2.7,2.7,0,0,1,2.63-.8C470,1817.52,470.83,1818.32,471.62,1819.13Z" fill="#040706"/>
        <path d="M471.62,1819.13c-.79-.81-1.6-1.61-2.41-2.39A3.35,3.35,0,0,1,471.62,1819.13Z" fill="#040706"/>
        <path d="M469.21,1816.74a2.7,2.7,0,0,0-2.63.8c-.82.82-1.59,1.66-2.32,2.52a27.08,27.08,0,0,0-9.46-5.69,15.65,15.65,0,0,1-4.9-2.33c1.31-.74,2.63-1.47,3.94-2.19a2.69,2.69,0,0,0,1.38-1.68c2.42,1.62,6.57,2.6,8.8,4.17A44.24,44.24,0,0,1,469.21,1816.74Z" fill="#040706"/>
        <path d="M465.22,1870.86c2.42,14.57-3.08,28.63-12.55,39.61-10.32,12-24.86,19.19-39.22,25.09-16.7,6.86-33.83,12.72-51.11,18l-.1-.34,8.91-8.69c13.19-4.22,26.27-8.87,39.12-14.06,15.13-6.11,30.78-13.85,40.67-27.34,4.64-6.32,8.06-13.8,8.8-21.66.79-8.46-2.21-16.24-4-24.36-3-13.36-.24-26.67,8.53-37,1.5,1.3,2.94,2.7,4.36,4.13a34.73,34.73,0,0,0-8.21,20.47C460,1853.7,463.77,1862.09,465.22,1870.86Z" fill="#040706"/>
        <path d="M467,1783.53a21.84,21.84,0,0,0-5.53,3.1c-.12-.8-.23-1.6-.32-2.41a2.37,2.37,0,0,1,1.43-2.62A3.38,3.38,0,0,1,467,1783.53Z" fill="#040706"/>
        <path d="M460.25,1780.22l2.37,1.38a2.37,2.37,0,0,0-1.43,2.62c.09.81.2,1.61.32,2.41a21.25,21.25,0,0,0-5.26,6c-1.67,2.81-3.88,7.91-3.34,11.75a2.83,2.83,0,0,0-2.1.32c-1.22.67-2.45,1.35-3.67,2a18.29,18.29,0,0,1-.15-2.56,29.1,29.1,0,0,1,5.25-16.41A27.29,27.29,0,0,1,460.25,1780.22Z" fill="#040706"/>
        <path d="M455.73,1857.06c1.8,8.12,4.8,15.9,4,24.36-.74,7.86-4.16,15.34-8.8,21.66-9.89,13.49-25.54,21.23-40.67,27.34-12.85,5.19-25.93,9.84-39.12,14.06q13.88-13.5,27.68-27c10-9.91,17.81-20.4,16.63-35.19-.6-7.54-2.75-14.91-2.92-22.5a38.52,38.52,0,0,1,6-20.9c7.33-12.09,19.3-20,31.39-26.8a15.65,15.65,0,0,0,4.9,2.33,27.08,27.08,0,0,1,9.46,5.69C455.49,1830.39,452.76,1843.7,455.73,1857.06Z" fill="#cc2628"/>
        <path d="M452.91,1804.35a3.25,3.25,0,0,1,2.31,3.82,5,5,0,0,1-1.4-1.3A5.7,5.7,0,0,1,452.91,1804.35Z" fill="#040706"/>
        <path d="M452.91,1804.35a5.7,5.7,0,0,0,.91,2.52,5,5,0,0,0,1.4,1.3,2.69,2.69,0,0,1-1.38,1.68c-1.31.72-2.63,1.45-3.94,2.19a7.4,7.4,0,0,1-2.76-5.32c1.22-.7,2.45-1.38,3.67-2A2.83,2.83,0,0,1,452.91,1804.35Z" fill="#040706"/>
        <path d="M447.14,1806.72a7.4,7.4,0,0,0,2.76,5.32c-12.09,6.82-24.06,14.71-31.39,26.8a38.52,38.52,0,0,0-6,20.9c.17,7.59,2.32,15,2.92,22.5,1.18,14.79-6.6,25.28-16.63,35.19q-13.77,13.59-27.68,27-5.89,1.9-11.83,3.68l-.26-.27c12.23-11.93,24.58-23.75,36.67-35.83,5.19-5.19,10.51-10.86,12.75-18,2.54-8.13.3-16.67-1-24.81-2.15-14,.34-26.53,8.89-38C424.41,1820.57,435.64,1813.19,447.14,1806.72Z" fill="#040706"/>
        <path d="M371.15,1944.48l-8.91,8.69q-1.47-2.51-2.92-5Q365.25,1946.38,371.15,1944.48Z" fill="#040706"/>
        <path d="M360.91,1954c-2.88.86-5-3-2.92-5l1.07-1,.26.27q1.46,2.5,2.92,5l.1.34Z" fill="#040706"/>
      </g>
    </g>
    <path d="M479.3,1828c.32-.2.65-.39,1-.56l.46-.23c.63-.32-.62.22,0,0a14.93,14.93,0,0,1,2.07-.62l.51-.09c.7-.14-.69,0,0,0,.33,0,.65,0,1-.06l.58,0h.19c.26,0,.26,0,0,0s-.28,0,0,0l.18,0c.17,0,.37.15.55.18-.26-.05-.53-.26-.13,0s0,0-.11-.12c.09.12.27.24.38.36s.46.43.09.09,0,0,.06.14.16.35.25.46c-.13-.15-.24-.62-.07-.14.05.14.1.28.14.42s.08.34.12.51c.13.57,0-.42,0,0s.05.8.05,1.2c0,.8-.07,1.61-.15,2.41a3,3,0,0,0,3,3,3.08,3.08,0,0,0,3-3,14.81,14.81,0,0,0-.32-5.93,7.81,7.81,0,0,0-3.84-4.76,10.75,10.75,0,0,0-6.56-.57,15.55,15.55,0,0,0-5.49,2.13,3,3,0,0,0,3,5.18Z" fill="#040706"/>
    <path d="M498.75,1810.22a5.49,5.49,0,0,0,8.05,4.84,5.86,5.86,0,0,0,3-3.78,3.89,3.89,0,0,0-1.58-4.27,3.54,3.54,0,0,0-4.37.48,3.08,3.08,0,0,0-.88,2.12,3.31,3.31,0,0,0,.88,2.12,12.59,12.59,0,0,0,2.24,2,13.31,13.31,0,0,0,2.65,1.37v-5.79a4.37,4.37,0,0,0-2.25,1.26,4.51,4.51,0,0,0-1.26,2.57,4.63,4.63,0,0,0,2.32,4.68,3.21,3.21,0,0,0,2.31.3,3,3,0,0,0,.72-5.49l-.27-.16.61.46a1.7,1.7,0,0,1-.3-.3l.47.61a1.79,1.79,0,0,1-.22-.38c.11.24.21.48.31.72a2.08,2.08,0,0,1-.11-.41l.1.79a2,2,0,0,1,0-.42c0,.26-.07.53-.11.79a1.71,1.71,0,0,1,.09-.3c-.11.23-.21.47-.31.71a2.71,2.71,0,0,1,.21-.37l-.47.61a1.77,1.77,0,0,1,.3-.31l-.61.47a2.3,2.3,0,0,1,.37-.23l-.72.3a1.91,1.91,0,0,1,.41-.11l.72-.31a2.15,2.15,0,0,0,.84-.77,2.85,2.85,0,0,0,.64-1.82,3.48,3.48,0,0,0-.41-1.51,3.21,3.21,0,0,0-1.79-1.38l-.12,0,.72.3a9.87,9.87,0,0,1-2.13-1.24l.61.47a10.47,10.47,0,0,1-1.33-1.25v4.24l.06-.06-.6.47.07-.05-.72.3.17,0-.8.11h.09l-.79-.11.18.05-.72-.3a.54.54,0,0,1,.16.1l-.61-.47.07.06-.47-.61a.72.72,0,0,1,.11.19l-.3-.71a.6.6,0,0,1,.05.24c0-.27-.07-.53-.1-.8a2.26,2.26,0,0,1,0,.26l.11-.8a3,3,0,0,1-.18.58l.31-.71a3.68,3.68,0,0,1-.34.58c.15-.2.31-.4.46-.61a3.29,3.29,0,0,1-.55.57l.61-.47a3.49,3.49,0,0,1-.67.4l.71-.3a3.58,3.58,0,0,1-.64.18l.8-.11a3,3,0,0,1-.67,0l.8.1a2.8,2.8,0,0,1-.63-.17l.72.3a3.25,3.25,0,0,1-.57-.33l.61.47a4.08,4.08,0,0,1-.47-.46l.47.61a3.16,3.16,0,0,1-.33-.56l.3.72a2.57,2.57,0,0,1-.16-.62c0,.26.07.53.1.8,0-.11,0-.22,0-.33a3,3,0,0,0-3-3,3.07,3.07,0,0,0-3,3Z" fill="#040706"/>
    <path d="M510.12,1816.5l-2.63,2.59a5.84,5.84,0,0,0-1.9,2.46c0,.16,0,.29-.08.48a2,2,0,0,0,0,.87c0,.18,0,.31.06.47s.2.5.32.74l.47.61a5.23,5.23,0,0,0,.64.5,2.3,2.3,0,0,0,1.11.35,1.21,1.21,0,0,0,.42,0l.8-.1a2.39,2.39,0,0,0,.73-.32c.21-.15.41-.31.61-.47l.49-.63-2.59,1.49a4.53,4.53,0,0,0,3.84-2.31c.33-.53.48-1.16.85-1.67l-.47.6a2.06,2.06,0,0,1,.33-.33l-.61.46.21-.12-.72.31a1.12,1.12,0,0,1,.26-.08l-.8.11h.32l-.8-.11a1,1,0,0,1,.3.08l-.72-.31.22.13-.6-.47.11.11-.47-.61a1,1,0,0,1,.08.14l-.3-.72a.83.83,0,0,1,0,.15l-.1-.79a1,1,0,0,1,0,.17c0-.26.07-.53.11-.8a1.21,1.21,0,0,1,0,.18l.3-.72a.6.6,0,0,1-.09.15l.47-.61a.49.49,0,0,1-.13.12c.21-.15.41-.31.61-.47a1.38,1.38,0,0,1-.29.17l.72-.3a3,3,0,0,1-.59.15l.8-.11-.3,0a3.15,3.15,0,0,0-2.13.88,2.25,2.25,0,0,0-.62,1,2.32,2.32,0,0,0-.25,1.16,3,3,0,0,0,3,3,7.15,7.15,0,0,0,1.45-.21,6.25,6.25,0,0,0,1-.39,4.44,4.44,0,0,0,.87-.62l.09-.09a6.12,6.12,0,0,0,.5-.64l0-.06a4.54,4.54,0,0,0,.36-.81l.05-.17a5.28,5.28,0,0,0,.11-.89v-.08c0-.16-.08-.67-.11-.82a.93.93,0,0,1,0-.13,4.83,4.83,0,0,0-.35-.81c-.07-.11-.25-.32-.27-.35s-.17-.24-.26-.33a4.31,4.31,0,0,0-.4-.32,3.07,3.07,0,0,0-.88-.51,3,3,0,0,0-.63-.22,4.88,4.88,0,0,0-1.07-.12,4.59,4.59,0,0,0-1,.16,5.9,5.9,0,0,0-.82.34l-.16.1a5,5,0,0,0-1.55,1.6c-.34.54-.49,1.18-.87,1.7l.47-.61a2,2,0,0,1-.38.38l.61-.47a1.22,1.22,0,0,1-.29.17l.71-.3a1.19,1.19,0,0,1-.27.07l.8-.11a4.1,4.1,0,0,0-1,.11,3,3,0,0,0-1.32.78l-.49.63,1.08-1.08h0l1.51-.41h0l1.52.41h0c.2.16.4.32.61.47h0l.47.6v0l.3.71,0-.06c0,.26.08.53.11.79v-.08c0,.27-.07.54-.11.8,0,0,0,0,0-.08l-.3.72,0,0-.47.6a11,11,0,0,1,.91-.9l.94-.93,1.89-1.86a3.08,3.08,0,0,0,.88-2.12,2.22,2.22,0,0,0-.26-1.16,2.16,2.16,0,0,0-.62-1,3,3,0,0,0-2.12-.88,3.12,3.12,0,0,0-2.12.88Z" fill="#040706"/>
    <path d="M468.64,1783c.21-.31.43-.61.65-.91-.34.45.34-.41.41-.49q.72-.86,1.53-1.65c.25-.24.5-.49.78-.71-.4.32.07,0,.24-.11-.34.12-.35.13,0,0-.4,0-.41,0,0,0-.36-.07-.36-.06,0,0a5.17,5.17,0,0,1,.51.18c-.57-.22.47.22.57.26.5.23,1,.44,1.52.64a19.2,19.2,0,0,0,1.94.65,25.83,25.83,0,0,0,5.09.88,3,3,0,0,0,3-3,3.07,3.07,0,0,0-3-3l-.58,0c-.91-.09.31.06-.21,0s-.77-.12-1.15-.2a22,22,0,0,1-2.53-.69q-.63-.21-1.23-.45c.29.12.08,0-.09-.05l-.5-.23a8.35,8.35,0,0,0-3.34-.93c-3.85,0-6.79,4-8.74,6.8a3,3,0,0,0,1.08,4.11,3.07,3.07,0,0,0,4.1-1.08Z" fill="#040706"/>
    <path d="M673.35,1730.4a20.88,20.88,0,0,1-3.32,2.1l-.89.43c-.58.27.47-.17-.19.08s-1.23.45-1.86.64-1.27.34-1.91.46l-.73.13c-.34.06-.32.06.07,0l-.49.06a21.5,21.5,0,0,1-3.93,0,3,3,0,0,0-3,3,3.08,3.08,0,0,0,3,3,24,24,0,0,0,16.28-4.75,3.32,3.32,0,0,0,1.38-1.79,3.05,3.05,0,0,0-.31-2.31c-.79-1.23-2.77-2.1-4.1-1.08Z" fill="#040706"/>
    <path d="M495.4,1788.2c.25-.37.51-.73.77-1.09,0,0,.46-.62.25-.33s.22-.28.26-.33c.55-.7,1.13-1.37,1.73-2a42.17,42.17,0,0,1,3.86-3.7l1-.84c.19-.15.27-.2,0,0l.64-.48c.68-.5,1.38-1,2.1-1.43a41.27,41.27,0,0,1,4.8-2.62,3,3,0,0,0,1.08-4.1,3.09,3.09,0,0,0-4.11-1.08,44.38,44.38,0,0,0-17.63,15,3,3,0,0,0,1.08,4.11,3.09,3.09,0,0,0,4.11-1.08Z" fill="#040706"/>
    <path d="M455.73,1811.72a60.34,60.34,0,0,0-16.18,16.11c-4.6,6.88-7.1,14.85-9,22.85-1.08,4.66-1.67,9.75.24,14.28a3.1,3.1,0,0,0,3.69,2.09c1.4-.38,2.73-2.19,2.09-3.69-1.4-3.32-1.17-6.77-.42-10.23a103.82,103.82,0,0,1,3.24-11.63,47.21,47.21,0,0,1,10.69-17.28,55.49,55.49,0,0,1,8.65-7.32,3.09,3.09,0,0,0,1.07-4.11,3,3,0,0,0-4.1-1.07Z" fill="#040706"/>
    <path d="M484.53,1825.26c-4.87,8-9.58,17.41-5.14,26.71,1.66,3.47,4.47,6.18,6.69,9.26a18.31,18.31,0,0,1,3.51,11.24c0,5.31-1.8,10.44-3.43,15.44a3,3,0,1,0,5.78,1.59c2.91-8.9,5.61-18.62,1.5-27.61-1.62-3.55-4.4-6.33-6.68-9.42s-3.57-6.42-3.09-10.43c.61-5,3.47-9.52,6-13.75,2-3.31-3.18-6.33-5.18-3Z" fill="#040706"/>
    <path d="M488.28,1899.42a18.22,18.22,0,0,0,4.62-13,3,3,0,0,0-6,0c0,.47,0,1,0,1.42,0,.24,0,.48-.05.71s-.23,1,0,.09c-.24.89-.35,1.8-.64,2.69-.07.19-.14.39-.22.58s-.08.22-.13.33c.19-.44.22-.51.09-.22s-.41.86-.65,1.27-.49.81-.76,1.2l-.21.29.14-.18-.46.54a3,3,0,1,0,4.24,4.24Z" fill="#040706"/>
    <path d="M484.53,1894.71a21.74,21.74,0,0,1-2.79,4.77l.47-.61c-.32.42-.66.82-1,1.21a3.1,3.1,0,0,0-.88,2.12,3,3,0,0,0,5.12,2.12,24.13,24.13,0,0,0,4.26-6.58,2.28,2.28,0,0,0,.36-1.12,2.19,2.19,0,0,0-.06-1.19,3.08,3.08,0,0,0-1.38-1.8,3,3,0,0,0-2.31-.3,2.87,2.87,0,0,0-1.79,1.38Z" fill="#040706"/>
    <path d="M529.24,1616.67c1.48-2.4.17-5.31-2-6.73-2.8-1.8-6.2-.56-8.79,1s-5.44,3.59-7,6.34a6.12,6.12,0,0,0,1,7.68c2.13,1.89,5.19,2.19,7.92,2a30.25,30.25,0,0,1,5-.28,7.67,7.67,0,0,1,4.47,2.11c2.47,2.21,4.67,4.68,7.27,6.78a62.47,62.47,0,0,0,8.28,5.67q2.19,1.24,4.49,2.3c1.48.68,3.08,1.18,4.5,2,2.5,1.37,2.06,4.64,2.7,7,1.68,6.37,9.56,6,13.3,1.68a9.55,9.55,0,0,0,2-3.8c.38-1.42.37-2.8,1.45-3.91,1.69-1.75,4.11-3.18,3.65-6-.42-2.61-3-3.44-5.3-3.64-1.14-.1-2.28,0-3.43,0A15.28,15.28,0,0,1,564,1636c-6.87-2.22-11.78-8-17.24-12.37-5.76-4.63-13-8.77-20.65-6.59a1.5,1.5,0,0,0,.8,2.89c5.83-1.67,11.5,1.22,16.12,4.59s8.5,7.63,13.24,10.86a27.23,27.23,0,0,0,6.93,3.51,23.82,23.82,0,0,0,7.56.84c1,0,4.53-.07,3.84,1.78-.28.73-1.18,1.34-1.74,1.84a9.86,9.86,0,0,0-2.17,2.43,14.77,14.77,0,0,0-1.07,3.75,6.54,6.54,0,0,1-2,3.25c-1.61,1.45-4.68,2.5-6.51.83-1.57-1.44-1.33-4.27-1.78-6.18a7.22,7.22,0,0,0-4.75-5.25,61.7,61.7,0,0,1-14.91-8.55,71.79,71.79,0,0,1-6.3-5.78c-2-2-4.15-3.75-7-4.15-3.13-.43-6.33.75-9.42.06-2.73-.61-4.2-2.76-2.62-5.34s4.7-4.67,7.4-5.84c1.25-.55,2.85-.94,4.06-.09.84.58,1.57,1.64,1,2.63-1,1.65,1.58,3.15,2.59,1.51Z" fill="#040706"/>
    <path d="M548.45,1622.56A44.89,44.89,0,0,0,561.51,1607c1.32-2.65,2.27-6.56,6-6.06,3.48.45,5.48,3.84,7.15,6.55l.54-2c-2.09,1.53-4.56,2.11-7,3a13.64,13.64,0,0,0-6.38,4.32c-1.86,2.36-3.42,5-5.08,7.49l-5.55,8.39c-1.07,1.61,1.52,3.12,2.59,1.51q2.56-3.88,5.15-7.77c1.65-2.48,3.19-5.09,5-7.47,3.17-4.18,8.74-3.91,12.74-6.86a1.53,1.53,0,0,0,.54-2c-1.94-3.16-4.15-6.49-7.87-7.68a7.17,7.17,0,0,0-8.81,3.65c-.87,1.63-1.53,3.37-2.43,5a42.4,42.4,0,0,1-3.1,4.85,41.29,41.29,0,0,1-8.11,8.22c-1.52,1.15,0,3.76,1.51,2.59Z" fill="#040706"/>
    <path d="M533.39,1635.62c1.46,4.83-3.11,9-6.75,11.31s-8,4.41-10.92,8c-2.53,3.18-4.13,8.77-.5,11.84,1.7,1.44,4,1.35,6,1.21a8.32,8.32,0,0,1,2.54,0c1.09.28,1,1.28,1,2.24,0,2.43.92,4.47,3.4,5.24a4.94,4.94,0,0,0,5.65-1.89,1.51,1.51,0,0,0-.54-2,9.72,9.72,0,0,1-4.44-7.3,15.34,15.34,0,0,1,2.5-9.86,42.12,42.12,0,0,1,7.51-8.65,77.5,77.5,0,0,1,9.82-7.78c1.6-1.07.1-3.67-1.51-2.59a82,82,0,0,0-10.93,8.72,40,40,0,0,0-8.29,10.22c-3.35,6.49-3.12,15.73,3.83,19.83l-.54-2.05a2.13,2.13,0,0,1-3.17-.1c-.51-.74-.25-1.87-.31-2.71a4.77,4.77,0,0,0-1.13-3c-1.24-1.34-3.09-1.46-4.8-1.37-1.54.08-3.89.63-5-.75s-.82-3.67-.15-5.22a12.45,12.45,0,0,1,3.79-4.55c3.28-2.66,7.23-4.3,10.48-7,3.69-3.07,6.81-7.64,5.3-12.62-.56-1.84-3.46-1.06-2.89.8Z" fill="#040706"/>
    <path d="M529.1,1514c-5.9-4.92-14.8-4.28-21.25-.76-7.09,3.87-11.86,11.22-14.6,18.63a21.11,21.11,0,0,0-1,12.68,16.38,16.38,0,0,0,6.27,8.9,15.59,15.59,0,0,0,5.09,2.37c2,.53,4.17.57,6.05,1.4a6.54,6.54,0,0,1,.64.35,3,3,0,0,1,.57.41c.27.24.53.51.78.78,0,0,.36.43.12.13.13.16.25.34.37.51.88,1.27,1.58,2.65,2.44,3.93a13.35,13.35,0,0,0,9,6,39.38,39.38,0,0,0,12.11-.33,60.61,60.61,0,0,0,20.95-6.64c6.44-3.59,11.88-9,14-16.25,2.33-7.87.4-16.23-1.93-23.86-1.22-4-2.5-7.88-6.34-10.1s-8.29-2.78-12.47-3.3a64.84,64.84,0,0,0-25.4,2q-3,.84-5.87,2a3.09,3.09,0,0,0-2.1,3.69,3,3,0,0,0,3.69,2.1,60.68,60.68,0,0,1,22-4.19,55.8,55.8,0,0,1,11,1c2.78.56,6.55,1.14,8.09,3.81a21.68,21.68,0,0,1,1.61,4.43c.53,1.73,1,3.47,1.47,5.22a38.5,38.5,0,0,1,1.35,10.24,19.31,19.31,0,0,1-2.54,9.33,21.93,21.93,0,0,1-5.54,6.16c-4.85,3.73-10.9,6-16.9,7.37a65.51,65.51,0,0,1-9.51,1.58c-3,.26-6.5.48-9-.92a7.18,7.18,0,0,1-2.44-2.33c-.77-1.14-1.41-2.37-2.17-3.53a12.84,12.84,0,0,0-8.15-5.86c-3.14-.71-6.2-1-8.52-3.19a9.94,9.94,0,0,1-3.23-6.88,21,21,0,0,1,2.59-10.23,33.33,33.33,0,0,1,5.37-8.11,19.18,19.18,0,0,1,7.74-5.17,15.43,15.43,0,0,1,8.35-.52c.33.09.67.18,1,.29a7.1,7.1,0,0,1,.68.27c.3.15.58.31.87.48a2.41,2.41,0,0,1,.57.4,3.1,3.1,0,0,0,4.24,0,3,3,0,0,0,0-4.25Z" fill="#040706"/>
    <path d="M526.51,1575.76l28.39-6.56-1.59-5.79a21,21,0,0,0-6.58,4.18,8.73,8.73,0,0,1-6,2.47c-3.1,0-6-.18-8.92,1.26-2.55,1.28-4.66,4-3.7,7a3,3,0,0,0,5.79-1.6c-.26-.78-.07.68-.16.54a3,3,0,0,1,.48-.42,5,5,0,0,1,2.18-.77c2.76-.34,5.51.24,8.25-.5a16,16,0,0,0,5.88-3.41,15,15,0,0,1,4.33-3c3.64-1.25,2.2-6.66-1.59-5.79l-28.4,6.57a3,3,0,1,0,1.6,5.78Z" fill="#040706"/>
    <path d="M520.46,1588.39a47.46,47.46,0,0,0,24.79-2.18c3.74-1.4,7.17-3.72,11-4.75a6.08,6.08,0,0,1,4.2.09c.14.07.83.49.68.38a4,4,0,0,1,.47.45h0c.35.43.08.44.1-.05,0,.72.37-.56-.06.17l1.79-1.38a22.32,22.32,0,0,0-9.2,4.75c-2.46,1.94-4.87,4.38-7.19,6a13.27,13.27,0,0,1-8.64,2.81,15.81,15.81,0,0,1-8.37-3.45,36.7,36.7,0,0,1-7.63-8.34,3.07,3.07,0,0,0-4.1-1.07,3,3,0,0,0-1.08,4.1c4,5.8,9.1,11.32,15.9,13.75a17.92,17.92,0,0,0,11,.29,25.31,25.31,0,0,0,8.76-5.09c2.39-2,4.59-4.17,6.94-5.73a14.38,14.38,0,0,1,3.7-1.85c1.14-.35,2.22-.43,3-1.45a5.42,5.42,0,0,0,1.1-3.08c.25-4.11-4-6.94-7.57-7.48-4.38-.65-8.5,1.39-12.31,3.28a42,42,0,0,1-25.79,4.06,3.08,3.08,0,0,0-3.69,2.09,3,3,0,0,0,2.1,3.69Z" fill="#040706"/>
    <path d="M533.32,1530.58a23.53,23.53,0,0,1,3.2-.95l.81-.16.43-.07.57-.07c.28,0,.55,0,.83-.06a22.8,22.8,0,0,1,3.2,0l.83.08c-.54-.06.13,0,.3.06.55.09,1.09.21,1.63.34.27-2,.54-3.93.8-5.9-5.85-.16-11,5-10.31,10.95.35,3,2,6.67,5.17,7.65,3.52,1.08,6.35-2.06,8-4.77a16.48,16.48,0,0,0,2.31-9.14,3.06,3.06,0,0,0-3.8-2.89A5.59,5.59,0,0,0,543,1530a5.76,5.76,0,0,0,2.27,6.19,3,3,0,0,0,4.11-1.08,3.08,3.08,0,0,0-1.08-4.1q.57.46.24.15c.3.41.36.48.19.22s-.1-.18.11.29c0-.1-.06-.2-.08-.3.06.54.07.64.05.32a1.71,1.71,0,0,1,0-.32c0-.57-.16.76,0,.07s-.32.49,0,0c.44-.67-.36.31,0,0s.14-.16-.25.16l.27-.16c-.48.18-.57.23-.28.13l.33-.06-3.8-2.89a16.53,16.53,0,0,1,0,2c-.06.81.13-.61,0,.19-.07.33-.13.65-.21,1a16.82,16.82,0,0,1-.53,1.66c.25-.68-.14.3-.2.42l-.36.66c-.16.29-.34.57-.53.85l-.28.4c.21-.27.22-.28,0,0s-.32.38-.49.56l-.36.36c-.26.22-.26.23,0,0-.3.17-.29.18.05,0-.34.09-.31.1.08,0l.32,0c.34.16.37.16.07,0,.28.22.3.22.05,0s-.22-.23-.32-.35c.49.54,0-.08-.12-.23a3.31,3.31,0,0,1-.38-.72c.2.77,0-.21-.08-.36s-.17-.67-.15-.67c.05.42.05.45,0,.11l0-.46a3.15,3.15,0,0,1,0-.92c0,.12,0,.23,0,.34l.09-.44a3.23,3.23,0,0,1,.28-.88c-.4.65.07-.07.15-.21s.59-.81.12-.24c.2-.24.4-.46.62-.68s.51-.41.1-.12c.25-.17.51-.34.78-.49a3.17,3.17,0,0,1,.41-.21c.3-.14.28-.13-.08,0a1.84,1.84,0,0,1,.65-.21l.45-.1c.34-.06.3-.06-.12,0a2.57,2.57,0,0,1,.92,0c3.36.1,4.1-5.09.8-5.89a25.85,25.85,0,0,0-15,.8,3.07,3.07,0,0,0-2.09,3.69,3,3,0,0,0,3.69,2.1Z" fill="#040706"/>
    <path d="M509.42,1534a14.56,14.56,0,0,0,10.73,10.46c.27-2,.54-3.93.8-5.9-.59,0,.68.17.15,0l-.47-.13c-.32-.1-.46-.32.11.06-.13-.08-.29-.15-.43-.23s-.27-.19-.41-.27c.66.39.31.25.1.06l-.34-.35-.11-.13c-.2-.24-.15-.16.16.22a6.72,6.72,0,0,0-.51-.84c-.26-.47.21.67,0,.11l-.12-.39c0-.13-.1-.71-.06-.15s0,0,0-.17,0-.33,0-.49c0-.31-.18.78,0,.15,0-.12.06-.25.1-.38a2.49,2.49,0,0,1,.11-.29l-.18.43a3.88,3.88,0,0,0,.47-.81c-.21.52-.33.4-.07.11l.33-.33c.25-.23.49-.24-.12.06a3.42,3.42,0,0,0,.4-.26,3.38,3.38,0,0,1,.41-.24l.14-.07-.28.12c.29,0,.62-.19.91-.26.52-.13-.75,0-.18,0h.4c.12,0,.71.07.14,0s.11,0,.23.06l1.59-5.78a19,19,0,0,0-14.33,2.26,3,3,0,1,0,3,5.19,15.7,15.7,0,0,1,1.38-.78l.63-.29-.26.11.37-.15a16.76,16.76,0,0,1,2.88-.77l.39-.06c-.47.06-.54.07-.21,0l.59-.06q.79,0,1.59,0l.6,0a3.16,3.16,0,0,0,.79.08c-.47-.07-.54-.07-.21,0l.39.06.78.17a3,3,0,1,0,1.59-5.78,8.14,8.14,0,0,0-8.61,12.89,8.4,8.4,0,0,0,6.09,3.28,3,3,0,0,0,.8-5.89,10,10,0,0,1-1.42-.4l-.4-.16c.1,0,.6.28.24.1l-.62-.31a10.85,10.85,0,0,1-1.25-.78c-.38-.28,0-.06.12.1-.08-.08-.18-.14-.27-.22s-.39-.34-.57-.52-.33-.33-.49-.5a4.16,4.16,0,0,0-.51-.59c.09.06.39.53.16.19l-.21-.28c-.14-.21-.28-.43-.41-.66s-.23-.4-.34-.6-.12-.26-.19-.39c-.18-.36.06.13.1.24-.16-.5-.36-1-.48-1.49a3,3,0,0,0-5.79,1.6Z" fill="#040706"/>
    <path d="M528.15,1553.15a2.22,2.22,0,0,1,.37-.09l-.8.11a1.88,1.88,0,0,1,.58,0l-.79-.11a2.43,2.43,0,0,1,.6.17l-.72-.3a2.77,2.77,0,0,1,.6.35l-.61-.47a3.3,3.3,0,0,1,.59.59l-.47-.6a2.92,2.92,0,0,1,.43.72l-.3-.71a2.91,2.91,0,0,1,.19.7c0-.26-.07-.53-.11-.79a2.57,2.57,0,0,1,0,.62l.11-.79a3.07,3.07,0,0,1-.14.52l.3-.72a2.64,2.64,0,0,1-.2.37,3.37,3.37,0,0,0-.31,2.31,2.39,2.39,0,0,0,.54,1,2.25,2.25,0,0,0,.84.78,3.06,3.06,0,0,0,2.31.3l.72-.3a3.1,3.1,0,0,0,1.08-1.08,5.08,5.08,0,0,0,.77-2.65c0-.11,0-.21,0-.32a7.73,7.73,0,0,0-.15-1.06,6.68,6.68,0,0,0-.5-1.31,3.25,3.25,0,0,0-.33-.57,7.32,7.32,0,0,0-.87-1.06,6.29,6.29,0,0,0-2.35-1.41,2.25,2.25,0,0,0-.35-.09,6.86,6.86,0,0,0-1.11-.13,4.53,4.53,0,0,0-.74.07,4.85,4.85,0,0,0-.76.14,3.19,3.19,0,0,0-1.8,1.38,2.34,2.34,0,0,0-.35,1.12,2.3,2.3,0,0,0,.05,1.19,3,3,0,0,0,3.69,2.1Z" fill="#040706"/>
    <path d="M542.31,1551.14l.05-.05a5.2,5.2,0,0,0,.51-.65l0-.06,0,0c.05-.11.26-.6.3-.72v0l0-.06v0l.11-.81v-.15l-.1-.81v0a.19.19,0,0,0,0-.07.14.14,0,0,0,0-.06c-.1-.24-.2-.5-.31-.74l0,0,0,0,0,0h0c-.14-.18-.34-.45-.48-.62a2.06,2.06,0,0,0-.4-.33c-.07,0-.23-.19-.35-.26a6.87,6.87,0,0,0-.77-.33l-.06,0h0l-.8-.11h-.11l-.8.11h0l-.06,0h0l-.73.31h0l0,0h0l-.61.47,0,0,0,0,0,0h0l-.48.62a.67.67,0,0,0-.06.12h0c-.09.21-.23.52-.31.73v0s0,.05,0,.07v0h0c0,.23-.08.59-.11.82v.15c0,.21.07.59.11.8v.06a.19.19,0,0,0,0,.07c.07.18.23.55.31.73v.05l0,0c.06.09.4.52.47.61v0l.06.06a2.9,2.9,0,0,0,3.28.62,2.34,2.34,0,0,0,1-.62c.15-.21.31-.41.46-.61a2.88,2.88,0,0,0,.41-1.51c0-.27-.07-.54-.1-.8a3.13,3.13,0,0,0-.77-1.33.27.27,0,0,1-.08-.07c.16.2.32.4.47.61l0-.1.3.72a.65.65,0,0,1,0-.13c0,.26.08.53.11.8a.49.49,0,0,1,0-.17l-.11.8a1.21,1.21,0,0,1,0-.18l-.3.72a1.09,1.09,0,0,1,.08-.15c-.15.21-.31.41-.46.61a.52.52,0,0,1,.1-.11l-.6.47.1-.06-.71.3.1,0-.79.11h.11l-.79-.11.1,0-.71-.3.1.06-.61-.47a.52.52,0,0,1,.11.1c-.16-.2-.32-.4-.47-.61l.09.16-.31-.72a.55.55,0,0,1,.05.17l-.11-.79a.43.43,0,0,1,0,.16c0-.26.08-.53.11-.8a.58.58,0,0,1,0,.14l.3-.72-.06.1.47-.61-.08.08a2.34,2.34,0,0,0-.62,1,2.7,2.7,0,0,0,0,2.31,2.34,2.34,0,0,0,.62,1l.61.47a2.94,2.94,0,0,0,1.51.4l.8-.1a2.94,2.94,0,0,0,1.32-.77Z" fill="#040706"/>
    <path d="M531.34,1584.21v8a3,3,0,0,0,6,0v-8a3,3,0,0,0-6,0Z" fill="#040706"/>
    <path d="M538.79,1588.7l2,3a2.31,2.31,0,0,0,.77.84,2.39,2.39,0,0,0,1,.54,2.33,2.33,0,0,0,1.2.05,2.28,2.28,0,0,0,1.12-.36l.6-.47a2.94,2.94,0,0,0,.77-1.32c0-.27.08-.53.11-.8a3,3,0,0,0-.41-1.51l-2-3a2.23,2.23,0,0,0-.77-.84,2.2,2.2,0,0,0-1-.54,2.23,2.23,0,0,0-1.2,0,2.11,2.11,0,0,0-1.11.35l-.61.47a3,3,0,0,0-.77,1.32c0,.27-.07.54-.11.8a3,3,0,0,0,.41,1.52Z" fill="#040706"/>
    <path d="M546.23,1579.32a12.92,12.92,0,0,1,1.46,1.59c-.15-.21-.31-.41-.46-.61a12.89,12.89,0,0,1,1.59,2.74l-.3-.72a12.61,12.61,0,0,1,.87,3.18c0-.26-.07-.53-.11-.8l.06.51a3.21,3.21,0,0,0,.87,2.12,3.08,3.08,0,0,0,2.13.88,3,3,0,0,0,2.12-.88,2.93,2.93,0,0,0,.88-2.12,16.33,16.33,0,0,0-1.63-5.84,14.46,14.46,0,0,0-3.24-4.29,3.1,3.1,0,0,0-2.12-.88,3,3,0,0,0-2.12,5.12Z" fill="#040706"/>
    <path d="M510.93,1560.78a14.54,14.54,0,0,0,2.62,16.23,3,3,0,0,0,4.24,0,3.07,3.07,0,0,0,0-4.25c-.19-.19-.38-.4-.56-.61s-.33-.41-.05-.05,0,0,0-.06a11.29,11.29,0,0,1-.8-1.34c-.07-.13-.13-.27-.2-.41-.17-.34.22.57.09.21s-.18-.45-.25-.69a12.51,12.51,0,0,1-.41-1.6c0-.1-.07-.54,0,0s0,0,0-.06c0-.27,0-.55-.06-.82,0-.53,0-1,.06-1.56s-.11.64,0,.25l.06-.36c.06-.27.12-.53.19-.8s.14-.47.22-.7.1-.28.16-.43c.13-.35-.32.71,0,.13a3.07,3.07,0,0,0-1.07-4.1c-1.33-.7-3.4-.45-4.11,1.07Z" fill="#040706"/>
    <path d="M560.77,1556.88a37,37,0,0,1,2.07,8.08l-.11-.8c.1.69.17,1.39.23,2.08a3.17,3.17,0,0,0,.88,2.12,3,3,0,0,0,5.12-2.12,40.26,40.26,0,0,0-2.4-11,3.27,3.27,0,0,0-1.38-1.8,3.1,3.1,0,0,0-2.31-.3c-1.43.46-2.69,2.12-2.1,3.69Z" fill="#040706"/>
  </g>
</svg>
