<svg id="Decor1" xmlns="http://www.w3.org/2000/svg" viewBox="0 0 1801 2046">
  <title>decor2</title>
  <g>
    <g>
      <ellipse cx="1204.13" cy="1687.08" rx="8.5" ry="7" fill="#4d5b79"/>
      <path d="M1349.49,1698.28a4.54,4.54,0,0,0,4.38-1.16,12.86,12.86,0,0,0,0-17.39q13.88,3,27.57,6.76c.45.12,6.74.59,7.15.59,0,0,4.11,1.94,4,2-4,8-17.58,21.81-26,24s-18.2,2.64-26,0c-9.56-3.25-13.21-7.88-23-4-.9.36-5.51.35-6,1-3.85-7-9.57-23.89-13.42-30.88-1.17-2.13-3.69-5.24-4.22-7.65a4,4,0,0,0-.26-.51,3.6,3.6,0,0,0,.7-1.07c1.14.11,2.75.42,3.11.46,5.91.66,11.82,1.4,17.71,2.26l2.39.35a12.74,12.74,0,0,0,1.06,7.34,3.51,3.51,0,0,0,1.62,1.65,5.56,5.56,0,0,0,1.83,2.19c4.48,3.27,11,2.35,15-1.25a10.3,10.3,0,0,0,3.29-6l5.7,1.14a5.09,5.09,0,0,0-1.61,3.63,4.29,4.29,0,0,0-4.45,4.35A12.48,12.48,0,0,0,1349.49,1698.28Z" fill="#4d5b79"/>
      <path d="M1381.48,1686.49q-13.7-3.71-27.57-6.76a12.29,12.29,0,0,0-2.68-2.15,4.09,4.09,0,0,0-5.1.51l-5.7-1.14a12,12,0,0,0-2.52-9.4l-.18-.21q21.7,4,43,9.65a4,4,0,0,0,2.66,1.81c.64.15,1.75.41,3,.79,1.7,2.67-.08,7.08-3.65,7.08A4.93,4.93,0,0,1,1381.48,1686.49Z" fill="#040706"/>
      <path d="M1383.44,1678.8a4,4,0,0,1-2.66-1.81l3.09.82a4.21,4.21,0,0,1,2.54,1.78C1385.19,1679.21,1384.08,1679,1383.44,1678.8Z" fill="#040706"/>
      <path d="M1338.39,1708.67c7.8,2.64,16.5,6,24.84,3.86s9.63-11.83,16.87-15.79a3.43,3.43,0,0,1,.38-.18c2.19-.94,8.56-2.4,8.79-4.52s-3.1-3.59-5.86-4.45a4.21,4.21,0,0,0-2.54-1.78l-3.09-.82c-1.74-2.9.69-7.87,5-6.86,8.07,1.85,20,9,14.11,18.88-2.32,3.93-6.61,5.11-10.55,6.73-5.14,2.12-6.42,7-9.88,10.9-7,8-18.2,8.4-27.89,6.49-12.33-2.44-24.67-10.89-37.4-5.86l-.45.16c-1.34-2.42-2.67-4.85-4-7.28a4.75,4.75,0,0,1,2.07-1.55C1318.62,1702.72,1328.83,1705.42,1338.39,1708.67Z" fill="#040706"/>
      <path d="M1353.91,1679.73q-3.89-.86-7.78-1.64a4.09,4.09,0,0,1,5.1-.51A12.29,12.29,0,0,1,1353.91,1679.73Z" fill="#040706"/>
      <path d="M1349.07,1686.07a3.4,3.4,0,0,0,2.81,3.53l-4.37,1.16a3.61,3.61,0,0,0-.83-5.41,4.1,4.1,0,0,1-2.16-3.63A4.23,4.23,0,0,1,1349.07,1686.07Z" fill="#040706"/>
      <path d="M1353.87,1697.12a4.54,4.54,0,0,1-4.38,1.16,12.48,12.48,0,0,1-9.42-12.21,4.29,4.29,0,0,1,4.45-4.35,4.1,4.1,0,0,0,2.16,3.63,3.61,3.61,0,0,1,.83,5.41l4.37-1.16a3.4,3.4,0,0,1-2.81-3.53,4.23,4.23,0,0,0-4.55-4.35,5.09,5.09,0,0,1,1.61-3.63q3.9.78,7.78,1.64A12.86,12.86,0,0,1,1353.87,1697.12Z" fill="#040706"/>
      <path d="M1337.73,1667.34l.18.21a12,12,0,0,1,2.52,9.4q-4.41-.85-8.83-1.63a2.56,2.56,0,0,0-.5-1.91,2.65,2.65,0,0,0-4.83,1q-4.3-.72-8.63-1.37a12.18,12.18,0,0,1,4.93-8l.36-.24Q1330.34,1666,1337.73,1667.34Z" fill="#040706"/>
      <path d="M1322.93,1664.83c4.83-3.23,11.14-1.86,14.8,2.51Q1330.35,1666,1322.93,1664.83Z" fill="#040706"/>
      <path d="M1337.14,1683c-4,3.6-10.51,4.52-15,1.25a5.56,5.56,0,0,1-1.83-2.19,4.87,4.87,0,0,0,4.53,0,4.49,4.49,0,0,0,1.87-5.52c1.7,1.22,4.54.59,4.88-1.15q4.43.78,8.83,1.63A10.3,10.3,0,0,1,1337.14,1683Z" fill="#040706"/>
      <path d="M1320.53,1678.07c1.14-2,4.2-3,6.16-1.62l0,0a4.49,4.49,0,0,1-1.87,5.52,4.87,4.87,0,0,1-4.53,0A4.18,4.18,0,0,1,1320.53,1678.07Z" fill="#040706"/>
      <path d="M1317.64,1673q4.32.64,8.63,1.37a2.34,2.34,0,0,0,.2,1.42,5.64,5.64,0,0,1,.25.64l0,0c-2-1.43-5-.33-6.16,1.62a4.18,4.18,0,0,0-.21,4,3.51,3.51,0,0,1-1.62-1.65A12.74,12.74,0,0,1,1317.64,1673Z" fill="#040706"/>
      <path d="M1314.61,1709c1.51,2.74-.33,7.13-3.89,6.77-1.34-.13-2.69-.25-4-.36l.15-1.86c1.24-2.18,2.5-4.36,3.74-6.54a3.56,3.56,0,0,0,3.19.47Z" fill="#040706"/>
      <path d="M1310.25,1706.68l.47,0-.14.24C1310.46,1706.87,1310.35,1706.77,1310.25,1706.68Z" fill="#040706"/>
      <path d="M1302.68,1706.07c2.53.15,5,.36,7.57.61.1.09.21.19.33.28-1.24,2.18-2.5,4.36-3.74,6.54Q1304.79,1709.78,1302.68,1706.07Z" fill="#040706"/>
      <path d="M1310.25,1706.68a5.14,5.14,0,0,1-.49-6.53c1.34,2.43,2.67,4.86,4,7.28a3.56,3.56,0,0,1-3.19-.47l.14-.24Z" fill="#040706"/>
      <path d="M1306.84,1713.5l-.15,1.86A225.82,225.82,0,0,0,1161,1754.12h0c-.72-3.13-1.43-6.26-2.15-9.39a233.78,233.78,0,0,1,143.83-38.67Q1304.78,1709.78,1306.84,1713.5Z" fill="#040706"/>
      <path d="M1290.5,1672.19a3.77,3.77,0,0,0,3.23-1.15,4,4,0,0,1,.26.51c.53,2.41,3,5.52,4.22,7.65l11.55,21a5.14,5.14,0,0,0,.49,6.53c-2.52-.25-5-.46-7.57-.61-5.61-9.92-11.36-19.82-16.46-30a21.94,21.94,0,0,1-1.66-4.28C1286.54,1671.91,1288.52,1672,1290.5,1672.19Z" fill="#040706"/>
      <path d="M1293.29,1670c.09-.11.55-.1,1.14,0a3.6,3.6,0,0,1-.7,1.07C1293.5,1670.63,1293.21,1670.11,1293.29,1670Z" fill="#040706"/>
      <path d="M1294.43,1670c1.12-2.57-.19-6.49-3.93-6.78-1.2-.09-2.4-.18-3.59-.25,4.09-3.35,10.66-1.52,15.36-1q10.37,1.23,20.66,2.85l-.36.24a12.18,12.18,0,0,0-4.93,8l-2.39-.35c-5.89-.86-11.8-1.6-17.71-2.26C1297.18,1670.39,1295.57,1670.08,1294.43,1670Z" fill="#040706"/>
      <path d="M1290.5,1663.19c3.74.29,5,4.21,3.93,6.78-.59,0-1-.06-1.14,0s.21.61.44,1a3.77,3.77,0,0,1-3.23,1.15c-2-.15-4-.28-5.94-.37-.76-2.91-.62-5.93,1.74-8.33a7.76,7.76,0,0,1,.61-.55C1288.1,1663,1289.3,1663.1,1290.5,1663.19Z" fill="#040706"/>
      <path d="M1235.18,1685.22h0l1.44-.06c5.22-.18,5.72,7.09,1.56,8.69a4.14,4.14,0,0,1-.73-.58c-.67-.66-1.34-1.33-2-2a4.68,4.68,0,0,1-1.32-3.18A4.35,4.35,0,0,1,1235.18,1685.22Z" fill="#040706"/>
      <path d="M1235.66,1695c3.88,4.28-2.47,10.66-6.36,6.36a41.41,41.41,0,0,1-4.56-6.06,87,87,0,0,1,10.22-1.11C1235.19,1694.51,1235.42,1694.77,1235.66,1695Z" fill="#040706"/>
      <path d="M1236.62,1685.15l-1.44.06.27-.31a4.49,4.49,0,0,1,6.36,0c.67.66,1.34,1.33,2,2a4.68,4.68,0,0,1,1.32,3.18,4.51,4.51,0,0,1-4.5,4.5,4.62,4.62,0,0,1-2.45-.74C1242.34,1692.24,1241.84,1685,1236.62,1685.15Z" fill="#040706"/>
      <path d="M1235,1694.23a29.32,29.32,0,0,1-5-8.62q2.61-.27,5.25-.39a4.35,4.35,0,0,0-1,2.86,4.68,4.68,0,0,0,1.32,3.18c.66.67,1.33,1.34,2,2a4.14,4.14,0,0,0,.73.58,4.7,4.7,0,0,1-1.56.31C1236.07,1694.17,1235.51,1694.19,1235,1694.23Z" fill="#040706"/>
      <path d="M1229.93,1685.61a29.32,29.32,0,0,0,5,8.62,87,87,0,0,0-10.22,1.11,39.05,39.05,0,0,1-3.89-8.42C1223.84,1686.34,1226.88,1685.9,1229.93,1685.61Z" fill="#040706"/>
      <path d="M1229,1682.87c.26.93.56,1.85.9,2.74-3,.29-6.09.73-9.08,1.31-.18-.55-.35-1.1-.5-1.66C1218.8,1679.66,1227.49,1677.29,1229,1682.87Z" fill="#040706"/>
      <path d="M1222.7,1695.7a84.89,84.89,0,0,0-8.65,2q-2-4.1-3.92-8.19c2.91-.89,5.87-1.64,8.86-2.26,1.07,2.22,2.14,4.45,3.2,6.67A5.51,5.51,0,0,1,1222.7,1695.7Z" fill="#040706"/>
      <path d="M1222.7,1695.7a4.35,4.35,0,0,1-2.12,4.42c-2,1.16-5.11.58-6.16-1.61-.12-.26-.25-.51-.37-.77A84.89,84.89,0,0,1,1222.7,1695.7Z" fill="#040706"/>
      <path d="M1220.85,1686.92a39.05,39.05,0,0,0,3.89,8.42q-1,.15-2,.36a5.51,5.51,0,0,0-.51-1.74c-1.06-2.22-2.13-4.45-3.2-6.67C1219.6,1687.15,1220.22,1687,1220.85,1686.92Z" fill="#040706"/>
      <path d="M1216.39,1681.87l2.6,5.42c-3,.62-6,1.37-8.86,2.26-.51-1-1-2.09-1.51-3.14a5.06,5.06,0,0,1-.32-3.78q3.39-1.16,6.81-2.2A3.57,3.57,0,0,1,1216.39,1681.87Z" fill="#040706"/>
      <path d="M1210.13,1689.55q1.95,4.1,3.92,8.19-2.6.73-5.13,1.62-2.49-3.85-5-7.73C1206,1690.87,1208.05,1690.17,1210.13,1689.55Z" fill="#040706"/>
      <path d="M1210.23,1680.26a4.8,4.8,0,0,1,4.88.17q-3.42,1-6.81,2.2A4.19,4.19,0,0,1,1210.23,1680.26Z" fill="#040706"/>
      <path d="M1210.49,1701.82c3.14,4.9-4.65,9.41-7.77,4.55l-2.28-3.56q4.15-1.93,8.48-3.45C1209.44,1700.18,1210,1701,1210.49,1701.82Z" fill="#040706"/>
      <path d="M1204,1691.63q2.47,3.87,5,7.73-4.32,1.52-8.48,3.45l-4.89-7.62C1198.3,1693.88,1201.11,1692.69,1204,1691.63Z" fill="#040706"/>
      <path d="M1200.31,1685.94q1.82,2.85,3.65,5.69c-2.85,1.06-5.66,2.25-8.41,3.56l-3-4.7a4.63,4.63,0,0,1-.63-1.47q4-1.79,8.17-3.39A2.26,2.26,0,0,1,1200.31,1685.94Z" fill="#040706"/>
      <path d="M1195.55,1695.19l4.89,7.62a93.91,93.91,0,0,0-26.62,18.46c-4.13,4.07-10.49-2.29-6.37-6.37A103,103,0,0,1,1195.55,1695.19Z" fill="#040706"/>
      <path d="M1200.08,1685.63q-4.12,1.61-8.17,3.39C1191,1684.88,1197.19,1681.73,1200.08,1685.63Z" fill="#040706"/>
      <path d="M1148.63,1713.08c-.68-2.63-1.28-4.38-2-7,.2-.23,2.58-2.89,2.85-3.08a213.46,213.46,0,0,1,137.43-40.06,7.76,7.76,0,0,0-.61.55c-2.36,2.4-2.5,5.42-1.74,8.33a205.37,205.37,0,0,0-69.45,8.61,4.8,4.8,0,0,0-4.88-.17,4.19,4.19,0,0,0-1.93,2.37q-4.14,1.41-8.22,3c-2.89-3.9-9.12-.75-8.17,3.39a204.32,204.32,0,0,0-37.89,21.75C1152.92,1711.57,1149.59,1713.32,1148.63,1713.08Z" fill="#040706"/>
      <path d="M1149.63,1712.08c1,.24,3.29-.51,4.39-1.31a204.32,204.32,0,0,1,37.89-21.75,4.63,4.63,0,0,0,.63,1.47l3,4.7a103,103,0,0,0-28.1,19.71c-4.12,4.08,2.24,10.44,6.37,6.37a93.91,93.91,0,0,1,26.62-18.46l2.28,3.56c3.12,4.86,10.91.35,7.77-4.55-.53-.82-1-1.64-1.57-2.46q2.53-.88,5.13-1.62c.12.26.25.51.37.77,1,2.19,4.18,2.77,6.16,1.61a4.35,4.35,0,0,0,2.12-4.42q1-.21,2-.36a41.41,41.41,0,0,0,4.56,6.06c3.89,4.3,10.24-2.08,6.36-6.36-.24-.27-.47-.53-.7-.81.55,0,1.11-.06,1.66-.08a4.7,4.7,0,0,0,1.56-.31,4.62,4.62,0,0,0,2.45.74,4.51,4.51,0,0,0,4.5-4.5,4.68,4.68,0,0,0-1.32-3.18c-.66-.67-1.33-1.34-2-2a4.49,4.49,0,0,0-6.36,0l-.27.31h0q-2.64.12-5.25.39c-.34-.89-.64-1.81-.9-2.74-1.54-5.58-10.23-3.21-8.68,2.39.15.56.32,1.11.5,1.66-.63.11-1.25.23-1.86.37l-2.6-5.42a3.57,3.57,0,0,0-1.28-1.44,205.37,205.37,0,0,1,69.45-8.61,21.94,21.94,0,0,0,1.66,4.28c5.1,10.15,10.85,20.05,16.46,30-50.54-3.22-104.91,13.86-147,42C1153.1,1737,1152.5,1723.1,1149.63,1712.08Z" fill="#4d5b79"/>
      <path d="M674.81,1743.92a4.79,4.79,0,0,1-6.23,4.72,42.72,42.72,0,0,0-2.26-5.39l-.45-7.12a31.55,31.55,0,0,1,7.55,5.18A4.08,4.08,0,0,1,674.81,1743.92Z" fill="#040706"/>
      <path d="M669.53,1775.09c1.39.17,2.77.35,4.16.55-1.2.67-2.39,1.35-3.59,2C669.88,1776.83,669.69,1776,669.53,1775.09Z" fill="#040706"/>
      <path d="M670.1,1777.68a37.22,37.22,0,0,0,2.32,6.71,7.29,7.29,0,0,1-1.12-.08,175.13,175.13,0,0,0-79.65,7.41,173.17,173.17,0,0,0-36.5,17.07A192.48,192.48,0,0,0,539,1820.1c-3.37,2.6-6.8,4.91-10.68,6.09a4.4,4.4,0,0,0-2.93-3c-.73-.25-1.45-.53-2.15-.84a27.53,27.53,0,0,1-4.43-2.43,4,4,0,0,1,3.62-1.85c7,.13,12.73-6.41,18-10.22a172.74,172.74,0,0,1,16.48-10.51,184.18,184.18,0,0,1,112.43-22.23c-.34,1.24-.74,2.48-1.2,3.71Z" fill="#040706"/>
      <path d="M668.15,1778.78c.46-1.23.86-2.47,1.2-3.71l.18,0c.16.88.35,1.74.57,2.59Z" fill="#040706"/>
      <path d="M669.35,1775.07c0-.12.07-.24.1-.36,0,.13,0,.26.08.38Z" fill="#040706"/>
      <path d="M676.5,1755.3c.52,6.54.64,13.32,2.17,19.73a50.22,50.22,0,0,1-1.84,6.14,4.51,4.51,0,0,1-4.41,3.22,37.22,37.22,0,0,1-2.32-6.71c1.2-.69,2.39-1.37,3.59-2-1.39-.2-2.77-.38-4.16-.55,0-.12,0-.25-.08-.38a44.1,44.1,0,0,0-.87-26.07,4.79,4.79,0,0,0,6.23-4.72l.78-.06Q676,1749.58,676.5,1755.3Z" fill="#040706"/>
      <path d="M668.58,1748.64a44.1,44.1,0,0,1,.87,26.07c-.08-.44-.15-.88-.22-1.32-1.33-8.61-2.06-17.38-2.65-26.15l.48.43A4.81,4.81,0,0,0,668.58,1748.64Z" fill="#040706"/>
      <path d="M666.58,1747.24c-.09-1.33-.18-2.66-.26-4a42.72,42.72,0,0,1,2.26,5.39,4.81,4.81,0,0,1-1.52-1Z" fill="#040706"/>
      <path d="M661.74,1734.41a33,33,0,0,1,4.13,1.72l.45,7.12a45.21,45.21,0,0,0-3.77-6.26A3.83,3.83,0,0,1,661.74,1734.41Z" fill="#040706"/>
      <path d="M531.24,1796.38c-5.62-1.42-3.23-10.1,2.39-8.68,2.76.69,6-4.82,7.68-6.55a41.09,41.09,0,0,1,6.6-5.53c5.32-3.65,11.51-6,17.61-8,15.53-5,31.41-9.12,47.1-13.63,5.59-1.6,8,7.08,2.39,8.68-16.63,4.78-33.69,8.85-50,14.61-7,2.46-13.34,5.81-18.32,11.36C542.43,1793.36,538.17,1798.13,531.24,1796.38Z" fill="#040706"/>
      <path d="M626,1743.05c13-2,29.71-5.27,40.56,4.19.59,8.77,1.32,17.54,2.65,26.15.07.44.14.88.22,1.32,0,.12-.06.24-.1.36a184.18,184.18,0,0,0-112.43,22.23,172.74,172.74,0,0,0-16.48,10.51c-5.29,3.81-11.07,10.35-18,10.22a4,4,0,0,0-3.62,1.85,29.42,29.42,0,0,1-13-23.8,4.82,4.82,0,0,0-.18-1.24c14.74-24.38,42.66-36.38,69.75-42.72C592.05,1748.22,609.08,1745.61,626,1743.05Zm-84.71,38.1c-1.65,1.73-4.92,7.24-7.68,6.55-5.62-1.42-8,7.26-2.39,8.68,6.93,1.75,11.19-3,15.43-7.74,5-5.55,11.36-8.9,18.32-11.36,16.33-5.76,33.39-9.83,50-14.61,5.56-1.6,3.2-10.28-2.39-8.68-15.69,4.51-31.57,8.6-47.1,13.63-6.1,2-12.29,4.35-17.61,8A41.09,41.09,0,0,0,541.31,1781.15Z" fill="#4d5b79"/>
      <path d="M524.83,1826.91a18.06,18.06,0,0,0,3.48-.72c.82,3-1.37,6.77-5,5.72A4.25,4.25,0,0,0,524.83,1826.91Z" fill="#040706"/>
      <path d="M524.83,1826.91a4.9,4.9,0,0,0-2.39-2.86l.79-1.74c.7.31,1.42.59,2.15.84a4.4,4.4,0,0,1,2.93,3A18.06,18.06,0,0,1,524.83,1826.91Z" fill="#040706"/>
      <path d="M518.44,1824.34a3.94,3.94,0,0,1,4-.29,4.9,4.9,0,0,1,2.39,2.86,15.88,15.88,0,0,1-2.41.12A4.18,4.18,0,0,1,518.44,1824.34Z" fill="#040706"/>
      <path d="M518.44,1824.34a5,5,0,0,1,.36-4.46,27.53,27.53,0,0,0,4.43,2.43l-.79,1.74A3.94,3.94,0,0,0,518.44,1824.34Z" fill="#040706"/>
      <path d="M514.08,1827.44a43.57,43.57,0,0,1,4.35-3.1h0a4.18,4.18,0,0,0,4,2.69,15.88,15.88,0,0,0,2.41-.12,4.25,4.25,0,0,1-1.57,5l-.27-.08A38.29,38.29,0,0,1,514.08,1827.44Z" fill="#040706"/>
      <path d="M452.86,1874.94c1.47,3.24,3.19,8.53,5.93,10.9s8.15.8,11.15-.4a30.22,30.22,0,0,0,9.79-6.79c5.46-5.39,9.32-12,12.72-18.8,5.87-11.76,11.38-24.06,21.63-32.41a38.29,38.29,0,0,0,8.91,4.39l.27.08-.29.2c-14.1,8.77-18.54,25.94-26.59,39.45-6.71,11.26-16.9,22.5-30.63,24.11-7.22.85-12.73-1.2-16.33-7.65-4-7.09-7.85-14.86-9.14-23-2.37-14.83,5.48-27.19,16.09-36.79,11.61-10.52,24.7-19.61,37.25-29a5.06,5.06,0,0,0,4.23,5.09c.19.82.41,1.64.67,2.44l-22,16.8c-6.5,5-13.15,9.85-18.7,15.89-5.33,5.79-9.4,12.88-9,21C449,1865.47,450.78,1870.38,452.86,1874.94Z" fill="#040706"/>
      <path d="M505.79,1796.08a29.42,29.42,0,0,0,13,23.8,5,5,0,0,0-.36,4.46h0a43.57,43.57,0,0,0-4.35,3.1,38.54,38.54,0,0,1-15.56-20.68l2.78-2.13a4.76,4.76,0,0,0,1.73-5.12c.8-1.6,1.67-3.16,2.58-4.67A4.82,4.82,0,0,1,505.79,1796.08Z" fill="#040706"/>
      <path d="M497.85,1804.32a37.33,37.33,0,0,1-1-7.5c2.79-2.08,5.52,0,6.21,2.69-.42.83-.82,1.67-1.21,2.52A3.59,3.59,0,0,1,497.85,1804.32Z" fill="#040706"/>
      <path d="M503,1799.51a4.76,4.76,0,0,1-1.73,5.12l-2.78,2.13c-.26-.8-.48-1.62-.67-2.44a3.59,3.59,0,0,0,4-2.29C502.21,1801.18,502.61,1800.34,503,1799.51Z" fill="#040706"/>
      <path d="M491.05,1850a4.6,4.6,0,0,0,5.08-2.06c1.43-2.62,2.75-5.51,2.51-8.57a7.94,7.94,0,0,0-4.06-6.64c-4.43-2.34-11.39.06-11,5.81a5.16,5.16,0,0,0,.53,2A9.25,9.25,0,0,0,491.05,1850Zm-28.29,20c6.15,3.86,13.82,1,17.12-5.19,3.19-6,1.36-13.55-4.87-16.62a13.35,13.35,0,0,0-16,3.15,4.58,4.58,0,0,0-1,1.25,4.39,4.39,0,0,0-.66,1.46s0,0,0,0h0A13.42,13.42,0,0,0,462.76,1870Zm35.76-63.23a38.54,38.54,0,0,0,15.56,20.68c-10.25,8.35-15.76,20.65-21.63,32.41-3.4,6.81-7.26,13.41-12.72,18.8a30.22,30.22,0,0,1-9.79,6.79c-3,1.2-8.46,2.71-11.15.4s-4.46-7.66-5.93-10.9c-2.08-4.56-3.85-9.47-4.07-14.52-.36-8.09,3.71-15.18,9-21,5.55-6,12.2-10.93,18.7-15.89Z" fill="#4d5b79"/>
      <path d="M496.79,1796.08c-.1-5.35,7.54-5.75,8.82-1.24-.91,1.51-1.78,3.07-2.58,4.67-.69-2.71-3.42-4.77-6.21-2.69C496.8,1796.57,496.79,1796.33,496.79,1796.08Z" fill="#040706"/>
      <path d="M493.62,1799.23c1.05-.78,2.1-1.57,3.14-2.37l.06,0a37.33,37.33,0,0,0,1,7.5A5.06,5.06,0,0,1,493.62,1799.23Z" fill="#040706"/>
      <path d="M496.76,1796.86c-1,.8-2.09,1.59-3.14,2.37a4.58,4.58,0,0,1,.43-1.74c14.47-31.9,48.41-47.14,80.7-54.46,18.9-4.28,38.23-7.32,57.44-9.9,9.85-1.32,20.31-1.88,29.55,1.28a3.83,3.83,0,0,0,.81,2.58,45.21,45.21,0,0,1,3.77,6.26c.08,1.33.17,2.66.26,4-10.85-9.46-27.61-6.14-40.56-4.19-16.94,2.56-34,5.17-50.66,9.07-27.09,6.34-55,18.34-69.75,42.72-1.28-4.51-8.92-4.11-8.82,1.24,0,.25,0,.49,0,.74Z" fill="#040706"/>
      <path d="M498.64,1839.41a7.94,7.94,0,0,0-4.06-6.64c-4.43-2.34-11.39.06-11,5.81a5.16,5.16,0,0,0,.53,2,9.25,9.25,0,0,0,7,9.47,4.6,4.6,0,0,0,5.08-2.06C497.56,1845.36,498.88,1842.47,498.64,1839.41Z" fill="#040706"/>
      <path d="M475,1848.18a13.35,13.35,0,0,0-16,3.15c2.55-2.34-1.16,3.21-1.34,3.71,0,0,0,0,0,0h0a3.59,3.59,0,0,0-.06,1.3,3.57,3.57,0,0,1-.21-2.3,13.42,13.42,0,0,0,5.4,15.92c6.15,3.86,13.82,1,17.12-5.19C483.07,1858.84,481.24,1851.25,475,1848.18Zm-2.91,12.08c-1.88,4.27-6.61,1.93-6.72-1.32a5.15,5.15,0,0,0,.69-.82,4.54,4.54,0,0,0,.54-1.83C469.13,1854.46,473.68,1856.67,472.1,1860.26Z" fill="#040706"/>
      <path d="M459,1851.33a11.74,11.74,0,0,0-1,1.25A4.58,4.58,0,0,1,459,1851.33Z" fill="#040706"/>
      <path d="M458,1852.58a10.56,10.56,0,0,0-.66,1.46A4.39,4.39,0,0,1,458,1852.58Z" fill="#040706"/>
      <circle cx="1284.13" cy="1764.58" r="20.5" fill="#040706"/>
    </g>
    <g>
      <g>
        <path d="M526.56,1578.9c-14.49-1.79-27.13,8.8-33.16,21.13-6.25,12.78-8.26,28-6.93,42.06,1.3,13.86,5.93,27.52,14.33,38.71a70.15,70.15,0,0,0,30.61,23.46c23.92,9.28,53.07,1.84,68.2-19.29a38.07,38.07,0,0,0,7.45-21.32,123.62,123.62,0,0,0-.43-22.76c-1.58-14.38-5.8-28.63-14-40.68-7.34-10.77-17.49-19.63-29.76-24.3a51.22,51.22,0,0,0-38.8,1,40.61,40.61,0,0,0-7.89,4.7,3.09,3.09,0,0,0-1.08,4.1c.74,1.27,2.81,2.06,4.11,1.08,9.51-7.23,21.93-9.61,33.5-7.46s21.93,8.74,29.78,17.58c8.55,9.62,13.83,21.63,16.54,34.13a108.4,108.4,0,0,1,2.31,20.71c.15,7,.27,14.57-2.07,21.3-3.91,11.24-14,19.83-24.55,24.61a53.37,53.37,0,0,1-33.05,3.47,61.3,61.3,0,0,1-30.07-16.89,67.55,67.55,0,0,1-17.54-32.42,80,80,0,0,1,.91-38.85c3.25-11.89,10.32-24,23-27.46a22.1,22.1,0,0,1,8.61-.58c1.61.2,3-1.52,3-3a3.07,3.07,0,0,0-3-3Z" fill="#040706"/>
        <path d="M517.09,1606.93c-2.46.61-3.45,3.76-2.24,5.85a4,4,0,0,0,3.26,1.9,4.84,4.84,0,0,0,3.43-1.21,4.73,4.73,0,0,0,1.47-3.57,5.72,5.72,0,0,0-1.5-3.73c-1.7-1.85-5.31-2.26-6.75.15a3.33,3.33,0,0,0,.62,3.89,3.16,3.16,0,0,0,1.57.93,2.61,2.61,0,0,0,2.37-.65,1.51,1.51,0,0,0,0-2.12,1.53,1.53,0,0,0-2.12,0c-.16.14.17-.14.17-.13l-.09.06c-.17.08.41-.14.12-.06-.14,0-.12-.06.25,0h-.2s.46.1.23,0l-.08,0c-.21,0,.26.08.22.1s-.16-.08-.19-.1l-.09-.06c-.17-.1.17.13.17.13a1,1,0,0,0-.19-.17l-.07-.09c-.12-.12.22.31.13.17l-.12-.17-.11-.21c.25.42.08.21,0,0s-.06-.34,0,0,0,0,0,0,0-.07,0-.11-.09.4,0,.23a.19.19,0,0,0,0-.08c0-.15.13-.19-.07.15a1.36,1.36,0,0,0,.11-.2s-.27.31-.11.15l.07-.08s.31-.26.08-.08.06,0,.12-.06l.12-.06s-.39.14-.17.08l.25-.07.14,0s-.43,0-.2,0H518l.28,0c.24,0-.2,0-.19,0l.14,0c.2,0,.39.11.59.17s-.32-.15-.16-.06l.09,0,.26.14a2,2,0,0,0,.24.16c-.31-.17-.23-.19-.14-.1l.13.11.21.21.1.12c.12.14-.19-.26-.09-.11a4.15,4.15,0,0,1,.35.57l.07.15s-.13-.32-.08-.18.08.2.11.3a2.81,2.81,0,0,1,.08.31c0,.15,0,.5,0,0,0,.21,0,.42,0,.63s0,.4,0,.11,0,.11,0,.18-.05.2-.08.3l-.06.15s.18-.36.06-.15-.09.19-.15.28a.57.57,0,0,0-.08.13c-.11.17.1-.13.11-.14,0,.15-.3.29-.4.4.23-.26.25-.18.14-.11l-.12.08a1.75,1.75,0,0,1-.27.16l-.12.06c-.16.09.33-.12.16-.07l-.23.08-.27.07-.14,0c-.26.06.31,0,.16,0h-.56c-.33,0,.32.06.09,0l-.33-.08-.13,0c-.12,0-.12-.12.17.08a1.43,1.43,0,0,0-.21-.12c-.05,0-.33-.23-.1,0s-.05-.06-.1-.11c-.24-.25.16.27,0,0s-.1-.16-.14-.24c-.16-.31.1.32,0,0,0-.09,0-.18-.07-.27-.07-.34,0,.36,0,.07,0-.1,0-.19,0-.28s.09-.5,0,0c0-.09,0-.17.05-.25a1.4,1.4,0,0,1,.09-.29s0-.1,0-.12-.17.36-.08.19l.15-.26c.18-.28-.22.23,0,0l.18-.19c.08-.08.21-.12-.16.12l.12-.08s.21-.09.23-.13-.38.13-.18.08l.17,0a1.5,1.5,0,0,0,1-1.84,1.53,1.53,0,0,0-1.84-1Z" fill="#040706"/>
        <path d="M556.56,1595.2a5.82,5.82,0,0,0-2.29,6.27,5.09,5.09,0,0,0,2.08,3,3.35,3.35,0,0,0,4.16-.17,4.36,4.36,0,0,0,.83-4,12.41,12.41,0,0,0-1-3.14c-1-2.17-3.13-3.9-5.64-3.29s-4,3.58-3.54,6.07a6.21,6.21,0,0,0,4.14,4.38,5.82,5.82,0,0,0,5.88-1.06,5.93,5.93,0,0,0,1.48-5.72,6.14,6.14,0,0,0-3.86-4.46c-2.31-.79-5.34.73-5.57,3.28a2.56,2.56,0,0,0,.49,1.73,1.55,1.55,0,0,0,2,.54,1.52,1.52,0,0,0,.54-2.06,1.84,1.84,0,0,1-.17-.25s.11.36.06.09l0,.22a.54.54,0,0,1,0-.18s-.09.38,0,.13-.16.21,0,.06.08-.15.12-.22c.14-.26-.17.12,0,0a3.19,3.19,0,0,0,.26-.26c.08-.08.2-.09,0,0,.08,0,.15-.1.23-.15l.25-.13c-.3.16-.09,0,0,0l.27-.08c.27-.08-.05,0-.08,0a.92.92,0,0,1,.33,0c.33,0-.28-.08,0,0a4.27,4.27,0,0,1,.48.13l.18.07s-.32-.16,0,0a4.5,4.5,0,0,1,.41.25c.19.12-.1,0-.08-.07l.25.23a2.91,2.91,0,0,1,.3.31c.23.26,0,0,0,0l.11.16c.09.14.17.28.25.42l.11.22c.18.34-.07-.24,0,0a5.77,5.77,0,0,1,.26.9,1.5,1.5,0,0,0,0,.24c-.09-.07,0-.33,0,0s0,.35,0,.53a2.07,2.07,0,0,0,0,.49c-.07-.2.06-.29,0-.07a2,2,0,0,1,0,.24c0,.15-.09.3-.14.45s0-.09,0-.09-.14.27-.16.3a2.12,2.12,0,0,1-.12.2l0,.08h0l0-.07-.12.14-.14.15s-.18.2-.23.2.31-.21.06,0l-.51.29c-.26.14.08,0,.08,0l-.28.09c-.06,0-.47.09-.48.11s.39,0,.11,0h-.25a3.37,3.37,0,0,1-.55,0c-.37,0,0,0,0,0l-.2,0a4.37,4.37,0,0,1-.49-.12,1.52,1.52,0,0,1-.48-.17c.12.13.22.11.08,0s-.25-.12-.36-.19a2.55,2.55,0,0,1-.39-.24.8.8,0,0,1-.21-.15c.22.26.12.1,0,0s-.22-.2-.32-.31-.14-.15-.2-.23.16.26,0,0a3.58,3.58,0,0,1-.25-.42.68.68,0,0,1-.09-.17s.12.33,0,0c0-.16-.09-.32-.13-.48s0,.11,0,.1a1.32,1.32,0,0,1,0-.3c0-.13,0-.25,0-.37,0-.28,0,0,0,0,.05-.21.1-.4.16-.6.11-.38-.15.24,0-.1l.12-.22a2.26,2.26,0,0,1,.16-.26c.2-.31-.1.06.1-.14l.17-.17c0-.05.35-.28.06-.08.14-.1.32-.17.46-.27s-.3.07,0,0a2.46,2.46,0,0,0,.29-.07c.17-.08-.32,0,0,0,0,0,.31,0,.33,0s-.28-.07,0,0l.25.07c.32.07-.18-.13,0,0a2.53,2.53,0,0,0,.23.12l.18.11c.3.17-.23-.22,0,0l.42.42c.06.07.22.28,0,0a1.27,1.27,0,0,1,.13.19,4.07,4.07,0,0,1,.31.49,5.12,5.12,0,0,1,.27.52c0,.06.18.43,0,.08.05.12.09.23.13.34a11.77,11.77,0,0,1,.36,1.15l.12.51c0,.1,0,.19,0,.29s.05.36,0,.1a6.27,6.27,0,0,1,0,.75c0,.29,0,0,0,0,0,.12-.21.5,0,.2a2,2,0,0,1-.12.19c.12-.15.12-.17,0,0l.1-.09c-.36.12.25-.14-.08,0,.18,0,.21,0,.1,0h-.19c.33,0,.08,0,0,0l-.19-.07c.17.07.17.07,0,0l-.22-.13c.26.15-.07-.07-.13-.13s-.12-.14-.19-.2c.23.21,0,0,0,0l-.17-.29c0-.08-.16-.39,0,0a5.58,5.58,0,0,1-.18-.58c0-.07-.07-.2,0-.27,0,.22,0,.24,0,.07v-.11c0-.23,0-.45,0-.67s-.07.22,0,0,0-.26.09-.38a3.62,3.62,0,0,1,.17-.53c-.14.37,0,0,0,0s.11-.19.17-.29.2-.31.07-.12.13-.14.17-.18l.15-.15.17-.15c-.15.13-.17.14,0,0a1.5,1.5,0,1,0-1.51-2.59Z" fill="#040706"/>
        <path d="M526,1667.42l-1.76-.21a3,3,0,0,0-3,2.6,3.06,3.06,0,0,0,2.15,3.29c10.65,4.2,22.54,2.06,33.37-.21,5.49-1.15,10.69-2.9,15-6.61,4-3.44,7.35-7.92,10.49-12.13,3.66-4.9,6.45-10.24,7.17-16.37.19-1.62-1.52-3-3-3a3.07,3.07,0,0,0-3,3c-.53,4.47-2.91,8.55-5.48,12.15a78.72,78.72,0,0,1-9.17,11c-3.47,3.37-7.69,4.9-12.34,5.95a109.57,109.57,0,0,1-14.71,2.45c-5.71.48-11.37.15-16.74-2-.27,2-.54,3.93-.8,5.9l1.76.21c1.61.19,3-1.52,3-3a3.06,3.06,0,0,0-3-3Z" fill="#040706"/>
        <path d="M535.67,1674.53c-2.42,6.23,2.72,13,9.16,13.13a10.73,10.73,0,0,0,8.25-3.68c1.57-1.88.35-4,0-6.11a21.29,21.29,0,0,1-.14-5.29h-6c.31,3.37.74,7.53,3.09,10.18a5.59,5.59,0,0,0,4.5,2c2-.09,3.48-1.31,5-2.44s3-2.18,4.44-3.31a7.9,7.9,0,0,0,3.1-4.08,5.91,5.91,0,0,0-1-4.82c-.26-.37-.55-.73-.83-1.08-.06-.08-.55-.76-.25-.33a2.88,2.88,0,0,0-.39-.59c-.1-.19-.09-.16,0,.11a1,1,0,0,1,0,.55l-5,1.32c1.15,1.24,1.45,3.19,2.12,4.71a9.26,9.26,0,0,0,3.66,4.35c2.18,1.26,4.52.84,6.7-.15a18.26,18.26,0,0,0,4.68-2.86c3-2.7,3.44-6.68,1.76-10.22a32.23,32.23,0,0,0-2.43-3.91,10.82,10.82,0,0,1-1.82-3.71,3,3,0,0,0-5.79,1.59c.61,2.69,2.28,4.84,3.74,7.1a8,8,0,0,1,1.35,2.8c.09.33-.06-.34,0,.22s.13-.12,0,.39a2.36,2.36,0,0,1-.55,1,10.18,10.18,0,0,1-2.93,1.91,7,7,0,0,1-1.58.65c.23,0-.28-.12-.1,0-.36-.23-.16,0-.47-.39a8.78,8.78,0,0,1-1.43-3,13.5,13.5,0,0,0-2.66-4.75c-1.42-1.53-4.69-.93-5,1.32a5.85,5.85,0,0,0,.56,3.85,8.87,8.87,0,0,0,.85,1.25l.51.65c.18.23-.11-.19.17.22.1.16.2.32.31.48.23.36.17.1,0-.07s.42-.57-.09,0a18.87,18.87,0,0,1-2.74,2.18c-1.08.8-2.14,1.61-3.23,2.4a9,9,0,0,1-1.1.69s.31,0,.31,0c.31-.16,0,.37.08,0a5.72,5.72,0,0,1-.35-.56,9.41,9.41,0,0,1-.5-1.64,26.71,26.71,0,0,1-.69-4,3,3,0,0,0-6,0,26.88,26.88,0,0,0,1.14,10.08c.25-1,.51-2,.77-2.92a5,5,0,0,1-2.74,1.79,4.05,4.05,0,0,1-2.91-.26,4,4,0,0,1-1.73-5.14,3,3,0,0,0-2.1-3.69,3.07,3.07,0,0,0-3.69,2.09Z" fill="#040706"/>
        <path d="M476.05,1513.14a7.29,7.29,0,0,0-4.14-6.49,9.48,9.48,0,0,0-8.48-.05c-5.78,2.65-9.54,9.3-11.81,14.93A39.82,39.82,0,0,0,449,1541c.68,5.67,2.72,13.31,9.45,14.17,5.07.65,10.07-3.17,11.64-7.87,1.83-5.44-1.66-11-6.24-13.81-11.05-6.68-24.39,2.39-29.06,12.77-4.32,9.63-3.71,23.84,7.45,28.4,1.79.72,2.57-2.18.8-2.9-7.72-3.15-8.83-12.9-7-20,2.27-8.88,10.72-18.22,20.59-17.53,4.38.31,9.06,3.21,10.5,7.49a8.12,8.12,0,0,1-4.88,10,6.06,6.06,0,0,1-5.5-.2c-2.28-1.39-3.36-4.1-4-6.57a35.59,35.59,0,0,1-.16-16.39,34.32,34.32,0,0,1,8.29-16.36c1.89-2,4.57-3.89,7.46-3.54,2.33.29,4.74,2,4.69,4.53,0,1.93,3,1.93,3,0Z" fill="#040706"/>
        <path d="M432.17,1598.73c-6.45,13.47-5.18,30,2.7,42.58a41.52,41.52,0,0,0,8.13,9.5c1.46,1.25,3.59-.86,2.12-2.12-10.51-9-15.65-23.54-13.72-37.2a38.09,38.09,0,0,1,3.36-11.24c.83-1.74-1.76-3.26-2.59-1.52Z" fill="#040706"/>
        <path d="M486.7,1555c-.84-4-5.49-5.51-9.12-4.64-4.77,1.15-7,6.21-8.11,10.5a69.06,69.06,0,0,0-2.63,15.29,26.92,26.92,0,0,0,.76,7.69,19.25,19.25,0,0,0,1.14,3.22,9.31,9.31,0,0,0,2.12,3.41c1.47,1.14,4.09-.08,5.27-1.12a8,8,0,0,0,2.51-5c.55-4.28-2.57-7.68-6.71-8.3-4.74-.7-9.05,1.71-11.75,5.49-2.95,4.14-4,9.51-4.66,14.45-1.47,11.27.61,23.3,8.12,32.14,1.25,1.47,3.37-.66,2.12-2.12-6.64-7.81-8.44-18.51-7.42-28.47.5-4.86,1.49-10.24,4.32-14.33,2.35-3.38,7.56-6,11.36-3.2a4.26,4.26,0,0,1,1.46,4.87c-.51,1.74-1.81,3.12-3.71,2.91l1.29.74c-3.95-5.54-3.62-12.59-2.46-19a72,72,0,0,1,2.3-9.73c.84-2.54,2.31-5.6,5.07-6.46,2.18-.67,5.31-.13,5.83,2.44.39,1.89,3.28,1.09,2.9-.8Z" fill="#040706"/>
        <path d="M513.5,1502.08c-4.28,4.35-2.33,12.27,3.34,14.33a1.5,1.5,0,0,0,1.46-.39c3.7-3.27,4-8.83,1.86-13.06-2.33-4.74-7.57-6.79-12.63-6.07-12.55,1.81-16.6,16.62-12.66,27.15,1.86,5,5.39,9.71,10.35,11.94,4.56,2.06,9.54,1.71,13.4-1.56,3.24-2.75,5.37-7.24,4.71-11.52a9.1,9.1,0,0,0-9.5-7.43,14.15,14.15,0,0,0-12.28,9.19c-2.56,7.11.29,14.89,3.62,21.23.9,1.7,3.49.19,2.59-1.52-2.52-4.79-4.75-10.31-4.06-15.84a11.42,11.42,0,0,1,6.88-9.29c3.21-1.37,7.45-1,9.23,2.39,1.48,2.84.28,6.41-1.52,8.8a9.08,9.08,0,0,1-9.33,3.66c-4.31-.93-7.69-4.19-9.82-7.93-4.42-7.76-4-20.28,4.71-25,4-2.14,9.69-2.22,12.71,1.62,2.51,3.18,2.8,8.26-.38,11.07l1.46-.38c-3.58-1.3-4.63-6.67-2-9.32,1.36-1.38-.76-3.5-2.12-2.12Z" fill="#040706"/>
        <path d="M581.22,1514.4c-2.18-2.43-6.78-.46-6.56,2.79a11.52,11.52,0,0,0,.82,2.74c.33.93.68,1.86,1,2.78a34.34,34.34,0,0,0,2.52,5.13c1.85,3,4.51,5.81,7.92,6.94a12.13,12.13,0,0,0,9-.81c3-1.48,5.24-4.47,4.86-7.93l-2.56,1.06a254.88,254.88,0,0,1,29.06,27.46c1.3,1.43,3.42-.69,2.12-2.12A254.88,254.88,0,0,0,600.39,1525c-.88-.71-2.72-.38-2.56,1.06.29,2.69-1.52,4.64-3.92,5.59a8.63,8.63,0,0,1-7.83-.59c-3-1.88-4.82-5-6.22-8.12-.76-1.68-1.37-3.43-2-5.18-.19-.54-.39-.76,0-1.15a.81.81,0,0,1,1.18-.07c1.29,1.44,3.4-.69,2.12-2.12Z" fill="#040706"/>
        <path d="M573,1499.79a18.73,18.73,0,0,0-19.31-10.53c-7.92,1.13-14.3,8.11-15.28,16a14.48,14.48,0,0,0,3,10.79c2.08,2.61,5.77,4.58,9.15,3.45a8.56,8.56,0,0,0,5.46-6.69,5.7,5.7,0,0,0-4.67-6.82c-4.5-.72-8.12,3.51-9.51,7.32-1.7,4.68-.44,10.11-3.4,14.38-1.1,1.59,1.5,3.09,2.59,1.51,2.08-3,2.4-6.63,2.78-10.15.36-3.37,1-6.73,3.77-9,1.69-1.37,5.08-1.81,5.52,1a5.55,5.55,0,0,1-2.67,5.22c-2.31,1.34-5-.16-6.59-2a11.47,11.47,0,0,1-2.46-8.35,15.74,15.74,0,0,1,11.77-13.52c7-1.62,14.42,2.49,17.3,8.91.79,1.75,3.38.23,2.59-1.52Z" fill="#040706"/>
        <path d="M561.39,1558.6c4,4.61,8.57,9.53,15.07,9.87,5.77.3,11-3.76,10.73-9.84a17.23,17.23,0,0,0-3-8.31,20.88,20.88,0,0,0-6.18-6.44c-2.22-1.4-5.14-2.41-7.68-1.27-2.87,1.3-3.55,4.52-3,7.35.71,3.46,2.77,6.86,4.73,9.75a44.14,44.14,0,0,0,7.47,8.44c1.45,1.26,3.58-.85,2.12-2.13a41,41,0,0,1-9.88-12.77c-.93-1.88-2.47-4.82-1.3-6.9,1.06-1.89,3.47-1.24,5-.44a17.72,17.72,0,0,1,8.43,11.25,6.81,6.81,0,0,1-1.27,6.09,7.38,7.38,0,0,1-5.5,2.23c-5.93.08-10.15-4.89-13.7-9-1.26-1.47-3.38.66-2.12,2.12Z" fill="#040706"/>
        <path d="M628.66,1597a2.83,2.83,0,0,0,2.76,2.68,2.51,2.51,0,0,0,2.49-2.88c-.38-2.93-4.21-3-6.26-1.86-2.34,1.32-3.6,4.13-4.22,6.62-.86,3.5-.55,7.28-.32,10.83a89.53,89.53,0,0,0,1.71,12.43,37.29,37.29,0,0,0,3.38,10.3c2.95,5.4,9.92,9.78,15.94,6.3,5-2.87,5.11-11.88-1-13.51a1.51,1.51,0,0,0-1.69.69,53.51,53.51,0,0,0-3.77,32.81c.39,1.89,3.28,1.09,2.9-.79a50,50,0,0,1,3.46-30.51l-1.69.69c3,.8,3.16,5.26,1.31,7.25-3,3.27-8.51,1-11-1.72-3.35-3.73-4.39-9.21-5.29-14a74.56,74.56,0,0,1-1.43-17.45,11.92,11.92,0,0,1,1.76-5.9,4.07,4.07,0,0,1,1.66-1.58,2.33,2.33,0,0,1,1.19-.17,2.75,2.75,0,0,0,.56.1c.33.07.27,0-.18-.19.28-.6.52-.65.72-.16-.19-1.9-3.19-1.92-3,0Z" fill="#040706"/>
        <path d="M489,1722l3.51,6.45c.76,1.39,2.69.64,2.8-.76.57-7.58,1.11-16.35-3.41-23-3.39-4.94-10.1-8.38-16.1-6.66-3.35,1-5.68,3.52-7.19,6.57a58,58,0,0,0-4.24,11.88c-1.89,7.79-2,16.36,1.87,23.58,3.63,6.77,10.52,12,18.42,12a1.5,1.5,0,0,0,0-3c-6,0-11.34-3.58-14.62-8.47-3.93-5.86-4.62-13.1-3.47-19.94a56.9,56.9,0,0,1,3.12-11c1.15-3,2.43-6.41,5.34-8.06,4.56-2.59,10.54.14,13.64,3.79,5,5.92,4.18,15.09,3.64,22.27l2.8-.76q-1.77-3.21-3.52-6.44c-.92-1.7-3.51-.18-2.59,1.51Z" fill="#040706"/>
        <path d="M635.18,1689.48a63.42,63.42,0,0,0,10.11,26.39c1.07,1.6,3.66.1,2.59-1.51a61.4,61.4,0,0,1-9.81-25.67c-.27-1.91-3.16-1.1-2.89.79Z" fill="#040706"/>
        <path d="M478.85,1486.4c-19.8-4.37-41,5.77-51.71,22.65a43.84,43.84,0,0,0-6.17,15.6c-.35,1.88,2.54,2.69,2.89.79,3.45-18.8,20.05-33.4,38.61-36.52a41.1,41.1,0,0,1,15.59.37c1.88.42,2.68-2.47.79-2.89Z" fill="#040706"/>
        <path d="M497.83,1477.4a84.14,84.14,0,0,0-12.18,49.65c.14,1.91,3.14,1.93,3,0a81.4,81.4,0,0,1,11.77-48.13c1-1.65-1.58-3.16-2.59-1.52Z" fill="#040706"/>
        <path d="M580,1480.22a213.15,213.15,0,0,1,35.91,22.17c1.53,1.17,3-1.43,1.51-2.59a212.75,212.75,0,0,0-35.91-22.17c-1.73-.85-3.25,1.74-1.51,2.59Z" fill="#040706"/>
        <path d="M615.69,1530q11,13,21.94,26c1.25,1.48,3.36-.65,2.12-2.12q-11-13-21.94-26c-1.24-1.48-3.35.65-2.12,2.12Z" fill="#040706"/>
        <path d="M463.18,1636.69a158.64,158.64,0,0,0-6.05,34.39c-.13,1.93,2.87,1.92,3,0a154.66,154.66,0,0,1,5.94-33.6c.55-1.85-2.35-2.65-2.89-.79Z" fill="#040706"/>
        <path d="M487.94,1672.39a87.37,87.37,0,0,0-24,48.94,85.54,85.54,0,0,0-.74,15.75c.09,1.92,3.09,1.93,3,0a84.69,84.69,0,0,1,14.27-50.81,81.35,81.35,0,0,1,9.6-11.76c1.35-1.37-.77-3.5-2.12-2.12Z" fill="#040706"/>
        <path d="M526.58,1740.52a58,58,0,0,0-32.69,33.7c-.66,1.82,2.24,2.6,2.9.8a54.65,54.65,0,0,1,30.59-31.6c1.77-.71,1-3.61-.8-2.9Z" fill="#040706"/>
      </g>
      <g>
        <path d="M1176.64,1408.71a54.38,54.38,0,0,1,41.53,12.22,51.08,51.08,0,0,1,8.67,9.26c1.12,1.55,3.73.06,2.59-1.51a57.53,57.53,0,0,0-39.53-23,53,53,0,0,0-13.26.07,1.54,1.54,0,0,0-1.5,1.5,1.51,1.51,0,0,0,1.5,1.5Z" fill="#040706"/>
        <path d="M1219.69,1466.76a85.87,85.87,0,0,1,39.85,39c.87,1.72,3.46.2,2.59-1.52a89.57,89.57,0,0,0-29.72-33.65,86.23,86.23,0,0,0-11.21-6.4c-1.73-.83-3.25,1.75-1.51,2.59Z" fill="#040706"/>
        <path d="M1204.63,1384.47a61.88,61.88,0,0,1,38.53,15,60.48,60.48,0,0,1,8.31,8.77c1.19,1.52,3.3-.62,2.13-2.13A64.9,64.9,0,0,0,1217,1383a63.9,63.9,0,0,0-12.39-1.53c-1.93,0-1.93,3,0,3Z" fill="#040706"/>
        <path d="M1206.23,1452.5a119.38,119.38,0,0,1,41.26,19.34,117.5,117.5,0,0,1,10.08,8.3c1.42,1.31,3.55-.81,2.12-2.12a122.05,122.05,0,0,0-39.82-24.42,119.93,119.93,0,0,0-12.84-4c-1.87-.47-2.67,2.43-.8,2.89Z" fill="#040706"/>
        <path d="M1214.18,1526.72a76.82,76.82,0,0,1,41.27,25.52,74.79,74.79,0,0,1,7.92,11.58c.93,1.69,3.52.18,2.59-1.51a79.55,79.55,0,0,0-37.3-33.91,77.65,77.65,0,0,0-13.68-4.57c-1.88-.44-2.68,2.45-.8,2.89Z" fill="#040706"/>
        <path d="M1249.9,1582.33a111.34,111.34,0,0,1,33.35,31.56c1.09,1.58,3.7.08,2.59-1.51a114.8,114.8,0,0,0-34.43-32.64c-1.65-1-3.16,1.58-1.51,2.59Z" fill="#040706"/>
        <path d="M1251.3,1634.35q11,14,22,28c1.19,1.52,3.3-.62,2.13-2.12l-22-28c-1.19-1.52-3.3.62-2.12,2.12Z" fill="#040706"/>
        <path d="M1182.25,1622.43c-3.27,12.32,6,25.69,18.47,27.37.81.11,1.5-.77,1.5-1.5a1.54,1.54,0,0,0-1.5-1.5c-10.61-1.42-18.29-13.32-15.57-23.57a1.51,1.51,0,0,0-2.9-.8Z" fill="#040706"/>
        <path d="M1190.12,1606.47a21.88,21.88,0,0,0,8.26,21.29c6.47,5,15.22,5.11,22.29,1.33a20.86,20.86,0,0,0,9-9.34c.82-1.74-1.77-3.26-2.59-1.52a18.84,18.84,0,0,1-16.08,10.52c-7.13.31-13.33-3.94-16.44-10.23a17.9,17.9,0,0,1-1.6-11.26c.38-1.88-2.51-2.69-2.89-.79Z" fill="#040706"/>
        <path d="M1214.79,1563.09c-4.4-6.15-13.74-4.59-18.29.6-3,3.41-3.84,8.24-3.38,12.64a31,31,0,0,0,1.67,7.17c.72,2,1.48,4.42,3,6a7.35,7.35,0,0,0,4.89,2.44,2.86,2.86,0,0,0,3.1-3.06c-.06-1.92-3.06-1.93-3,0,0,0,0,.31,0,.23-.15-.75.49.18.08-.16a10.19,10.19,0,0,0-1.24-.31,4.82,4.82,0,0,1-2.43-2.4,29.49,29.49,0,0,1-3.13-11c-.19-3.21.36-6.83,2.49-9.36a11.08,11.08,0,0,1,6.62-3.73c2.59-.45,5.45.18,7,2.4,1.11,1.56,3.71.07,2.59-1.51Z" fill="#040706"/>
        <path d="M1184.64,1544.57a16,16,0,0,0-18.27,24.94,1.52,1.52,0,0,0,2.12,0,1.54,1.54,0,0,0,0-2.12,13,13,0,0,1,15.36-19.92c1.79.7,2.57-2.2.79-2.9Z" fill="#040706"/>
        <path d="M1185.32,1493.37c-3.88-8.5-16.39-9.2-22.77-3.28-8,7.43-6.24,22.06,1.6,28.94a11.52,11.52,0,0,0,14.19.89,16.13,16.13,0,0,0,7.21-14.31c-.16-6.38-3-12.46-6.27-17.8a61.67,61.67,0,0,0-12.22-14.29,27.37,27.37,0,0,0-9-5.6c-2.84-.92-6.3-1-8.78.87-3.64,2.72-5.21,9.28-.61,11.9a1.5,1.5,0,0,0,1.51-2.59c-2.84-1.62-.86-6,1.4-7.23s4.85-.5,6.91.42a27.78,27.78,0,0,1,6.58,4.49,58.66,58.66,0,0,1,10.46,11.78c3,4.42,5.56,9.3,6.61,14.56.95,4.78.29,9.93-3.25,13.51-2.85,2.88-7.3,4.53-11.06,2.4-3.93-2.23-6.26-7-7.12-11.29a16.57,16.57,0,0,1,2.13-12.39c4.4-6.62,16.3-7.29,19.87.54.8,1.75,3.39.23,2.59-1.52Z" fill="#040706"/>
        <path d="M1154.19,1411.42c-3.74,8.67,3.26,17.51,11,20.84a20.51,20.51,0,0,0,14.09,1.07,16.6,16.6,0,0,0,9.67-8,13.94,13.94,0,0,0,.69-11.39,19.29,19.29,0,0,0-7.05-8.51,44.27,44.27,0,0,0-10.83-5.47c-3.19-1.17-8.61-3.7-11.33-.46-3.57,4.25,2.89,10,5.74,12.56a46.52,46.52,0,0,0,14,8.59c1.79.71,2.57-2.19.8-2.9a42.11,42.11,0,0,1-15.06-10.11c-1.28-1.33-2.83-2.82-3.33-4.66-1-3.86,5.88-1,7.41-.47a46.55,46.55,0,0,1,9.15,4.22c5.11,3.14,9.76,8.39,8.08,14.83-2,7.7-10.54,10.85-17.72,9a19,19,0,0,1-10.55-6.74c-2.3-3-3.77-7.21-2.17-10.9.75-1.76-1.83-3.29-2.6-1.52Z" fill="#040706"/>
        <path d="M1192.9,1428a60.54,60.54,0,0,1,48.78,10.69c1.54,1.15,3-1.45,1.51-2.59a63.39,63.39,0,0,0-39.25-12.43,62.11,62.11,0,0,0-11.84,1.44c-1.89.41-1.09,3.31.8,2.89Z" fill="#040706"/>
        <path d="M1220.12,1543a102.55,102.55,0,0,1,41.63,20.09,101,101,0,0,1,9.81,9c1.34,1.4,3.46-.73,2.12-2.12a106,106,0,0,0-39.79-26.06,104,104,0,0,0-13-3.84c-1.88-.42-2.68,2.47-.79,2.9Z" fill="#040706"/>
        <path d="M1237.69,1582l34,34a1.5,1.5,0,0,0,2.12-2.12l-34-34a1.51,1.51,0,0,0-2.13,2.13Z" fill="#040706"/>
        <path d="M1247.39,1632.33l26,24c1.42,1.31,3.54-.81,2.12-2.12l-26-24c-1.41-1.31-3.54.81-2.12,2.12Z" fill="#040706"/>
        <path d="M1171.32,1645.78a48.51,48.51,0,0,0-13.89,37.28c.14,1.92,3.14,1.93,3,0a45.57,45.57,0,0,1,13-35.16,1.5,1.5,0,0,0-2.12-2.12Z" fill="#040706"/>
        <path d="M1196.13,1404.76a243.39,243.39,0,0,1,50.68,28.81q6.68,4.93,13,10.32c1.46,1.24,3.59-.87,2.12-2.12a246.44,246.44,0,0,0-49.6-32.87q-7.57-3.78-15.38-7a1.52,1.52,0,0,0-1.85,1,1.55,1.55,0,0,0,1.05,1.85Z" fill="#040706"/>
      </g>
    </g>
  </g>
</svg>
