<svg id="Hand3" xmlns="http://www.w3.org/2000/svg" viewBox="0 0 1801 2046">
  <g>
    <g>
      <path d="M1328.63,1852.12c13.6,7.45,27.08,19.48,30.14,34.41,1.63,7.94,1.37,16.12,1.11,24.22q-.59,17.67-1.16,35.35c-.38,11.57.14,25.05,9.68,31.94,7.4,5.34,18.27,4.92,24.86,11.19,3.69,3.51,5.35,8.51,6.89,13.3s3,9.27,4.45,13.9c.88,2.76,2.21,5.94,5.1,6.58,2.72.61,5.33-1.48,6.78-3.81a15.23,15.23,0,0,0,1.92-11.38c-1.15-5-4.84-10-2.89-14.75,1.79-4.38,7.26-5.77,11.67-7.71,14.12-6.23,20.88-22,23.85-36.9a139.5,139.5,0,0,0-21.25-104.55,82.6,82.6,0,0,0-10.56-13c-12.28-12-29.22-18.08-45.85-22.93-15.48-4.52-25.62-5.94-41.74-4.9l-13,3.71Z" fill="#99a3b9"/>
      <path d="M1327.11,1854.71a71.75,71.75,0,0,1,20.5,16.26,41,41,0,0,1,6.48,10.46,43.5,43.5,0,0,1,2.8,13.82c.34,5.41.14,10.83,0,16.24q-.27,8.48-.55,16.93t-.55,16.93a100.58,100.58,0,0,0,.18,12.52c.75,8.1,3.13,16.61,9.79,21.87,3.48,2.75,7.59,4.3,11.79,5.59,3.87,1.18,7.74,2.12,11.13,4.15s5.61,5.48,7.06,9.3c1.83,4.82,3.24,9.83,4.82,14.74,1.31,4.12,2.44,9.66,6.72,11.76,5,2.48,10.15-1.16,12.44-5.63a18.73,18.73,0,0,0,1-14.6c-.75-2.24-1.77-4.38-2.39-6.66-.51-1.86-.6-3.5.45-5.09.28-.43-.23.25.1-.15.13-.16.28-.31.42-.46s.7-.65.78-.71a17.5,17.5,0,0,1,2.4-1.4c1.66-.82,3.37-1.43,5.23-2.21a35.17,35.17,0,0,0,10.48-6.83c6.11-5.76,10.1-13.44,12.8-21.3a111.25,111.25,0,0,0,5.15-26.64,143.1,143.1,0,0,0-18.43-82.65c-5-8.61-10.74-17.14-18.17-23.81-7.22-6.47-15.72-11.16-24.62-14.89a196.86,196.86,0,0,0-27.54-9,107.88,107.88,0,0,0-27.64-3.46c-3.3,0-6.86-.16-10,.75l-7.24,2.07-4.62,1.32a3.05,3.05,0,0,0-2.09,3.69q1.68,7.66,3.38,15.33l5.37,24.33c.42,1.87.83,3.75,1.25,5.63a3,3,0,1,0,5.78-1.6q-1.69-7.66-3.38-15.33l-5.37-24.33c-.42-1.87-.83-3.75-1.25-5.63-.7,1.23-1.4,2.46-2.09,3.69l11.85-3.38.88-.25a1.41,1.41,0,0,1,.22-.06l0,0c-.67.15.11,0,.39,0,2.45-.14,4.91-.23,7.36-.25a97.38,97.38,0,0,1,13.14.75c9.08,1.19,18.11,3.86,26.85,6.68a119.22,119.22,0,0,1,25.19,10.89,67.09,67.09,0,0,1,20.16,18.9,134.65,134.65,0,0,1,13.79,24.42,137,137,0,0,1,11.32,53.46,129.86,129.86,0,0,1-2.55,27.11c-1.6,7.85-4,15.4-8.29,22.14a31.34,31.34,0,0,1-16.75,13.69c-3.75,1.52-7.88,3.33-9.84,7.12-2.37,4.6-.69,9.25,1,13.72a18.1,18.1,0,0,1,1.55,6.37,12,12,0,0,1-1.37,5.75c-.77,1.46-2,3.14-3.68,3.35a5.44,5.44,0,0,1-.55-.11c.37.11-.71-.42-.37-.16a5.05,5.05,0,0,1-1.49-2.07,48.53,48.53,0,0,1-2.08-6.11c-.82-2.55-1.63-5.1-2.45-7.65-1.43-4.46-2.73-9.15-5.3-13.12a21.81,21.81,0,0,0-10-8.22c-3.85-1.64-7.9-2.61-11.85-4a20.83,20.83,0,0,1-9.3-5.72,22,22,0,0,1-4.46-9.33c-2-8-1.19-16.9-.92-25.33.36-11,.83-21.92,1.06-32.88.21-10-.2-20.21-4.77-29.28-4-8-10.45-14.44-17.47-19.79a84.64,84.64,0,0,0-10.65-6.9C1326.76,1847.67,1323.73,1852.85,1327.11,1854.71Z" fill="#040706"/>
    </g>
    <g>
      <path d="M1249,1780.19a70.79,70.79,0,0,0,20.07,55.5,3.28,3.28,0,0,1,1,1.52,3.2,3.2,0,0,1-.89,2.4l-6.1,8.32c-1.1,1.51-2.3,3.09-4,3.78-4.53,1.8-8.69-3.32-10.54-7.83a149.91,149.91,0,0,1-6.1-20.18q-3.29-13.1-6.58-26.19c-1.33-5.3-2.67-10.74-2-16.17s3.72-10.91,8.84-12.84c2-.73,4.52-.75,5.79.93a6,6,0,0,1,.92,2.89,50,50,0,0,1-.5,15.87" fill="#99a3b9"/>
      <path d="M1246,1780.19a73.69,73.69,0,0,0,6.09,35.73,72.4,72.4,0,0,0,9.31,15.57c.48.62,5.47,6.83,5.82,6.59,0,0-.2-1,0-.95,0,0-.57.89-.62,1-.48.67-1,1.32-1.46,2l-3.48,4.76a30.15,30.15,0,0,1-2.34,3,2.86,2.86,0,0,1-2.49,1.2c.54,0-1-.34-.6-.18a6.38,6.38,0,0,1-1.2-.74,11,11,0,0,1-2.44-2.88,37.35,37.35,0,0,1-3.42-8.35c-1.11-3.43-2-6.9-2.94-10.38-1.78-6.92-3.49-13.86-5.23-20.78-.9-3.56-1.81-7.12-2.68-10.69a46.28,46.28,0,0,1-1.68-10.38c-.08-5.18,2-12,7.43-13.5a2.86,2.86,0,0,1,1.56-.14c-.43-.06.22.06.32.11s.2.06,0,0l.13.13c.15,1.13.49,3,.58,4.39a47.88,47.88,0,0,1-.72,11.71,3.09,3.09,0,0,0,2.1,3.69,3,3,0,0,0,3.69-2.1,54.9,54.9,0,0,0,1-12.34c-.15-3.67-.13-8.55-3.73-10.66-3-1.77-6.93-.88-9.76.85a17,17,0,0,0-6.17,6.81c-3.57,7-2.49,14.91-.7,22.31,1.88,7.78,3.89,15.53,5.85,23.3s3.66,15.38,6.39,22.79c2.05,5.56,6,13.65,13.17,13,4-.36,6.28-3.37,8.49-6.38l3.48-4.76c1.1-1.5,2.54-3,3.12-4.81.69-2.14-.23-4-1.7-5.52-1.2-1.26-2.4-2.51-3.52-3.83a63.51,63.51,0,0,1-5.66-7.8,68.3,68.3,0,0,1-10-41.75,3,3,0,0,0-3-3,3.06,3.06,0,0,0-3,3Z" fill="#040706"/>
    </g>
    <path d="M1408.19,1820.72c-10.66,0-20.09,8.89-21,19.46-.17,1.92,2.83,1.91,3,0,.8-9,9.11-16.42,18-16.46a1.5,1.5,0,0,0,0-3Z" fill="#040706"/>
    <path d="M1424.28,1843.21a21.78,21.78,0,0,0-14.5,19.47c-.07,1.93,2.93,1.93,3,0a18.71,18.71,0,0,1,12.3-16.58c1.81-.63,1-3.52-.8-2.89Z" fill="#040706"/>
    <path d="M1451.48,1899.41a42.26,42.26,0,0,0-20.41,13.16c-1.24,1.46.87,3.6,2.12,2.12a39.39,39.39,0,0,1,19.09-12.38,1.51,1.51,0,0,0-.8-2.9Z" fill="#040706"/>
    <path d="M1344.39,1840.08a58.05,58.05,0,0,1,29.62,36.13,54.47,54.47,0,0,1,2,13.48c0,1.93,3,1.94,3,0a61,61,0,0,0-21.27-44.33,57.31,57.31,0,0,0-11.85-7.87c-1.72-.86-3.24,1.73-1.51,2.59Z" fill="#040706"/>
    <path d="M1241.44,1793.7q.7,12,1.42,24c.11,1.92,3.12,1.93,3,0q-.7-12-1.42-24c-.12-1.92-3.12-1.93-3,0Z" fill="#040706"/>
    <path d="M1368.25,1837.68a90,90,0,0,1,13,25.4c.59,1.83,3.49,1.05,2.89-.79a92.66,92.66,0,0,0-13.28-26.12c-1.13-1.55-3.73-.05-2.59,1.51Z" fill="#040706"/>
    <path d="M1402.65,1917.8a47.62,47.62,0,0,1-4.48,15.74c-3.18,6.39-9.1,14.07-7.45,21.6,2.49,11.35,15,16.1,25.28,12.46a22.25,22.25,0,0,0,13.12-12.72,15.17,15.17,0,0,0,1.08-7.61c-1.31-9-13-8.71-16.12-16.65a14.28,14.28,0,0,1-.58-5.53c.33-11.33,1.09-22.7-.45-34-1.23-9-4-17.95-9-25.51-.87-1.3-2.17-2.71-3.7-2.41.62-.12,1.84,28.34,2,30.72C1403,1901.81,1403.58,1909.94,1402.65,1917.8Z" fill="#bcc8dd"/>
    <circle cx="1285.13" cy="1763.62" r="20.5" fill="#040706"/>
  </g>
</svg>
