<svg id="Hand2" xmlns="http://www.w3.org/2000/svg" viewBox="0 0 1801 2046">
  <title>hand1</title>
  <g>
    <g>
      <path d="M1532.7,1866.27a22,22,0,0,0-.13-2.3c-1.44-12.54-12.3-22.12-23.92-27.06s-24.38-6.47-36.37-10.4c-17.8-5.83-33.76-16.89-52.07-20.79-10.73-2.29-21.81-2-32.76-1.46a654.14,654.14,0,0,0-73.89,8l8.65,29.23c23.46,12.11,64.63,30.81,107.09,38C1475.59,1887.33,1514.26,1874.38,1532.7,1866.27Z" fill="#979797"/>
      <path d="M1429.3,1879.5c-42.46-7.19-83.63-25.89-107.09-38l4.59,15.5s17.08,25.67,31.31,33.34c19.39,10.45,42.26,11.73,64.28,12.47,22.91.77,46.23,1.15,68.28-5.12a116.07,116.07,0,0,0,32.45-14.94,25.79,25.79,0,0,0,5.84-4.86,17.92,17.92,0,0,0,3.74-11.62C1514.26,1874.38,1475.59,1887.33,1429.3,1879.5Z" fill="#838383"/>
    </g>
    <circle cx="1284.8" cy="1764" r="20.5" fill="#040706"/>
    <path d="M1322.91,1859.27a179.73,179.73,0,0,0,15.53,20,72.21,72.21,0,0,0,35.25,22.18c16.67,4.8,34.26,5.43,51.49,6,18.35.58,36.83.69,55-2.65,16.93-3.11,34.44-9.67,48.21-20.22,12.52-9.59,10.28-26.79,1.17-37.94-10.45-12.8-26.77-16.95-42.11-20.65a148.49,148.49,0,0,1-25.54-8.3c-7.64-3.38-15.08-7.2-22.78-10.43a95,95,0,0,0-28.43-7.4c-11-1-22-.2-33,.53-21.88,1.44-43.68,4-65.32,7.59-2.37.4-3.77,3.4-3.14,5.54q6.62,22.37,13.24,44.73c1.64,5.54,10.33,3.18,8.68-2.4q-6.62-22.36-13.24-44.72l-3.14,5.53q26.43-4.35,53.16-6.56c16.95-1.37,35.15-3.58,51.92.2,15,3.38,28.38,11.45,42.48,17.3,14.67,6.1,31,7.28,45.4,13.84,10.76,4.9,26.2,18.32,19,31.79-3.34,6.24-13,10.29-19.08,13.26a111.67,111.67,0,0,1-23.54,8.31c-16.23,3.81-33,4.21-49.6,3.89-16.07-.31-32.47-.49-48.31-3.51-8.63-1.65-17.25-4.13-25-8.27-5.45-2.91-9.94-7.13-14.15-11.6a156.79,156.79,0,0,1-16.32-20.53C1327.48,1849.94,1319.68,1854.44,1322.91,1859.27Z" fill="#040706"/>
    <path d="M1467.94,1826.16c-17.87,20.36-20.68,51.36-6.18,74.39,3.07,4.89,10.86.38,7.77-4.54-12.27-19.48-10.49-46.1,4.77-63.49,3.81-4.34-2.53-10.73-6.36-6.36Z" fill="#040706"/>
    <g>
      <path d="M1251.8,1812c-.82-5.9-.2-12.71-5.81-14.73l1.42,6c-17.85-8.46-51.76-26.79-69.61-35.26,1.57,17.23,3.75,32.63,8,49.54l69.77,4.69A27.23,27.23,0,0,1,1251.8,1812Z" fill="#979797"/>
      <path d="M1260.76,1828.17a22.07,22.07,0,0,1-5.2-5.94l-69.77-4.69c1.17,4.68,2.49,9.47,4,14.46-17,26-2,54-3,65,22.1-5.53,34.06-29.5,38-37.94,8-17.09,28.54-8.89,41-23.06C1262.25,1838.06,1264,1830.67,1260.76,1828.17Z" fill="#838383"/>
    </g>
    <circle cx="1490.3" cy="1850.5" r="7.5" fill="#040706"/>
    <path d="M1249.68,1799.38c-23.48-11.19-46.12-24.08-69.61-35.27-2.77-1.32-7.11.19-6.77,3.89,2,22.14,5.74,43.88,12.16,65.2l.45-3.47c-7.39,11.77-9.83,25.27-8.28,39a162.27,162.27,0,0,0,3,16.66c.83,3.79,2,7.7,1.71,11.62-.18,3,3,5.06,5.69,4.34,18.12-4.88,30.71-20.13,38.89-36.27,1.56-3.09,2.78-6.44,5.36-8.85,3.29-3.08,7.77-4.25,12-5.31,9.22-2.28,18-4.5,24.72-11.73,3.68-4-.91-9-5.45-7.07q5.07,4,4.18,1.3a7.54,7.54,0,0,1-.2-.82,9.21,9.21,0,0,0-.53-2.34,11.88,11.88,0,0,0-2.37-4.6c-3.3-3.7-6.26-6.39-7.71-11.39-2.16-7.42-.11-17-8.63-20.87-5.24-2.38-9.82,5.37-4.55,7.77,4.08,1.85,3.13,8.25,3.74,12a31.2,31.2,0,0,0,6.16,14.06c1.27,1.62,3.37,3,4.44,4.63.86,1.35.7,3.45,1.33,4.94,1.66,3.9,5,4.64,8.68,3.06l-5.45-7.07c-6.48,7-15.41,7.75-24.07,10.29-8.29,2.44-14.33,6.94-18.15,14.79-7.31,15-17.83,30.19-34.8,34.76l5.7,4.34c.45-7.53-2.49-15.31-3.81-22.64-2-10.94-2.13-22.39,2.27-32.79,1.17-2.76,3.64-5.51,4.38-8.37.64-2.5-1-5.56-1.63-7.92q-2.7-9.54-4.76-19.25a333.51,333.51,0,0,1-5.45-38l-6.77,3.89c23.48,11.18,46.12,24.07,69.61,35.26,5.2,2.48,9.77-5.28,4.54-7.77Z" fill="#040706"/>
    <g>
      <path d="M1388.23,1876.93l-17.88,12.8c-4.83,3.46-10,7.49-11.16,13.32a1.58,1.58,0,0,0,.13,1.23,1.66,1.66,0,0,0,1.1.48l8.76,1.48c7.93,1.34,16.58,2.56,23.58-1.39,4.17-2.35,7.23-6.33,9.31-10.64a71.4,71.4,0,0,0,4.42-13.63" fill="#979797"/>
      <path d="M1386.72,1874.34c-6.58,4.71-13.26,9.32-19.74,14.16a36.63,36.63,0,0,0-7.54,7.06,18.28,18.28,0,0,0-2.45,4.38c-.67,1.68-1.31,3.87-.4,5.58,1.08,2,3.21,2.17,5.22,2.51l6.09,1a96.68,96.68,0,0,0,11.11,1.42c7.27.37,14.48-1.29,19.82-6.48,6.17-6,8.52-14.52,10.55-22.61.94-3.74-4.84-5.34-5.79-1.59-1.54,6.13-3.08,12.6-7,17.72-3.56,4.65-8.67,6.84-14.44,7-6.38.18-12.73-1.26-19-2.31a9.24,9.24,0,0,0-2.25-.39c.39.68.78,1.36,1.18,2,0-.25.1-.49.16-.73s.17-.6.27-.9a12.18,12.18,0,0,1,1.87-3.33,29.37,29.37,0,0,1,5.62-5.21c6.48-4.84,13.16-9.45,19.74-14.16a3.08,3.08,0,0,0,1.07-4.1,3,3,0,0,0-4.1-1.08Z" fill="#040706"/>
    </g>
    <path d="M1529,1865.88a72.7,72.7,0,0,0-17.53,5.36,3,3,0,0,0-1.07,4.1,3.09,3.09,0,0,0,4.1,1.08c.8-.36.79-.35,1.6-.68s1.36-.54,2-.79c1.33-.49,2.67-.93,4-1.34a69.38,69.38,0,0,1,8.42-1.94,3,3,0,0,0,2.09-3.69,3.08,3.08,0,0,0-3.69-2.1Z" fill="#040706"/>
    <path d="M1392.07,1841.33h-.82c-.66-.46-.84-.55-.56-.29.12.13.13.14,0,0s-.08-.09,0,.06a1.88,1.88,0,0,1,.33.82,26.62,26.62,0,0,1,.62,2.81,14.89,14.89,0,0,1,.11,1.64c0,.3,0,.6,0,.89,0,0-.06.54,0,.26a4.72,4.72,0,0,1-.9,2.34c-1.34,1.7-3.49,2.81-5.3,4.07l-6.66,4.63a3.08,3.08,0,0,0-1.08,4.1,3,3,0,0,0,4.11,1.08l8.64-6c2.77-1.92,5.36-3.8,6.57-7.09,1.08-3,.67-6.27,0-9.25-.77-3.32-2.76-6.64-6.67-5.87a3,3,0,0,0-2.09,3.69,3.06,3.06,0,0,0,3.69,2.1Z" fill="#040706"/>
    <path d="M1374.48,1825.3q.45.14.15,0c-.19-.1-.15-.07.12.07-.06-.17-.25-.21,0,0,.48.46-.11-.35.2.26l.34.62c.15.3-.1-.35,0,.16.07.21.14.41.2.62.13.46.22.92.31,1.39,0-.27,0-.36,0,0s0,.51,0,.77a11.11,11.11,0,0,1,0,1.29c0,.08-.08.79,0,.37s0,.29-.06.37a13.23,13.23,0,0,1-.34,1.38c-.06.21-.13.42-.2.62s-.27.74-.13.37-.13.29-.16.35-.19.39-.29.58c-.23.42-.47.83-.74,1.23,0,.06-.45.63-.22.33s-.25.3-.25.3a11.25,11.25,0,0,1-.89.94c-.15.15-.31.29-.47.43s-.43.35-.1.1a12,12,0,0,1-1.18.78l-.57.31c-.12.06-.83.36-.23.12a3.09,3.09,0,0,0-2.09,3.69c.39,1.42,2.18,2.71,3.69,2.1a16.43,16.43,0,0,0,9.75-11.15,16.18,16.18,0,0,0,.14-7.61c-.65-2.83-2.35-5.92-5.42-6.58a3,3,0,0,0-1.6,5.78Z" fill="#040706"/>
    <path d="M1357.31,1834c.56.31-.38-.44,0,0l-.24-.3c.12.23.13.23,0,0s-.09-.23,0,0l.05.2c.18.59,0-.6,0,0,0,.19,0,.37,0,.55s.09.65,0,0a3.36,3.36,0,0,1-.24,1.12,25.19,25.19,0,0,1-.92,3c0,.06-.3.75-.16.42s-.17.35-.19.41c-.22.46-.46.92-.72,1.36s-.51.77-.76,1.16.22-.23-.13.17c-.17.2-.35.41-.54.61s-.62.6-.94.88c-.62.53.47-.29-.22.16-.19.11-.36.23-.55.35s-.37.21-.56.31-.84.38-.22.13a10.23,10.23,0,0,1-1.22.4l-.62.13c-.35.08.5,0-.08,0l-.76,0c-.17,0-.92-.11-.22,0a3.07,3.07,0,0,0-3.69,2.1c-.33,1.43.43,3.43,2.09,3.69a12.19,12.19,0,0,0,8.2-1.53,15.6,15.6,0,0,0,5.54-5.78,23.37,23.37,0,0,0,2.66-7.24c.5-2.78.16-6-2.58-7.48a3,3,0,1,0-3,5.18Z" fill="#040706"/>
    <path d="M1366.78,1854.12l-.34.17h-1.6c-.37-.07-.67-.51-.92-.75.15.26.17.29.08.08s-.07-.17,0,0c.08.41.24.82.34,1.23s.22.93.31,1.4c0,.21.07.42.1.63-.06-.44,0,.23,0,.31a15,15,0,0,1,0,2.68c0,.21,0,.42,0,.63.06-.46-.06.2-.07.28a11.64,11.64,0,0,1-.35,1.32c0,.16-.12.32-.17.48.09-.27.13-.28,0,0a11.17,11.17,0,0,1-.56,1c-.09.14-.19.28-.28.43-.22.37.43-.48-.07.1-.23.25-.45.5-.7.74s-.32.28-.47.42c-.31.28.37-.22,0,0s-.64.39-1,.57-.22.09,0,0l-.47.17a7.45,7.45,0,0,1-1.23.25c-1.56.21-2.55,2.3-2.1,3.69a3.1,3.1,0,0,0,3.69,2.1c4.79-.65,8.49-5.1,9.42-9.65a20.09,20.09,0,0,0-.18-8.35,9.83,9.83,0,0,0-1.35-3.74,3.9,3.9,0,0,0-5.2-1.37,3,3,0,1,0,3,5.18Z" fill="#040706"/>
    <path d="M1199.64,1805.65c15.3,2.52,30.63,5.41,46.15,6.18a3,3,0,0,0,0-6c-15-.75-29.78-3.53-44.55-6a3.08,3.08,0,0,0-3.69,2.09,3,3,0,0,0,2.09,3.69Z" fill="#040706"/>
    <path d="M1219.8,1822.08a102.24,102.24,0,0,0,28.23-3.43c3.73-1,2.15-6.78-1.59-5.78a96.59,96.59,0,0,1-26.64,3.21c-3.87-.07-3.87,5.93,0,6Z" fill="#040706"/>
    <path d="M1250.09,1829.36l4-1a3.05,3.05,0,0,0,1.79-1.38,2.25,2.25,0,0,0,.36-1.12,2.2,2.2,0,0,0-.06-1.19,3,3,0,0,0-1.38-1.79,3.15,3.15,0,0,0-2.31-.31l-4,1a3.08,3.08,0,0,0-1.79,1.37,2.28,2.28,0,0,0-.36,1.12,2.23,2.23,0,0,0,.06,1.2,3,3,0,0,0,1.38,1.79,3.19,3.19,0,0,0,2.31.3Z" fill="#040706"/>
    <path d="M1333.72,1824.58c0,.05.42.54.16.15s.06.1.12.18a9.34,9.34,0,0,1,.5.87c.07.14.14.6.1.19s0,.08.06.2a8.64,8.64,0,0,1,.25,1c0,.11.13.7,0,.2s0,.13,0,.2c0,.33,0,.67,0,1,0,.11-.06.7,0,.2s0,.12,0,.19a9.5,9.5,0,0,1-.28,1c-.14.39,0-.09.08-.18a3.06,3.06,0,0,0-.26.51,6.41,6.41,0,0,0-.52.8c0-.12.39-.46.12-.15-.13.14-.25.29-.39.43s-.42.39-.63.58.53-.36.08,0c-.13.09-.26.18-.4.26s-.56.31-.84.47.62-.22.11,0l-.46.15a8.42,8.42,0,0,1-1,.24,3,3,0,0,0-2.1,3.69,3.09,3.09,0,0,0,3.69,2.1,11,11,0,0,0,5.9-18.35,3,3,0,0,0-4.24,0,3.07,3.07,0,0,0,0,4.24Z" fill="#040706"/>
    <path d="M1406.25,1822.85c.12,0,.69.07.19,0s0,0,.07,0l.46.13c.4.12-.09,0-.18-.09a3.25,3.25,0,0,0,.75.43c.33.17-.42-.37-.14-.12l.36.32.28.29c.07.07.43.52.14.15s0,0,.06.09.18.28.27.43l.19.35c0,.09.31.62.09.19s0,0,0,.11.1.31.14.48l.09.38c.1.45,0-.13,0-.15.12.08,0,1,0,1.13s0,.41,0,.62c0,.37,0,.17,0,0a3.34,3.34,0,0,1-.23,1.11c-.1.37-.21.73-.34,1.09l-.22.6c-.15.42.2-.41,0,0-.36.73-.71,1.45-1.12,2.15a3,3,0,1,0,5.18,3c2-3.5,3.58-7.84,2.31-11.88a9.31,9.31,0,0,0-8.39-6.8,3,3,0,0,0,0,6Z" fill="#040706"/>
    <path d="M1409.82,1855.44q.29.4.54.84l.21.4.12.25q.13.32-.12-.3a4.07,4.07,0,0,0,.29.85c.08.29.15.59.21.88s-.08.51,0-.08a2.22,2.22,0,0,0,0,.45,8.51,8.51,0,0,1,0,1,5.64,5.64,0,0,0-.06.91c.07-.47.09-.58,0-.35s0,.18,0,.27l-.09.45c-.07.3-.15.6-.24.89,0,.14-.09.29-.14.43-.11.33-.33.47,0,0-.37.49-.57,1.15-.92,1.67-.06.1-.24.25-.26.37.27-.34.33-.43.19-.25l-.17.21c-.2.23-.41.44-.63.65l-.34.3c-.41.37,0-.07.12-.07-.2,0-.74.49-.93.59a3,3,0,0,0,3,5.18c6.21-3.53,8.47-12.66,4.26-18.55a3.07,3.07,0,0,0-4.11-1.08c-1.26.82-2.05,2.74-1.07,4.11Z" fill="#040706"/>
    <path d="M1443.37,1836.55c-7.67,11.91-4.13,26.51.44,38.83a3.08,3.08,0,0,0,3.69,2.09,3,3,0,0,0,2.09-3.69c-4-10.76-7.8-23.69-1-34.2a3,3,0,1,0-5.18-3Z" fill="#040706"/>
    <path d="M1446.58,1852.76a24.83,24.83,0,0,1-.22,7.2,34.23,34.23,0,0,0-.28,7.43,28,28,0,0,0,4.91,13.42,3.08,3.08,0,0,0,4.1,1.08,3,3,0,0,0,1.08-4.11,22,22,0,0,1-4.18-11.65c-.24-5.05,1.28-9.91.38-15a3,3,0,0,0-3.69-2.1,3.06,3.06,0,0,0-2.1,3.69Z" fill="#040706"/>
    <path d="M1423.77,1871c0,.69,0,1.37-.06,2,0,.17,0,.35,0,.52,0,0-.1.78,0,.36s0,.17,0,.24l-.09.5a22.89,22.89,0,0,1-1.19,4.07c-.1.27-.11.25,0,0l-.21.47c-.15.31-.3.62-.46.92-.31.61-.66,1.2-1,1.78-.19.29-.38.57-.58.85,0,.06-.46.62-.22.31s-.13.16-.17.2c-.46.57-1,1.1-1.46,1.62a3,3,0,0,0,4.24,4.24,25.43,25.43,0,0,0,7.35-18.12,3,3,0,0,0-6,0Z" fill="#040706"/>
    <path d="M1425.28,1824.43c.32,0,.19,0-.37-.09.29.09.18,0-.34-.15.45.23-.68-.47-.06,0-.31-.41-.38-.48-.21-.22a2,2,0,0,1,.12.21c.32.62-.17-.6,0-.06s.26,1,.34,1.5c0,.2.23.84,0,.05a4.92,4.92,0,0,1,.09.86,19.23,19.23,0,0,1,0,3.22,4.64,4.64,0,0,1-.07.64c.06-.45.06-.5,0-.16,0,.14,0,.28-.07.42-.11.56-.24,1.12-.39,1.67a3,3,0,0,0,5.78,1.6,21.39,21.39,0,0,0,.64-8.46,12.33,12.33,0,0,0-1.17-4.38,4.75,4.75,0,0,0-4.28-2.64,3.06,3.06,0,0,0-3,3,3,3,0,0,0,3,3Z" fill="#040706"/>
  </g>
</svg>
