<svg id="Hat2" xmlns="http://www.w3.org/2000/svg" viewBox="0 0 1801 2046">
  <title>hat1</title>
  <g id="Hat1">
    <g>
      <g>
        <path d="M1097.5,510.86c8.57,1.36,17.22,7.16,24.06,12.42,9.44,7.25,18.29,16.3,24,26.88-1,5.08-2.72,10.25-6.6,13.89s-9.43,5-14.51,6.34a133.67,133.67,0,0,1-33.37,4.24c-22.21,0-52.44-15.3-72.17-25.72,7.76-7.67,15.5-15.36,23.41-22.87,4.15-3.93,8.45-7.45,14-9.07,3.4-1,6.92-1.7,10.39-2.42,8.58-1.78,17.37-3.56,26.14-4A22.6,22.6,0,0,1,1097.5,510.86Z" fill="#313c51"/>
        <path d="M1031.63,485.36c17.37,4.2,35,9.26,51,17.28l-2.83.43a211.89,211.89,0,0,0-25.59,5.14c-12.31,3.46-20.91,14-29.72,22.63l-18.2,17.83c-4.91,4.82-9.89,10.76-16.27,13.67-7.48,3.42-13.85-1.16-19.88-5.31-5.56-3.81-11.24-7.43-17.08-10.8A254.12,254.12,0,0,0,916,528.66c-24.28-9.17-50.34-14.42-76.26-12.82,17-20.11,47-28,71.61-33.07,23.23-4.75,47.66-7.63,71.42-6.69,1.73.07,3.16.19,4.52.36,2.85.35,5.41.92,9.72,1.71C1008.58,480.29,1020.15,482.6,1031.63,485.36Z" fill="#4d5b79"/>
        <path d="M928.64,418.83c20.85,10.45,43.46,26.07,53.29,48.16-6-.28-12.07,0-18,.32a375.26,375.26,0,0,0-39.58,4C896,475.72,865,483,842.08,501.22c-6.4,5.08-10.47,10.86-16,16.1l-.7.11a3.57,3.57,0,0,0-3.24,3.41L796,543.47l-10.2,8.79c-4.84-21.21-10.22-42.62-10.75-64.44-.29-11.83-.47-24.73,1.57-36.41A36.81,36.81,0,0,1,783,437a86.33,86.33,0,0,1,5.21-7.36,3.51,3.51,0,0,0,2.57-.63L807,416.61a4.93,4.93,0,0,0,2.16-4.57,70,70,0,0,0,6.57-2.84c11.73-5.81,23.6-9.56,36.88-9.46,14.51.1,29.52,3.34,43.55,6.87A160,160,0,0,1,928.64,418.83Zm-30.83,7.26c5.36-2,3-10.74-2.39-8.68-9.35,3.55-19.33,3.65-29,5.66-10.84,2.24-21.39,6.36-31.91,9.76-16.66,5.4-35.82,9.65-46.48,24.81-3.34,4.75,4.46,9.25,7.77,4.54,4.88-6.93,12.63-10.88,20.38-13.79,8.63-3.25,17.52-5.84,26.29-8.68,9.24-3,18.48-6.52,28-8.3C879.67,429.71,889,429.44,897.81,426.09Z" fill="#4d5b79"/>
        <path d="M820.78,419.19c18.37-11.93,56.35-12.92,72.35-2.92-11.47-6.7-51,14-75,16C790.21,434.59,804.73,429.6,820.78,419.19Z" fill="#909eb9"/>
        <path d="M1029.13,510.27c14.49-7.55,3.08-2.81,17.58-10.36-21.85-4.61-50.71-10.31-72.41-4.49C975.47,497.25,1029.2,510.23,1029.13,510.27Z" fill="#909eb9"/>
        <path d="M779.61,419.77c-14,3.44-27.39,8.46-38.79,17.45a107,107,0,0,0-25.24,29.55c-14.54,24.46-20.48,52.69-25.86,80.36,12.2.29,24.42-1.37,36.59.47,13.36,2,26,7.54,39.49,9a50.05,50.05,0,0,0,9.16.23c.83-.06,1.71-.13,2.58-.24-5.67-25.24-11.91-50.52-11.55-76.56.1-7.12.48-14.23.91-21.34.37-6,1-12,3.42-17.6s5.92-10.29,9.57-15c2.66-3.43,5.3-6.56,9-8.46C785.8,418.32,782.71,419,779.61,419.77Zm-75,123c-3.29-.47-6-2.69-6-6a6,6,0,0,1,6-6,6.19,6.19,0,0,1,6,6C711.11,542.94,708,543.24,704.63,542.77Zm8.65-54.9a118.24,118.24,0,0,1,41.12-20.78c5.6-1.54,8,7.14,2.4,8.68a107,107,0,0,0-37.16,18.47C715.12,497.75,708.71,491.42,713.28,487.87Zm18.85,55.9a8.5,8.5,0,1,1,8.5-8.5A8.5,8.5,0,0,1,732.13,543.77Zm25.5,5a6,6,0,1,1,6-6A6,6,0,0,1,757.63,548.77Z" fill="#313c51" stroke="#040706" stroke-miterlimit="10" stroke-width="5"/>
        <path d="M788,457.64c-3.34,4.75,4.46,9.25,7.77,4.54,4.88-6.93,12.63-10.88,20.38-13.79,8.63-3.25,17.52-5.84,26.29-8.68,9.24-3,18.48-6.52,28-8.3,9.17-1.7,18.5-2,27.31-5.32,5.36-2,3-10.74-2.39-8.68-9.35,3.55-19.33,3.65-29,5.66-10.84,2.24-21.39,6.36-31.91,9.76C817.83,438.23,798.67,442.48,788,457.64Z" fill="#040706"/>
        <path d="M719.64,494.24a107,107,0,0,1,37.16-18.47c5.57-1.54,3.2-10.22-2.4-8.68a118.24,118.24,0,0,0-41.12,20.78C708.71,491.42,715.12,497.75,719.64,494.24Z" fill="#040706"/>
        <path d="M683.75,555.82c12.64,1.1,25.32-1.13,37.94.18,12.9,1.33,25,6.19,37.59,8.84,9.43,2,19.78,2.18,28.14-2.61,5.88-3.36,10.47-8.75,15.62-13.07,5.7-4.8,11.32-9.7,17-14.56,3.44-3,7.27-5.82,10.79-8.93,1.32-1.18,7-.79,8.78-.92q5.2-.36,10.41-.31a129.51,129.51,0,0,1,17.72,1.21,226.4,226.4,0,0,1,99.12,40.08,41.19,41.19,0,0,0,10.79,5.8c12.83,4.27,23.07-4.72,31.6-13.06l3-3a4.23,4.23,0,0,0,.42.25c22.61,12,58,28.71,83.55,27.76,15.42-.58,33.23-2.22,46.09-11.89,6-4.53,12.24-12.51,12.62-20.4.44-9-8.57-18-14.37-24q-1.87-1.89-3.8-3.73a89.08,89.08,0,0,0-33.22-20.44,27.23,27.23,0,0,0-3.33-.87c-17.23-11.18-37.14-17.93-56.86-23.19-16.71-4.46-34.1-8.65-51.32-11-8.3-22.45-27.86-39.1-48-51a190,190,0,0,0-85.51-25.7c-11.87-.57-24,.69-35.21,4.77-3.65,1.32-7,3.15-10.51,4.79a3.68,3.68,0,0,0-.06-.57c-.87-4-8.81-5.76-17.71-3.83s-15.42,6.77-14.54,10.82a4.3,4.3,0,0,0,1.94,2.61c-12.83,2.92-25.56,6.61-37,13.31-11.78,6.93-21.7,16.54-29.89,27.42-21.26,28.23-28.62,63.51-35.21,97.49C678.4,550.49,679.53,555.45,683.75,555.82Zm413.75-45,.41.07-12,22.64c-.9,1.7,1.69,3.22,2.6,1.51l12.39-23.45c.61.18,1.21.37,1.82.58l-3.35,8.55c-.71,1.8,2.19,2.57,2.89.79l3.24-8.26a79,79,0,0,1,16,10c9.44,7.25,18.29,16.3,24,26.88-1,5.08-2.72,10.25-6.6,13.89s-9.43,5-14.51,6.34a133.67,133.67,0,0,1-33.37,4.24c-22.21,0-52.44-15.3-72.17-25.72,7.76-7.67,15.5-15.36,23.41-22.87,4.15-3.93,8.45-7.45,14-9.07,2-.58,4-1.06,6.05-1.51a79.26,79.26,0,0,1-18.36,19c-1.54,1.14,0,3.74,1.51,2.59a83.42,83.42,0,0,0,21-22.44l.14,0,4.94-1a121.11,121.11,0,0,1-27.58,37.69c-1.42,1.31.7,3.43,2.12,2.12A123.12,123.12,0,0,0,1074.3,515a1.57,1.57,0,0,0-.41-1.87c4.24-.82,8.52-1.54,12.81-2q-4.34,10.45-8.68,20.93c-.74,1.78,2.16,2.56,2.89.8q4.58-11,9.14-22c.94-.07,1.88-.14,2.82-.18A22.6,22.6,0,0,1,1097.5,510.86ZM987.25,476.44c2.85.35,5.41.92,9.72,1.71,11.61,2.14,23.18,4.45,34.66,7.21,17.37,4.2,35,9.26,51,17.28l-2.83.43a211.89,211.89,0,0,0-25.59,5.14c-12.31,3.46-20.91,14-29.72,22.63l-18.2,17.83c-4.91,4.82-9.89,10.76-16.27,13.67-7.48,3.42-13.85-1.16-19.88-5.31q-5.19-3.56-10.52-6.86l30.17-22.66c1.53-1.15,0-3.75-1.51-2.59l-31.39,23.57c-1.27-.76-2.55-1.52-3.83-2.26q-7.38-4.26-15-8a131.44,131.44,0,0,1,40.58-29.18c1.75-.81.23-3.39-1.52-2.59a133.64,133.64,0,0,0-41.89,30.39c-6.32-3-12.76-5.74-19.29-8.2q-2.22-.84-4.44-1.63a64.6,64.6,0,0,1,41.62-23.1c1.89-.24,1.92-3.24,0-3A67.93,67.93,0,0,0,908.5,526a207.43,207.43,0,0,0-23.19-6.43,171.73,171.73,0,0,1,40-23.37c1.75-.73,1-3.63-.8-2.89a177,177,0,0,0-43,25.47,165.92,165.92,0,0,0-41.77-2.94c17-20.11,47-28,71.61-33.07,23.23-4.75,47.66-7.63,71.42-6.69C984.46,476.15,985.89,476.27,987.25,476.44Zm-91.11-69.83a160,160,0,0,1,32.5,12.22c20.85,10.45,43.46,26.07,53.29,48.16-6-.28-12.07,0-18,.32a375.26,375.26,0,0,0-39.58,4C896,475.72,865,483,842.08,501.22c-6.4,5.08-10.47,10.86-16,16.1l-.7.11a3.57,3.57,0,0,0-3.24,3.41L796,543.47l-10.2,8.79c-4.84-21.21-10.22-42.62-10.75-64.44-.34-13.75-1.4-28.23,3.37-41.39a42.3,42.3,0,0,1,10.86-16.56c5.2-4.84,12.46-7.19,17-12.71a40,40,0,0,1,9.26-8.25C838.39,394.29,871.64,400.42,896.14,406.61ZM715.58,466.77a107,107,0,0,1,25.24-29.55c11.4-9,24.82-14,38.79-17.45,3.1-.76,6.19-1.45,9.28-2.14-3.7,1.9-6.34,5-9,8.46-3.65,4.73-7.19,9.51-9.57,15s-3.05,11.55-3.42,17.6c-.43,7.11-.81,14.22-.91,21.34-.36,26,5.88,51.32,11.55,76.56-.87.11-1.75.18-2.58.24a50.05,50.05,0,0,1-9.16-.23c-13.46-1.48-26.13-7-39.49-9-12.17-1.84-24.39-.18-36.59-.47C695.1,519.46,701,491.23,715.58,466.77Z" fill="#040706"/>
        <path d="M818.82,485.07a57.75,57.75,0,0,0-16.76,10.79c-1.35-4.16-2.69-8.32-4-12.49,0,0,0-.07,0-.11a1,1,0,0,0,0-.1c2.81-8.05,9.62-14.31,17.48-17.37,1.78-.69,1-3.59-.79-2.89-8.91,3.47-16.4,10.33-19.58,19.47a1.35,1.35,0,0,0,0,.93,1.4,1.4,0,0,0,0,.86c1.46,4.69,3,9.37,4.48,14-1.09,1.13-2.13,2.3-3.1,3.5-1.19,1.5.92,3.63,2.13,2.13.64-.81,1.32-1.6,2-2.37,1.64,5.07,3.28,10.14,4.87,15.24.57,1.83,3.47,1,2.89-.8-1.75-5.64-3.58-11.26-5.4-16.88A53.85,53.85,0,0,1,819.62,488C821.38,487.23,820.61,484.33,818.82,485.07Z" fill="#040706"/>
        <path d="M848.54,451.44c-.93-1.69-3.52-.18-2.59,1.51a86.77,86.77,0,0,1,7.85,19.53,2.4,2.4,0,0,0-.24.22c-2.45,2.88-4.92,5.75-7.38,8.62-1.28,1.49-2.58,3.62-4.13,4.82-3.09,2.41-6.08,1.54-7.26-2-2.77-8.31-3.64-17.83-5.35-26.42-.38-1.89-3.27-1.09-2.89.8l4.14,20.85c.76,3.79,1.31,9.13,5,11.43,3,1.9,5.89.27,8.07-2.05,3.82-4.06,7.34-8.45,10.94-12.72.48,2.17.91,4.37,1.23,6.59.28,1.91,3.17,1.1,2.89-.79A89.07,89.07,0,0,0,848.54,451.44Z" fill="#040706"/>
        <path d="M891.56,461.7c-3.1,3.51-8.37,10.16-13.76,9.67-4-.35-5.73-5.07-6.71-8.34-1.1-3.65-2.39-8.34-1.84-12.12a15.75,15.75,0,0,1,4.39-8.47c1.82-1.68,3.22-1.9,5.54-1.11,2,.66,4.25,2,4,4.44-.25,1.91,2.76,1.89,3,0,.8-6.34-8.85-9.84-13.38-6.55-6.64,4.82-7.06,12.78-5.66,20,1,5,2.67,12.23,8,14.52,7.18,3.1,14.57-5.34,18.64-9.92C895,462.39,892.85,460.26,891.56,461.7Z" fill="#040706"/>
        <path d="M914.31,461.77a39.71,39.71,0,0,1,1.87-14.94l24.09,10.94c1.75.79,3.27-1.79,1.52-2.59L917.21,444a39.79,39.79,0,0,1,8.36-12.59c1.4-1.42-.64-3.27-2.12-2.12a26.51,26.51,0,0,0-9.7,15,1.63,1.63,0,0,0,0,.39,40.92,40.92,0,0,0-1.91,7.35,96.34,96.34,0,0,1-2.14-21.8,1.5,1.5,0,0,0-3,0,99.34,99.34,0,0,0,4.69,31.88C911.86,463.71,914.42,463.54,914.31,461.77Z" fill="#040706"/>
      </g>
      <g>
        <path d="M808.11,589.07c4.73.25,8.32,4,11.06,7.49,3.1,4,5.87,8.05,10.23,10.77,2.18,1.36,4.52,2.41,6.75,3.68a39.73,39.73,0,0,1,6.26,4.53,84.76,84.76,0,0,1,11.19,11c3.48,4.37,6,10.06,4.67,15.71-.43,1.88,2.46,2.69,2.89.8,2.65-11.58-6.57-20.51-14.32-27.55a66.5,66.5,0,0,0-6.42-5.31,69.93,69.93,0,0,0-7.29-4.16,24.5,24.5,0,0,1-6.46-4.79c-1.82-2-3.35-4.17-5-6.28-3.4-4.39-7.72-8.56-13.57-8.87-1.93-.1-1.93,2.9,0,3Z" fill="#4f4f4f"/>
        <path d="M857.41,579.14A165.7,165.7,0,0,0,840.6,605.2a239.37,239.37,0,0,0-12.35,29.1c-2,5.68-4,11.41-5.85,17.14-.61,1.84,2.29,2.62,2.89.8,6.49-19.64,13.37-39.24,24.37-56.88a159.76,159.76,0,0,1,9.87-14.1c1.18-1.5-.93-3.64-2.12-2.12Z" fill="#4f4f4f"/>
      </g>
    </g>
  </g>
</svg>
