<svg id="Hat3" xmlns="http://www.w3.org/2000/svg" viewBox="0 0 1801 2046">
  <title>hat3</title>
  <g>
    <g>
      <path d="M746.38,518.09c3.86,0,3.87-6,0-6s-3.86,6,0,6Z" fill="#040706"/>
      <path d="M736.38,510.59c3.86,0,3.87-6,0-6s-3.86,6,0,6Z" fill="#040706"/>
      <path d="M714.88,536.09c3.86,0,3.87-6,0-6s-3.86,6,0,6Z" fill="#040706"/>
      <path d="M703.88,555.09c3.86,0,3.87-6,0-6s-3.86,6,0,6Z" fill="#040706"/>
      <path d="M717.88,557.09c3.86,0,3.87-6,0-6s-3.86,6,0,6Z" fill="#040706"/>
      <path d="M748.88,546.09c3.86,0,3.87-6,0-6s-3.86,6,0,6Z" fill="#040706"/>
      <path d="M742.88,525.59c3.86,0,3.87-6,0-6s-3.86,6,0,6Z" fill="#040706"/>
      <path d="M766.38,536.09c3.86,0,3.87-6,0-6s-3.86,6,0,6Z" fill="#040706"/>
      <path d="M779.88,528.59c3.86,0,3.87-6,0-6s-3.86,6,0,6Z" fill="#040706"/>
      <path d="M718.88,568.59c3.86,0,3.87-6,0-6s-3.86,6,0,6Z" fill="#040706"/>
      <path d="M716.88,589.09c3.86,0,3.87-6,0-6s-3.86,6,0,6Z" fill="#040706"/>
      <path d="M718.38,614.09c3.86,0,3.87-6,0-6s-3.86,6,0,6Z" fill="#040706"/>
      <path d="M727.88,631.59c3.86,0,3.87-6,0-6s-3.86,6,0,6Z" fill="#040706"/>
      <path d="M705.38,614.09c3.86,0,3.87-6,0-6s-3.86,6,0,6Z" fill="#040706"/>
      <path d="M695.88,616.09c3.86,0,3.87-6,0-6s-3.86,6,0,6Z" fill="#040706"/>
      <path d="M697.88,581.09c3.86,0,3.87-6,0-6s-3.86,6,0,6Z" fill="#040706"/>
      <path d="M687.88,590.09c3.86,0,3.87-6,0-6s-3.86,6,0,6Z" fill="#040706"/>
      <path d="M709.88,566.59c3.86,0,3.87-6,0-6s-3.86,6,0,6Z" fill="#040706"/>
      <path d="M735.38,568.59c3.86,0,3.87-6,0-6s-3.86,6,0,6Z" fill="#040706"/>
      <path d="M730.88,523.09c3.86,0,3.87-6,0-6s-3.86,6,0,6Z" fill="#040706"/>
      <path d="M759.38,526.59c3.86,0,3.87-6,0-6s-3.86,6,0,6Z" fill="#040706"/>
      <g id="_Группа_" data-name="&lt;Группа&gt;">
        <g>
          <path d="M914.39,438.05l-18.9,66.24a2.8,2.8,0,0,0,0,1.75,82,82,0,0,0-10.31,3.69q8-37.19,16-74.36c.1-.07.63-1,1.06-1.65l4.27-6.42Z" fill="#4f4f4f"/>
          <path d="M928.88,420l8.31,11.78Q933.82,448,929.86,464c-2,8.28-4.15,16.55-6.68,24.7-1.3,4.22-2.74,11.27-5.92,14.24a2.76,2.76,0,0,0-.9,1.59,38.85,38.85,0,0,0-14.73.07L921.22,436Q925,428,928.88,420Z" fill="#434242"/>
          <path d="M943,433.18l16.85-7.53c-1.82,9.2-3.9,18.35-6.14,27.46-4.17,17-8.32,35.32-16.9,50.73-1.31,2.35-2.86,5.24-5.12,6.84-1.58,1.12-2.19,1.22-3.69-.21l-.24-.21a22.3,22.3,0,0,0-5.57-3.76c3.2-3.54,4.6-9.4,6-13.69,2.69-8.27,4.87-16.72,7-25.16Q939.4,450.51,943,433.18Z" fill="#4f4f4f"/>
          <path d="M929.18,411.2a224.42,224.42,0,0,0-23.68-7,228.56,228.56,0,0,1,41.39,12.4c3.19,1.29,6.38,2.63,9.5,4.1l-15,6.7Q936.19,420,931,412.58a3.47,3.47,0,0,0-.68-.7A2.94,2.94,0,0,0,929.18,411.2Z" fill="#4f4f4f"/>
          <path d="M924.24,415.82q-3.71,7.74-7.41,15.48c-2.48-3.38-5-6.76-7.44-10.14,0,0,0,0,0,0a2.77,2.77,0,0,0-.88-1.17,84.46,84.46,0,0,0-25.92-14.39c3.43.57,6.82,1.21,10.13,1.89A255,255,0,0,1,924.24,415.82Z" fill="#434242"/>
          <path d="M897.26,429.84c-21.71-13.47-46.47-22.53-71.38-21.24,1.15-.26,2.3-.51,3.46-.73a95.74,95.74,0,0,1,48.18,2.73,97.5,97.5,0,0,1,19.9,9c1.65,1,3.27,2,4.83,3.12C900.58,425,898.71,427.39,897.26,429.84Z" fill="#4f4f4f"/>
          <path d="M894.88,435.41c-1.26,4.3-1.9,8.94-2.88,13.25Q886.06,474.8,880.13,501c-.53,2.31-1,4.63-1.58,6.95-4.84-4.77-11.15-8.52-16.75-11.39-25.63-13.15-56.2-15.24-84.47-14.13-6.45.25-12.91.71-19.34,1.33-3.49.33-7,.72-10.47,1.15-3,.37-7.2.27-9.94,1.34a23.72,23.72,0,0,0-4.13,2.17c.74-1.46,1.49-2.88,2.19-4.16a179.76,179.76,0,0,1,20.92-30.89A136.5,136.5,0,0,1,767.3,442c18.52-17.33,41.76-28.86,68-27.71C856.75,415.26,876.89,424.1,894.88,435.41Z" fill="#4f4f4f"/>
          <path d="M963.77,417.67a3,3,0,0,1,3,3.72c-.92,4.93-1.95,9.85-3,14.75-4.17,19.36-8.76,38.91-15.82,57.44-2.89,7.6-12.36,32.44-24.18,21.13,2.81,2.64,7.06-1.59,4.24-4.24,1.5,1.43,2.11,1.33,3.69.21,2.26-1.6,3.81-4.49,5.12-6.84,8.58-15.41,12.73-33.74,16.9-50.73,2.24-9.11,4.32-18.26,6.14-27.46l5.54-2.47-.57-.44c1.33-1.26,1.64-3.62-.43-4.74Z" fill="#040706"/>
          <path d="M965.38,501.59c3.87,0,3.86,6,0,6S961.52,501.59,965.38,501.59Z" fill="#040706"/>
          <path d="M961,419.79l3.83,2.95a2.84,2.84,0,0,1-3.45.44l-.93-.49C960.63,421.72,960.81,420.76,961,419.79Z" fill="#040706"/>
          <path d="M961.37,423.18a2.84,2.84,0,0,0,3.45-.44l.57.44-5.54,2.47c.2-1,.4-2,.59-3Z" fill="#040706"/>
          <path d="M964.39,418c2.07,1.12,1.76,3.48.43,4.74L961,419.79c-.18,1-.36,1.93-.55,2.9q-2-1.05-4.05-2l6-2.67a3.7,3.7,0,0,1,1.4-.33Z" fill="#040706"/>
          <path d="M957.38,501.09c3.87,0,3.86,6,0,6S953.52,501.09,957.38,501.09Z" fill="#040706"/>
          <path d="M950.88,493.59c3.87,0,3.86,6,0,6S947,493.59,950.88,493.59Z" fill="#040706"/>
          <path d="M959.85,425.65,943,433.18l.27-1.29a2.94,2.94,0,0,0-.46-2.35l.16,0-1.56-2.21,15-6.7q2.05,1,4.05,2C960.25,423.67,960.05,424.66,959.85,425.65Z" fill="#040706"/>
          <path d="M942.81,429.54a2.94,2.94,0,0,1,.46,2.35l-.27,1.29-1.11.5a3.11,3.11,0,0,1-4.1-1.08l-.6-.85.3-1.46a2.54,2.54,0,0,1,2.13-2.13l-.75.34Z" fill="#040706"/>
          <path d="M941.41,427.37l1.56,2.21-.16,0a3.42,3.42,0,0,0-3.17-1.38Z" fill="#040706"/>
          <path d="M942.81,429.54l-3.94-1,.75-.34h0A3.42,3.42,0,0,1,942.81,429.54Z" fill="#040706"/>
          <path d="M937.79,432.6a3.11,3.11,0,0,0,4.1,1.08l1.11-.5q-3.59,17.31-7.85,34.47c-2.1,8.44-4.28,16.89-7,25.16-1.39,4.29-2.79,10.15-6,13.69a24.81,24.81,0,0,0-5.83-1.94,2.76,2.76,0,0,1,.9-1.59c3.18-3,4.62-10,5.92-14.24,2.53-8.15,4.65-16.42,6.68-24.7q3.93-16.08,7.33-32.28Z" fill="#040706"/>
          <path d="M931,415.6h-.07a3.26,3.26,0,0,0-.61-3.72,3.47,3.47,0,0,1,.68.7q5.22,7.38,10.44,14.79l-1.77.79h0a2.54,2.54,0,0,0-2.13,2.13l-.3,1.46L928.88,420Z" fill="#040706"/>
          <path d="M931,415.6,928.88,420l-2.39-3.37,1.09.38a2.51,2.51,0,0,0,3.32-1.38Z" fill="#040706"/>
          <path d="M925.79,415.6h5.11a2.51,2.51,0,0,1-3.32,1.38l-1.09-.38C926.26,416.27,926,415.93,925.79,415.6Z" fill="#040706"/>
          <path d="M928,510.47c2.82,2.65-1.43,6.88-4.24,4.24s1.22-6.67,4-4.45Z" fill="#040706"/>
          <path d="M925.79,415.6c.24.33.47.67.7,1q-1.12-.41-2.25-.78l1.55-3.24c.88-1.86,3.12-1.78,4.5-.7a3.26,3.26,0,0,1,.61,3.72Z" fill="#040706"/>
          <path d="M922.19,506.5a9.28,9.28,0,0,1-.69.71c-2.29,2.14-5.53-.26-5.14-2.65A24.81,24.81,0,0,1,922.19,506.5Z" fill="#040706"/>
          <path d="M921.27,435.81c.73-2.57-1.8-4.12-3.78-3.61l-.66-.9q3.72-7.74,7.41-15.48,1.13.38,2.25.78l2.39,3.37q-3.84,8-7.66,16C921.24,435.93,921.25,435.87,921.27,435.81Z" fill="#040706"/>
          <path d="M920,435.58l-2.48-3.38c2-.51,4.51,1,3.78,3.61,0,.06,0,.12,0,.18L920,438.6c-1.07,2.24-4,1.64-5.18,0l-.4-.55c.23-.82.46-1.65.7-2.47Z" fill="#040706"/>
          <path d="M917.49,432.2l2.48,3.38h-4.88l.39-1.37a1.61,1.61,0,0,1,.12-.33c.07-.13.13-.26.19-.39A2.63,2.63,0,0,1,917.49,432.2Z" fill="#040706"/>
          <path d="M921.22,436l-19.59,68.64a62.24,62.24,0,0,0-6.12,1.41,2.8,2.8,0,0,1,0-1.75l18.9-66.24.4.55c1.2,1.64,4.11,2.24,5.18,0Z" fill="#040706"/>
          <path d="M916.83,431.3l.66.9a2.63,2.63,0,0,0-1.7,1.29C916.14,432.76,916.49,432,916.83,431.3Z" fill="#040706"/>
          <path d="M915.79,433.49c-.06.13-.12.26-.19.39A1.76,1.76,0,0,1,915.79,433.49Z" fill="#040706"/>
          <path d="M914.79,435.58l.81-1.7a1.61,1.61,0,0,0-.12.33l-.39,1.37Z" fill="#040706"/>
          <path d="M909,423.6h-.07a2.56,2.56,0,0,0,.49-2.44c2.49,3.38,5,6.76,7.44,10.14-.34.73-.69,1.46-1,2.19a1.76,1.76,0,0,0-.19.39l-.81,1.7h.3c-.24.82-.47,1.65-.7,2.47L906.5,427.3C907.32,426.07,908.15,424.84,909,423.6Z" fill="#040706"/>
          <path d="M909.39,421.16a2.56,2.56,0,0,1-.49,2.44h-5.11l.42.57c-.18-.14-.78-.6-1.58-1.16l-.38-.26c.54-.73,1.06-1.45,1.54-2.17a3,3,0,0,1,5.18,0l.41.56S909.38,421.16,909.39,421.16Z" fill="#040706"/>
          <path d="M909,423.6c-.82,1.24-1.65,2.47-2.47,3.7l-2.29-3.13,0,0a3.23,3.23,0,0,0,4.64-.61Z" fill="#040706"/>
          <path d="M903.79,423.6h5.11a3.23,3.23,0,0,1-4.64.61l0,0Z" fill="#040706"/>
          <path d="M902.23,433.72c-.43.64-1,1.58-1.06,1.65l.06-.28h0c0-.06,0-.13,0-.19a3.1,3.1,0,0,0-1.38-3.39c-.87-.56-1.75-1.12-2.63-1.66,1.45-2.45,3.32-4.81,5-7.09l.38.26c.8.56,1.4,1,1.58,1.16l2.29,3.13Z" fill="#040706"/>
          <path d="M901.63,504.63l-.36,1.26c-.87,3.06-4.95,2.52-5.76.15A62.24,62.24,0,0,1,901.63,504.63Z" fill="#040706"/>
          <path d="M901.2,435.18l0-.09-.06.28,0,0a.06.06,0,0,1,0,0A.5.5,0,0,1,901.2,435.18Z" fill="#040706"/>
          <path d="M901.2,435.18a.5.5,0,0,0,0,.13A.58.58,0,0,1,901.2,435.18Z" fill="#040706"/>
          <path d="M901.17,435.37q-8,37.17-16,74.36l-1,.44c5.59-24.44,11.41-48.85,16.65-73.37.1-.46.17-1,.31-1.45Z" fill="#040706"/>
          <path d="M901.23,435.08h0l0,.09a.58.58,0,0,0,0,.13.06.06,0,0,0,0,0c-.14.47-.21,1-.31,1.45-5.24,24.52-11.06,48.93-16.65,73.37-.88.4-1.74.79-2.57,1.19a30.82,30.82,0,0,0-2.32-2.69Q887.16,472.1,895,435.5c.62.39,1.24.78,1.85,1.18l-1.34-3.29a21.12,21.12,0,0,1,1.73-3.55c.88.54,1.76,1.1,2.63,1.66a3.1,3.1,0,0,1,1.38,3.39C901.26,435,901.24,435,901.23,435.08Z" fill="#040706"/>
          <path d="M895.53,433.39l1.34,3.29c-.61-.4-1.23-.79-1.85-1.18.11-.56.23-1.11.35-1.67v0C895.43,433.66,895.47,433.53,895.53,433.39Z" fill="#040706"/>
          <path d="M897.26,429.84a21.12,21.12,0,0,0-1.73,3.55l0-.1c0,.17-.07.34-.11.51v0c-.17.52-.34,1.05-.49,1.58-18-11.31-38.13-20.15-59.61-21.09-26.21-1.15-49.45,10.38-68,27.71l-.3-.32a141.34,141.34,0,0,1,39.48-27.64,2.4,2.4,0,0,0,2.2.05,108.88,108.88,0,0,1,17.2-5.52C850.79,407.31,875.55,416.37,897.26,429.84Z" fill="#040706"/>
          <path d="M895.49,433.29l0,.1c-.06.14-.1.27-.15.41C895.42,433.63,895.45,433.46,895.49,433.29Z" fill="#040706"/>
          <path d="M895.37,433.83c-.12.56-.24,1.11-.35,1.67l-.14-.09C895,434.88,895.2,434.35,895.37,433.83Z" fill="#040706"/>
          <path d="M927.76,510.26c-2.78-2.22-6.72,1.85-4,4.45-10.18-9.55-28.66-3.35-40.24,2.38a1.92,1.92,0,0,0,.21-.58.56.56,0,0,0,0-.12v0a2.66,2.66,0,0,0,.12-.56c.43-2,.87-4,1.3-6.08A82,82,0,0,1,895.51,506c.81,2.37,4.89,2.91,5.76-.15l.36-1.26a38.85,38.85,0,0,1,14.73-.07c-.39,2.39,2.85,4.79,5.14,2.65a9.28,9.28,0,0,0,.69-.71A22.3,22.3,0,0,1,927.76,510.26Z" fill="#040706"/>
          <path d="M883.47,514.08l-.13-.2c.28-1.24.57-2.48.85-3.71l1-.44c-.43,2-.87,4-1.3,6.08A2.89,2.89,0,0,0,883.47,514.08Z" fill="#040706"/>
          <path d="M884.19,510.17c-.28,1.23-.57,2.47-.85,3.71a23.37,23.37,0,0,0-1.72-2.52C882.45,511,883.31,510.57,884.19,510.17Z" fill="#040706"/>
          <path d="M883.78,516.37a5.59,5.59,0,0,1,.12-.56A2.66,2.66,0,0,1,883.78,516.37Z" fill="#040706"/>
          <path d="M883.78,516.37v0Z" fill="#040706"/>
          <path d="M883.39,517.16a2.69,2.69,0,0,0,.34-.65,1.92,1.92,0,0,1-.21.58Z" fill="#040706"/>
          <path d="M883.39,517.16l.13-.07a2.54,2.54,0,0,1-2.65,1.45A3.4,3.4,0,0,0,883.39,517.16Z" fill="#040706"/>
          <path d="M881.39,518.18c.64-.34,1.31-.68,2-1a3.4,3.4,0,0,1-2.52,1.38l-.35,0A3,3,0,0,0,881.39,518.18Z" fill="#040706"/>
          <path d="M883.34,513.88l-.57,2.51-4.4-3.39c1-.55,2.12-1.1,3.25-1.64A23.37,23.37,0,0,1,883.34,513.88Z" fill="#040706"/>
          <path d="M892,448.66c1-4.31,1.62-9,2.88-13.25l.14.09q-7.87,36.58-15.72,73.17c-.24-.26-.49-.52-.75-.77.53-2.32,1.05-4.64,1.58-6.95Q886.07,474.8,892,448.66Z" fill="#040706"/>
          <path d="M880.87,518.54a2.44,2.44,0,0,1-.54,0,.63.63,0,0,0,.19,0Z" fill="#040706"/>
          <path d="M879.3,508.67a30.82,30.82,0,0,1,2.32,2.69c-1.13.54-2.21,1.09-3.25,1.64Z" fill="#040706"/>
          <path d="M883.47,514.08a2.89,2.89,0,0,1,.43,1.73,5.59,5.59,0,0,0-.12.56v0a.56.56,0,0,1,0,.12,2.69,2.69,0,0,1-.34.65c-.69.34-1.36.68-2,1a3,3,0,0,1-.87.31,3.08,3.08,0,0,1-2.53-3.7c.13-.6.26-1.19.38-1.79l4.4,3.39.57-2.51Z" fill="#040706"/>
          <path d="M877,514.79l1.56-6.89c.26.25.51.51.75.77l-.93,4.33c-.12.6-.25,1.19-.38,1.79a3.08,3.08,0,0,0,2.53,3.7.63.63,0,0,1-.19,0,2.75,2.75,0,0,1-2-1.42,15,15,0,0,0-1.36-1.89A2,2,0,0,1,877,514.79Z" fill="#040706"/>
          <path d="M876.93,515.21a15,15,0,0,1,1.36,1.89,2.75,2.75,0,0,0,2,1.42A3,3,0,0,1,876.93,515.21Z" fill="#040706"/>
          <path d="M905.5,404.17a224.42,224.42,0,0,1,23.68,7,2.94,2.94,0,0,1,1.11.68c-1.38-1.08-3.62-1.16-4.5.7l-1.55,3.24a255,255,0,0,0-31.53-8.35c-3.31-.68-6.7-1.32-10.13-1.89a98.56,98.56,0,0,0-22.13-4.89q4.39-.24,8.83-.22A191.85,191.85,0,0,1,905.5,404.17Z" fill="#040706"/>
          <path d="M869.28,400.47q-4.44,0-8.83.22a110.58,110.58,0,0,0-32.69,1.46,2.87,2.87,0,0,1,.74-.38c20-7.24,43-4.52,63.39-.56q6.81,1.32,13.61,3A191.85,191.85,0,0,0,869.28,400.47Z" fill="#040706"/>
          <path d="M860.45,400.69a146.79,146.79,0,0,0-33.58,5.67,3.24,3.24,0,0,1,.89-4.21A110.58,110.58,0,0,1,860.45,400.69Z" fill="#040706"/>
          <path d="M844.88,503.09c3.87,0,3.86,6,0,6S841,503.09,844.88,503.09Z" fill="#040706"/>
          <path d="M882.58,405.58c-17.39-2.91-36-4-52.48,2a3.08,3.08,0,0,1-.79.18,2.44,2.44,0,0,1-2.44-1.37,146.79,146.79,0,0,1,33.58-5.67A98.56,98.56,0,0,1,882.58,405.58Z" fill="#040706"/>
          <path d="M877.52,410.6a95.74,95.74,0,0,0-48.18-2.73l0-.14a3.08,3.08,0,0,0,.79-.18c16.51-6,35.09-4.88,52.48-2A84.46,84.46,0,0,1,908.5,420a2.77,2.77,0,0,1,.88,1.17l-.41-.56a3,3,0,0,0-5.18,0c-.48.72-1,1.44-1.54,2.17-1.56-1.11-3.18-2.14-4.83-3.12A97.5,97.5,0,0,0,877.52,410.6Z" fill="#040706"/>
          <path d="M828.88,495.09c3.87,0,3.86,6,0,6S825,495.09,828.88,495.09Z" fill="#040706"/>
          <path d="M829.34,407.87c-1.16.22-2.31.47-3.46.73-2.73.13-5.46.4-8.19.79q4.53-1.68,9.18-3a2.44,2.44,0,0,0,2.44,1.37Z" fill="#040706"/>
          <path d="M826.88,503.59c3.87,0,3.86,6,0,6S823,503.59,826.88,503.59Z" fill="#040706"/>
          <path d="M827.76,402.15a3.24,3.24,0,0,0-.89,4.21q-4.65,1.35-9.18,3a87.13,87.13,0,0,0-12.51,2.78,3.27,3.27,0,0,1,1.9-3.84A108.29,108.29,0,0,1,827.76,402.15Z" fill="#040706"/>
          <path d="M817.69,409.39q-5.7,2.08-11.21,4.68a2.85,2.85,0,0,1-1.3-1.9A87.13,87.13,0,0,1,817.69,409.39Z" fill="#040706"/>
          <path d="M808.68,414.12a2.4,2.4,0,0,1-2.2-.05q5.5-2.6,11.21-4.68c2.73-.39,5.46-.66,8.19-.79A108.88,108.88,0,0,0,808.68,414.12Z" fill="#040706"/>
          <path d="M807.88,493.59c3.87,0,3.86,6,0,6S804,493.59,807.88,493.59Z" fill="#040706"/>
          <path d="M805.18,412.17a2.85,2.85,0,0,0,1.3,1.9A141.34,141.34,0,0,0,767,441.71c-2.38,2.35-5.87-.5-5-3.08a112.33,112.33,0,0,1,35-23.53C799.7,414,802.44,413,805.18,412.17Z" fill="#040706"/>
          <path d="M802.38,506.59c3.87,0,3.86,6,0,6S798.52,506.59,802.38,506.59Z" fill="#040706"/>
          <path d="M790.88,501.59c3.87,0,3.86,6,0,6S787,501.59,790.88,501.59Z" fill="#040706"/>
          <path d="M762.76,437.47a146.41,146.41,0,0,1,57.42-35.62c31.8-10.38,66.35-9,98.47-.81,15.38,3.9,31.07,9.11,45.12,16.63a3.7,3.7,0,0,0-1.4.33l-6,2.67c-3.12-1.47-6.31-2.81-9.5-4.1a228.56,228.56,0,0,0-41.39-12.4q-6.79-1.65-13.61-3c-20.44-4-43.36-6.68-63.39.56a2.87,2.87,0,0,0-.74.38,108.29,108.29,0,0,0-20.68,6.18,3.27,3.27,0,0,0-1.9,3.84c-2.74.83-5.48,1.8-8.2,2.93a112.33,112.33,0,0,0-35,23.53A2.92,2.92,0,0,1,762.76,437.47Z" fill="#040706"/>
          <path d="M785.38,491.59c3.87,0,3.86,6,0,6S781.52,491.59,785.38,491.59Z" fill="#040706"/>
          <path d="M767.88,507.09c3.87,0,3.86,6,0,6S764,507.09,767.88,507.09Z" fill="#040706"/>
          <path d="M762,438.63c-.89,2.58,2.6,5.43,5,3.08l.3.32a136.5,136.5,0,0,0-10.74,11.29,179.76,179.76,0,0,0-20.92,30.89c-.7,1.28-1.45,2.7-2.19,4.16-3.16,2-6.18,4.66-9.08,6.63l-.56-.23a159.15,159.15,0,0,1,9-17.73C740.69,463.23,750.41,449.86,762,438.63Z" fill="#040706"/>
          <path d="M760.88,489.59c3.87,0,3.86,6,0,6S757,489.59,760.88,489.59Z" fill="#040706"/>
          <path d="M733.45,488.37c-1.81,3.56-3.62,7.35-4.68,10l-4.4-3.39C727.27,493,730.29,490.39,733.45,488.37Z" fill="#040706"/>
          <path d="M876.93,515.21a43.28,43.28,0,0,0-3.72-3.79c-13.26-12.18-32.09-17.68-49.42-20.61s-35.14-3.16-52.67-2.13q-8.29.49-16.56,1.37c-4.72.5-11,.24-15.25,2s-8.17,5.55-11.92,8.1c-2.07,1.41-5.36-1-4.4-3.39.27-.68.54-1.35.82-2l.56.23,4.4,3.39c1.06-2.67,2.87-6.46,4.68-10a23.72,23.72,0,0,1,4.13-2.17c2.74-1.07,7-1,9.94-1.34,3.49-.43,7-.82,10.47-1.15,6.43-.62,12.89-1.08,19.34-1.33,28.27-1.11,58.84,1,84.47,14.13,5.6,2.87,11.91,6.62,16.75,11.39L877,514.79A2,2,0,0,0,876.93,515.21Z" fill="#040706"/>
        </g>
      </g>
      <path d="M743.88,638.59c3.86,0,3.87-6,0-6s-3.86,6,0,6Z" fill="#040706"/>
      <path d="M747.38,652.59c3.86,0,3.87-6,0-6s-3.86,6,0,6Z" fill="#040706"/>
      <path d="M730.38,601.59c3.86,0,3.87-6,0-6s-3.86,6,0,6Z" fill="#040706"/>
      <path d="M708.38,598.59c3.86,0,3.87-6,0-6s-3.86,6,0,6Z" fill="#040706"/>
      <path d="M765.83,474.41c13.72-3,27.22-7.46,41.24-9,11.36-1.22,23.14-.94,34.22,2a51.66,51.66,0,0,1,17.34,8c1.57,1.13,3.06-1.47,1.52-2.6-9.6-7-21.57-9.92-33.26-10.8-12.86-1-25.59.7-38.1,3.62-7.94,1.86-15.8,4.05-23.76,5.8-1.88.42-1.09,3.31.8,2.9Z" fill="#040706"/>
      <path d="M876.8,467.89c-6-9.56-16.21-15.32-26.89-18.32a97.12,97.12,0,0,0-15.32-2.79,86.05,86.05,0,0,0-16.44-.46c-5.77.46-11.68,1.64-16.68,4.69-1.64,1-.14,3.6,1.52,2.59,8.54-5.21,19.81-5,29.42-4.05,10,.94,20.17,2.91,29,7.92a36.08,36.08,0,0,1,12.85,11.94c1,1.63,3.63.12,2.59-1.52Z" fill="#040706"/>
      <path d="M868.42,440.78c-5.44-2.89-11-5.71-17-7.16a49.56,49.56,0,0,0-15.69-1c-11,.92-21.75,4.57-31.62,9.49A106,106,0,0,0,789,451.23c-1.55,1.13-.05,3.73,1.51,2.59A103.76,103.76,0,0,1,818,439.47c9.64-3.27,20.25-5.26,30.4-3.41,6.6,1.2,12.6,4.19,18.47,7.31,1.71.9,3.22-1.69,1.52-2.59Z" fill="#040706"/>
      <path d="M822.55,422.65a229.87,229.87,0,0,0-38.47,24.46q-5.12,4-10,8.31c-1.45,1.27.67,3.39,2.12,2.12a226.31,226.31,0,0,1,36.62-26.24c3.69-2.13,7.44-4.14,11.25-6.06,1.72-.87.21-3.46-1.52-2.59Z" fill="#040706"/>
      <path d="M732.05,587.75c3.86,0,3.87-6,0-6s-3.87,6,0,6Z" fill="#040706"/>
    </g>
    <g>
      <path d="M809.37,589.89c4.73.25,8.32,4,11.06,7.49,3.1,4,5.87,8,10.23,10.77,2.17,1.36,4.52,2.41,6.75,3.68a39.73,39.73,0,0,1,6.26,4.53,85.38,85.38,0,0,1,11.19,11c3.48,4.37,6,10.07,4.67,15.72-.43,1.88,2.46,2.68,2.89.8,2.65-11.59-6.57-20.51-14.32-27.56a67.74,67.74,0,0,0-6.42-5.31,69.93,69.93,0,0,0-7.29-4.16,24.28,24.28,0,0,1-6.46-4.79c-1.82-2-3.35-4.16-5-6.28-3.4-4.39-7.72-8.56-13.57-8.87-1.93-.1-1.93,2.9,0,3Z" fill="#4f4f4f"/>
      <path d="M858.67,580A165.07,165.07,0,0,0,841.86,606a240.2,240.2,0,0,0-12.36,29.09c-2,5.68-4,11.41-5.84,17.14-.61,1.84,2.29,2.63,2.89.8,6.48-19.64,13.36-39.24,24.36-56.88a162,162,0,0,1,9.88-14.1c1.17-1.5-.93-3.64-2.12-2.12Z" fill="#4f4f4f"/>
    </g>
  </g>
</svg>
