<svg id="Mask2" xmlns="http://www.w3.org/2000/svg" viewBox="0 0 1801 2046">
  <title>mask1</title>
  <g>
    <g>
      <path d="M809.8,588.24c4.74.25,8.33,4,11.07,7.5,3.1,4,5.87,8,10.23,10.76,2.17,1.36,4.52,2.42,6.75,3.68a40.38,40.38,0,0,1,6.26,4.53,85.45,85.45,0,0,1,11.19,11c3.48,4.37,6,10.06,4.67,15.71-.43,1.88,2.46,2.68,2.89.8,2.65-11.58-6.57-20.51-14.32-27.56a48.24,48.24,0,0,0-13.71-9.46,24.53,24.53,0,0,1-6.46-4.8c-1.82-2-3.35-4.16-5-6.27-3.4-4.4-7.72-8.57-13.58-8.88-1.92-.1-1.92,2.9,0,3Z" fill="#4f4f4f"/>
      <path d="M859.11,578.31a165.07,165.07,0,0,0-16.81,26.07,240.88,240.88,0,0,0-12.36,29.09c-2,5.68-4,11.41-5.84,17.14-.61,1.84,2.29,2.63,2.89.8,6.48-19.63,13.36-39.24,24.36-56.88a162,162,0,0,1,9.88-14.1c1.17-1.5-.93-3.64-2.12-2.12Z" fill="#4f4f4f"/>
    </g>
    <path d="M1008.3,668.12l.86.49-.93.22C1008.26,668.59,1008.28,668.36,1008.3,668.12Z" fill="#040706"/>
    <path d="M1008.23,668.83c0-.24,0-.47.07-.71l.86.49Z" fill="#040706"/>
    <path d="M858.32,569.94c6.49.11,13.33,2.15,19.47,4.57a25.74,25.74,0,0,1,7.85,4.93,32.12,32.12,0,0,1,6,7.8c3.9,6.94,5.46,14.92,6.7,22.69a105.92,105.92,0,0,1,1.6,21.25c-.33,7.75-2.21,15.36-6.8,21.75a3,3,0,0,0,1.08,4.11,3.07,3.07,0,0,0,4.1-1.08c9.3-13,8.43-29.93,6.22-44.92-2.26-15.39-6.67-33.81-22.21-41.07a68,68,0,0,0-11.54-4,52.77,52.77,0,0,0-12.48-2c-3.86-.06-3.86,5.94,0,6Z" fill="#040706"/>
    <path d="M899.11,656.44c-4.59,7.55,12.71-27,14-35.47s-1.26-18.53-7.76-37.78-20.5-19.75-29.5-21.75-17.5,5.5-17.5,5.5,26.9-.91,36.2,19.3S906.4,644.44,899.11,656.44Z" fill="#4d5b79" stroke="#040706" stroke-miterlimit="10" stroke-width="2"/>
    <path d="M817.82,630.44s-49,3-67,14c0,0,7-17,15-17s57-2,57-2Z" fill="#040706" opacity="0.16"/>
    <g>
      <path d="M990.37,731.37a89.29,89.29,0,0,1,26.24,50.17c1.2,7.38,3.56,20.33-1,27-5.69,8.31-14.4-2.07-17.49-7.82-3.66-6.81-5.09-14.57-7.73-21.84-3.59-9.91-8.94-21.14-16.55-28.44-2.29-2.2-28-11.27-34-11,0,0-16.5-5.5.5-11.5s37.61-22.22,37.61-22.22c13.88-2.62,27.27,6.38,37.16,16.47,10.26,10.47,18.91,22.91,22.91,37s2.93,30-4.9,42.43c-3.69,5.85-14.42,9.31-21.28,9.8" fill="#6f2667"/>
      <path d="M988.25,733.49a85.51,85.51,0,0,1,19.18,27.45,101.46,101.46,0,0,1,7.48,29.51,56.07,56.07,0,0,1,.37,7.55,20.35,20.35,0,0,1-1,6.49,8.51,8.51,0,0,1-1.11,2.29,6.63,6.63,0,0,1-1.22,1.37c.4-.33-.32.19-.42.25s-.67.24-.11.07l-.6.17c-.41.1.67.06-.05,0-.2,0-.41,0-.61,0-.46,0,.67.2-.07,0l-.61-.17c-.14,0-.69-.24-.15,0a7.21,7.21,0,0,1-.74-.36c-3.23-1.74-5.76-5-7.67-8.43-2.95-5.24-4.36-11.18-6.11-16.88-3.39-11-8.24-22.09-15.67-31a20.29,20.29,0,0,0-4.3-4.28,19.65,19.65,0,0,0-2.59-1.31c-3.19-1.44-6.46-2.67-9.75-3.84-6.75-2.4-13.83-5-21-5.8a8.17,8.17,0,0,0-1.4-.1c-.58.05.66.26.46.1a1,1,0,0,0-.26-.09,5,5,0,0,1-.93-.37c.79.56.28.12,0,0l-.86-.41c-.5-.26-1-.54-1.48-.85-.25-.16-.48-.33-.72-.49.79.54-.11-.12-.29-.3s-.52-.85-.15-.11c-.1-.19-.25-.44-.37-.63.36.54.23.56.14.25s-.05-.62,0,.32c0-.1,0-.61,0,0s0,0,.08-.18c-.28.75-.18.47-.09.27s.48-.52-.05,0c.27-.27.51-.53.79-.77-.42.36-.09.06,0,0l.74-.47a19.33,19.33,0,0,1,1.86-1c2.38-1.08,4.9-1.86,7.3-2.9a117.51,117.51,0,0,0,13.62-7.12A199.37,199.37,0,0,0,978.55,709l1.5-1.16-1.33.77c9.6-1.73,19,2.94,26.44,8.67a93.46,93.46,0,0,1,20.34,22.34c10.72,16.21,16.24,37.66,7.48,56a41.68,41.68,0,0,1-2,3.78,12.9,12.9,0,0,1-.91,1.4c.27-.35-.54.58-.69.72a18.23,18.23,0,0,1-5.14,3.48,34.23,34.23,0,0,1-6.32,2.32,32.84,32.84,0,0,1-6.06,1.1,3.08,3.08,0,0,0-3,3,3,3,0,0,0,3,3c7.26-.55,15-2.94,20.63-7.62,3-2.53,4.93-6.25,6.47-9.82a51.07,51.07,0,0,0,3.65-12.69c2.69-18.07-3.33-35.84-13.79-50.49a102.52,102.52,0,0,0-18-19.7c-6.94-5.72-15-10.43-24-11.59a28.37,28.37,0,0,0-6.38-.15c-1.67.15-3.3.25-4.65,1.3l.18-.14-.75.58L973,705.7c-5.17,3.8-10.5,7.39-16,10.69-3.35,2-6.77,3.91-10.29,5.61s-7.24,2.84-11,4.58c-2.77,1.3-5.92,3.45-6.11,6.82-.14,2.59,1.58,4.57,3.53,6a21.29,21.29,0,0,0,4.94,2.57,7.08,7.08,0,0,0,.91.34,7.69,7.69,0,0,0,1.59.12l.58,0c.75.06-.23,0,.1,0a110.86,110.86,0,0,1,15.28,4.13c2.76.92,5.5,1.88,8.22,2.92,1.17.45,2.34.91,3.49,1.39l-.23-.1.37.16.7.31c.42.18.83.37,1.24.57s1.1.71,1.67.93c.34.13-.62-.61-.34-.25s.66.64,1,1c.78.8,1.52,1.63,2.24,2.48a60.82,60.82,0,0,1,6.71,10.29,101.47,101.47,0,0,1,5.19,11.56c1.63,4.31,2.86,8.74,4.22,13.13,2.29,7.36,5.4,14.92,11.43,20,2.69,2.28,6,4.1,9.6,3.47,3.86-.67,6.34-4.12,7.69-7.53,2.75-6.94,1.49-15.23.38-22.39a103.78,103.78,0,0,0-6.1-23.32,93.67,93.67,0,0,0-13.08-22.7,86.67,86.67,0,0,0-8.45-9.31c-2.8-2.66-7,1.58-4.24,4.25Z" fill="#040706"/>
    </g>
    <g>
      <path d="M999.37,726.37a89.29,89.29,0,0,1,26.24,50.17c1.2,7.38,3.56,20.33-1,27-5.69,8.31-14.4-2.07-17.49-7.82-3.66-6.81-5.09-14.57-7.73-21.84-3.59-9.91-4.94-19.14-12.55-26.44-2.29-2.2-32.3-5.05-38.27-4.78l-36.23-12.72s20-1,37-7,37.61-22.22,37.61-22.22c13.88-2.62,27.27,6.38,37.16,16.47,10.26,10.47,18.91,22.91,22.91,37s2.93,30-4.9,42.43c-3.69,5.85-14.42,9.31-21.28,9.8" fill="#96247f"/>
      <path d="M997.25,728.49a85.42,85.42,0,0,1,18.85,26.71,87.15,87.15,0,0,1,5.24,15.38c.61,2.51,1.09,5,1.51,7.58.16,1,.33,2,.49,3,.18,1.18.31,2.12.43,3.06a64.2,64.2,0,0,1,.53,7.34c0,1.17,0,2.35-.13,3.53a18.62,18.62,0,0,1-.46,2.85c-.12.52-.27,1-.43,1.54-.09.25-.17.49-.27.73-.21.53.3-.59-.12.27a8.35,8.35,0,0,1-1.71,2.46,3.33,3.33,0,0,1-1.24.66c-.6.25.47.09-.17,0a2.66,2.66,0,0,0-.49,0c-.71.06.5.18-.19,0-.24-.07-.49-.15-.74-.21-.78-.19.3.16-.14,0-.21-.09-.41-.19-.62-.3-.41-.23-.82-.48-1.21-.75a15.25,15.25,0,0,1-1.94-1.68,24.19,24.19,0,0,1-3.7-4.63c-2.92-4.58-4.43-9.88-6-15-1.64-5.5-3.55-10.92-5.3-16.39-1.64-5.11-3.47-10.29-6.62-14.68-1.31-1.82-2.85-4-4.8-5.24a10,10,0,0,0-2.83-1,76.81,76.81,0,0,0-8.65-1.55c-7.37-1-14.8-1.79-22.23-2.23-1.33-.08-2.66-.15-4-.18-.43,0-.88,0-1.31,0-.87.05.41.21.21.08a6.65,6.65,0,0,0-1.32-.46l-2.62-.92-31.42-11-.77-.27c-.26,2-.53,3.93-.8,5.89A146.07,146.07,0,0,0,944,727.77c13.26-3.71,25.19-10.75,36.43-18.57,2.94-2,5.84-4.15,8.66-6.36l-1.33.77c9.6-1.73,19,2.94,26.44,8.67a93.46,93.46,0,0,1,20.34,22.34c10.72,16.21,16.24,37.66,7.48,56a41.68,41.68,0,0,1-2,3.78,12.9,12.9,0,0,1-.91,1.4c.27-.35-.54.58-.69.72a18.23,18.23,0,0,1-5.14,3.48,34.23,34.23,0,0,1-6.32,2.32,32.84,32.84,0,0,1-6.06,1.1,3.08,3.08,0,0,0-3,3,3,3,0,0,0,3,3A41.78,41.78,0,0,0,1032,807a29.25,29.25,0,0,0,10.4-6c3.13-3,5-7.43,6.54-11.42a53,53,0,0,0,3.09-13.72c1.9-19.2-6.33-37.47-18.11-52.17-5.87-7.31-12.62-14.16-20.51-19.29-7.65-5-17.6-8.73-26.85-6.65a4.25,4.25,0,0,0-1.79.89c-.59.46.58-.43.14-.1l-1.73,1.31q-3.21,2.4-6.51,4.67a162.24,162.24,0,0,1-20.25,12.15,96.75,96.75,0,0,1-24.82,7.82,148.44,148.44,0,0,1-18.27,2.39l-1,.06a3,3,0,0,0-.79,5.89L941,743.16l5.88,2.07a14,14,0,0,0,4.34.44c7.05.23,14.12,1,21.12,1.83l1.36.17.81.11c-.6-.08-.13,0,0,0l2.78.4c1.52.23,3,.48,4.55.79,1.06.22,2.09.5,3.14.8.73.22-.36-.18-.15-.07a2.31,2.31,0,0,1,.35.18c-.89-.68-.26-.17.18.27s1.12,1.18,1.63,1.81c3.3,4,5.06,8.95,6.63,13.83,1.78,5.52,3.71,11,5.36,16.55s3.36,11.44,6.5,16.45c2.3,3.69,5.43,7.58,9.39,9.58a9.7,9.7,0,0,0,6.73,1,10.2,10.2,0,0,0,5.81-4.59c2.64-4.09,3.05-9.41,2.93-14.14a107,107,0,0,0-1.69-14.39,94.75,94.75,0,0,0-4.12-16.24,93.19,93.19,0,0,0-17.23-29.78c-1.82-2.1-3.74-4.1-5.75-6-2.8-2.66-7,1.58-4.24,4.25Z" fill="#040706"/>
    </g>
    <path d="M912.82,619.44c3,46-20.71,59.19-45,62s-47.73-19.75-51-48,.72-61.19,25-64c-5,7-14.2,70.55,1,82C854.75,660.42,901.82,681.44,912.82,619.44Z" fill="#040706" opacity="0.16"/>
    <g>
      <ellipse cx="877.75" cy="611.74" rx="34.78" ry="51.5" transform="translate(-64.47 104.9) rotate(-6.6)" fill="#4d5b79" opacity="0.44"/>
      <path d="M909.16,608.11c1.66,15.83-.78,36.61-15.07,47.35-13.52,10.16-28.78,1.29-36.94-10.26-10.79-15.28-13.8-36.06-9.45-54,3.22-13.24,13.44-30.29,30.3-27.51,20.16,3.33,29.06,27.8,31.16,44.4.48,3.83,6.76,3.11,6.28-.73C913.12,589,904.05,566,884.13,559.09c-17.61-6.1-32.77,6.16-39.32,21.14-8.76,20.06-6.61,45.07,4.22,63.8,8.06,14,24.45,27.33,42.27,20,21.71-9,26.18-37.11,24.14-56.61C915,603.54,908.75,604.26,909.16,608.11Z" fill="#040706"/>
    </g>
    <g>
      <path d="M901.82,651.44s-6,19-34.91,17.93c-8.41-.32-22.14-1.17-34.09-21.93-5.89-10.25-10.29-20.51-12-32-1.31-8.82,4.21-16.06,5.62-25.17,1.1-7.08,7.26-22.15,15.86-23.86l22.79-4.54s-15.36,4.79-22,29.72,6.84,48.08,11.34,55.84S877.82,665.44,901.82,651.44Z" fill="#4d5b79"/>
      <path d="M898.93,650.64c0,.14-.1.27-.15.4-.23.65.17-.35.1-.21s-.2.46-.31.68a24.21,24.21,0,0,1-2.19,3.62c-.07.09-.58.76-.24.32s-.18.23-.27.33c-.33.4-.68.8-1,1.18a29.8,29.8,0,0,1-2.51,2.39l-.65.53.1-.08-.44.32c-.58.43-1.18.83-1.79,1.21a34.38,34.38,0,0,1-3.84,2l-.25.11-.39.16c-.34.13-.69.27-1,.39-.82.3-1.64.56-2.48.8a41.71,41.71,0,0,1-5.63,1.18l-.23,0-.7.08c-.54.06-1.08.1-1.62.14-1.2.09-2.41.14-3.61.15-1.57,0-3.13,0-4.69-.12-1.16-.06-2.32-.16-3.48-.29-.77-.09.55.09-.23,0l-1-.15q-1-.17-1.95-.39a33.46,33.46,0,0,1-4.1-1.24l-.94-.37c.59.24-.43-.21-.59-.28-.78-.37-1.55-.77-2.29-1.2a32.73,32.73,0,0,1-8.27-6.8,63.19,63.19,0,0,1-8.41-12.37,99.84,99.84,0,0,1-6.4-13.9,64.09,64.09,0,0,1-3.74-14.65c-.5-4.64,1.11-9,2.67-13.33.81-2.27,1.64-4.55,2.24-6.88.48-1.84.71-3.72,1.15-5.56a43.26,43.26,0,0,1,1.46-4.74c.14-.38.28-.76.43-1.14l.35-.85c.38-.88.79-1.74,1.22-2.59a25.15,25.15,0,0,1,6.12-8.36l.43-.36c-.42.33.05,0,.16-.1.34-.22.67-.44,1-.63s.61-.33.92-.47c-.58.25.51-.15.72-.2.43-.11.88-.19,1.31-.28l6.05-1.2,14.94-3,1-.19c-.53-1.93-1.07-3.86-1.6-5.79-4.59,1.45-8.76,4.94-11.95,8.41-8.54,9.29-13.21,22.31-14,34.78-.8,13,2.89,25.93,8.51,37.58a73.53,73.53,0,0,0,5.49,10,24.92,24.92,0,0,0,9.46,7.81c11.44,5.67,24.63,4.38,36-.73a59.7,59.7,0,0,0,5.51-2.84c3.34-1.93.32-7.12-3-5.18-5.75,3.32-12.33,5.85-18.79,6.39a38.8,38.8,0,0,1-7.94-.17,34,34,0,0,1-6.86-1.81L866,653c.61.25-.21-.1-.27-.13q-.72-.33-1.41-.69a29.58,29.58,0,0,1-2.76-1.65c-.32-.22-.63-.45-.94-.68.62.46-.44-.36-.6-.5a18.34,18.34,0,0,1-1.88-1.86c-.13-.14-.24-.29-.37-.43-.44-.48.38.57,0,0-.19-.29-.4-.56-.58-.85-.36-.59-.7-1.2-1-1.8-1-1.67-1.89-3.35-2.77-5.07a85.77,85.77,0,0,1-5.86-14,65.72,65.72,0,0,1-3.22-17.94,55,55,0,0,1,3.29-20.2,50.63,50.63,0,0,1,3.54-7.86c.56-1,1.15-2,1.78-3,.32-.49.65-1,1-1.45l.5-.69c.12-.14.23-.29.34-.44q-.29.38,0,0a38.54,38.54,0,0,1,4.42-4.7l1.08-.92.46-.36c.41-.35-.56.39.12-.09s1.24-.89,1.88-1.29a27.16,27.16,0,0,1,2.75-1.5c.84-.39-.76.3.15,0l.28-.1c3.71-1.17,2.17-6.54-1.6-5.79l-12.49,2.49L844,563a23.18,23.18,0,0,0-5.09,1.41c-3.5,1.59-6.19,4.7-8.31,7.82a47.24,47.24,0,0,0-5.3,10.82c-1.27,3.59-1.68,7.32-2.74,10.95-1.39,4.78-3.6,9.33-4.45,14.25-.94,5.47.16,10.87,1.58,16.16a92.48,92.48,0,0,0,5.89,15.62c4.33,9.09,9.63,18.28,17.7,24.55A36.46,36.46,0,0,0,861.69,672a55.34,55.34,0,0,0,21.74-1.48,34.27,34.27,0,0,0,15.71-9.4,24,24,0,0,0,5.43-8.49c0-.14.1-.27.15-.4a3,3,0,0,0-5.79-1.6Z" fill="#040706"/>
    </g>
    <g>
      <path d="M699.82,627.44c35.88,6.73,46,32,46,32s2-15,13-26,64-8,64-8-1.22-11-2-14,0-6,2-10c5.83-11.66-60.72,4.72-67,11a133.53,133.53,0,0,0-13,15s-32-29-60-11-21,31-21,31S683.82,624.44,699.82,627.44Z" fill="#4d5b79"/>
      <path d="M699,630.33a75.93,75.93,0,0,1,17.45,5.43,64.33,64.33,0,0,1,7,3.8c1,.64,2,1.3,3,2,.49.34,1,.7,1.46,1.06l.25.19.73.57a58.17,58.17,0,0,1,8.34,8.19l.73.9.35.45c-.34-.44-.19-.25,0,0q.66.88,1.29,1.8c.66,1,1.29,1.94,1.87,3,.44.76.86,1.54,1.25,2.33.26.53.57,1.34.11.2a3.13,3.13,0,0,0,2.89,2.2,3,3,0,0,0,2.9-2.2A37.27,37.27,0,0,1,750,654.8,46.17,46.17,0,0,1,755,643.18a39.81,39.81,0,0,1,4.77-6.43c.58-.62,1.17-1.21,1.8-1.78s-.53.32.12-.1c.28-.18.54-.37.82-.54a17.26,17.26,0,0,1,1.52-.84l.83-.4.34-.15c-.83.38,0,0,.18-.06a39.18,39.18,0,0,1,4.22-1.37,80.1,80.1,0,0,1,10.08-2c-.68.1.58-.07.77-.09l1.32-.16,3-.31c1.9-.18,3.81-.32,5.71-.44,7-.44,14.1-.55,21.15-.45,3.74,0,7.48.13,11.21.34a3,3,0,0,0,3-3c-.47-4.26-1-8.52-1.69-12.75-.09-.47-.17-1-.27-1.42,0-.19-.08-.37-.13-.56l-.09-.41a1.79,1.79,0,0,1-.08-.39,9.36,9.36,0,0,1,.78-4.56c.67-1.8,1.9-3.42,1.84-5.41-.2-6.62-10.61-5.73-14.9-5.39a171,171,0,0,0-26.77,4.69,166.59,166.59,0,0,0-23.77,7.22c-2.4,1-5,2-6.94,3.77a91.63,91.63,0,0,0-8,8.63c-1.73,2-3.39,4.1-5,6.23l-.62.84,4.71-.61a72,72,0,0,0-10.82-7.87,65.63,65.63,0,0,0-25.68-9.53,41.7,41.7,0,0,0-15.3.81c-6,1.47-11.19,4.49-16.14,8-7.42,5.33-15.2,12.11-18.07,21.12-1.09,3.42-1.45,7.77.3,11.06a3,3,0,0,0,4.71.61,92.06,92.06,0,0,1,8.08-7.34c.62-.51,1.24-1,1.87-1.5.08-.06.45-.34.05,0l.45-.33c.37-.29.75-.57,1.13-.85,1.46-1.08,3-2.1,4.49-3.08s3.07-1.87,4.67-2.7q1.13-.59,2.28-1.11l.68-.3c.51-.22-.64.26.23-.09.45-.18.9-.36,1.35-.52a29.69,29.69,0,0,1,5.41-1.41c-.61.1.56,0,.8-.07.44,0,.87-.05,1.31-.05s1,0,1.43.05l.51,0-.16,0,.51.08a3.08,3.08,0,0,0,3.69-2.09,3,3,0,0,0-2.1-3.69c-7.65-1.37-15.22,1.69-21.72,5.52a93.93,93.93,0,0,0-16.17,12.31c-1,1-2.06,1.92-3,2.94l4.71.61c-.32-.62.29.89.09.21-.13-.46-.27-.91-.37-1.38a2,2,0,0,0-.07-.43c.36.78.06.64,0,.13s-.05-.81,0-1.21.05-.89.08-1.33-.16.81,0-.11c.06-.3.11-.6.18-.89.12-.54.27-1.07.44-1.6.11-.34.24-.68.37-1,0-.12.09-.23.14-.35-.33.85,0,0,.09-.19a26.73,26.73,0,0,1,2.54-4.32l.3-.43s.57-.75.18-.25c.29-.37.59-.73.89-1.09.76-.91,1.55-1.78,2.38-2.62a62.38,62.38,0,0,1,5.89-5.25c4.42-3.47,9.37-6.83,14.56-8.53a33.89,33.89,0,0,1,13.81-1.61l1.58.14c.32,0,.63.07.94.12-.48-.07.19,0,.3.05,1.18.19,2.36.41,3.52.68a55.19,55.19,0,0,1,6.43,1.91c.93.33,1.85.69,2.76,1.07l.36.15.66.29,1.68.78c1.74.83,3.44,1.74,5.12,2.7A83.6,83.6,0,0,1,738,627.3l.31.24c.43.32-.62-.49,0,0,.21.16.42.32.62.49l1,.8.85.74a3,3,0,0,0,4.71-.61c.21-.28.41-.56.62-.83s.19-.26.29-.38.49-.64.23-.31l.25-.32.63-.8q3.15-3.93,6.57-7.64c1.32-1.43,2.68-2.81,4-4.2.41-.42.06,0-.17.11a5.62,5.62,0,0,0,.5-.35,22.55,22.55,0,0,1,2.88-1.51l.87-.38c.62-.28-.55.22-.08,0l.6-.24c.72-.29,1.44-.57,2.17-.84,1.7-.63,3.41-1.21,5.14-1.77,4-1.31,8.16-2.47,12.29-3.53q6.64-1.72,13.39-3.08c2.17-.43,4.34-.84,6.52-1.2,1.06-.17,2.11-.34,3.17-.49l.77-.11h.08l1.49-.19a56.1,56.1,0,0,1,9.86-.5l1,.07.39,0c.46,0-.84-.15-.18,0,.5.1,1,.2,1.49.34s.46.36-.06-.05a2.26,2.26,0,0,0,.51.27c.54.22-.59-.58-.17-.14s-.32-.54-.13-.19c.31.53-.27-.85-.1-.25.11.38,0-1-.06-.27,0,.52.11-1,0-.25,0,.09-.08.18-.09.27,0,.26.4-.78.12-.3a17.63,17.63,0,0,0-2.5,11.29c.35,2.25.85,4.48,1.17,6.75l.12.85c-.08-.56,0,.32.06.48l.24,1.9c.13,1,.25,2,.37,3.06,0,.39.09.79.13,1.18l3-3a276.15,276.15,0,0,0-30.72,0,124.4,124.4,0,0,0-22.75,2.93,38.24,38.24,0,0,0-8.8,3.17c-3.57,1.89-6.16,5.07-8.5,8.28a52.54,52.54,0,0,0-7.38,14.79,39.58,39.58,0,0,0-1.74,7h5.79a42.75,42.75,0,0,0-6.27-10.19,62.7,62.7,0,0,0-21-17,79.1,79.1,0,0,0-20.8-7,3.07,3.07,0,0,0-3.69,2.09A3,3,0,0,0,699,630.33Z" fill="#040706"/>
    </g>
    <g>
      <ellipse cx="763.03" cy="711.54" rx="26.2" ry="18.5" transform="translate(-76.4 1331.1) rotate(-79.43)" fill="#4d5b79"/>
      <path d="M779.77,714.53c-1.61,8.36-6.46,18.07-15.18,20.85a12.23,12.23,0,0,1-10.4-1.28,18,18,0,0,1-6.86-9.34c-3.23-9.2-1.6-20.15,3.65-28.3,4-6.26,11.88-12,19.5-8.26,9.28,4.51,10.92,17.31,9.29,26.33-.35,1.89,2.54,2.7,2.89.8,1.75-9.67.23-21.72-8.1-28.11a15.18,15.18,0,0,0-12.23-2.85,20.71,20.71,0,0,0-11.2,7c-7.23,8.22-10,20.42-7.6,31,1.92,8.65,8.57,17.51,18.38,16.6,11.64-1.08,18.75-13.25,20.75-23.63C783,713.44,780.13,712.64,779.77,714.53Z" fill="#040706"/>
    </g>
    <g>
      <ellipse cx="756.32" cy="709.94" rx="24.5" ry="18.5" transform="translate(-80.31 1323.2) rotate(-79.43)" fill="#4d5b79"/>
      <path d="M771.62,712.54a28.52,28.52,0,0,1-5.09,11.87,17.7,17.7,0,0,1-8.71,6.35,14.57,14.57,0,0,1-1.45.35l-.59.1c.51-.07,0,0-.08,0a15.62,15.62,0,0,1-3-.05c.51.07-.51-.11-.69-.15a12.27,12.27,0,0,1-1.43-.42l-.56-.2c.42.17,0,0-.1,0-.45-.21-.89-.44-1.31-.69a13.83,13.83,0,0,1-3.91-3.54c.2.26-.36-.52-.46-.67-.3-.45-.58-.9-.85-1.37a21.61,21.61,0,0,1-1.17-2.44,28,28,0,0,1,3.21-25.21,21.78,21.78,0,0,1,3.93-4.33,15.1,15.1,0,0,1,2-1.41c.36-.21.72-.42,1.09-.61l.69-.34.42-.19c-.21.08-.21.09,0,0a15.93,15.93,0,0,1,2.59-.75l.59-.11c.54-.09-.7,0,.23,0,.5,0,1-.06,1.48,0a11.9,11.9,0,0,1,1.34.08c.55.07-.67-.16.25,0l.59.12c.39.09.78.2,1.16.32l.7.25c.2.08.19.07,0,0l.4.18a12.62,12.62,0,0,1,4.49,3.46,20.14,20.14,0,0,1,3,5,26.6,26.6,0,0,1,1.27,14.44,3.08,3.08,0,0,0,2.09,3.69,3,3,0,0,0,3.69-2.1c1.83-10.11-.36-21.88-9.11-28.25a17.42,17.42,0,0,0-13.17-3,21.7,21.7,0,0,0-11.91,6.77c-7.49,8-10.33,20.19-7.64,30.74,2.31,9.07,9.77,17.49,19.83,16.81,11.93-.8,19.9-12.22,22-23.1a3.07,3.07,0,0,0-2.09-3.69A3,3,0,0,0,771.62,712.54Z" fill="#040706"/>
    </g>
    <g>
      <path d="M676.82,717.44s18,48,66,24c27.79-13.89,19-20,19-20-5,1-14.82,2.94-16-7-1.2-10.13-5,21-39,12C706.82,726.44,695.82,732.44,676.82,717.44Z" fill="#4d5b79"/>
      <path d="M673.93,718.24a51,51,0,0,0,4.31,8.58,57,57,0,0,0,13.82,15.64,41.84,41.84,0,0,0,24.3,8.68c12.84.37,25.23-5,36-11.5,4.24-2.56,8.54-5.49,11.55-9.5a9.32,9.32,0,0,0,2-7.39,6.46,6.46,0,0,0-2-3.38c-1.62-1.46-3.78-.62-5.71-.32-.11,0-.81.11-.39.06s-.41,0-.53.06c-.55.05-1.11.09-1.66.11s-1,0-1.56,0l-.84-.07c.62.06,0,0-.25-.07a12.53,12.53,0,0,1-1.45-.41c.57.18,0,0-.22-.12s-.46-.28-.69-.41c-.41-.23.25.28-.22-.19-.19-.2-.39-.39-.57-.6.34.38,0,0-.12-.2a8.54,8.54,0,0,1-.51-.94c.2.44-.06-.22-.11-.36-.11-.35-.19-.71-.27-1.07-.12-.51-.12-.74-.24-1.54a7.64,7.64,0,0,0-.21-1.06,3.58,3.58,0,0,0-6.33-1.34c-.67.76-1.24,1.62-1.84,2.45l-.93,1.28-.23.3c-.38.51.4-.5.1-.13s-.4.51-.61.76a31.58,31.58,0,0,1-2.9,3.11c-.6.57-1.23,1.09-1.87,1.62.67-.55-.28.19-.52.36s-.74.51-1.12.75a26.22,26.22,0,0,1-2.38,1.32l-.66.32c-.1,0-.72.31-.33.15s-.34.13-.45.17l-.73.27a28.91,28.91,0,0,1-3.15.89q-.79.16-1.59.3c-.23,0-.75.1-.22,0l-1,.11a36.88,36.88,0,0,1-7.93-.16l-.18,0-.5-.08-1.18-.19c-.81-.15-1.63-.32-2.44-.5-1.45-.34-2.72-.79-4.17-.13-.68.32.79-.26.15,0-.36.12-.72.25-1.09.35-.55.15-1.12.25-1.68.35s.42,0,.21,0l-.55.06c-.4,0-.8.06-1.2.07a24.28,24.28,0,0,1-2.69-.1l-.77-.09c.54.07.17,0-.13,0-.58-.1-1.15-.21-1.73-.34a32.1,32.1,0,0,1-7.58-2.79,57,57,0,0,1-9.26-5.95,3.1,3.1,0,0,0-4.24,0c-1,1-1.28,3.24,0,4.24,5.85,4.58,12.4,8.72,19.74,10.35a24.13,24.13,0,0,0,11.58,0,11.26,11.26,0,0,0,2.32-.9l-2.31.3c7.07,1.85,14.69,2.56,21.8.52a30,30,0,0,0,12.86-7.65,42.41,42.41,0,0,0,3.73-4.41c.42-.56.83-1.13,1.24-1.69l.45-.63c.3-.41.8-.72,0-.09a2.94,2.94,0,0,0,.36-.42c.32-.41.35-.2-.25.14.16-.09.34-.12-.2.06a1.74,1.74,0,0,1-1,.23,2.73,2.73,0,0,1-2.28-1.27c.19.32-.24-.94-.12-.27,0,.22.1.44.15.65s0,.75,0-.27a9.9,9.9,0,0,0,.18,1.36,12.19,12.19,0,0,0,.72,2.71c1.63,4.1,5.1,6.34,9.39,6.86a30.32,30.32,0,0,0,9.53-.83l-2.31-.3c-.8-.56-.6-.38-.13,0s-.47-.79-.27-.34a2.63,2.63,0,0,0,.2.33c.35.51-.12-.42-.11-.29a2.39,2.39,0,0,0,.14.43c.25.66,0-.49,0-.24s0,.4,0,.59a2.11,2.11,0,0,0,0,.25c0,.3.2-.83,0-.4-.08.23-.12.49-.19.72s-.13.25-.13.36.36-.74.09-.23c-.14.27-.27.54-.43.8a9.85,9.85,0,0,1-.57.86c-.25.36-.17.17.08-.09-.16.17-.3.36-.45.54a23.34,23.34,0,0,1-2.11,2.11c-.4.36-.8.7-1.22,1l-.54.43-.72.54a78.83,78.83,0,0,1-8.91,5.48,69.36,69.36,0,0,1-18.91,7.35c-.64.14-1.29.26-1.94.37l-1,.16c-.49.08.43,0-.07,0l-.57.07c-1.3.15-2.61.24-3.91.27s-2.57,0-3.85-.07l-1.65-.15c-.24,0-.94-.12-.33,0l-1-.15a37.13,37.13,0,0,1-6.55-1.71l-1.38-.53c-.5-.19.42.19-.22-.09l-.82-.37c-.93-.43-1.84-.9-2.74-1.41s-1.79-1.06-2.65-1.63l-1.13-.79-.59-.43c-.22-.16-.74-.58-.22-.16a53.58,53.58,0,0,1-4.23-3.74,53,53,0,0,1-3.62-4c-.25-.3-.48-.61-.73-.91s.39.51,0,0l-.42-.56c-.48-.65-1-1.32-1.41-2a60,60,0,0,1-4-6.69c-.39-.75-.75-1.51-1.1-2.28-.16-.36-.51-1.46-.07-.14-.05-.16-.13-.32-.19-.47l-.06-.17a3.08,3.08,0,0,0-3.69-2.09A3,3,0,0,0,673.93,718.24Z" fill="#040706"/>
    </g>
    <g>
      <ellipse cx="745.32" cy="639.44" rx="12.5" ry="17" fill="#4d5b79"/>
      <path d="M754.82,639.44a18.62,18.62,0,0,1-1.84,8.22,12.7,12.7,0,0,1-2,2.92,8.12,8.12,0,0,1-2.73,2.15s-.9.39-.35.18c-.27.1-.55.19-.83.27s-.56.14-.84.2c-.84.19.5,0-.36,0a6.34,6.34,0,0,1-3.2-.51c.55.21-.32-.17-.35-.18-.26-.14-.52-.29-.77-.45s-.5-.32-.74-.5c.43.32-.34-.32-.34-.31a10.79,10.79,0,0,1-2.35-2.91,19.11,19.11,0,0,1-.95-16.4,12.16,12.16,0,0,1,4.38-5.56,6.42,6.42,0,0,1,2.79-1.1c.83-.19-.51,0,.36,0l.88,0s1,.1.36,0a7.11,7.11,0,0,1,1.13.25,9.05,9.05,0,0,1,2.79,1.51,11.31,11.31,0,0,1,2.59,3.11,18.11,18.11,0,0,1,2.33,9.12c0,3.86,6,3.87,6,0-.06-7.13-3.06-15.39-9.9-18.66s-13.87.05-17.68,6.08c-4.24,6.73-4.42,15.73-1.21,22.89,2.82,6.28,9.3,11.09,16.4,9.29,8.43-2.14,12.33-11.69,12.39-19.6C760.86,635.58,754.86,635.57,754.82,639.44Z" fill="#040706"/>
    </g>
    <ellipse cx="745.82" cy="639.44" rx="4" ry="5" fill="#040706"/>
    <path d="M808.94,601.56a58,58,0,0,0-2.15,16.88c0,1.93,3,1.94,3,0a54.91,54.91,0,0,1,2-16.08,1.5,1.5,0,0,0-2.89-.8Z" fill="#040706"/>
    <path d="M879.52,567.49a85.16,85.16,0,0,1-11.81,18.85c-.61.74.44,1.8,1.06,1.06a86.87,86.87,0,0,0,12.05-19.15c.4-.87-.9-1.64-1.3-.76Z" fill="#040706"/>
    <path d="M881,573.77l-15.52,24.17c-.53.81.77,1.57,1.29.76l15.52-24.17c.52-.81-.77-1.57-1.29-.76Z" fill="#040706"/>
    <path d="M879,608.56a105.61,105.61,0,0,0-15,23.91c-.4.87.89,1.64,1.29.76A104.3,104.3,0,0,1,880,609.62c.61-.74-.44-1.81-1.06-1.06Z" fill="#040706"/>
    <path d="M876.71,621.09a165.79,165.79,0,0,0-14,23c-.44.86.86,1.62,1.29.75a168,168,0,0,1,14-23c.57-.78-.73-1.53-1.29-.75Z" fill="#040706"/>
    <path d="M899.68,593.06a40.67,40.67,0,0,0-7,14.19.75.75,0,0,0,1.45.4A39.36,39.36,0,0,1,901,593.82c.59-.76-.71-1.51-1.29-.76Z" fill="#040706"/>
    <path d="M902.2,593.57l-10.14,21.94c-.4.87.89,1.63,1.29.75l10.14-21.93c.41-.87-.89-1.63-1.29-.76Z" fill="#040706"/>
    <path d="M748.39,700.54c-.17.67-.33,1.34-.5,2a1.56,1.56,0,0,0,.15,1.16,1.12,1.12,0,0,0,.39.42,1.14,1.14,0,0,0,.51.27,1.49,1.49,0,0,0,1.15-.15,1.51,1.51,0,0,0,.69-.9c.17-.67.33-1.33.5-2a1.54,1.54,0,0,0-.15-1.15,1.08,1.08,0,0,0-.39-.43,1,1,0,0,0-.51-.26,1.5,1.5,0,0,0-1.84,1Z" fill="#040706"/>
    <path d="M757.86,694.79l0,0-.23.31h0s-.14.33-.15.37h0c0,.06,0,.36,0,.42a1.27,1.27,0,0,0,0,.43,1.74,1.74,0,0,0,.43.71l.31.23h0l.38.16.1,0a2.36,2.36,0,0,0,.5.06h0l.42-.05,0,0a1,1,0,0,0,.19-.08l.19-.08h0l.31-.24h0l.24-.31a1.73,1.73,0,0,0,.16-.37,1.59,1.59,0,0,0,.06-.43c0-.07,0-.29,0-.21s0-.15,0-.21v0a1.58,1.58,0,0,0-.18-.41v1.51c.07-.11.13-.22.21-.33l-.23.31a1.29,1.29,0,0,1,.16-.17l-.3.24.1-.07-.36.15.09,0-.4,0h.07l-.4,0,.07,0-.35-.15,0,0-.3-.24,0,0-.24-.3,0,0-.15-.36v0c0-.13,0-.27,0-.4v0l0-.39a.43.43,0,0,0,0,0l.15-.36a.43.43,0,0,1,0,.07l.23-.3-.05.06.3-.24,0,0,.35-.15h0l.4-.05h0l.4.05h0l.36.16h0l.31.24v0l.23.31v0l.15.36a.06.06,0,0,0,0,0,1,1,0,0,0-.27-.51,1.06,1.06,0,0,0-.42-.39,1.09,1.09,0,0,0-.55-.18,1.22,1.22,0,0,0-.6,0l-.36.15a1.47,1.47,0,0,0-.54.54l-.15.36a1.55,1.55,0,0,0,0,.8,0,0,0,0,0,0,0c0,.05.19.44.08.18-.05-.1,0,.14.08.19a.82.82,0,0,0,.12.16c-.11-.14.08.12.12.16a1.08,1.08,0,0,0,.32.24,1.22,1.22,0,0,0,.37.16l.4.06h0a1.4,1.4,0,0,0,.41-.06h0l.37-.16a1.62,1.62,0,0,0,.39-.3,3.81,3.81,0,0,0,.24-.32l0,0v0c0-.06.08-.18.09-.19s.06-.13.08-.2v0c0-.06.05-.31,0-.21s0-.15,0-.21v0s0-.38-.05-.41v0a1.22,1.22,0,0,0-.08-.19l-.07-.17h0a2.41,2.41,0,0,0-.24-.32,1.41,1.41,0,0,0-.17-.14,2,2,0,0,0-.18-.13,1.49,1.49,0,0,0-.64-.2l-.24,0h0l-.4.06h0l-.05,0a2.39,2.39,0,0,0-.37.15h0l0,0c-.12.08-.23.18-.34.27l-.11.1a4.24,4.24,0,0,0-.31.4l-.18.29a1.5,1.5,0,0,0-.2.75,1.54,1.54,0,0,0,.2.76l0,.05-.15-.35a0,0,0,0,1,0,0l0-.4v0c0-.13,0-.27,0-.4s0,0,0,0l.15-.35h0l.23-.3h0l.31-.23,0,0,.35-.15h-.07l.4,0h-.12l.4,0a.21.21,0,0,1-.12,0l.35.15-.05,0,.3.24,0,0,.24.3v0l.15.36s0,0,0,0l.06.4s0,0,0,0l-.06.4v0l-.15.35,0,0-.24.31s0,0,0,0a1.72,1.72,0,0,0,.44-1.06,1.15,1.15,0,0,0-.13-.58,1,1,0,0,0-.31-.48l-.3-.24a1.57,1.57,0,0,0-.76-.2l-.4,0a1.49,1.49,0,0,0-.66.39Z" fill="#040706"/>
    <path d="M763.82,702.44c0,.5,0,1,0,1.5a1.27,1.27,0,0,0,.13.58,1.24,1.24,0,0,0,.31.48,1.72,1.72,0,0,0,1.06.44l.4-.05a1.47,1.47,0,0,0,.66-.39,1.52,1.52,0,0,0,.44-1.06c0-.5,0-1,0-1.5a1.06,1.06,0,0,0-.13-.58,1.14,1.14,0,0,0-.31-.48,1,1,0,0,0-.48-.31,1.15,1.15,0,0,0-.58-.13l-.39,0a1.47,1.47,0,0,0-.67.39,1.56,1.56,0,0,0-.44,1.06Z" fill="#040706"/>
    <path d="M764.82,714.94a1.5,1.5,0,0,0,0-3,1.5,1.5,0,0,0,0,3Z" fill="#040706"/>
    <path d="M755.42,705.53c-.06-.27,0,.4,0,0,0-.18.1-.41,0,0,0-.07,0-.15.05-.23s0-.1,0-.15l-.06.14a4.62,4.62,0,0,0,.28-.48c-.15.2-.18.23-.08.11l.11-.12.24-.22c.21-.2-.3.19-.05,0l.29-.18c.13-.07.43-.13,0,0l.24-.08a1.55,1.55,0,0,0,.31-.07l-.15,0H757c.26,0-.4-.08,0,0a3,3,0,0,1,.32.09c.26.09-.31-.16-.06,0s.2.1.29.16l.13.09-.1-.08c.1.14.29.26.41.4.27.3-.12-.2,0,0l.14.21a2.75,2.75,0,0,1,.17.29,1,1,0,0,1,.07.15c.07.14.05.1,0-.12,0,.18.14.37.19.56l.06.29c.06.36,0-.32,0,0a5,5,0,0,1,0,.67,1.51,1.51,0,0,0,1.5,1.5,1.53,1.53,0,0,0,1.5-1.5,5.61,5.61,0,0,0-2.52-5,4.4,4.4,0,0,0-5.59.85,4,4,0,0,0-1,3.53,1.52,1.52,0,0,0,1.85,1,1.54,1.54,0,0,0,1-1.84Z" fill="#040706"/>
    <path d="M687.82,623.44v-.5a1.06,1.06,0,0,0-.13-.58,1.14,1.14,0,0,0-.31-.48,1,1,0,0,0-.48-.31,1.15,1.15,0,0,0-.58-.13l-.4,0a1.49,1.49,0,0,0-.66.39l-.23.3a1.48,1.48,0,0,0-.21.76v.5a1.27,1.27,0,0,0,.13.58,1.24,1.24,0,0,0,.31.48,1.72,1.72,0,0,0,1.06.44l.4-.05a1.47,1.47,0,0,0,.66-.39l.24-.3a1.57,1.57,0,0,0,.2-.76Z" fill="#040706"/>
    <path d="M697.15,620.17l0,0,.15.36a.74.74,0,0,1,0-.14l.06.4a.43.43,0,0,1,0-.16l-.06.4a1,1,0,0,1,0-.18l-.15.36a.78.78,0,0,1,.11-.18l-.23.3a.81.81,0,0,1,.16-.16l-.31.24a.87.87,0,0,1,.18-.11l-.35.15.17,0-.4.06h.15l-.39,0,.13,0-.36-.15,0,0a1.08,1.08,0,0,0,.55.17,1.11,1.11,0,0,0,.6,0,1.14,1.14,0,0,0,.51-.27,1.31,1.31,0,0,0,.39-.42l.15-.36a1.55,1.55,0,0,0,0-.8l-.15-.36a1.52,1.52,0,0,0-.54-.53l0,0-.39-.17-.09,0-.43-.06h-.12l-.44.06h0l-.08,0a2.53,2.53,0,0,0-.51.22l-.21.16a1.32,1.32,0,0,0-.22.18l-.06.06c-.1.12-.2.24-.29.37l-.09.15a3.2,3.2,0,0,0-.17.43.29.29,0,0,0,0,.09,2.12,2.12,0,0,0-.06.57,2.22,2.22,0,0,0,.07.49,3.43,3.43,0,0,0,.19.44,1,1,0,0,0,.38.42,1.06,1.06,0,0,0,.51.27,1.22,1.22,0,0,0,.6,0,1.12,1.12,0,0,0,.56-.18l.3-.23a1.47,1.47,0,0,0,.39-.67l.05-.39a1.54,1.54,0,0,0-.2-.76Z" fill="#040706"/>
    <path d="M706.82,620.44h-.27a1.5,1.5,0,0,0,0,3h.27a1.5,1.5,0,0,0,0-3h-.27a1.5,1.5,0,0,0,0,3h.27a1.5,1.5,0,0,0,0-3Z" fill="#040706"/>
    <path d="M716.32,624.94h.5a1.15,1.15,0,0,0,.58-.13,1,1,0,0,0,.48-.31,1.14,1.14,0,0,0,.31-.48,1.06,1.06,0,0,0,.13-.58c0-.13,0-.27-.05-.4a1.49,1.49,0,0,0-.39-.66l-.3-.24a1.54,1.54,0,0,0-.76-.2h-.5a1.72,1.72,0,0,0-1.06.44,1.24,1.24,0,0,0-.31.48,1.27,1.27,0,0,0-.13.58l.06.4a1.57,1.57,0,0,0,.38.66l.31.24a1.5,1.5,0,0,0,.75.2Z" fill="#040706"/>
    <path d="M724.82,627.94a1.5,1.5,0,0,0,0-3,1.5,1.5,0,0,0,0,3Z" fill="#040706"/>
    <path d="M706.26,737.11a19.25,19.25,0,0,0,4.23,1.93,29.45,29.45,0,0,0,5,1.44c3.51.6,6.85-.33,10.21-1.27a39.81,39.81,0,0,0,9.24-3.92,78.13,78.13,0,0,1,8.85-4.83c1.76-.72,1-3.63-.8-2.89-5.79,2.39-10.69,6.51-16.72,8.35-3.07.94-6.5,2.14-9.74,1.7a23.53,23.53,0,0,1-4.58-1.25,17.88,17.88,0,0,1-4.14-1.85c-1.62-1.07-3.12,1.53-1.52,2.59Z" fill="#040706"/>
    <path d="M741.78,737a55.18,55.18,0,0,0,7.08-5.56,1.5,1.5,0,0,0,0-2.12,1.53,1.53,0,0,0-2.12,0c-1,1-2.11,1.88-3.23,2.76l-.19.16c-.12.09-.11.07,0,0l-.4.3c-.28.22-.56.43-.85.63-.59.43-1.19.85-1.8,1.25a1.5,1.5,0,1,0,1.51,2.59Z" fill="#040706"/>
    <path d="M832,576.58a12.18,12.18,0,0,0-.16,7.27,1.5,1.5,0,1,0,2.89-.8c-.07-.26-.14-.53-.2-.79l-.06-.35c0-.09-.15-.57,0-.18a4.14,4.14,0,0,1-.06-.7c0-.28,0-.55,0-.83s0-.5,0-.76a1,1,0,0,1,0-.17c0-.18,0-.16,0,.05a1.34,1.34,0,0,1,.05-.35,11,11,0,0,1,.42-1.59,1.5,1.5,0,1,0-2.89-.8Z" fill="#040706"/>
    <path d="M828.42,584c-3.08,1.28-1.92,4.79-1.34,7.27q1.18,5,2.36,10.06c.44,1.88,3.33,1.08,2.89-.8l-1.93-8.26c-.32-1.35-.66-2.7-.95-4a3.68,3.68,0,0,1-.11-1.11,2.06,2.06,0,0,0,.07-.32q-.07.15.06-.09a.28.28,0,0,1-.26.2,1.55,1.55,0,0,0,1-1.85,1.5,1.5,0,0,0-1.84-1Z" fill="#040706"/>
    <path d="M824.54,601.58a16.84,16.84,0,0,0,3.73,14.91,1.5,1.5,0,0,0,2.12-2.12,13.69,13.69,0,0,1-3-12c.45-1.88-2.44-2.68-2.89-.8Z" fill="#040706"/>
    <path d="M820.33,613.44a10.06,10.06,0,0,0,1.7,4.76,1.62,1.62,0,0,0,.89.69,1.5,1.5,0,0,0,1.85-1,1.51,1.51,0,0,0-.15-1.16,8.69,8.69,0,0,1-.87-1.55l.15.36a8.69,8.69,0,0,1-.59-2.18l.05.4,0-.27a1.66,1.66,0,0,0-.44-1.06,1.52,1.52,0,0,0-1.06-.44,1.5,1.5,0,0,0-1.06.44,1.42,1.42,0,0,0-.44,1.06Z" fill="#040706"/>
    <path d="M822.6,619.07c.13.06.25.13.37.2s-.08-.12.13.11.17.16.25.25.19.25.07.08a10.65,10.65,0,0,1,.8,1.39,19.23,19.23,0,0,0,1.78,3,18,18,0,0,0,5.6,5,1.5,1.5,0,1,0,1.51-2.59,13.61,13.61,0,0,1-2.67-1.93,14.38,14.38,0,0,1-2.22-2.55c-1.28-1.88-1.92-4.54-4.1-5.61a1.55,1.55,0,0,0-2.06.53,1.53,1.53,0,0,0,.54,2.06Z" fill="#040706"/>
    <path d="M837.4,652.51a24,24,0,0,0,10.32-.13,1.51,1.51,0,0,0,1-1.84,1.54,1.54,0,0,0-1.85-1,20.68,20.68,0,0,1-8.72.13,1.5,1.5,0,1,0-.8,2.89Z" fill="#040706"/>
    <path d="M843.81,661.21a43.47,43.47,0,0,0,7.9-.42,1.51,1.51,0,0,0,1-1.84,1.55,1.55,0,0,0-1.85-1.05c-.36.05.14,0-.18,0l-.52.07-.88.09c-.61,0-1.22.1-1.83.12-1.23.06-2.46.06-3.69,0a1.51,1.51,0,0,0-1.5,1.5,1.54,1.54,0,0,0,1.5,1.5Z" fill="#040706"/>
    <path d="M861.53,668.65l7.1-4.84a1.5,1.5,0,0,0-1.51-2.59L860,666.06a1.5,1.5,0,1,0,1.52,2.59Z" fill="#040706"/>
    <path d="M873.85,670.52c.27-.41.55-.82.85-1.21L875,669c-.12.16,0-.05.09-.11l.46-.57a27.16,27.16,0,0,1,2.09-2.2q.54-.51,1.11-1l.58-.46c.37-.3-.11.08.1-.09l.3-.22a26.44,26.44,0,0,1,2.61-1.69,1.52,1.52,0,0,0,.54-2,1.54,1.54,0,0,0-2.06-.54,27.84,27.84,0,0,0-9.52,9,1.5,1.5,0,0,0,2.59,1.51Z" fill="#040706"/>
    <path d="M840.19,614.49l-.71-.52-.19-.14c-.16-.13,0,0,.08.06a2,2,0,0,0-.32-.26c-.46-.37-.91-.75-1.35-1.15a30.31,30.31,0,0,1-2.45-2.49,1.51,1.51,0,0,0-2.12,0,1.54,1.54,0,0,0,0,2.12,31.58,31.58,0,0,0,5.55,5,1.54,1.54,0,0,0,1.15.15,1.56,1.56,0,0,0,.9-.69,1.53,1.53,0,0,0-.54-2Z" fill="#040706"/>
    <path d="M840.5,598.77l-3-4a1.61,1.61,0,0,0-.89-.69,1.52,1.52,0,0,0-1.16.15,1.5,1.5,0,0,0-.54,2l3,4a1.63,1.63,0,0,0,.89.68,1.52,1.52,0,0,0,1.16-.15,1.5,1.5,0,0,0,.54-2.05Z" fill="#040706"/>
    <path d="M844.53,584.76a6.78,6.78,0,0,1-1.47-.87l.3.23A7.5,7.5,0,0,1,842,582.8l.23.3a7.19,7.19,0,0,1-.61-.94,1.59,1.59,0,0,0-.9-.69,1.56,1.56,0,0,0-1.16.15,1.54,1.54,0,0,0-.53,2.06,8.65,8.65,0,0,0,3.94,3.67,1.67,1.67,0,0,0,1.16.16,1.59,1.59,0,0,0,.9-.69,1.56,1.56,0,0,0,.15-1.16,1.49,1.49,0,0,0-.69-.9Z" fill="#040706"/>
    <path d="M762,622.11l9.52-5a1.5,1.5,0,1,0-1.51-2.59l-9.53,4.95a1.5,1.5,0,0,0,1.52,2.59Z" fill="#040706"/>
    <path d="M762.15,627.69l9.67-3.55a1.53,1.53,0,0,0,1-1.85,1.51,1.51,0,0,0-1.84-1l-9.67,3.55a1.5,1.5,0,1,0,.8,2.89Z" fill="#040706"/>
    <path d="M965.16,730.61h1.33a1.27,1.27,0,0,0,.58-.13,1.17,1.17,0,0,0,.48-.31,1.72,1.72,0,0,0,.44-1.06l0-.4a1.39,1.39,0,0,0-.39-.66l-.3-.24a1.57,1.57,0,0,0-.76-.2h-1.33a1.06,1.06,0,0,0-.58.13,1.36,1.36,0,0,0-.79.79,1.06,1.06,0,0,0-.13.58l.05.4a1.49,1.49,0,0,0,.39.66l.3.23a1.45,1.45,0,0,0,.76.21Z" fill="#040706"/>
    <path d="M970.49,735.27a1.5,1.5,0,0,0,0-3,1.5,1.5,0,0,0,0,3Z" fill="#040706"/>
    <path d="M977.16,722.61a1.5,1.5,0,0,0,0-3,1.5,1.5,0,0,0,0,3Z" fill="#040706"/>
    <path d="M983.32,735.11v-.67a1.06,1.06,0,0,0-.13-.58,1.14,1.14,0,0,0-.31-.48,1,1,0,0,0-.48-.31,1.15,1.15,0,0,0-.58-.13l-.4,0a1.49,1.49,0,0,0-.66.39l-.23.3a1.48,1.48,0,0,0-.21.76v.67a1.22,1.22,0,0,0,.13.57,1.32,1.32,0,0,0,.8.8,1.22,1.22,0,0,0,.57.13l.4-.06a1.45,1.45,0,0,0,.66-.38l.24-.31a1.5,1.5,0,0,0,.2-.75Z" fill="#040706"/>
    <path d="M987.55,717.5l.67-.67a1.11,1.11,0,0,0,.31-.48,1.27,1.27,0,0,0,.13-.58,1.22,1.22,0,0,0-.13-.57,1.21,1.21,0,0,0-.31-.49l-.31-.23a1.42,1.42,0,0,0-.75-.21l-.4.06a1.45,1.45,0,0,0-.66.38c-.23.22-.45.45-.67.67a1.14,1.14,0,0,0-.31.48,1.36,1.36,0,0,0,0,1.16,1.14,1.14,0,0,0,.31.48l.3.24a1.57,1.57,0,0,0,.76.2l.4-.05a1.59,1.59,0,0,0,.66-.39Z" fill="#040706"/>
    <path d="M988.1,708.83l.66.67a1.72,1.72,0,0,0,1.06.44,1.15,1.15,0,0,0,.58-.13,1,1,0,0,0,.48-.31l.24-.3a1.57,1.57,0,0,0,.2-.76c0-.13,0-.27-.05-.4a1.49,1.49,0,0,0-.39-.66l-.66-.67a1.21,1.21,0,0,0-.49-.31,1.22,1.22,0,0,0-.57-.13,1.27,1.27,0,0,0-.58.13,1.11,1.11,0,0,0-.48.31l-.24.31a1.5,1.5,0,0,0-.2.75l.05.4a1.39,1.39,0,0,0,.39.66Z" fill="#040706"/>
    <path d="M993,711.77v.67a1.15,1.15,0,0,0,.13.58,1.36,1.36,0,0,0,.79.79,1.15,1.15,0,0,0,.58.13l.4-.05a1.59,1.59,0,0,0,.66-.39l.24-.3a1.57,1.57,0,0,0,.2-.76v-.67a1.72,1.72,0,0,0-.44-1.06,1.17,1.17,0,0,0-.48-.31,1.27,1.27,0,0,0-.58-.13l-.4.06a1.57,1.57,0,0,0-.66.38l-.23.31a1.42,1.42,0,0,0-.21.75Z" fill="#040706"/>
    <path d="M988.1,721.38l-.67.67a1,1,0,0,0-.31.48,1.15,1.15,0,0,0-.13.58,1.72,1.72,0,0,0,.44,1.06l.3.23a1.48,1.48,0,0,0,.76.21l.4-.06a1.57,1.57,0,0,0,.66-.38l.67-.67a1.24,1.24,0,0,0,.31-.48,1.36,1.36,0,0,0,0-1.16,1.24,1.24,0,0,0-.31-.48l-.31-.24a1.5,1.5,0,0,0-.75-.2l-.4,0a1.39,1.39,0,0,0-.66.39Z" fill="#040706"/>
    <path d="M998.1,718.83l.66.67a1.72,1.72,0,0,0,1.06.44,1.15,1.15,0,0,0,.58-.13,1,1,0,0,0,.48-.31l.24-.3a1.57,1.57,0,0,0,.2-.76c0-.13,0-.27-.05-.4a1.49,1.49,0,0,0-.39-.66l-.66-.67a1.21,1.21,0,0,0-.49-.31,1.22,1.22,0,0,0-.57-.13,1.27,1.27,0,0,0-.58.13,1.11,1.11,0,0,0-.48.31l-.24.31a1.5,1.5,0,0,0-.2.75l.05.4a1.39,1.39,0,0,0,.39.66Z" fill="#040706"/>
    <path d="M1006.49,716.61a1.5,1.5,0,0,0,0-3,1.5,1.5,0,0,0,0,3Z" fill="#040706"/>
    <path d="M1010.32,722.44v.67a1.22,1.22,0,0,0,.13.57,1.32,1.32,0,0,0,.8.8,1.22,1.22,0,0,0,.57.13l.4-.06a1.45,1.45,0,0,0,.66-.38l.24-.31a1.5,1.5,0,0,0,.2-.75v-.67a1.06,1.06,0,0,0-.13-.58,1.14,1.14,0,0,0-.31-.48,1,1,0,0,0-.48-.31,1.15,1.15,0,0,0-.58-.13l-.4,0a1.49,1.49,0,0,0-.66.39l-.23.3a1.48,1.48,0,0,0-.21.76Z" fill="#040706"/>
    <path d="M995.16,737.94a1.5,1.5,0,0,0,0-3,1.5,1.5,0,0,0,0,3Z" fill="#040706"/>
    <path d="M1004,742.44v-.67a1.72,1.72,0,0,0-.44-1.06,1.17,1.17,0,0,0-.48-.31,1.27,1.27,0,0,0-.58-.13l-.4.06a1.57,1.57,0,0,0-.66.38l-.23.31a1.42,1.42,0,0,0-.21.75v.67a1.15,1.15,0,0,0,.13.58,1.36,1.36,0,0,0,.79.79,1.15,1.15,0,0,0,.58.13l.4-.05a1.59,1.59,0,0,0,.66-.39l.24-.3a1.57,1.57,0,0,0,.2-.76Z" fill="#040706"/>
    <path d="M955.82,734.61a1.5,1.5,0,0,0,0-3,1.5,1.5,0,0,0,0,3Z" fill="#040706"/>
    <path d="M1002,754.44V754a1.5,1.5,0,0,0-3,0v.41a1.5,1.5,0,0,0,3,0V754a1.5,1.5,0,0,0-3,0v.41a1.5,1.5,0,0,0,3,0Z" fill="#040706"/>
    <path d="M1006.32,772.44v.67a1.22,1.22,0,0,0,.13.57,1.32,1.32,0,0,0,.8.8,1.22,1.22,0,0,0,.57.13l.4-.06a1.45,1.45,0,0,0,.66-.38l.24-.31a1.5,1.5,0,0,0,.2-.75v-.67a1.06,1.06,0,0,0-.13-.58,1.14,1.14,0,0,0-.31-.48,1,1,0,0,0-.48-.31,1.15,1.15,0,0,0-.58-.13l-.4,0a1.49,1.49,0,0,0-.66.39l-.23.3a1.48,1.48,0,0,0-.21.76Z" fill="#040706"/>
    <path d="M1011.16,771.94a1.5,1.5,0,0,0,0-3,1.5,1.5,0,0,0,0,3Z" fill="#040706"/>
    <path d="M1007.66,754.44v.67a1,1,0,0,0,.13.57,1.34,1.34,0,0,0,.79.8,1.27,1.27,0,0,0,.58.13l.4-.06a1.57,1.57,0,0,0,.66-.38l.23-.31a1.42,1.42,0,0,0,.21-.75v-.67a1.27,1.27,0,0,0-.13-.58,1.24,1.24,0,0,0-.31-.48,1.72,1.72,0,0,0-1.06-.44l-.4,0a1.39,1.39,0,0,0-.66.39l-.24.3a1.57,1.57,0,0,0-.2.76Z" fill="#040706"/>
    <path d="M1015.66,732.44v2a1.52,1.52,0,0,0,.44,1.06,1,1,0,0,0,.48.31,1.15,1.15,0,0,0,.58.13,1.52,1.52,0,0,0,1.06-.44,1.54,1.54,0,0,0,.44-1.06v-2a1.56,1.56,0,0,0-.44-1.06,1.72,1.72,0,0,0-1.06-.44,1.5,1.5,0,0,0-1.06.44,1.54,1.54,0,0,0-.44,1.06Z" fill="#040706"/>
    <path d="M1025.55,738.83l.67-.66a1.21,1.21,0,0,0,.31-.49,1.22,1.22,0,0,0,.13-.57,1.27,1.27,0,0,0-.13-.58,1.11,1.11,0,0,0-.31-.48l-.31-.24a1.5,1.5,0,0,0-.75-.2l-.4,0a1.39,1.39,0,0,0-.66.39l-.67.66a1.72,1.72,0,0,0-.44,1.06,1.15,1.15,0,0,0,.13.58,1,1,0,0,0,.31.48l.3.24a1.57,1.57,0,0,0,.76.2l.4,0a1.49,1.49,0,0,0,.66-.39Z" fill="#040706"/>
    <path d="M1029.32,749.77v-.66a1.06,1.06,0,0,0-.13-.58,1.36,1.36,0,0,0-.79-.79,1.06,1.06,0,0,0-.58-.13l-.4,0a1.49,1.49,0,0,0-.66.39l-.23.3a1.45,1.45,0,0,0-.21.76v.66a1.27,1.27,0,0,0,.13.58,1.34,1.34,0,0,0,.8.79,1,1,0,0,0,.57.13l.4,0a1.39,1.39,0,0,0,.66-.39l.24-.3a1.54,1.54,0,0,0,.2-.76Z" fill="#040706"/>
    <path d="M1031.12,764.53c.22-.44.44-.89.67-1.33a1.14,1.14,0,0,0,.17-.56,1.11,1.11,0,0,0,0-.6,1.26,1.26,0,0,0-.27-.51,1.31,1.31,0,0,0-.42-.39l-.36-.15a1.55,1.55,0,0,0-.8,0l-.36.15a1.61,1.61,0,0,0-.53.54l-.67,1.34a1.09,1.09,0,0,0-.18.55,1.12,1.12,0,0,0,0,.6,1,1,0,0,0,.27.51,1.06,1.06,0,0,0,.42.39l.35.15a1.55,1.55,0,0,0,.8,0l.36-.15a1.4,1.4,0,0,0,.54-.54Z" fill="#040706"/>
    <path d="M1036,769.11v-2a1.54,1.54,0,0,0-.44-1.06,1.08,1.08,0,0,0-.48-.31,1.06,1.06,0,0,0-.58-.13,1.46,1.46,0,0,0-1.06.44,1.54,1.54,0,0,0-.44,1.06v2a1.56,1.56,0,0,0,.44,1.06,1.24,1.24,0,0,0,.48.31,1.27,1.27,0,0,0,.58.13,1.54,1.54,0,0,0,1.06-.44,1.58,1.58,0,0,0,.44-1.06Z" fill="#040706"/>
    <path d="M1035.82,758.61h1.34a1.22,1.22,0,0,0,.57-.13,1.32,1.32,0,0,0,.8-.8,1.22,1.22,0,0,0,.13-.57l-.06-.4a1.45,1.45,0,0,0-.38-.66l-.31-.24a1.5,1.5,0,0,0-.75-.2h-1.34a1,1,0,0,0-.57.13,1.34,1.34,0,0,0-.8.79,1.27,1.27,0,0,0-.13.58l.06.4a1.57,1.57,0,0,0,.38.66l.31.23a1.42,1.42,0,0,0,.75.21Z" fill="#040706"/>
    <path d="M1037.43,764.17l.67.66a1,1,0,0,0,.48.31,1.06,1.06,0,0,0,.58.13,1,1,0,0,0,.57-.13,1.11,1.11,0,0,0,.49-.31l.23-.3a1.45,1.45,0,0,0,.21-.76l-.06-.4a1.57,1.57,0,0,0-.38-.66l-.67-.66a1.08,1.08,0,0,0-.48-.31,1.36,1.36,0,0,0-1.16,0,1.14,1.14,0,0,0-.48.31l-.23.3a1.45,1.45,0,0,0-.21.76l0,.4a1.59,1.59,0,0,0,.39.66Z" fill="#040706"/>
    <path d="M1036.49,780.9h-.1l.4.05a.23.23,0,0,1-.11,0l.36.16L1037,781l.31.24a.3.3,0,0,1-.08-.08l.23.3a.54.54,0,0,1-.07-.13l.15.36a.76.76,0,0,1-.06-.2l.06.4a1,1,0,0,1,0-.24l-.06.4a.76.76,0,0,1,.06-.2l-.16.36a.57.57,0,0,1,.08-.13l-.23.3.08-.08-.3.23.08,0-.35.15.1,0-.4.06h.09a1.27,1.27,0,0,0,.58-.13,1.32,1.32,0,0,0,.8-.8,1.13,1.13,0,0,0,.12-.57l0-.4a1.54,1.54,0,0,0-.38-.67l-.31-.23a1.42,1.42,0,0,0-.76-.2,1.38,1.38,0,0,0-.57.07l-.2.08-.2.09h0a2.48,2.48,0,0,0-.37.29,2,2,0,0,0-.55,1,2.89,2.89,0,0,0-.08.58v.1a4.13,4.13,0,0,0,.07.49,2.24,2.24,0,0,0,.2.53.3.3,0,0,1,0,.08l0,0a4.19,4.19,0,0,0,.26.33,2,2,0,0,0,.8.49l.1,0a3.29,3.29,0,0,0,.44,0h.07a1.08,1.08,0,0,0,.58-.13,1.14,1.14,0,0,0,.48-.31,1.11,1.11,0,0,0,.31-.48,1.27,1.27,0,0,0,.13-.58l-.06-.4a1.57,1.57,0,0,0-.38-.66l-.31-.23a1.42,1.42,0,0,0-.75-.21Z" fill="#040706"/>
    <path d="M1015.16,784.61h.66a1.27,1.27,0,0,0,.58-.13,1.34,1.34,0,0,0,.79-.8,1,1,0,0,0,.13-.57c0-.14,0-.27-.05-.4a1.39,1.39,0,0,0-.39-.66l-.3-.24a1.54,1.54,0,0,0-.76-.2h-.66a1.06,1.06,0,0,0-.58.13,1.36,1.36,0,0,0-.79.79,1.06,1.06,0,0,0-.13.58l.05.4a1.49,1.49,0,0,0,.39.66l.3.23a1.45,1.45,0,0,0,.76.21Z" fill="#040706"/>
    <path d="M1018,791.11v-.67a1.15,1.15,0,0,0-.13-.58,1.14,1.14,0,0,0-.31-.48,1.08,1.08,0,0,0-.48-.31,1.15,1.15,0,0,0-.58-.13l-.4,0a1.49,1.49,0,0,0-.66.39l-.23.3a1.48,1.48,0,0,0-.21.76v.67a1.72,1.72,0,0,0,.44,1.06,1.24,1.24,0,0,0,.48.31,1.27,1.27,0,0,0,.58.13l.4-.06a1.57,1.57,0,0,0,.66-.38l.24-.31a1.5,1.5,0,0,0,.2-.75Z" fill="#040706"/>
    <path d="M983.32,729.94s16.5,8.5,19.5,15.5,23,2,23,0,5-7,0-12-16.5-9.5-16.5-9.5Z" fill="#040706" opacity="0.16"/>
    <path d="M985.11,731a3.55,3.55,0,0,1-1.79-3.07v-4s-1,5,16,5,23-2,23-5v2.49a6.39,6.39,0,0,1-3.89,5.91C1012.05,735,998.72,738.73,985.11,731Z" fill="#f1ed7c" stroke="#040706" stroke-miterlimit="10" stroke-width="2"/>
    <g>
      <ellipse cx="1002.82" cy="723.44" rx="19.5" ry="6.5" fill="#f1ed7c"/>
      <path d="M1020.82,723.44a1.9,1.9,0,0,1-.73,1.16,9.1,9.1,0,0,1-2.57,1.51,31,31,0,0,1-8.66,2c-6.6.72-13.88.55-20.17-1.79-1.3-.49-3.48-1.44-3.83-2.67a.66.66,0,0,1,0-.44,1.68,1.68,0,0,1,.28-.52,6.39,6.39,0,0,1,2.3-1.61,26.63,26.63,0,0,1,7.89-2.15,54,54,0,0,1,11.15-.39,37.22,37.22,0,0,1,10.19,1.9,11.54,11.54,0,0,1,3.1,1.55,3.84,3.84,0,0,1,.83.83.91.91,0,0,1,.22.61c.07,1.92,3.07,1.93,3,0-.08-2.34-2-3.91-4-4.88a30.45,30.45,0,0,0-9.73-2.65,56.37,56.37,0,0,0-13.11-.18,35,35,0,0,0-10.3,2.41c-1.94.85-4.26,2.2-4.77,4.44s1.17,4.13,3,5.25a24.86,24.86,0,0,0,9.22,2.94,57,57,0,0,0,12.79.53,36.93,36.93,0,0,0,12-2.56c2.24-1,4.78-2.6,4.87-5.3C1023.89,721.51,1020.89,721.51,1020.82,723.44Z" fill="#040706"/>
    </g>
    <path d="M993.74,725.94a2.66,2.66,0,0,0,.87.4,2.85,2.85,0,0,0,1,.12,2.94,2.94,0,0,0,.94-.16,3.52,3.52,0,0,0,1.06-.62,1.11,1.11,0,0,0,.33-.79,1.14,1.14,0,0,0-.33-.8,1.11,1.11,0,0,0-.79-.33l-.3,0a1.1,1.1,0,0,0-.5.29l-.05,0,.23-.18a2.67,2.67,0,0,1-.43.25l.27-.11a3.23,3.23,0,0,1-.51.14l.29,0a2.62,2.62,0,0,1-.56,0l.3,0a2.14,2.14,0,0,1-.55-.15l.27.12a2,2,0,0,1-.37-.22,1.13,1.13,0,0,0-1.54.41,1.18,1.18,0,0,0-.11.86l.11.27a1.15,1.15,0,0,0,.41.41Z" fill="#040706"/>
    <path d="M1000.32,728.31a7.17,7.17,0,0,1,.93-.53l.26-.12.06,0-.07,0s.21-.08.26-.1l.24-.09a8.64,8.64,0,0,1,1-.26l.28-.05h0a3.66,3.66,0,0,0,.57,0,1.13,1.13,0,0,0,0-2.25,9.26,9.26,0,0,0-4.64,1.51,1.12,1.12,0,1,0,1.13,1.94Z" fill="#040706"/>
  </g>
</svg>
