<svg id="Mask1" xmlns="http://www.w3.org/2000/svg" viewBox="0 0 1801 2046">
  <title>mask2</title>
  <g>
    <g>
      <path d="M808,591.39c4.73.25,8.32,4,11.06,7.49,3.11,4,5.88,8,10.23,10.77,2.18,1.35,4.52,2.41,6.75,3.68a39.1,39.1,0,0,1,6.26,4.53,84.76,84.76,0,0,1,11.19,11c3.48,4.37,6,10.06,4.67,15.71-.43,1.88,2.47,2.68,2.9.8,2.64-11.58-6.58-20.51-14.32-27.55a66.62,66.62,0,0,0-6.43-5.31,68.17,68.17,0,0,0-7.29-4.16,24.45,24.45,0,0,1-6.45-4.79c-1.83-2-3.36-4.17-5-6.28-3.4-4.39-7.71-8.56-13.57-8.87-1.93-.11-1.92,2.89,0,3Z" fill="#4f4f4f"/>
      <path d="M857.27,581.46a165.64,165.64,0,0,0-16.8,26.06,238.38,238.38,0,0,0-12.36,29.09c-2,5.69-4,11.41-5.85,17.15-.61,1.83,2.29,2.62,2.89.79,6.49-19.63,13.37-39.23,24.37-56.87a161.9,161.9,0,0,1,9.87-14.1c1.18-1.5-.93-3.64-2.12-2.12Z" fill="#4f4f4f"/>
    </g>
    <path d="M1006.47,671.26l.86.49-.93.22C1006.43,671.73,1006.45,671.5,1006.47,671.26Z" fill="#040706"/>
    <path d="M999.42,673.54c-25.92,15.26-56.81,18.36-86.65,18.08-17.51-.16-35-1-52.56-2a689.66,689.66,0,0,0,82.85-6.1Q971.44,679.69,999.42,673.54Z" fill="#313c51"/>
    <path d="M821.49,666.08c1.29.85,1,2.63-.18,4.71q-4.87-2.06-9.6-4.47C814.1,664.29,815,661.77,821.49,666.08Z" fill="#040706"/>
    <path d="M819.87,695.85c24.19,1.49,48.37,3,72.58,4.16,26.79,1.26,54.31,1.33,80.41-5.69a122.1,122.1,0,0,0,32.76-14q-1.5,15.9-3,31.81c-1.16,12.33-1.34,25.32-4.34,37.37-5.54,22.28-27.47,29.27-47.72,32.85a467.88,467.88,0,0,1-79,6.88q-19.86.11-39.67-1.4c-8.48-.64-18.6-1.22-24-7.74a15.61,15.61,0,0,1-3-5.53c-3.78-12.28-3.14-26.9-.77-39.37a101.69,101.69,0,0,1,15-36.86A4.17,4.17,0,0,0,819.87,695.85Z" fill="#4d5b79"/>
    <path d="M812.89,679.53c-3.32,2.36-6.65,3.71-8.4,2.55-1.35-.9-2.62-1.69-3.82-2.4C804.6,678.78,808.83,679.2,812.89,679.53Z" fill="#040706"/>
    <path d="M791.42,748.34a4.2,4.2,0,0,0-2.26-3.92c.7-6.91,1.89-13.47,2.39-18.13,1-9.42,1.09-19.54,3.79-28.66a26.26,26.26,0,0,1,1.14-3.21q7,.41,13.94.85a109.54,109.54,0,0,0-16.79,53.17Z" fill="#313c51"/>
    <path d="M796.17,775.87c-4.65-3.57-6.68-9.53-7.33-16.27a59.66,59.66,0,0,1-.22-6.86,4.64,4.64,0,0,0,2.8-4.4l2.21.1a106.13,106.13,0,0,0,.85,19.42A52.75,52.75,0,0,0,796.17,775.87Z" fill="#313c51"/>
    <path d="M788.62,752.74c0-2.77.25-5.57.54-8.32a4.2,4.2,0,0,1,2.26,3.92A4.64,4.64,0,0,1,788.62,752.74Z" fill="#040706"/>
    <path d="M783,645.58c-12.68-14.15-27.92-19.19-46.18-24.59-10.18-3-21.62-4.88-31.77-.81a31.06,31.06,0,0,0-14.21,11.67,11.18,11.18,0,0,0,1.25.38h0c6.93-13.06,27.22-6.25,38-3.23,8,2.25,15.83,5.35,22.57,10.28,4.79,3.5,21.49,16.32,23.82,18,7.68,5.57,17.17,8.07,26.52,10.33,4.93,1.19,7.16.06,8.74-1.29C803.77,662.26,784.57,647.34,783,645.58Z" fill="#313c51"/>
    <path d="M767.49,750.08l-3.07-.65-15.93-3.35a3.89,3.89,0,0,1-1.34-.05s-25.39-4-37.55-6.81a108.12,108.12,0,0,0,10.94,5.69,106.11,106.11,0,0,0,40.4,9.24,4.7,4.7,0,0,1,1.81-1.67,5.32,5.32,0,0,1,.82-.3,4.59,4.59,0,0,1,2.16,0l14.48,2.93c0-.88,0-1.76,0-2.63C776.29,751.46,773.6,749.79,767.49,750.08Z" fill="#313c51"/>
    <path d="M713.13,753.46a4.88,4.88,0,0,1-.37-1A4.65,4.65,0,0,1,713.13,753.46Z" fill="#040706"/>
    <path d="M1019,663.58c0-.1-1.94-5.9-2-6-1.16-1.71-2.24,3.16-4.28,3.66q-12.59,3.07-25.26,5.65c.63.13-51.64,7.62-85.41,12l.42-.11q-16.8,1.29-33.68,1.71c-3.79.1-7.58.16-11.37.2q-10.75.09-21.49-.17a60.26,60.26,0,0,0-5.35-6.62c-14.94-15.91-76.64-58.59-98-63.26-11.4-2.5-23.55-2.65-34.17,2.76a40.56,40.56,0,0,0-18.24,19.36l2.87.3c1.27,0,2.52,0,3.75-.11a3.26,3.26,0,0,1,.23-2.33c0-.07,2.34.76,3.84,1.27.07-.11.16-.21.23-.32,4.11,1.17,11,3,12,2.61,3.27-1.23,7.76-.37,10.88.26,8.91,1.8,17.83,4,26,8.05,5.77,2.83,10.43,7.06,15.67,10.59,5.43,3.66,10.27,8,15.4,12.06a63,63,0,0,0,14.29,8.15c5.09,2.17,10.57,3.61,15.34,6.43,3.93-.9-7.82,3.87-10,7a30.56,30.56,0,0,0-4.51,10.48c-2.49,10.37-2.78,21.49-3.92,32.07-.47,4.33-1.14,9.45-1.58,14.84-20.67,1.55-48.66-10.8-63-15.8-3.72-1.3-13,2.15-16.94,5.08l-.15-.1c-4.66-3.45-14.19-3-9.57.37,5.23,3.87,15.81,14.66,21.59,17.55a112.83,112.83,0,0,0,16.58,6.72,114.09,114.09,0,0,0,39.89,5.23,4.58,4.58,0,0,0,2.24-.67l9.61,2c1.7,11.29,7,20.79,20,23.27a4.64,4.64,0,0,0,1.82,0,23.09,23.09,0,0,0,3.17,2.71c6.26.72,12.54,1.31,18.72,2.58,4.65,1,9.18,2,12,4.61,5,.2,9.91.24,14.57.41q21.59.78,43.17-.36,23.54-1.23,46.88-4.67,3.21-.46,6.51-1h0c3-.47,6-1,9-1.58l-.06-.12.06.12c16.94-3.35,33.94-9.23,43.93-23.81,8.41-12.28,10.94-28.68,12.28-42.95S1022.32,668.77,1019,663.58ZM780.21,755.06l-14.48-2.93a4.59,4.59,0,0,0-2.16,0,5.32,5.32,0,0,0-.82.3,4.7,4.7,0,0,0-1.81,1.67,106.11,106.11,0,0,1-40.4-9.24,108.12,108.12,0,0,1-10.94-5.69c12.16,2.85,37.55,6.81,37.55,6.81a3.89,3.89,0,0,0,1.34.05l15.93,3.35,3.07.65c6.11-.29,8.8,1.38,12.72,2.35C780.2,753.3,780.2,754.18,780.21,755.06ZM943.06,683.5q28.38-3.81,56.36-10,2.19-1.29,4.34-2.7-2.14,1.41-4.34,2.7c-25.92,15.26-56.81,18.36-86.65,18.08-17.51-.16-35-1-52.56-2A689.66,689.66,0,0,0,943.06,683.5ZM778.69,658.42c-.7-.45-1.39-.91-2.08-1.38-9.44-6.4-18.13-13.81-27.7-20a67,67,0,0,0-18.85-8c-7.44-2.09-21.39-6.77-31.58-5.15a30.32,30.32,0,0,1,6.56-3.67c10.15-4.07,21.59-2.19,31.77.81,10.65,3.14,20.56,10.12,29.81,16q16.57,10.59,32.31,22.42,5.36,4,10.59,8.18a11.46,11.46,0,0,1-5.52.21C795.27,666,786.22,663.33,778.69,658.42Zm14.94,90a106.13,106.13,0,0,0,.85,19.42,52.75,52.75,0,0,0,1.69,8c-4.65-3.57-6.68-9.53-7.33-16.27a59.66,59.66,0,0,1-.22-6.86c0-2.77.25-5.57.54-8.32.7-6.91,1.89-13.47,2.39-18.13,1-9.42,1.09-19.54,3.79-28.66a26.26,26.26,0,0,1,1.14-3.21q7,.41,13.94.85A109.54,109.54,0,0,0,793.63,748.44Zm209-36.29c-1.16,12.33-1.34,25.32-4.34,37.37-5.54,22.28-27.47,29.27-47.72,32.85a467.88,467.88,0,0,1-79,6.88q-19.86.11-39.67-1.4c-8.48-.64-18.6-1.22-24-7.74a15.61,15.61,0,0,1-3-5.53c-3.78-12.28-3.14-26.9-.77-39.37a101.69,101.69,0,0,1,15-36.86,4.17,4.17,0,0,0,.74-2.5c24.19,1.49,48.37,3,72.58,4.16,26.79,1.26,54.31,1.33,80.41-5.69a122.1,122.1,0,0,0,32.76-14Q1004.12,696.24,1002.63,712.15ZM1006.4,672c0-.24.05-.47.07-.71l.86.49Z" fill="#040706"/>
    <path d="M691.92,632.55a4.57,4.57,0,0,0,1.87,6.1,12.54,12.54,0,0,1-5.2-2.9,32.84,32.84,0,0,1,1.8-3.23c.57-.08,1.13-.17,1.69-.29h0A3.24,3.24,0,0,0,691.92,632.55Z" fill="#040706"/>
    <path d="M690.39,632.52a32.84,32.84,0,0,0-1.8,3.23,6.19,6.19,0,0,1-1.83-2.84C688,632.84,689.19,632.7,690.39,632.52Z" fill="#040706"/>
    <path d="M688.59,635.75a30.8,30.8,0,0,0-1.24,3L683,633c1.27,0,2.52,0,3.75-.11A6.19,6.19,0,0,0,688.59,635.75Z" fill="#040706"/>
    <path d="M832.69,732.21c3.93,3.87,6.34,8.88,8.78,13.75l8.66,17.26a3,3,0,0,0,4.1,1.08,3.06,3.06,0,0,0,1.08-4.11l-8.88-17.7c-2.6-5.19-5.31-10.4-9.49-14.52-2.76-2.71-7,1.53-4.25,4.24Z" fill="#6e8fc9"/>
    <path d="M831.38,764.6c2.53-2.91,4.62-6.23,6.84-9.37l6.72-9.49c2.15-3,4.48-6,6.43-9.24a21.38,21.38,0,0,0,2.28-5c.35-1.18.56-2.59,1.28-3.4a3.07,3.07,0,0,0,0-4.24,3,3,0,0,0-4.24,0c-2.29,2.56-2.41,6-4,8.88-1.82,3.22-4.19,6.18-6.32,9.2l-6.72,9.5a110,110,0,0,1-6.47,9,3.09,3.09,0,0,0,0,4.25,3,3,0,0,0,4.24,0Z" fill="#6e8fc9"/>
    <path d="M867.78,726.26c-.16,5.16-.26,10.32-.27,15.48,0,2.58,0,5.16,0,7.74a43.39,43.39,0,0,0,.33,7.3,6.21,6.21,0,0,0,4.47,5,52.68,52.68,0,0,0,6.89,1c4.73.64,9.53,1.53,14.32,1.37,4.31-.14,10.4-1.08,12.8-5.18,1.2-2.06,1.37-4.72,1.7-7,.37-2.59.67-5.2.85-7.81a100,100,0,0,0,0-15.09c-.2-2.53-.46-5.05-2.12-7.1a11,11,0,0,0-5.53-3.31c-10-3.06-19.86,2.42-29.89,2a3,3,0,0,0,0,6c7.95.33,15.47-3,23.36-2.94a16.91,16.91,0,0,1,5.14.78c1.25.4,2.35.87,2.73,2.21a27.35,27.35,0,0,1,.53,6q.15,3.29.07,6.57a96,96,0,0,1-1.17,13c-.22,1.34-.18,3.42-1.42,4.22a12.17,12.17,0,0,1-5,1.52c-3.94.49-8-.1-11.87-.63l-6.36-.86c-.94-.13-1.9-.22-2.83-.4-.13,0-.81-.21-.62-.11s-.07-.24,0-.09c-.48-1.68-.25-4.35-.28-6.38,0-2.58,0-5.16,0-7.74,0-5.16.11-10.32.27-15.48.13-3.86-5.87-3.85-6,0Z" fill="#6e8fc9"/>
    <path d="M931.51,715.12c-8.83,1.88-13.21,11.59-14.16,19.72-1,8.52,2.4,17.67,10.35,21.71a16.67,16.67,0,0,0,12,1.48c4.35-1.22,7.67-4.39,10.22-8,5.11-7.21,8.58-17.3,5.4-26a17.65,17.65,0,0,0-10.25-10.66,39.29,39.29,0,0,0-7.46-2c-2.77-.53-5.63-.69-8.12.86-3.28,2-.27,7.22,3,5.18,1.2-.75,2.72-.42,4.1-.14a45.21,45.21,0,0,1,5.64,1.43,11.42,11.42,0,0,1,6.92,6.07c3.06,6.3.51,13.91-2.88,19.74-1.6,2.74-3.58,5.4-6.38,6.92a9.26,9.26,0,0,1-7.81.44,13,13,0,0,1-6.39-4.92,16.83,16.83,0,0,1-2.55-9.33c0-6.6,3.15-15.33,9.94-16.78a3,3,0,1,0-1.59-5.79Z" fill="#6e8fc9"/>
    <path d="M969.86,707.84c-3.39,13.76-7.35,27.48-9.06,41.57a3,3,0,0,0,3,3,69,69,0,0,0,15.31-2.3,65.12,65.12,0,0,0,7.07-2.36q1.85-.74,3.63-1.56a14,14,0,0,0,3.68-2c2.26-2,1.46-5.15,1-7.77a40.41,40.41,0,0,0-1.85-7.09,38.69,38.69,0,0,0-7.85-12.58c-3.82-4.23-8.17-8-12.33-11.88-2.82-2.63-7.08,1.6-4.24,4.24,3.33,3.12,6.74,6.18,10,9.41a39,39,0,0,1,7.45,9.68,29.56,29.56,0,0,1,2.22,5.9c.27,1,.49,2,.69,3,.09.51.18,1,.26,1.53a6.88,6.88,0,0,0,.19,1.6c.2.43-.08.15.07.14l.45-.73-.32.17a6.46,6.46,0,0,0-1.42.7c-.92.45-1.85.87-2.8,1.26A63.1,63.1,0,0,1,978.6,744a61.4,61.4,0,0,1-14.8,2.39l3,3a165.81,165.81,0,0,1,3.85-19.74q2.51-10.12,5-20.24c.92-3.75-4.86-5.34-5.79-1.59Z" fill="#6e8fc9"/>
  </g>
</svg>
