<svg id="Mask3" xmlns="http://www.w3.org/2000/svg" viewBox="0 0 1801 2046">
  <g>
    <g>
      <g id="_Группа_" data-name="&lt;Группа&gt;">
        <g>
          <path d="M714.63,715.3c3.19,5,.48,14.26,0,19.76-.63,6.82-.59,14.61-4.48,20.55-3.27,5-9,7.34-14.47,9-10.58,3.12-30.31,5.29-37.48-5.76-3.28-5.07-1.93-11.27,0-16.57,3-8.27,6.39-16.4,9.59-24.58a3.41,3.41,0,0,1,.17-.33,1.3,1.3,0,0,1,1-1.15,3.41,3.41,0,0,1,4.26.48,19.61,19.61,0,0,1,9.28,5.15,1.37,1.37,0,0,1,.42,1.23,3.14,3.14,0,0,1,0,5.2c-2.86,1.9-3.19,7.12-2.67,10.29.95,5.77,6.29,4.89,9.75,1.69,3.87-3.58,10.14-16.68,5.45-21.38a3,3,0,0,1,1.05-4.86,2.7,2.7,0,0,1,2-2C704,710.55,711.08,709.68,714.63,715.3Zm-5.26,11.46c.2-2.21,1.4-6.93-.24-8.78s-5-1.27-7.46-.62c2.5,4.89.81,11-1,16.11-2.42,6.71-6.52,13.6-14.07,15.16-14.38,3-16.19-18.8-7-25.36a16.35,16.35,0,0,0-6.28-3.47q-3,7.74-6,15.49c-1.77,4.53-4.12,9.21-4.87,14-1.94,12.44,16.71,12.39,24.94,11,4.61-.76,9.76-2,13.79-4.4,5-3.06,6.24-8.31,6.83-13.78C708.49,737,708.89,731.89,709.37,726.76Z" fill="#040706"/>
          <path d="M709.13,718c1.64,1.85.44,6.57.24,8.78-.48,5.13-.88,10.28-1.43,15.41-.59,5.47-1.78,10.72-6.83,13.78-4,2.45-9.18,3.64-13.79,4.4-8.23,1.37-26.88,1.42-24.94-11,.75-4.83,3.1-9.51,4.87-14q3-7.74,6-15.49a16.35,16.35,0,0,1,6.28,3.47c-9.22,6.56-7.41,28.34,7,25.36,7.55-1.56,11.65-8.45,14.07-15.16,1.86-5.15,3.55-11.22,1-16.11C704.16,716.71,707.45,716.09,709.13,718Z" fill="#f3eb3c"/>
        </g>
      </g>
      <g id="_Группа_2" data-name="&lt;Группа&gt;">
        <g>
          <path d="M1004.55,705.73c.41,3.93,2.14,10.84-.36,14.38-1.3,1.84-3.77,3-5.46,4.47a32.16,32.16,0,0,1-5.41,4.16,11.24,11.24,0,0,1-7.65,1.26c-2.27,5.4-9.58,7.31-14.76,8.23-4.69.83-9.85,1.1-10.2-4.85-.26-4.49.49-9.36.73-13.85.15-2.76-.4-6.14,1.49-8.29,1.44-1.63,4-2.84,5.79-4.07,4.79-3.32,9.59-6.84,14.57-10,3.54-4.34,9.06-7.65,13.26-11,1.63-1.31,4.48-1.09,5,1.32A161,161,0,0,1,1004.55,705.73Zm-8.89,13.57c3-2.48,3.66-2.92,3.42-7.06A115,115,0,0,0,997,695.58c-.61.48-8.17,6.9-10,8-1.83,2.42-1.48,2.74-1.58,6.52-.11,4.42,1.21,9.38,1.24,14C990.14,725.06,993.29,721.29,995.66,719.3Zm-15.15,6.59c.35-2.91-.62-6.12-.87-9-.28-3.16,0-3.9.35-7.3-4,2.76-8.09,6.22-12,9-.15.12-.09,1.26-.11,1.49,0,.48-.13.95-.2,1.43-.18,1.21-.35,2.43-.49,3.65q-.44,3.6-.64,7.23a.83.83,0,0,0,.05.44.61.61,0,0,0,.56.31,6.55,6.55,0,0,0,1.55-.4l1.78-.5C974.16,731.18,979.94,730.7,980.51,725.89Z" fill="#040706"/>
          <path d="M999.08,712.24c.24,4.14-.47,4.58-3.42,7.06-2.37,2-5.52,5.76-9,4.83,0-4.65-1.35-9.61-1.24-14,.1-3.78-.25-4.1,1.58-6.52,1.83-1.1,9.39-7.52,10-8A115,115,0,0,1,999.08,712.24Z" fill="#f3eb3c"/>
          <path d="M979.64,716.88c.25,2.89,1.22,6.1.87,9-.57,4.81-6.35,5.29-10,6.34l-1.78.5a6.55,6.55,0,0,1-1.55.4.61.61,0,0,1-.56-.31.83.83,0,0,1-.05-.44q.21-3.63.64-7.23c.14-1.22.31-2.44.49-3.65.07-.48.15-1,.2-1.43,0-.23,0-1.37.11-1.49,3.91-2.78,8-6.24,12-9C979.62,713,979.36,713.72,979.64,716.88Z" fill="#fff"/>
        </g>
      </g>
    </g>
    <g>
      <path d="M808,591.39c4.73.25,8.32,4,11.06,7.49,3.11,4,5.88,8,10.23,10.77,2.18,1.35,4.52,2.41,6.75,3.68a39.1,39.1,0,0,1,6.26,4.53,84.76,84.76,0,0,1,11.19,11c3.48,4.37,6,10.06,4.67,15.71-.43,1.88,2.47,2.68,2.9.8,2.64-11.58-6.58-20.51-14.32-27.55a66.62,66.62,0,0,0-6.43-5.31,68.17,68.17,0,0,0-7.29-4.16,24.45,24.45,0,0,1-6.45-4.79c-1.83-2-3.36-4.17-5-6.28-3.4-4.39-7.71-8.56-13.57-8.87-1.93-.11-1.92,2.89,0,3Z" fill="#4f4f4f"/>
      <path d="M857.27,581.46a165.64,165.64,0,0,0-16.8,26.06,238.38,238.38,0,0,0-12.36,29.09c-2,5.69-4,11.41-5.85,17.15-.61,1.83,2.29,2.62,2.89.79,6.49-19.63,13.37-39.23,24.37-56.87a161.9,161.9,0,0,1,9.87-14.1c1.18-1.5-.93-3.64-2.12-2.12Z" fill="#4f4f4f"/>
    </g>
  </g>
</svg>
